<svg xmlns="http://www.w3.org/2000/svg" xmlns:xlink="http://www.w3.org/1999/xlink" width="1328" height="921" viewBox="0 0 1328 921">
  <defs>
    <clipPath id="clip-path">
      <rect id="Rect치ngulo_45644" data-name="Rect치ngulo 45644" width="1328" height="921" rx="22" transform="translate(124 2022)" fill="#a6bbff"/>
    </clipPath>
  </defs>
  <g id="Enmascarar_grupo_308" data-name="Enmascarar grupo 308" transform="translate(-124 -2022)" clip-path="url(#clip-path)">
    <rect id="Rect치ngulo_45302" data-name="Rect치ngulo 45302" width="1328" height="921" rx="22" transform="translate(124 2022)" fill="#a6bbff"/>
    <g id="Grupo_175493" data-name="Grupo 175493" transform="translate(-722.602 11629.898)" opacity="0.254">
      <path id="Trazado_178656" data-name="Trazado 178656" d="M1124.182,2255.332c50.505-39.053,91.908-89.736,146.189-123.346,74.556-46.166,165.617-55.543,253.216-59.538s177.468-4.164,259.475-35.221c65.54-24.821,125.945-74.847,150.577-138.594H1765.392c-37.491,58.353-94.111,104.614-160.114,126.221-131.768,43.134-285-6.029-409.141,55.722-87.938,43.743-147.364,137.559-241.514,165.531-68.12,20.237-143.079,1.1-204.068-35.37-26.642-15.933-51.105-34.9-74.275-55.53v136.908C816.186,2364.306,998.853,2352.249,1124.182,2255.332Z" transform="translate(154.361 -11513.78)" fill="#3c3fa7"/>
      <path id="Trazado_178657" data-name="Trazado 178657" d="M1030.536,2284.067c94.15-27.972,153.576-121.788,241.514-165.531,124.139-61.75,277.374-12.589,409.141-55.722,66-21.607,122.623-67.867,160.114-126.22H752.194v256.574c23.169,20.625,47.633,39.6,74.275,55.53C887.457,2285.17,962.416,2304.3,1030.536,2284.067Z" transform="translate(78.447 -11551.741)" fill="#dddeff" opacity="0.614"/>
      <path id="Trazado_182347" data-name="Trazado 182347" d="M17.427,0H1222.573C1232.2,0,1240,10.512,1240,23.48V901.257c0,12.968-7.8,23.48-17.427,23.48H17.427C7.8,924.737,0,914.225,0,901.257V23.48C0,10.512,7.8,0,17.427,0Z" transform="translate(848 -9606.281)" fill="none"/>
    </g>
    <g id="Grupo_175494" data-name="Grupo 175494" transform="translate(-632 11628)" opacity="0.254">
      <path id="Trazado_178656-2" data-name="Trazado 178656" d="M1485.737,1981.761c-50.505,39.053-91.908,89.736-146.189,123.346-74.556,46.166-165.617,55.543-253.216,59.538s-177.468,4.164-259.475,35.221c-65.54,24.821-125.945,74.847-150.577,138.594H844.528c37.491-58.353,94.111-104.614,160.114-126.22,131.768-43.134,285,6.029,409.141-55.722,87.938-43.743,147.364-137.559,241.514-165.531,68.12-20.237,143.079-1.1,204.068,35.37,26.642,15.933,51.105,34.9,74.275,55.53V1944.979C1793.733,1872.788,1611.066,1884.844,1485.737,1981.761Z" transform="translate(154.361 -11020.005)" fill="#3c3fa7"/>
      <path id="Trazado_178657-2" data-name="Trazado 178657" d="M1562.963,1944.816c-94.15,27.972-153.576,121.788-241.514,165.531-124.139,61.75-277.374,12.589-409.141,55.722-66,21.607-122.623,67.867-160.114,126.22H1841.306V2035.715c-23.169-20.625-47.633-39.6-74.275-55.53C1706.043,1943.712,1631.083,1924.579,1562.963,1944.816Z" transform="translate(246.694 -10973.834)" fill="#dddeff" opacity="0.614"/>
    </g>
  </g>
</svg>
