<svg xmlns="http://www.w3.org/2000/svg" xmlns:xlink="http://www.w3.org/1999/xlink" width="190" height="161" viewBox="0 0 190 161">
  <defs>
    <clipPath id="clip-path">
      <rect id="Rectángulo_45674" data-name="Rectángulo 45674" width="190" height="161" rx="14" transform="translate(5085 -6397)" fill="#e1e8ff"/>
    </clipPath>
    <clipPath id="clip-path-2">
      <rect id="Rectángulo_45673" data-name="Rectángulo 45673" width="162.799" height="320.47" fill="none"/>
    </clipPath>
    <clipPath id="clip-path-4">
      <rect id="Rectángulo_45671" data-name="Rectángulo 45671" width="9.132" height="6.779" transform="translate(0)" fill="none"/>
    </clipPath>
  </defs>
  <g id="Enmascarar_grupo_315" data-name="Enmascarar grupo 315" transform="translate(-5085 6397)" clip-path="url(#clip-path)">
    <g id="Grupo_175553" data-name="Grupo 175553" transform="translate(5099 -6388.235)">
      <g id="Grupo_175570" data-name="Grupo 175570" transform="translate(-65.449 -44.451)">
        <path id="Trazado_185816" data-name="Trazado 185816" d="M189.906,100.022c-1.445,24.534-18.6,47.959-41.827,49.412-26.681,2.243-51.171-13.811-77.748-13.981-13.552-1.275-26.262,4.419-39.469,6.257C1.032,142.912-3.513,104.452,2.05,79.661,25.512-37.21,191.53-21.309,189.906,100.022Z" transform="matrix(-0.914, 0.407, -0.407, -0.914, 396.898, 191.438)" fill="#c4d1ff"/>
        <path id="Trazado_185819" data-name="Trazado 185819" d="M189.906,100.022c-1.445,24.534-18.6,47.959-41.827,49.412-26.681,2.243-51.171-13.811-77.748-13.981-13.552-1.275-26.262,4.419-39.469,6.257C1.032,142.912-3.513,104.452,2.05,79.661,25.512-37.21,191.53-21.309,189.906,100.022Z" transform="matrix(0.07, -0.998, 0.998, 0.07, 0, 258.246)" fill="#c4d1ff"/>
        <path id="Trazado_185818" data-name="Trazado 185818" d="M.014,122.957c1.718,30.16,22.113,58.956,49.735,60.742,31.725,2.757,60.845-16.978,92.447-17.187,16.114-1.567,31.227,5.432,46.931,7.692C224.6,175.681,230,128.4,223.384,97.927,195.487-45.742-1.918-26.195.014,122.957Z" transform="matrix(0.995, -0.105, 0.105, 0.995, 71.176, 10.293)" fill="#a6bbff" opacity="0.388" style="mix-blend-mode: multiply;isolation: isolate"/>
      </g>
      <g id="Grupo_175552" data-name="Grupo 175552" clip-path="url(#clip-path-2)">
        <g id="Grupo_175551" data-name="Grupo 175551">
          <g id="Grupo_175550" data-name="Grupo 175550" clip-path="url(#clip-path-2)">
            <path id="Trazado_185681" data-name="Trazado 185681" d="M121.509,51.014c-6.3-.591-13.4,2.305-18.857,5.5,2.46,4.052,8.562,4.946,12.879,2.99Z" transform="translate(-61.362 0)" fill="#873d15"/>
            <path id="Trazado_185682" data-name="Trazado 185682" d="M102.767,14.1c-.253.077.123-.287.321-.058a10.086,10.086,0,0,1,2.45,7.527,1.81,1.81,0,0,1,.045-1.825c3.116.339,5.6,4.713,4.207,7.4,1.091-.249,2.212,1.193,2.18,2.392a4.812,4.812,0,0,1-1.519,2.948c1.473.3,2.323,2.359,1.873,3.749a4.756,4.756,0,0,1-3.056,2.7,4.831,4.831,0,0,1-5.154,5.085,1.767,1.767,0,0,1-2.6,1.539c-1.176-.619-1.62-2.469-.8-3.325.883.218.651,1.821-.22,1.862s-1.657-.816-2.163-1.647a10,10,0,0,1-.464-9.921,3.09,3.09,0,0,0,.577-1.388A4.3,4.3,0,0,0,97.5,28.9c-2.643-4.286-1.344-10.22,2.632-12.011Z" transform="translate(-45.766 0)"/>
            <path id="Trazado_185683" data-name="Trazado 185683" d="M100.044,44.979c.336,3.993.986,8.541,4.325,10.755,3.436,2.28,11.545.144,11.545.144.733,2.09,2.75,7.469,4.35,11.341a4.575,4.575,0,0,0,5.635,2.61,24.959,24.959,0,0,0,8.146-4.458,2.012,2.012,0,0,0,.8-1.063,2.09,2.09,0,0,0-.364-1.351q-4.234-7.853-9.09-15.349a1.455,1.455,0,0,1-.171-.347c-.279-.871.459-1.239,1.077-1.506,2.382-1.03,4.755-2.637,5.57-5.1s-.793-5.751-3.389-5.753c-.726,0-1.588.2-1.92-.719a1.617,1.617,0,0,1-.084-.4L124.659,14.64a91.736,91.736,0,0,0-21.869,2.453,5.215,5.215,0,0,0-2.2,1.057c-.469.4-1.671.729-1.8,1.263-.618,2.529.727,19.312,1.254,25.566" transform="translate(-70.698 0)" fill="#cd8451"/>
            <path id="Trazado_185684" data-name="Trazado 185684" d="M129.738,39.11a2.314,2.314,0,0,1,.1-.224s.069-.129.032-.065c.016-.027.035-.054.052-.081a2.259,2.259,0,0,1,.168-.209c.028-.03.056-.06.085-.087-.048.045.016-.011.036-.027a2.026,2.026,0,0,1,.2-.145c.034-.022.068-.043.1-.063-.066.037.027-.012.04-.018a1.828,1.828,0,0,1,.249-.1c.031-.009.062-.019.092-.026-.071.017.069-.01.071-.01.076-.011.153-.015.23-.019s-.006,0,.042,0,.075.005.115.01c.076.01.151.026.227.042.138.029-.037-.015.039.01.037.012.073.025.109.039.07.028.139.063.208.1.125.06-.059-.047.055.03.031.022.063.043.094.066a2.225,2.225,0,0,1,.176.148c.022.022.069.075.024.023.03.035.058.07.086.107a.472.472,0,0,0,.765-.553,2.471,2.471,0,0,0-2.263-.938,2.524,2.524,0,0,0-1.989,1.609.482.482,0,0,0,.241.621.474.474,0,0,0,.621-.241" transform="translate(-99.261 0)"/>
            <path id="Trazado_185685" data-name="Trazado 185685" d="M116.852,37.509a2.266,2.266,0,0,1,.094-.224s.07-.129.032-.064c.016-.027.035-.054.053-.082a1.958,1.958,0,0,1,.168-.208c.027-.03.055-.06.084-.087-.048.045.016-.011.036-.028a1.974,1.974,0,0,1,.2-.144c.034-.022.068-.043.1-.063-.066.036.027-.013.04-.018a1.83,1.83,0,0,1,.249-.1c.031-.009.062-.02.093-.026-.072.017.069-.011.07-.011.076-.01.153-.014.23-.018s0,0,.042,0,.076.005.115.011c.076.01.151.026.227.041.138.03-.037-.014.039.011a1.09,1.09,0,0,1,.109.039c.071.028.14.062.209.1.124.06-.06-.047.054.03.031.022.063.043.094.066a2.05,2.05,0,0,1,.175.146c.024.024.07.077.025.025.03.035.059.07.087.107a.472.472,0,0,0,.764-.554,2.472,2.472,0,0,0-2.263-.937,2.525,2.525,0,0,0-1.989,1.609.484.484,0,0,0,.241.621.475.475,0,0,0,.622-.242" transform="translate(-73.487 0)"/>
            <path id="Trazado_185686" data-name="Trazado 185686" d="M121.908,50.656a2.485,2.485,0,0,0,3.029-1.594,7.167,7.167,0,0,0,.08-3.771,6.283,6.283,0,0,1-4.7,3.4Z" transform="translate(-82.752 0)" fill="#fff"/>
            <path id="Trazado_185687" data-name="Trazado 185687" d="M121.726,51.087a2.69,2.69,0,0,0,2.877-.7,4.163,4.163,0,0,0,1.1-3.134,13.515,13.515,0,0,0-.212-2.006.475.475,0,0,0-.9-.144,5.81,5.81,0,0,1-4.312,3.119.477.477,0,0,0-.336.746q.795.982,1.588,1.966a.483.483,0,0,0,.659.1.476.476,0,0,0,.1-.658l-1.588-1.966-.336.746a6.8,6.8,0,0,0,5.083-3.678l-.9-.144a8.165,8.165,0,0,1,.1,3.067,2.885,2.885,0,0,1-.215.627,1.934,1.934,0,0,1-.121.223,3.168,3.168,0,0,1-.195.265,2.908,2.908,0,0,1-.206.224c-.04.039-.008.007,0,0l-.057.05c-.045.038-.09.075-.137.111a3.083,3.083,0,0,1-.269.181l-.064.037c.01-.005.052-.027,0,0s-.1.049-.156.07a1.42,1.42,0,0,1-1.134.034.472.472,0,0,0-.38.863" transform="translate(-82.76 0)" fill="#7f4e33"/>
            <path id="Trazado_185688" data-name="Trazado 185688" d="M117,29.6a.4.4,0,0,0,.03.69,1.287,1.287,0,0,0,.538.15,3.143,3.143,0,0,0,1.153-.236l3.146-1.069a.5.5,0,0,0-.363-.194,7.792,7.792,0,0,0-3.62.166A1.688,1.688,0,0,0,117,29.6" transform="translate(-75.877 0)"/>
            <path id="Trazado_185689" data-name="Trazado 185689" d="M133.011,30.527a.4.4,0,0,1,.449.526,1.273,1.273,0,0,1-.292.476,3.125,3.125,0,0,1-1,.615l-3.03,1.363a.489.489,0,0,1,.133-.389,7.777,7.777,0,0,1,2.76-2.347,1.7,1.7,0,0,1,.983-.244" transform="translate(-99.809 0)"/>
            <path id="Trazado_185690" data-name="Trazado 185690" d="M128.432,16.734a.475.475,0,0,0,.515.423c2.571-.488-.541-.692-.515-.423" transform="translate(-95.598 0)" fill="#d18015"/>
            <path id="Trazado_185691" data-name="Trazado 185691" d="M104.316,43.282a15.812,15.812,0,0,1,4.016-3.576.477.477,0,0,0,.105-.659.482.482,0,0,0-.659-.1,16.639,16.639,0,0,0-4.2,3.751.472.472,0,0,0,.736.589" transform="translate(-49.201 0)" fill="#7f4e33"/>
            <path id="Trazado_185692" data-name="Trazado 185692" d="M104.565,41.513l1.085.4a.494.494,0,0,0,.355.01.481.481,0,0,0,.266-.251.473.473,0,0,0-.241-.622l-1.085-.4a.5.5,0,0,0-.355-.01.473.473,0,0,0-.277.607.471.471,0,0,0,.252.266" transform="translate(-47.796 0)" fill="#7f4e33"/>
            <path id="Trazado_185693" data-name="Trazado 185693" d="M125.754,34.378a11.8,11.8,0,0,0-2.81,8.31,11.329,11.329,0,0,0,.428,2.511.476.476,0,0,0,.607.276q1.7-.668,3.465-1.174a.475.475,0,0,0,.276-.607.48.48,0,0,0-.606-.276q-1.759.506-3.466,1.174l.607.276a10.852,10.852,0,0,1,.921-8.01,10.278,10.278,0,0,1,1.314-1.891.471.471,0,1,0-.736-.589" transform="translate(-87.876 0)" fill="#7f4e33"/>
            <path id="Trazado_185694" data-name="Trazado 185694" d="M133.652,34.479a2.913,2.913,0,0,1-2.587-5.21c-2.687-.913-3.418-5.106-1.2-6.874-2.661-.53-3.846-4.443-1.926-6.359a3.913,3.913,0,0,1-5.455.9c-.929,2.169-4.637,2.2-5.6.04a2.681,2.681,0,0,1-4.138,1.722A3.483,3.483,0,0,1,109,21.9q-.678,1.608-1.358,3.216a5.2,5.2,0,0,1-1.286,2.063,1.784,1.784,0,0,1-2.246.149c-.612-.544-.333-1.821.484-1.855a3.733,3.733,0,0,1,.428-6.977,3.609,3.609,0,0,1,.215-5.7,4.239,4.239,0,0,1-1.21-5.1,4.241,4.241,0,0,1,4.785-2.137,3.332,3.332,0,0,1,6.434-.835,3.818,3.818,0,0,1,6.138.654,2.98,2.98,0,0,1,5.777.973c.312-.952,1.776-1,2.5-.309a4.513,4.513,0,0,1,1.023,2.761A2.541,2.541,0,0,1,134,9.945a7.384,7.384,0,0,1,.683,3.794c.573-.992,2.256-.218,2.511.9s-.254,2.254-.336,3.4c-.107,1.482.505,2.911.742,4.377s-.067,3.243-1.385,3.927a2.652,2.652,0,0,1-.568,4.168,1.876,1.876,0,1,1-2.791,2.477Z" transform="translate(-77.258 0)"/>
            <path id="Trazado_185695" data-name="Trazado 185695" d="M101.108,46.783a2.5,2.5,0,1,0,4.254,2.469,1.661,1.661,0,0,0,2.846-1.545c.312.282.856,0,.976-.406a1.9,1.9,0,0,0-.2-1.221l-1.735-4.291a16.359,16.359,0,0,1-6.776,4.417Z" transform="translate(-46.902 0)"/>
            <path id="Trazado_185696" data-name="Trazado 185696" d="M100.313,244.143c7.386.157,20.063,1.223,28.128,2.043s17.651-3.829,25.756-3.628c-1.689-13.94-1.5-28.032-1.3-42.073q.177-12.755.354-25.509c.11-7.962.221-15.937,1.054-23.855,1.35-12.829,4.4-26.7-1.894-37.96-5.824-10.423-25.035-18.855-36.225-23.018Z" transform="translate(-93.752 0)"/>
            <path id="Trazado_185697" data-name="Trazado 185697" d="M118.346,152.816l-8.789,30.869c-1.159,4.071-2.327,8.2-2.348,12.437a46.646,46.646,0,0,0,1.492,10.283c4.129,18.594,9.5,73.631,9.458,73.566,3.6,1.751,18.166-.431,22.155-.779,8.923-40.325-7.012-72.951-6.6-74.178,4.274-12.652,12.854-28.519,17.129-41.171-6.611-6.029-21.67-7.845-29.54-12.1Z" transform="translate(-95.255 0)" fill="#6a9899"/>
            <path id="Trazado_185698" data-name="Trazado 185698" d="M98.9,128.359q-6.6,12.293-11.951,25.2a6.372,6.372,0,0,0-.7,3.061,5.645,5.645,0,0,0,1.775,3.116c5.418,5.671,13.343,8.034,20.888,10.175,10.185,2.89,20.77,5.807,31.223,4.128,2.18-3.568,1.181-8.141.114-12.183q-3.25-12.324-6.5-24.648a4.588,4.588,0,0,0-.8-1.853,4.5,4.5,0,0,0-1.72-1.084c-10.9-4.7-19.217-7.349-31.018-8.614Z" transform="translate(-64.862 0)" fill="#6a9899"/>
            <path id="Trazado_185699" data-name="Trazado 185699" d="M130.182,61.535c-7.695-3.759-16.786-2.462-25.238-1.079-2.5.409-5.132.874-7.088,2.486a13.707,13.707,0,0,0-3.244,4.642c-4.607,9.226-4.451,57.5.418,62.864,1.466,1.618,27.888,6.287,37.11,5.4Z" transform="translate(-60.605 0)" fill="#56480d"/>
            <path id="Trazado_185700" data-name="Trazado 185700" d="M105.323,157.58q-2.752,20.8-4.266,41.731a61.728,61.728,0,0,0,.016,12.985c.523,3.743,1.7,7.364,2.424,11.074,1.757,8.993.831,18.279-.442,27.353-1.354,9.65-.138,25.237-2.258,34.748l-22.471,5.814,1.649-105.207Z" transform="translate(-20.85 0)" fill="#6a9899"/>
            <path id="Trazado_185701" data-name="Trazado 185701" d="M162.11,67.117a557.784,557.784,0,0,0-17.223,106.215c-1.485,23.152-1.536,46.491-5.7,69.314a2.6,2.6,0,0,1-.73,1.637,2.545,2.545,0,0,1-1.334.42,54.226,54.226,0,0,1-12.656-.054,594.074,594.074,0,0,0,7.738-98.444c-.031-6.407-.165-12.825.342-19.212,1.086-13.681,5.091-26.954,9.549-39.934,1.95-5.678,4.047-11.427,7.7-16.188s6.991-8.468,12.994-8.518Z" transform="translate(-124.47 0)" fill="#9a8728"/>
            <path id="Trazado_185702" data-name="Trazado 185702" d="M90.2,59.986c-6.8,6.636-24.866,139.741-30.994,188.464a3.5,3.5,0,0,0,.245,2.341,3.409,3.409,0,0,0,1.732,1.149,83.173,83.173,0,0,0,45.708,4.213,4.381,4.381,0,0,0,2.628-1.177,4.5,4.5,0,0,0,.733-2.831l2.706-89.585a27.475,27.475,0,0,1,.784-6.847c1.066-3.687,3.6-6.733,5.57-10.028,8.349-13.972,6.2-31.686,2.39-47.511-1.868-7.76-12.716-38.611-31.5-38.188" transform="translate(-21.402 0)" fill="#9a8728"/>
            <path id="Trazado_185703" data-name="Trazado 185703" d="M86.026,197.722c-1.561.791-5.123.3-5.123.3-1.293-1.7-.685-5.789-2.422-7.036a5.643,5.643,0,0,0-3.186-.732,18.253,18.253,0,0,0-5.058.33,6.153,6.153,0,0,0-4.009,2.884c-.527,1.013-.663,2.2-1.23,3.191a1.688,1.688,0,0,1-.672.71,2.037,2.037,0,0,1-1.15.089,24.146,24.146,0,0,1-3.754-.776,42.314,42.314,0,0,1,3.664-6.83,7.609,7.609,0,0,1,2.543-2.661,8.369,8.369,0,0,1,4.294-.607l6.167.218c2.285.081,4.868.3,6.3,2.084,1.529,1.9,3.633,8.837,3.633,8.837" transform="translate(17.351 0)" fill="#564915"/>
            <path id="Trazado_185704" data-name="Trazado 185704" d="M66.69,145.7c.772,2.52,4.268,14.219,2.99,19.138-1.778,6.849-8.593,15.6-7.441,19.088a1.413,1.413,0,0,0,.416.7c.7.547,1.628-.319,2.032-1.109a16.866,16.866,0,0,0,1.256-3.248c0,2.413.792,10.408.79,12.821a2.179,2.179,0,0,0,.241,1.227,1.5,1.5,0,0,0,2.092.152A4.35,4.35,0,0,0,70.3,192.5a2.037,2.037,0,1,0,3.859.886,2.276,2.276,0,1,0,4.283-.122,2.587,2.587,0,0,0,3.093,1.68c.464-3.693-.855-31.567-.887-35.288-.076-8.8,2.268-8.541,2.193-17.344Z" transform="translate(17.851 0)" fill="#cd8451"/>
            <path id="Trazado_185705" data-name="Trazado 185705" d="M65.972,187.887a29.038,29.038,0,0,1-.29,6.493c-.059.379-.636.218-.577-.159a28.388,28.388,0,0,0,.269-6.334c-.026-.384.572-.383.6,0" transform="translate(31.658 0)" fill="#7f4e33"/>
            <path id="Trazado_185706" data-name="Trazado 185706" d="M70.577,187.887a27.165,27.165,0,0,1-.315,6.488c-.065.379-.641.218-.577-.159a26.51,26.51,0,0,0,.294-6.329c-.028-.384.57-.382.6,0" transform="translate(22.472 0)" fill="#7f4e33"/>
            <path id="Trazado_185707" data-name="Trazado 185707" d="M75.173,187.262l-.768,6.126c-.047.377-.646.382-.6,0l.768-6.126c.047-.377.646-.382.6,0" transform="translate(13.819 0)" fill="#7f4e33"/>
            <path id="Trazado_185708" data-name="Trazado 185708" d="M76.378,188.117a34.675,34.675,0,0,1-9.56-.481q-1.356-.258-2.688-.626a.3.3,0,0,1,.159-.577,34.235,34.235,0,0,0,12.089,1.086c.383-.034.381.564,0,.6" transform="translate(22.216 0)" fill="#7f4e33"/>
            <path id="Trazado_185709" data-name="Trazado 185709" d="M75.459,77.676A153.362,153.362,0,0,1,85.281,165.1a3.113,3.113,0,0,1-.727,1.758,3.058,3.058,0,0,1-1.506.638,59.883,59.883,0,0,1-23.256.428,313.126,313.126,0,0,1,3.654-38.748Z" transform="translate(15.268 0)" fill="#9a8728"/>
            <path id="Trazado_185710" data-name="Trazado 185710" d="M94.03,197.133q-1.591,4.448-2.995,8.959-1.389,4.473-2.589,9-.683,2.579-1.3,5.171c-.141.59-1.051.341-.91-.25q1.1-4.595,2.393-9.138,1.282-4.506,2.756-8.955.838-2.53,1.738-5.042a.484.484,0,0,1,.58-.329.476.476,0,0,1,.329.58" transform="translate(-17.472 0)" fill="#af805d"/>
            <path id="Trazado_185711" data-name="Trazado 185711" d="M100.637,60.519A123.642,123.642,0,0,1,104.3,74.19q.351,1.695.654,3.4a5.864,5.864,0,0,1,.11,3.15,2.647,2.647,0,0,1-2.189,1.479c-1.122.187-2.268.265-3.4.388L91.3,83.5l.454-.6a93.226,93.226,0,0,1,4.031,17.758q.572,4.517.695,9.077c.037,1.343.143,2.849-.684,4A4.331,4.331,0,0,1,93.1,115.36a10.3,10.3,0,0,1-3.958-.108,9.407,9.407,0,0,0-4.8-.1c-.574.2-.82-.709-.251-.909,2.612-.918,5.219.462,7.859.317a4.351,4.351,0,0,0,2.7-.942c.939-.858.929-2.137.9-3.318a91.737,91.737,0,0,0-2.075-17.577,92.753,92.753,0,0,0-2.631-9.576.478.478,0,0,1,.455-.6l6.938-.757,3.5-.381c.735-.081,1.769-.093,2.28-.721.576-.707.2-1.907.056-2.7q-.3-1.679-.639-3.348-.675-3.288-1.528-6.536-.974-3.7-2.175-7.34c-.191-.578.72-.825.909-.251" transform="translate(-26.218 0)" fill="#564915"/>
            <path id="Trazado_185712" data-name="Trazado 185712" d="M145.214,62.923l-5.2,5.232c-1.7,1.712-3.431,3.4-5.1,5.142-1.21,1.262-2.48,2.89-1.892,4.7.435,1.333,1.6,2.386,2.462,3.484.966,1.224,1.735,2.689,1.173,4.272a10.125,10.125,0,0,1-1.737,2.682q-1.065,1.381-2.1,2.791-2.073,2.835-4,5.772a17.525,17.525,0,0,0-2.943,5.905,5.122,5.122,0,0,0,1.491,4.909,12.7,12.7,0,0,0,4.319,2.549c.406.161.815.313,1.225.462a.484.484,0,0,1,.33.58.476.476,0,0,1-.58.329c-3.235-1.171-7.247-2.9-7.786-6.766-.314-2.25.664-4.431,1.783-6.323,1.2-2.025,2.558-3.968,3.912-5.89,1.381-1.96,2.841-3.856,4.286-5.768a4,4,0,0,0,1.05-2.472,3.58,3.58,0,0,0-.689-1.811c-.829-1.246-2.018-2.257-2.736-3.6a4.247,4.247,0,0,1-.55-2.385,5.486,5.486,0,0,1,1.17-2.757,23.679,23.679,0,0,1,2.211-2.411l2.666-2.685,5.264-5.3,1.3-1.308a.472.472,0,0,1,.667.667" transform="translate(-107.374 0)" fill="#564915"/>
            <path id="Trazado_185713" data-name="Trazado 185713" d="M64.229,90.41q.61,9.492,1.044,18.994t.688,19.01q.255,9.507.333,19.019.039,4.755.032,9.512,0,2.358-.015,4.716-.007,1.2-.017,2.4c-.006.749-.054,1.509-.01,2.256A1.178,1.178,0,0,0,67.3,167.5c.7.2,1.418.337,2.132.469a33.1,33.1,0,0,0,4.385.512,33.9,33.9,0,0,0,8.907-.724c.705-.153,1.4-.331,2.1-.528a.472.472,0,0,1,.251.909,34.431,34.431,0,0,1-17.909.3,2.375,2.375,0,0,1-1.508-.938,3.309,3.309,0,0,1-.321-1.819q.022-2.436.036-4.871.024-4.872,0-9.743-.045-9.7-.275-19.407-.229-9.741-.647-19.476-.416-9.7-1.016-19.383-.072-1.2-.15-2.392c-.039-.606.9-.6.942,0" transform="translate(14.105 0)" fill="#564915"/>
            <path id="Trazado_185714" data-name="Trazado 185714" d="M145.035,128.322l-4.328-.984a.472.472,0,1,1,.25-.91l4.329.985a.472.472,0,0,1-.251.909" transform="translate(-123.193 0)" fill="#564915"/>
            <path id="Trazado_185715" data-name="Trazado 185715" d="M145.407,151.024a3.84,3.84,0,0,0-2.959.031.475.475,0,0,1-.58-.329.482.482,0,0,1,.329-.58,4.765,4.765,0,0,1,3.686.064.475.475,0,0,1,.169.645.485.485,0,0,1-.645.169" transform="translate(-125.163 0)" fill="#564915"/>
            <path id="Trazado_185716" data-name="Trazado 185716" d="M119.924,126.468q-2.212,22.9-4.933,45.756-2.7,22.682-5.9,45.3-1.815,12.824-3.789,25.623c-.092.6-1,.344-.909-.251q3.5-22.679,6.494-45.432,2.987-22.7,5.47-45.461,1.392-12.761,2.626-25.536c.058-.6,1-.605.943,0" transform="translate(-61.512 0)" fill="#564915"/>
            <path id="Trazado_185717" data-name="Trazado 185717" d="M61.371,110.592a11.04,11.04,0,0,0-5.645.784.245.245,0,0,1-.323-.085.237.237,0,0,1,.085-.322,11.479,11.479,0,0,1,5.883-.848c.3.036.3.508,0,.471" transform="translate(45.831 0)" fill="#af805d"/>
            <path id="Trazado_185718" data-name="Trazado 185718" d="M60.271,114.136a3.366,3.366,0,0,0-2.715-.9.237.237,0,0,1-.235-.236.241.241,0,0,1,.235-.235A3.814,3.814,0,0,1,60.6,113.8c.22.21-.114.543-.333.333" transform="translate(44.802 0)" fill="#af805d"/>
            <path id="Trazado_185719" data-name="Trazado 185719" d="M145.929,86.27a11.711,11.711,0,0,0-4.6-3c-.284-.1-.162-.556.125-.454a12.2,12.2,0,0,1,4.812,3.12c.209.22-.124.554-.333.333" transform="translate(-124.693 0)" fill="#af805d"/>
            <path id="Trazado_185720" data-name="Trazado 185720" d="M148.9,87.643l-4.339-1.913c-.277-.122-.037-.529.238-.407l4.339,1.913c.277.122.037.528-.238.407" transform="translate(-130.896 0)" fill="#af805d"/>
            <path id="Trazado_185721" data-name="Trazado 185721" d="M70.394,157.921l-10.914-.578a5.485,5.485,0,0,0-.957,3.681l11.8.611q.056-1.678.112-3.357Z" transform="translate(33.869 0)" fill="#564915"/>
            <path id="Trazado_185722" data-name="Trazado 185722" d="M122.956,63.419q-2.226-6.231-4.453-12.461a15.792,15.792,0,0,1-18.831,5.418L98.28,83.982c-.091,1.816.1,4.1,1.79,4.761a3.509,3.509,0,0,0,1.924.073c5.194-.98,8.223-6.277,10.555-11.021Z" transform="translate(-58.418 0)" fill="#56480d"/>
            <path id="Trazado_185723" data-name="Trazado 185723" d="M122.32,108.787a101.445,101.445,0,0,0-10.61-8.575q-1.573-1.105-3.188-2.15c-.253-.165-.017-.573.238-.407a102.276,102.276,0,0,1,11.023,8.24q1.459,1.253,2.87,2.559c.223.206-.111.539-.333.333" transform="translate(-68.341 0)"/>
            <path id="Trazado_185724" data-name="Trazado 185724" d="M119.564,108.9l-6.654-4.462c-.251-.168-.015-.576.238-.407l6.654,4.462c.251.168.015.577-.238.407" transform="translate(-69.913 0)"/>
            <path id="Trazado_185725" data-name="Trazado 185725" d="M116.489,60.534A15.089,15.089,0,0,1,111,63.43a15.654,15.654,0,0,1-6.194.511,14.71,14.71,0,0,1-3.416-.825c-.281-.106-.159-.561.125-.454a15.067,15.067,0,0,0,11.792-.622,14.268,14.268,0,0,0,2.849-1.839c.231-.193.566.139.332.333" transform="translate(-55.001 0)"/>
            <path id="Trazado_185726" data-name="Trazado 185726" d="M109.456,200.07c1.381,2.919,1.437,6.346,1.464,9.634l.216,26.739c.044,5.4-.517,11.94-4.938,14.318-1.954,1.051-4.235.978-6.409.852a242.272,242.272,0,0,1-49.079-7.972,13.351,13.351,0,0,1-4.607-1.912c-2.335-1.728-3.562-4.846-3.841-7.92a34.676,34.676,0,0,1,.808-9.189q2.019-11.294,4.039-22.587a13.529,13.529,0,0,1,1.938-5.722c2.973-4.028,8.7-2.694,13.333-1.668,6.407,1.419,12.99,1.5,19.526,1.571l21.166.238a7.792,7.792,0,0,1,6.384,3.618" transform="translate(9.474 0)" fill="#564915"/>
            <path id="Trazado_185727" data-name="Trazado 185727" d="M102.6,199.942c-3.455,3.419-4.283,8.487-6.3,12.731a13.642,13.642,0,0,1-4.324,5.462,17.152,17.152,0,0,1-7.6,2.634,77.319,77.319,0,0,1-9.352.589q-5.025.079-10.043-.295c-3.262-.243-6.53-.6-9.753-1.162a15.459,15.459,0,0,1-3.973-1.143,7.649,7.649,0,0,1-2.981-2.464c-1.505-2.1-1.942-4.769-2.277-7.269-.444-3.315-.859-6.634-1.288-9.951q-.164-1.257-.326-2.514c-.038-.3.433-.3.472,0q.643,4.971,1.286,9.943c.346,2.673.541,5.511,1.658,8a7.639,7.639,0,0,0,2.309,3.02,9.9,9.9,0,0,0,3.67,1.6,44.017,44.017,0,0,0,4.433.754q2.445.335,4.9.558a106.005,106.005,0,0,0,19.441.07,21.246,21.246,0,0,0,7.8-1.939,11.991,11.991,0,0,0,5.008-5.073c2.224-4.075,2.934-8.913,5.813-12.641a12.366,12.366,0,0,1,1.1-1.245.236.236,0,0,1,.333.333" transform="translate(15.744 0)" fill="#af805d"/>
            <path id="Trazado_185728" data-name="Trazado 185728" d="M129.218,161.971A103.314,103.314,0,0,0,121,181.112a131.187,131.187,0,0,0-4.627,20.258,174.162,174.162,0,0,0-1.788,21.579c-.187,7.74.045,15.485.5,23.212.45,7.7,1.121,15.391,1.815,23.075q.129,1.419.256,2.839c.028.3-.444.3-.471,0-.7-7.757-1.406-15.515-1.909-23.287-.5-7.726-.8-15.469-.708-23.211a182.187,182.187,0,0,1,1.51-21.922,135.418,135.418,0,0,1,4.278-20.412,106.057,106.057,0,0,1,7.734-19.261q.6-1.132,1.22-2.249a.236.236,0,0,1,.407.238" transform="translate(-80.503 0)" fill="#3e6060"/>
            <path id="Trazado_185729" data-name="Trazado 185729" d="M135.3,133.541a23.23,23.23,0,0,1-11.117,7.638c-.29.092-.414-.363-.125-.455a22.8,22.8,0,0,0,10.909-7.516c.189-.237.52.1.333.333" transform="translate(-96.454 0)" fill="#3e6060"/>
            <path id="Trazado_185730" data-name="Trazado 185730" d="M54.594,243.242c7.437.158,20.2,1.232,28.326,2.057s17.773-3.856,25.936-3.653c-1.7-14.038-1.508-28.228-1.312-42.367q.178-12.845.356-25.689c.111-8.017.223-16.048,1.062-24.022,1.36-12.919,4.43-26.886-1.908-38.226-5.864-10.5-25.209-18.986-36.477-23.178Z" transform="translate(-2.706 0)" fill="#564915"/>
            <path id="Trazado_185731" data-name="Trazado 185731" d="M93.025,59.355c-7.749-3.785-16.9-2.478-25.415-1.086-2.519.412-5.168.881-7.137,2.5a13.787,13.787,0,0,0-3.267,4.674,126.788,126.788,0,0,0-10.367,29.3c-1.139,5.17-1.951,10.566-.795,15.732,1.594,7.122,6.679,12.869,11.582,18.277a15.915,15.915,0,0,0,5.026,4.2,15,15,0,0,0,4.411.99A133.475,133.475,0,0,0,95,134.189Z" transform="translate(22.32 0)" fill="#c8682c"/>
            <path id="Trazado_185732" data-name="Trazado 185732" d="M80.524,168.554q-4.053,14.233-8.1,28.467c-1.069,3.755-2.146,7.566-2.165,11.47a43.026,43.026,0,0,0,1.375,9.483C75.437,235.122,86.9,285.157,86.858,285.1c3.322,1.614,10.246.321,13.925,0,8.229-37.188-9.608-67.1-9.226-68.234l11.826-35a101.711,101.711,0,0,0-20.13-14.3Z" transform="translate(-10.838 0)" fill="#fbd1b9"/>
            <path id="Trazado_185733" data-name="Trazado 185733" d="M57.979,156.074q-2.772,20.942-4.3,42.024a62.178,62.178,0,0,0,.016,13.075c.527,3.77,1.711,7.416,2.441,11.152,1.77,9.055.837,18.407-.445,27.545-1.363,9.717-4.174,27.549-6.309,37.127L36.41,292.061,32.454,184.772Z" transform="translate(72.366 0)" fill="#fbd1b9"/>
            <path id="Trazado_185734" data-name="Trazado 185734" d="M116.825,64.977A561.682,561.682,0,0,0,99.482,171.936c-1.5,23.314-1.547,46.816-5.737,69.8a2.614,2.614,0,0,1-.734,1.648,2.555,2.555,0,0,1-1.344.422,54.549,54.549,0,0,1-12.745-.054,598.154,598.154,0,0,0,7.792-99.134c-.031-6.451-.166-12.914.345-19.345,1.094-13.777,5.127-27.144,9.616-40.215,1.964-5.717,4.075-11.506,7.757-16.3s7.04-8.527,13.086-8.577Z" transform="translate(-33.641 0)" fill="#af805d"/>
            <path id="Trazado_185735" data-name="Trazado 185735" d="M104.86,280.3l-15.982.6c.183,2.569-.611,7.59-3.136,17.017-.172.644-18.1,5.792-16.851,10.823.4,1.627,2.119,2.222,3.787,2.045,3.933-.419,18.256-1.655,20.5-1.707a2.572,2.572,0,0,0,1.358-.284c1.289-.832.738-3.563,2.265-3.722a4.222,4.222,0,0,1,1.1,3.474c4.436.371,10.4-.177,10.278-.8a123.116,123.116,0,0,1-2.135-27.875Z" transform="translate(-14.209 0)" fill="#564915"/>
            <path id="Trazado_185736" data-name="Trazado 185736" d="M70.529,307.885c-2.576,1.183-3.164,2.487-5.988,2.728A3.172,3.172,0,0,0,64.26,309a1.084,1.084,0,0,0-2.068.352,7.232,7.232,0,0,1-1.334,3.538,14.415,14.415,0,0,1-5.038,3.789,31.693,31.693,0,0,1-8.166,3.483,10.68,10.68,0,0,1-8.533-1.382,2.121,2.121,0,0,1-.875-1.064,2.358,2.358,0,0,1,.738-1.994c3.745-4.554,9.895-9.217,12.556-14.478,2.189-4.33,1.452-7.912,2.367-12.677.076-.392,11.282-3.756,15.327-6.5Z" transform="translate(54.071 0)" fill="#564915"/>
            <path id="Trazado_185737" data-name="Trazado 185737" d="M94.308,131.216c-13.455-.479-41.986-.941-42.419-.326-13.344,18.961-22.9,58.057-22.945,63.456-.159,17.406,1.266,33.547,7.279,49.688,8.627,2.315,18.8.806,27.735,1a230.563,230.563,0,0,1-1.319-27.793,118.53,118.53,0,0,1,4.515,27.546c10.7,6.049,23.959,5.786,35.847,2.682q-.543-9.74-1.085-19.479c-.274-4.913-.548-9.828-.573-14.748-.07-13.8,1.818-27.554,1.974-41.357s-1.559-28.034-8.269-40.1Z" transform="translate(30.54 0)" fill="#6a9899"/>
            <path id="Trazado_185738" data-name="Trazado 185738" d="M44.415,57.8C37.571,64.477,19.374,198.514,13.2,247.579a3.526,3.526,0,0,0,.247,2.357,3.427,3.427,0,0,0,1.743,1.158,83.759,83.759,0,0,0,46.029,4.242,4.411,4.411,0,0,0,2.646-1.185,4.526,4.526,0,0,0,.738-2.851q1.362-45.107,2.725-90.213a27.718,27.718,0,0,1,.789-6.9c1.075-3.712,3.627-6.78,5.61-10.1,8.407-14.071,6.244-31.909,2.407-47.844-1.882-7.815-12.8-38.883-31.723-38.456" transform="translate(70.151 0)" fill="#af805d"/>
            <path id="Trazado_185739" data-name="Trazado 185739" d="M40.208,196.5c-1.572.8-5.159.3-5.159.3-1.3-1.715-.689-5.829-2.439-7.085a5.676,5.676,0,0,0-3.208-.737,18.359,18.359,0,0,0-5.094.332,6.194,6.194,0,0,0-4.037,2.9c-.531,1.02-.667,2.215-1.238,3.213a1.7,1.7,0,0,1-.677.715,2.039,2.039,0,0,1-1.158.09,24.235,24.235,0,0,1-3.781-.781,42.589,42.589,0,0,1,3.69-6.878,7.655,7.655,0,0,1,2.562-2.679,8.4,8.4,0,0,1,4.323-.612l6.211.22c2.3.081,4.9.3,6.347,2.1,1.539,1.909,3.658,8.9,3.658,8.9" transform="translate(109.174 0)" fill="#6a9899"/>
            <path id="Trazado_185740" data-name="Trazado 185740" d="M.075,224.287C2.067,214.8,4.326,205.213,9.43,197a6.943,6.943,0,0,1,2.323-2.557,7.457,7.457,0,0,1,2.662-.708c3.78-.512,20.368-.512,24.148,0a7.457,7.457,0,0,1,2.662.708A6.943,6.943,0,0,1,43.548,197c5.1,8.21,7.363,17.8,9.355,27.284a3.49,3.49,0,0,1-1.471,3.617c-3.457,2.314-7.986,2.931-12.228,3.274-3.994.322-21.436.322-25.43,0-4.243-.343-8.771-.96-12.228-3.274a3.49,3.49,0,0,1-1.471-3.617" transform="translate(109.821 0)" fill="#564915"/>
            <path id="Trazado_185741" data-name="Trazado 185741" d="M22.29,152.569c.613,2,3.388,11.287,2.374,15.191-1.412,5.437-6.822,12.387-5.907,15.152a1.129,1.129,0,0,0,.33.554c.554.433,1.292-.254,1.613-.881a13.376,13.376,0,0,0,1-2.578c0,1.916.629,8.262.627,10.177a1.735,1.735,0,0,0,.192.974,1.191,1.191,0,0,0,1.66.121,3.463,3.463,0,0,0,.977-1.562,1.617,1.617,0,1,0,3.064.7,1.806,1.806,0,1,0,3.4-.1,2.054,2.054,0,0,0,2.456,1.333c.368-2.931-.68-25.057-.705-28.011-.06-6.988,1.8-6.779,1.741-13.767Z" transform="translate(109.036 0)" fill="#fbd1b9"/>
            <path id="Trazado_185742" data-name="Trazado 185742" d="M21.722,186.054a23.094,23.094,0,0,1-.23,5.154c-.047.3-.5.173-.458-.127a22.551,22.551,0,0,0,.213-5.027c-.021-.305.454-.3.475,0" transform="translate(119.994 0)" fill="#cc9c87"/>
            <path id="Trazado_185743" data-name="Trazado 185743" d="M25.377,186.054a21.561,21.561,0,0,1-.25,5.15c-.051.3-.509.173-.458-.126a21.029,21.029,0,0,0,.233-5.024c-.022-.305.453-.3.475,0" transform="translate(112.702 0)" fill="#cc9c87"/>
            <path id="Trazado_185744" data-name="Trazado 185744" d="M29.025,185.557l-.609,4.863c-.038.3-.513.3-.475,0l.609-4.863c.038-.3.513-.3.475,0" transform="translate(105.833 0)" fill="#cc9c87"/>
            <path id="Trazado_185745" data-name="Trazado 185745" d="M29.982,186.237a27.506,27.506,0,0,1-7.588-.382q-1.077-.2-2.134-.5a.238.238,0,0,1,.126-.458,27.153,27.153,0,0,0,9.6.862c.3-.027.3.448,0,.475" transform="translate(112.498 0)" fill="#cc9c87"/>
            <path id="Trazado_185746" data-name="Trazado 185746" d="M29.567,75.61a154.441,154.441,0,0,1,9.891,88.033,3.142,3.142,0,0,1-.733,1.771,3.082,3.082,0,0,1-1.516.643,60.308,60.308,0,0,1-23.419.43,315.346,315.346,0,0,1,3.68-39.019Z" transform="translate(107.076 0)" fill="#af805d"/>
            <path id="Trazado_185747" data-name="Trazado 185747" d="M41.73,194.924a92.254,92.254,0,0,1-3.364,9.784q-.5,1.229-1.036,2.443a5.418,5.418,0,0,1-1.177,1.972,3.917,3.917,0,0,1-2.181.814c-.855.112-1.714.2-2.574.264a54.855,54.855,0,0,1-10.573-.194q-.677-.08-1.353-.173a6.442,6.442,0,0,1-1.142-.232,3.192,3.192,0,0,1-1.742-1.491,34.7,34.7,0,0,1-1.93-3.929c-1.234-2.809-2.3-5.688-3.552-8.491-.142-.317-.286-.634-.433-.948a.489.489,0,0,1,.17-.65.478.478,0,0,1,.649.17c1.257,2.684,2.3,5.463,3.449,8.192.566,1.341,1.155,2.675,1.816,3.973a7.71,7.71,0,0,0,1.043,1.751,2.887,2.887,0,0,0,1.848.728,53.925,53.925,0,0,0,10.246.441q1.293-.065,2.582-.192a12.583,12.583,0,0,0,2.248-.322,1.94,1.94,0,0,0,.828-.447,2.921,2.921,0,0,0,.554-.826c.356-.716.659-1.462.969-2.2a92.022,92.022,0,0,0,3.393-9.494q.177-.6.347-1.2a.475.475,0,0,1,.915.252" transform="translate(110.431 0)" fill="#af805d"/>
            <path id="Trazado_185748" data-name="Trazado 185748" d="M20.5,206.307l.507,5.275a3.55,3.55,0,0,1-.181,1.957,1.225,1.225,0,0,1-1.655.6,1.789,1.789,0,0,1-.569-1.3l-1-7.221,2.976-.048Z" transform="translate(124.144 0)" fill="#af805d"/>
            <path id="Trazado_185749" data-name="Trazado 185749" d="M31.1,206.307l.507,5.275a3.55,3.55,0,0,1-.181,1.957,1.225,1.225,0,0,1-1.655.6,1.789,1.789,0,0,1-.569-1.3l-1-7.221,2.976-.048Z" transform="translate(102.94 0)" fill="#af805d"/>
            <path id="Trazado_185750" data-name="Trazado 185750" d="M48.267,195.9q-1.6,4.478-3.016,9.021-1.4,4.506-2.607,9.068-.687,2.6-1.312,5.207c-.142.594-1.058.343-.915-.252q1.107-4.626,2.409-9.2,1.292-4.538,2.776-9.018.843-2.548,1.75-5.077a.486.486,0,0,1,.584-.331.478.478,0,0,1,.331.584" transform="translate(74.108 0)" fill="#af805d"/>
            <path id="Trazado_185751" data-name="Trazado 185751" d="M45.482,225.736a20.993,20.993,0,0,1,1.756-3.727,18.447,18.447,0,0,1,1.125-1.673,3.686,3.686,0,0,1,1.473-1.255,1.732,1.732,0,0,1,1.756.259,2.928,2.928,0,0,1,.862,1.418,13.14,13.14,0,0,1,.43,1.961c.118.719.2,1.445.249,2.173a21.417,21.417,0,0,1-.274,4.942.481.481,0,0,1-.585.332.486.486,0,0,1-.331-.584,20.223,20.223,0,0,0-.211-7.824,4.313,4.313,0,0,0-.48-1.38.858.858,0,0,0-.864-.476,2.239,2.239,0,0,0-1.185.888,14.3,14.3,0,0,0-1,1.459,19.734,19.734,0,0,0-1.806,3.739.485.485,0,0,1-.583.332.48.48,0,0,1-.333-.584" transform="translate(64.165 0)" fill="#af805d"/>
            <path id="Trazado_185752" data-name="Trazado 185752" d="M42.641,226.7a12.672,12.672,0,0,1-6.344,2.731c-2.677.514-5.392.868-8.1,1.148q-4.15.429-8.328.538t-8.345-.1q-4.149-.21-8.274-.739-.546-.069-1.092-.145a.477.477,0,0,1-.332-.584.488.488,0,0,1,.584-.332q4.053.557,8.14.8,4.109.246,8.227.179,4.095-.064,8.178-.439t8.1-1.058a14.745,14.745,0,0,0,6.317-2.172,7.026,7.026,0,0,0,.6-.492.474.474,0,0,1,.671.671" transform="translate(118.213 0)" fill="#af805d"/>
            <path id="Trazado_185753" data-name="Trazado 185753" d="M46.642,287.837a32.086,32.086,0,0,0-8.868,3.311q.174,2.148.347,4.3l8.5-4.067Z" transform="translate(78.383 0)" fill="#af805d"/>
            <path id="Trazado_185754" data-name="Trazado 185754" d="M80.33,285.076a32.263,32.263,0,0,0-11.135-.236q.014,1.854.025,3.709a69.382,69.382,0,0,0,10.133-.123Z" transform="translate(13.274 0)" fill="#af805d"/>
            <path id="Trazado_185755" data-name="Trazado 185755" d="M44.155,304.859l-4.4,2.857c-.257.167-.5-.244-.24-.41l4.4-2.857c.257-.167.495.244.24.41" transform="translate(79.125 0)" fill="#af805d"/>
            <path id="Trazado_185756" data-name="Trazado 185756" d="M67.9,309.482c-2.833,1.322-5.17,3.432-7.63,5.317a17.743,17.743,0,0,1-8.139,3.919,8.57,8.57,0,0,1-4.821-.631c-.277-.128-.036-.538.24-.41,2.706,1.249,5.828.584,8.4-.666,2.736-1.326,5-3.4,7.4-5.228a23.926,23.926,0,0,1,4.307-2.711c.276-.128.517.281.24.41" transform="translate(47.593 0)" fill="#af805d"/>
            <path id="Trazado_185757" data-name="Trazado 185757" d="M106.086,306.731q-4.529.447-9.075.675-4.525.227-9.058.236-2.569,0-5.139-.06a.238.238,0,0,1,0-.475q4.549.115,9.1.011,4.53-.105,9.052-.427,2.562-.182,5.12-.435c.3-.03.3.445,0,.475" transform="translate(-26.099 0)" fill="#af805d"/>
            <path id="Trazado_185758" data-name="Trazado 185758" d="M76.494,306.731l-5.8.63c-.3.033-.3-.442,0-.475l5.8-.63c.3-.033.3.442,0,.475" transform="translate(15.613 0)" fill="#af805d"/>
            <path id="Trazado_185759" data-name="Trazado 185759" d="M54.921,58.332A124.435,124.435,0,0,1,58.608,72.1q.353,1.706.658,3.422a5.916,5.916,0,0,1,.111,3.172,2.665,2.665,0,0,1-2.2,1.49c-1.129.189-2.283.267-3.421.391l-8.233.9.458-.6a93.9,93.9,0,0,1,4.059,17.882q.576,4.55.7,9.141c.037,1.353.144,2.869-.689,4.029a4.36,4.36,0,0,1-2.712,1.634,10.368,10.368,0,0,1-3.986-.109,9.472,9.472,0,0,0-4.837-.1c-.578.2-.826-.714-.253-.915,2.631-.925,5.256.465,7.914.319a4.377,4.377,0,0,0,2.717-.949c.946-.864.935-2.152.91-3.341a92.206,92.206,0,0,0-2.09-17.7,92.972,92.972,0,0,0-2.649-9.643.481.481,0,0,1,.458-.6l6.987-.763,3.521-.384c.739-.081,1.781-.093,2.3-.726.579-.711.2-1.92.056-2.72q-.3-1.69-.643-3.372-.679-3.311-1.539-6.582-.981-3.729-2.191-7.392c-.191-.581.725-.83.916-.252" transform="translate(65.3 0)" fill="#564915"/>
            <path id="Trazado_185760" data-name="Trazado 185760" d="M99.809,60.753l-5.232,5.269c-1.713,1.724-3.455,3.424-5.137,5.178-1.219,1.271-2.5,2.91-1.9,4.73.437,1.342,1.606,2.4,2.479,3.509.972,1.232,1.747,2.707,1.181,4.3a10.2,10.2,0,0,1-1.749,2.7q-1.072,1.392-2.109,2.81-2.089,2.855-4.032,5.813a17.645,17.645,0,0,0-2.963,5.946,5.158,5.158,0,0,0,1.5,4.944,12.783,12.783,0,0,0,4.349,2.566c.409.162.821.316,1.234.466a.488.488,0,0,1,.332.584.479.479,0,0,1-.584.331c-3.258-1.18-7.3-2.924-7.84-6.814-.316-2.265.668-4.461,1.795-6.367,1.205-2.039,2.575-4,3.94-5.931,1.39-1.974,2.86-3.883,4.316-5.808a4.022,4.022,0,0,0,1.056-2.489,3.586,3.586,0,0,0-.693-1.824c-.835-1.255-2.033-2.273-2.756-3.622a4.287,4.287,0,0,1-.553-2.4,5.512,5.512,0,0,1,1.178-2.776,24.021,24.021,0,0,1,2.227-2.428l2.684-2.7q2.65-2.67,5.3-5.338l1.308-1.317a.475.475,0,0,1,.671.671" transform="translate(-16.423 0)" fill="#564915"/>
            <path id="Trazado_185761" data-name="Trazado 185761" d="M18.259,88.433q.614,9.558,1.05,19.127T20,126.7q.258,9.574.336,19.153.039,4.788.033,9.577,0,2.376-.017,4.75-.006,1.208-.016,2.414c-.007.754-.055,1.52-.009,2.272a1.185,1.185,0,0,0,1.023,1.193c.7.2,1.429.339,2.147.473a33.422,33.422,0,0,0,4.416.514,34.121,34.121,0,0,0,8.97-.728q1.065-.232,2.113-.532a.475.475,0,0,1,.252.916,34.675,34.675,0,0,1-18.035.3,2.387,2.387,0,0,1-1.517-.945,3.326,3.326,0,0,1-.324-1.831q.022-2.454.036-4.906.024-4.906,0-9.812-.045-9.772-.277-19.543-.231-9.809-.651-19.612-.418-9.764-1.022-19.518-.075-1.2-.152-2.409c-.04-.61.91-.608.949,0" transform="translate(105.906 0)" fill="#564915"/>
            <path id="Trazado_185762" data-name="Trazado 185762" d="M99.63,126.61l-4.358-.991a.475.475,0,0,1,.252-.916l4.358.992a.475.475,0,1,1-.252.915" transform="translate(-32.355 0)" fill="#564915"/>
            <path id="Trazado_185763" data-name="Trazado 185763" d="M100,149.471a3.865,3.865,0,0,0-2.98.031.478.478,0,0,1-.584-.332.487.487,0,0,1,.332-.584,4.8,4.8,0,0,1,3.711.065.479.479,0,0,1,.171.65.488.488,0,0,1-.65.17" transform="translate(-34.337 0)" fill="#564915"/>
            <path id="Trazado_185764" data-name="Trazado 185764" d="M108.5,228.262l-3.863.244a.475.475,0,1,1,0-.95l3.863-.243a.478.478,0,0,1,.475.474.483.483,0,0,1-.475.475" transform="translate(-50.338 0)" fill="#564915"/>
            <path id="Trazado_185765" data-name="Trazado 185765" d="M107.387,221.624l-2.421-.5a.477.477,0,0,1-.331-.584.486.486,0,0,1,.584-.331l2.42.5a.478.478,0,0,1,.332.584.486.486,0,0,1-.584.332" transform="translate(-49.807 0)" fill="#564915"/>
            <path id="Trazado_185766" data-name="Trazado 185766" d="M74.344,124.743q-2.229,23.064-4.968,46.076-2.719,22.842-5.943,45.619-1.827,12.914-3.816,25.8c-.092.6-1.008.347-.915-.252q3.522-22.839,6.539-45.751,3.008-22.859,5.509-45.78,1.4-12.849,2.645-25.714c.058-.6,1.008-.609.949,0" transform="translate(29.757 0)" fill="#564915"/>
            <path id="Trazado_185767" data-name="Trazado 185767" d="M15.38,108.756a11.13,11.13,0,0,0-5.685.789.245.245,0,0,1-.325-.085.24.24,0,0,1,.085-.325,11.588,11.588,0,0,1,5.925-.854c.3.037.3.512,0,.475" transform="translate(137.852 0)" fill="#af805d"/>
            <path id="Trazado_185768" data-name="Trazado 185768" d="M14.273,112.325a3.388,3.388,0,0,0-2.734-.907.239.239,0,0,1-.237-.238.243.243,0,0,1,.237-.237,3.847,3.847,0,0,1,3.07,1.046c.221.212-.115.548-.336.336" transform="translate(136.816 0)" fill="#af805d"/>
            <path id="Trazado_185769" data-name="Trazado 185769" d="M100.529,84.264a11.785,11.785,0,0,0-4.636-3.02c-.286-.1-.163-.559.126-.457a12.3,12.3,0,0,1,4.846,3.141c.209.222-.126.559-.336.336" transform="translate(-33.863 0)" fill="#af805d"/>
            <path id="Trazado_185770" data-name="Trazado 185770" d="M103.519,85.646,99.15,83.719c-.279-.123-.038-.532.239-.41l4.37,1.927c.279.123.037.532-.24.41" transform="translate(-40.11 0)" fill="#af805d"/>
            <path id="Trazado_185771" data-name="Trazado 185771" d="M62.206,254.272q-.5,1.935-1.006,3.869a.238.238,0,0,1-.458-.126q.5-1.935,1.006-3.869a.238.238,0,0,1,.458.126" transform="translate(39.851 0)" fill="#af805d"/>
            <path id="Trazado_185772" data-name="Trazado 185772" d="M64.146,253.3q-.489,1.454-.979,2.906c-.1.288-.556.164-.458-.127l.979-2.9c.1-.288.556-.165.458.126" transform="translate(35.944 0)" fill="#af805d"/>
            <path id="Trazado_185773" data-name="Trazado 185773" d="M78.373,135.54a85.25,85.25,0,0,0-10.893-.867q-1.56-.024-3.12.008a.237.237,0,0,1,0-.474,85.8,85.8,0,0,1,11.058.484q1.544.168,3.081.391c.3.044.173.5-.126.458" transform="translate(19.998 0)" fill="#346060"/>
            <path id="Trazado_185774" data-name="Trazado 185774" d="M76.826,167.413l.87,13.1.864,13.024q.243,3.67.487,7.341c.02.3-.455.3-.475,0q-.435-6.552-.869-13.1-.432-6.511-.865-13.023-.243-3.67-.487-7.341c-.02-.3.455-.3.475,0" transform="translate(7.401 0)" fill="#346060"/>
            <path id="Trazado_185775" data-name="Trazado 185775" d="M79.969,177.117q-.006,4.549.178,9.1.185,4.527.557,9.042.211,2.561.484,5.116c.032.3-.443.3-.475,0q-.481-4.525-.773-9.066-.291-4.521-.392-9.051-.057-2.57-.054-5.138a.238.238,0,0,1,.475,0" transform="translate(2.116 0)" fill="#346060"/>
            <path id="Trazado_185776" data-name="Trazado 185776" d="M78.751,110.311A17.108,17.108,0,0,0,68.538,105.2a16.806,16.806,0,0,0-3.265-.079c-.3.023-.3-.452,0-.474a17.568,17.568,0,0,1,11.292,3.158,17.1,17.1,0,0,1,2.522,2.17c.21.221-.125.558-.336.336" transform="translate(18.6 0)" fill="#873d15"/>
            <path id="Trazado_185777" data-name="Trazado 185777" d="M78.31,112.769a48.264,48.264,0,0,0-9.361-3.243q-1.357-.319-2.733-.559c-.3-.053-.173-.51.126-.458a48.549,48.549,0,0,1,9.625,2.732q1.307.522,2.583,1.118c.276.129.035.538-.24.41" transform="translate(18.082 0)" fill="#873d15"/>
            <path id="Trazado_185778" data-name="Trazado 185778" d="M77.287,59.814a23.593,23.593,0,0,1-1.953,13.777l-2.871-1.66a15.924,15.924,0,0,1-2.633,9.41L67.7,78.368a10.181,10.181,0,0,1-4.439,7.656,10.1,10.1,0,0,1-.809-3.3,2.3,2.3,0,0,1-3.612,1.621,2.576,2.576,0,0,1,.663-4.1,6.2,6.2,0,0,0-3.684,1.226,15.165,15.165,0,0,1,2.5-7.292l-2.8-.531a45.189,45.189,0,0,1,3.4-6.417,2.4,2.4,0,0,1-2.2.705c.349-4.188,3.555-7.809,7.461-9.36a18.229,18.229,0,0,1,12.353.073Z" transform="translate(29.699 0)" fill="#873d15"/>
            <path id="Trazado_185779" data-name="Trazado 185779" d="M77.713,41.957c6.646,7.121,4.56,4.23,2.848,3.481,2.315-.122,8.254-5.07,9.581-6.971A17.166,17.166,0,0,0,92.6,32.014a44.676,44.676,0,0,0,.839-11.468,16.667,16.667,0,0,0-1.52-6.736,7.487,7.487,0,0,0-5.262-4.147,6.13,6.13,0,0,1-2.824-.651c-.5-.372-.806-.96-1.273-1.378a4.677,4.677,0,0,0-2.674-.911,37.131,37.131,0,0,0-25,6.367,13.244,13.244,0,0,0-4.735,5.045c-1.308,2.852-.819,6.269.55,9.092a32.108,32.108,0,0,0,5.658,7.478,72.7,72.7,0,0,1,20.248,1.118Z" transform="translate(19.907 0)" fill="#f59f18"/>
            <path id="Trazado_185780" data-name="Trazado 185780" d="M56.291,18.057c.907,5.781,4.081,16.228,4.988,22.009.423,2.694.959,5.607,2.973,7.446,2.046,1.869,5.048,2.113,7.81,2.341a2.7,2.7,0,0,1,1.6.488,2.545,2.545,0,0,1,.608,1c3.821,9.436,1.445,20.109-.975,30A76.087,76.087,0,0,0,89.587,61.915a4.176,4.176,0,0,0,.634-1.528,4.306,4.306,0,0,0-.249-1.726q-2.682-9.333-5.364-18.669a4.688,4.688,0,0,0,6.211-3.823,4.688,4.688,0,0,0-5.678-4.577c-1-4.647-4.721-13.864-6.589-18.237q-10.908,1.782-21.769,3.836Z" transform="translate(15.682 0)" fill="#fbd1b9"/>
            <path id="Trazado_185781" data-name="Trazado 185781" d="M91.323,31.243a45.574,45.574,0,0,1-8.664-14.866,6.988,6.988,0,0,0,.533,6.04A19.4,19.4,0,0,1,77.4,16.051a11.275,11.275,0,0,0,2.074,7.382L71.84,17.207a4.428,4.428,0,0,0,.823,4.337A30.42,30.42,0,0,0,65.5,18.328,14.08,14.08,0,0,0,67.112,25.7a10.147,10.147,0,0,1-5.507-7.171,2.229,2.229,0,0,1,.016-1.175c.274-.748,1.149-1.049,1.918-1.257l18.752-5.07a4.767,4.767,0,0,1,1.906-.245c1.752.255,2.606,2.234,3.116,3.931q2.484,8.262,4.264,16.715Z" transform="translate(9.688 0)" fill="#f59f18"/>
            <path id="Trazado_185782" data-name="Trazado 185782" d="M46.227,7.471a15.578,15.578,0,0,1,11.5-6.307A25.822,25.822,0,0,1,70.839,3.869C76.414,6.477,81.691,11,82.68,17.07a7.691,7.691,0,0,1-1.072,5.781c-1.985,2.7-5.869,2.985-9.206,2.723a55.531,55.531,0,0,1-15.561-3.526c-3.345-1.287-6.68-2.99-8.878-5.821S45,9.2,46.971,6.205Z" transform="translate(34.146 0)" fill="#6a9899"/>
            <path id="Trazado_185783" data-name="Trazado 185783" d="M75.136,21.908a28.46,28.46,0,0,1-9.43.744,29.4,29.4,0,0,1-9.169-2.33,27.754,27.754,0,0,1-4.66-2.587c-.25-.172-.013-.584.24-.41a28.029,28.029,0,0,0,8.467,3.928,28.8,28.8,0,0,0,9.22.991,27.424,27.424,0,0,0,5.206-.794.238.238,0,0,1,.126.458" transform="translate(35.723 0)" fill="#346060"/>
            <path id="Trazado_185784" data-name="Trazado 185784" d="M57.408,6.847A14.692,14.692,0,0,0,59.583,4.74a4.375,4.375,0,0,0,1.044-2.43,1.422,1.422,0,0,0-.344-1.2c.06.049-.066-.042-.064-.041s-.141-.071-.062-.038a1.211,1.211,0,0,0-.285-.076c.089.013-.075,0-.075,0-.051,0-.1,0-.154,0,.018,0-.152.013-.094.006L59.4.987a3.46,3.46,0,0,0-2.025,1.6A4.847,4.847,0,0,0,56.6,5.625a.479.479,0,0,1-.475.475.485.485,0,0,1-.475-.475,5.727,5.727,0,0,1,.759-3.288A4.736,4.736,0,0,1,58.886.144,2.324,2.324,0,0,1,60.432.123,1.781,1.781,0,0,1,61.523,1.5a4.558,4.558,0,0,1-.786,3.252,12.836,12.836,0,0,1-2.658,2.765.486.486,0,0,1-.671,0,.479.479,0,0,1,0-.671" transform="translate(45.582 0)" fill="#346060"/>
            <path id="Trazado_185785" data-name="Trazado 185785" d="M81.962,30.715a8.117,8.117,0,0,1-2.022,6.627,7.659,7.659,0,0,1-1.552,1.3q-.057-.435-.113-.868a9.995,9.995,0,0,0,4.193.352.491.491,0,0,1,.584.331.478.478,0,0,1-.332.584,11.121,11.121,0,0,1-4.7-.351.481.481,0,0,1-.113-.868,7.132,7.132,0,0,0,3.157-5.108,6.951,6.951,0,0,0-.02-1.75.491.491,0,0,1,.332-.584.479.479,0,0,1,.584.332" transform="translate(2.05 0)" fill="#a46e4a"/>
            <path id="Trazado_185786" data-name="Trazado 185786" d="M70.3,33.18a1.469,1.469,0,1,0-1.332-1.321A1.337,1.337,0,0,0,70.3,33.18" transform="translate(22.473 0)"/>
            <path id="Trazado_185787" data-name="Trazado 185787" d="M83.071,34.474a1.469,1.469,0,1,0-1.332-1.321,1.337,1.337,0,0,0,1.332,1.321" transform="translate(-3.061 0)"/>
            <path id="Trazado_185788" data-name="Trazado 185788" d="M76.249,42.282a1.656,1.656,0,0,1-1.977.346,1.847,1.847,0,0,1-.354-.248,1.708,1.708,0,0,1-.031-2.575,1.683,1.683,0,0,1,1.45-.355c.075.017.15.038.224.062l.024.007a1.689,1.689,0,0,1,.664,2.763" transform="translate(12.768 0)" fill="#e5834c"/>
            <path id="Trazado_185789" data-name="Trazado 185789" d="M77.2,39.792a5.215,5.215,0,0,1-4.359,1.942.485.485,0,0,1-.475-.474.479.479,0,0,1,.475-.475,4.344,4.344,0,0,0,3.688-1.664.477.477,0,0,1,.671,0,.486.486,0,0,1,0,.671" transform="translate(13.1 0)" fill="#a46e4a"/>
            <path id="Trazado_185790" data-name="Trazado 185790" d="M62.5,34.3a4.086,4.086,0,0,0-1.446,1.332,4.132,4.132,0,0,0-.666,1.842l-.885-.24.11-.222a.481.481,0,0,1,.65-.17.486.486,0,0,1,.17.65c-.037.073-.074.147-.11.221a.478.478,0,0,1-.885-.239,5.113,5.113,0,0,1,2.583-3.994c.535-.3,1.015.525.479.82" transform="translate(40.621 0)" fill="#a46e4a"/>
            <path id="Trazado_185791" data-name="Trazado 185791" d="M61.335,36.927a9.11,9.11,0,0,0-.809-.49c-.137-.072-.276-.142-.416-.207-.071-.033-.141-.065-.212-.1l-.057-.024.027.011-.115-.046a.523.523,0,0,1-.284-.218.487.487,0,0,1-.047-.366.479.479,0,0,1,.218-.284.462.462,0,0,1,.366-.048,9.41,9.41,0,0,1,1.808.948.475.475,0,0,1-.479.82" transform="translate(41.344 0)" fill="#a46e4a"/>
            <path id="Trazado_185792" data-name="Trazado 185792" d="M68.164,26.128a.408.408,0,0,0-.389.584,1.3,1.3,0,0,0,.352.445,3.186,3.186,0,0,0,1.087.5l3.221,1.007a.5.5,0,0,0-.181-.376,7.916,7.916,0,0,0-3.069-2.033,1.715,1.715,0,0,0-1.021-.125" transform="translate(22.627 0)" fill="#f59f18"/>
            <path id="Trazado_185793" data-name="Trazado 185793" d="M86.951,27.021a.408.408,0,0,1,.389.584,1.3,1.3,0,0,1-.352.445,3.186,3.186,0,0,1-1.087.5L82.68,29.555a.5.5,0,0,1,.181-.376,7.916,7.916,0,0,1,3.069-2.033,1.715,1.715,0,0,1,1.021-.125" transform="translate(-7.259 0)" fill="#f59f18"/>
            <g id="Grupo_175549" data-name="Grupo 175549" transform="translate(89.341 45.652)" opacity="0.3">
              <g id="Grupo_175548" data-name="Grupo 175548" transform="translate(0)">
                <g id="Grupo_175547" data-name="Grupo 175547" transform="translate(0)" clip-path="url(#clip-path-4)">
                  <path id="Trazado_185794" data-name="Trazado 185794" d="M64.326,50.341l9.132-4.689-8.112,6.779Z" transform="translate(-64.326 -45.652)" fill="#a46e4a"/>
                </g>
              </g>
            </g>
            <path id="Trazado_185795" data-name="Trazado 185795" d="M24.467,156.417l-10.99-.582a5.52,5.52,0,0,0-.964,3.707l11.885.615q.055-1.691.113-3.381Z" transform="translate(125.807 0)" fill="#564915"/>
          </g>
        </g>
      </g>
    </g>
  </g>
</svg>
