<svg xmlns="http://www.w3.org/2000/svg" xmlns:xlink="http://www.w3.org/1999/xlink" width="190" height="166" viewBox="0 0 190 166">
  <defs>
    <clipPath id="clip-path">
      <rect id="Rectángulo_45650" data-name="Rectángulo 45650" width="190" height="166" rx="14" fill="#e1e8ff"/>
    </clipPath>
    <clipPath id="clip-path-2">
      <rect id="Rectángulo_45647" data-name="Rectángulo 45647" width="93.542" height="309.474" fill="none"/>
    </clipPath>
    <clipPath id="clip-path-3">
      <path id="Trazado_185148" data-name="Trazado 185148" d="M33.107,232.743h0m24.379-16.984s3.038,15.146,3.692,19.437c.04.039-6.919-.594-13.918-1.227-6.947-.627-13.934-1.256-14.147-1.228,4.434-1.05,14.492-4.777,14.766-5.272.166-.3-1.547-8.979-1.356-12.716q.32-.012.673-.012a81.145,81.145,0,0,1,10.291,1.017" transform="translate(-33.107 -214.742)" fill="none"/>
    </clipPath>
    <clipPath id="clip-path-5">
      <path id="Trazado_185158" data-name="Trazado 185158" d="M17.854,235.693h0m23.555-18.105s3.744,14.987,4.6,19.244c0,0-.005,0-.019,0h-.1c-.922-.013-7.294-.292-13.733-.571-7.011-.306-14.1-.609-14.3-.571,4.379-1.256,14.252-5.448,14.5-5.957.151-.306-1.966-8.9-1.949-12.638.61-.051,1.313-.072,2.07-.072,2.9,0,6.6.32,8.927.563" transform="translate(-17.854 -217.024)" fill="none"/>
    </clipPath>
  </defs>
  <g id="Grupo_175538" data-name="Grupo 175538" transform="translate(-1125 -5040)">
    <rect id="Rectángulo_45325" data-name="Rectángulo 45325" width="190" height="166" rx="14" transform="translate(1125 5040)" fill="#e1e8ff"/>
    <g id="Enmascarar_grupo_310" data-name="Enmascarar grupo 310" transform="translate(1125 5040)" clip-path="url(#clip-path)">
      <g id="Grupo_175566" data-name="Grupo 175566" transform="translate(-92.449 -49.342)">
        <path id="Trazado_185816" data-name="Trazado 185816" d="M189.906,100.022c-1.445,24.534-18.6,47.959-41.827,49.412-26.681,2.243-51.171-13.811-77.748-13.981-13.552-1.275-26.262,4.419-39.469,6.257C1.032,142.912-3.513,104.452,2.05,79.661,25.512-37.21,191.53-21.309,189.906,100.022Z" transform="matrix(-0.914, 0.407, -0.407, -0.914, 427.449, 156.47)" fill="#c4d1ff"/>
        <path id="Trazado_185819" data-name="Trazado 185819" d="M189.906,100.022c-1.445,24.534-18.6,47.959-41.827,49.412-26.681,2.243-51.171-13.811-77.748-13.981-13.552-1.275-26.262,4.419-39.469,6.257C1.032,142.912-3.513,104.452,2.05,79.661,25.512-37.21,191.53-21.309,189.906,100.022Z" transform="matrix(0.07, -0.998, 0.998, 0.07, 0, 258.246)" fill="#c4d1ff"/>
        <path id="Trazado_185818" data-name="Trazado 185818" d="M.011,96.394c1.347,23.644,17.336,46.22,38.991,47.62,24.872,2.161,47.7-13.31,72.476-13.474,12.633-1.229,24.481,4.258,36.792,6.03,27.806,1.158,32.043-35.907,26.857-59.8C153.256-35.86-1.5-20.536.011,96.394Z" transform="matrix(0.995, -0.105, 0.105, 0.995, 73.478, 18.505)" fill="#a6bbff" opacity="0.388" style="mix-blend-mode: multiply;isolation: isolate"/>
      </g>
      <g id="Grupo_175506" data-name="Grupo 175506" transform="translate(48.458)">
        <g id="Grupo_175497" data-name="Grupo 175497">
          <g id="Grupo_175496" data-name="Grupo 175496" clip-path="url(#clip-path-2)">
            <path id="Trazado_185132" data-name="Trazado 185132" d="M33.079,56.918a10.761,10.761,0,0,0,3.928,3.43,4.254,4.254,0,0,0,4.852-.809c1.133-1.343.6-3.869-1.117-4.242,2.237,2.992,7.711,2.392,9.244-1.016A8.4,8.4,0,0,0,58.6,42.56c-.428-.977-2.035-1.775-2.3-.743a15.694,15.694,0,0,0,4.856-3.466,5.558,5.558,0,0,0,1.171-5.58c-.794-1.837-3.374-2.835-4.949-1.6a8.582,8.582,0,0,0,1.663-9.965,8.579,8.579,0,0,0-9.165-4.248,7.475,7.475,0,0,0-1.2-9.687,7.477,7.477,0,0,0-9.754.378A7.459,7.459,0,0,0,32.2.012a7.459,7.459,0,0,0-7.611,6.743c-2.444-2.661-7.824-.742-8.032,2.866a5.857,5.857,0,0,1-.256,2.358,4.7,4.7,0,0,1-1.8,1.532,7.986,7.986,0,0,0-3.075,8.911,5.346,5.346,0,0,0-3.317,9.4,5.912,5.912,0,0,0-.825,8.151,4.634,4.634,0,0,0,3.684,7.863c-.579,1.458.782,3.036,2.273,3.525s3.119.319,4.647.674c3.165.737,6.537,3.618,9.16,1.7.232,2.389,3.9,3.48,5.4,1.607Z" transform="translate(22.909 0)"/>
            <path id="Trazado_185133" data-name="Trazado 185133" d="M32.976,211.309a70.829,70.829,0,0,1-.749,14.614q-3.948-.262-7.91-.171a82.674,82.674,0,0,1-2.465-15.811,1.046,1.046,0,0,1,.98-1.34q5.055-1.285,10.183-2.248Z" transform="translate(31.314 69.069)" fill="#cd8451"/>
            <path id="Trazado_185134" data-name="Trazado 185134" d="M46.668,210.074a70.774,70.774,0,0,1-1.431,14.563q-3.932-.446-7.892-.541a82.657,82.657,0,0,1-1.724-15.908,1.046,1.046,0,0,1,1.042-1.293q5.107-1.047,10.276-1.768Z" transform="translate(-0.939 68.658)" fill="#cd8451"/>
            <path id="Trazado_185136" data-name="Trazado 185136" d="M64.516,65.317c3.468,8.334,7.007,17.175,5.747,26.114-.622,4.4-2.385,8.559-3.4,12.889-1.723,7.328-1.275,14.969-.846,22.485.14,2.46.236,5.095-1.054,7.194-1.85,3.012-5.807,3.827-9.327,4.152a91.709,91.709,0,0,1-43.793-6.76c.493-12.2-.49-24.42-.386-36.633s1.348-24.631,6.062-35.9a15.293,15.293,0,0,1,2.436-4.276,17.466,17.466,0,0,1,5.009-3.532c4.182-2.264,8.784-4.6,13.462-3.756A19.309,19.309,0,0,1,44.707,50,108.849,108.849,0,0,1,61.575,62.366Z" transform="translate(7.743 15.771)" fill="#3c3fa7"/>
            <path id="Trazado_185137" data-name="Trazado 185137" d="M70.708,115.709c6.583,8.21,8.094,19.421,7.536,29.931s-2.916,20.887-3.036,31.41c-.16,14.075,3.689,28.178,1.638,42.1-1.337,9.08-5.125,17.6-9.032,25.9a10.462,10.462,0,0,1-1.59,2.653c-2.337,2.571-12.3,1.826-12.517,1.269-15.73-40.27-7.23-73.193-11.955-103.192-1.83,30.291,8.373,71.673,6.082,101.933-.035.463-10.081,2.551-12.584,1.259-16.45-8.5-15.806-51.661-20.555-77.185-1.309-7.037-2.959-28.708-2.936-35.865.04-13.064,8.7-12.757,8.6-25.821l19.1-1.215c5.34-.339,10.724-.677,16.023.065s10.575,2.652,14.5,6.289Z" transform="translate(-0.504 36.32)" fill="#873d15"/>
            <path id="Trazado_185138" data-name="Trazado 185138" d="M21.624,140.428c.386-.717,1.455.039,2.058-.435a1.684,1.684,0,0,0,.422-1.209,221.061,221.061,0,0,0-.283-37.162,1.614,1.614,0,0,0-.2-.759,1.181,1.181,0,0,0-.888-.4c-2.07-.268-4.234-.526-6.184.324q.36,18.857.719,37.714Z" transform="translate(46.7 33.539)" fill="#fff"/>
            <path id="Trazado_185139" data-name="Trazado 185139" d="M61.176,235.2c.081.076-27.929-2.537-28.069-2.452,4.431-1.05,14.5-4.78,14.77-5.275.166-.3-1.547-8.979-1.356-12.716a73.3,73.3,0,0,1,10.963,1.005s3.038,15.146,3.692,19.437" transform="translate(-11.822 71.877)" fill="#87c3a9"/>
            <path id="Trazado_185140" data-name="Trazado 185140" d="M47.34,228.111a3.413,3.413,0,0,0-2.472-2.77c-.408-.108-.2-.731.2-.623a4.061,4.061,0,0,1,2.912,3.263c.061.415-.579.547-.642.129" transform="translate(-14.032 75.212)" fill="#4f657f"/>
            <path id="Trazado_185141" data-name="Trazado 185141" d="M46.788,227.319a3.032,3.032,0,0,0-3.1-2.156.336.336,0,0,1-.386-.255.329.329,0,0,1,.256-.386,3.7,3.7,0,0,1,3.876,2.667c.111.407-.531.535-.642.129" transform="translate(-11.684 75.145)" fill="#4f657f"/>
            <path id="Trazado_185142" data-name="Trazado 185142" d="M45.132,226.857a4.706,4.706,0,0,0-3-2.755.328.328,0,0,1,.2-.623,5.344,5.344,0,0,1,3.381,3.087c.155.388-.43.683-.587.291" transform="translate(-8.15 74.796)" fill="#4f657f"/>
            <path id="Trazado_185143" data-name="Trazado 185143" d="M46.615,222.024a5.685,5.685,0,0,0,1.957-3.565c.036-.276.2-1.14-.123-1.293-.283-.135-.647.315-.793.5a5.164,5.164,0,0,0-.7,1.137,5.249,5.249,0,0,0-.434,2.609c.033.346-.447.573-.614.211a9.683,9.683,0,0,0-1.367-2.162,9.881,9.881,0,0,0-.881-.92,3.087,3.087,0,0,0-.918-.654.7.7,0,0,0-.8.132c-.251.291.117.607.315.809a12.038,12.038,0,0,0,1.881,1.563,12.348,12.348,0,0,0,2.475,1.288c.392.151.191.774-.2.622a13.148,13.148,0,0,1-2.667-1.387A12.947,12.947,0,0,1,42.556,220a7.732,7.732,0,0,1-1.057-1.033,1.063,1.063,0,0,1-.2-1.133,1.233,1.233,0,0,1,.87-.647c.917-.18,1.736.653,2.32,1.239a10.244,10.244,0,0,1,2.014,2.91l-.614.211a5.943,5.943,0,0,1,.3-2.553,5,5,0,0,1,1.339-2.134,1.248,1.248,0,0,1,1.005-.344.991.991,0,0,1,.73.945,5.6,5.6,0,0,1-.451,2.627,6.366,6.366,0,0,1-1.756,2.432c-.322.272-.758-.215-.436-.489" transform="translate(-10.738 72.463)" fill="#4f657f"/>
          </g>
        </g>
        <g id="Grupo_175499" data-name="Grupo 175499" transform="translate(21.283 286.619)">
          <g id="Grupo_175498" data-name="Grupo 175498" clip-path="url(#clip-path-3)">
            <path id="Trazado_185144" data-name="Trazado 185144" d="M39.833,219.217a1.8,1.8,0,1,0,.2.195Z" transform="translate(-17.38 -213.367)" fill="#f5e6df"/>
            <path id="Trazado_185145" data-name="Trazado 185145" d="M68.882,230.449,54.7,229.21,40.57,227.975l-7.988-.7a.328.328,0,0,1,.037-.654l14.183,1.24L60.931,229.1l7.988.7c.419.037.383.691-.037.654" transform="translate(-40.046 -210.766)" fill="#f5e6df"/>
            <path id="Trazado_185146" data-name="Trazado 185146" d="M47.543,225.807a2.36,2.36,0,0,1,2.069,2.936.328.328,0,0,1-.623-.2,1.7,1.7,0,0,0-1.483-2.081.328.328,0,0,1,.037-.654" transform="translate(-40.446 -211.039)" fill="#f5e6df"/>
            <path id="Trazado_185147" data-name="Trazado 185147" d="M36.393,226.469a3.85,3.85,0,0,0-2.687,3.593c0,.423-.658.384-.654-.037a4.516,4.516,0,0,1,3.211-4.2c.4-.119.533.525.129.642" transform="translate(-8.495 -211.037)" fill="#f5e6df"/>
          </g>
        </g>
        <g id="Grupo_175501" data-name="Grupo 175501">
          <g id="Grupo_175500" data-name="Grupo 175500" clip-path="url(#clip-path-2)">
            <path id="Trazado_185149" data-name="Trazado 185149" d="M46.007,236.831c.085.072-28.016-1.229-28.153-1.139,4.378-1.255,14.256-5.451,14.508-5.958.151-.306-1.966-8.9-1.95-12.638a73.417,73.417,0,0,1,11,.491s3.744,14.988,4.6,19.244" transform="translate(23.705 72.641)" fill="#87c3a9"/>
            <path id="Trazado_185150" data-name="Trazado 185150" d="M32.348,230.444a3.41,3.41,0,0,0-2.6-2.651c-.412-.089-.238-.721.174-.631a4.059,4.059,0,0,1,3.06,3.122c.08.412-.554.575-.635.16" transform="translate(21.159 76.031)" fill="#4f657f"/>
            <path id="Trazado_185151" data-name="Trazado 185151" d="M31.8,229.585a3.032,3.032,0,0,0-3.2-2.007.337.337,0,0,1-.4-.238.33.33,0,0,1,.238-.4,3.7,3.7,0,0,1,4,2.483c.129.4-.506.561-.635.16" transform="translate(23.463 75.948)" fill="#4f657f"/>
            <path id="Trazado_185152" data-name="Trazado 185152" d="M30.2,229.057a4.705,4.705,0,0,0-3.122-2.612.328.328,0,0,1,.174-.631,5.338,5.338,0,0,1,3.521,2.926c.174.38-.4.7-.573.318" transform="translate(26.896 75.579)" fill="#4f657f"/>
            <path id="Trazado_185153" data-name="Trazado 185153" d="M32.11,224.322a5.666,5.666,0,0,0,1.5-2.3,5.6,5.6,0,0,0,.29-1.353c.024-.278.145-1.149-.183-1.287-.288-.121-.631.344-.769.534a5.224,5.224,0,0,0-.952,3.8c.048.343-.42.593-.6.239a9.6,9.6,0,0,0-1.466-2.1,9.73,9.73,0,0,0-.924-.878,3.058,3.058,0,0,0-.948-.61.7.7,0,0,0-.793.168c-.238.3.145.6.352.794a12.114,12.114,0,0,0,1.951,1.474,12.331,12.331,0,0,0,2.531,1.171c.4.132.228.765-.172.631a12.686,12.686,0,0,1-3.96-2.121,7.735,7.735,0,0,1-1.105-.982,1.062,1.062,0,0,1-.258-1.123,1.233,1.233,0,0,1,.84-.687c.908-.223,1.764.57,2.376,1.129a10.223,10.223,0,0,1,2.148,2.812c-.2.079-.4.159-.6.239a5.956,5.956,0,0,1,.18-2.565,5,5,0,0,1,1.237-2.193,1.242,1.242,0,0,1,.988-.391.989.989,0,0,1,.774.909,5.623,5.623,0,0,1-.328,2.645,6.346,6.346,0,0,1-1.642,2.511c-.307.288-.766-.179-.458-.467" transform="translate(23.552 73.207)" fill="#4f657f"/>
          </g>
        </g>
        <g id="Grupo_175503" data-name="Grupo 175503" transform="translate(41.559 289.665)">
          <g id="Grupo_175502" data-name="Grupo 175502" clip-path="url(#clip-path-5)">
            <path id="Trazado_185154" data-name="Trazado 185154" d="M24.978,221.21a1.8,1.8,0,1,0,.207.186Z" transform="translate(-3.12 -215.729)" fill="#f5e6df"/>
            <path id="Trazado_185155" data-name="Trazado 185155" d="M53.792,231.793l-14.225-.575-14.172-.573-8.012-.324c-.42-.016-.415-.671.007-.654l14.227.575,14.171.573,8.012.323c.42.017.415.673-.007.655" transform="translate(-24.911 -212.792)" fill="#f5e6df"/>
            <path id="Trazado_185156" data-name="Trazado 185156" d="M32.375,228.343a2.36,2.36,0,0,1,2.2,2.838.328.328,0,0,1-.631-.173A1.7,1.7,0,0,0,32.368,229a.327.327,0,0,1,.007-.654" transform="translate(-25.439 -213.235)" fill="#f5e6df"/>
            <path id="Trazado_185157" data-name="Trazado 185157" d="M21.161,228.275a3.85,3.85,0,0,0-2.516,3.714c.016.423-.639.414-.655-.007A4.516,4.516,0,0,1,21,227.64c.4-.137.557.5.16.635" transform="translate(6.585 -213.477)" fill="#f5e6df"/>
          </g>
        </g>
        <g id="Grupo_175505" data-name="Grupo 175505">
          <g id="Grupo_175539" data-name="Grupo 175539">
            <path id="Trazado_185159" data-name="Trazado 185159" d="M59.877,141.658l27.617.872q.036-20.874-.549-41.743-32.738-2.018-65.453-4.43-2.224,19.138-3.416,38.376a1.632,1.632,0,0,0,.184,1.084,1.648,1.648,0,0,0,1.153.5L63,142.555Z" transform="translate(-18.063 32.252)" fill="#ffb9a0"/>
            <path id="Trazado_185160" data-name="Trazado 185160" d="M39.417,73.061c1.894,13.679-6.684,26.4-9.775,39.864-1.6,6.974-1.727,14.24-3.57,21.154-1.32,4.954-3.514,9.7-4.179,14.783A4.676,4.676,0,0,0,22.285,152a1.839,1.839,0,0,0,2.746.5,2.058,2.058,0,0,0,3.521-.155c-.23,1.359,2.212,2.01,2.689.719l1,1.412a8.17,8.17,0,0,0,5.171-3.122.57.57,0,0,0-.218-.853l-2.784.563a70.5,70.5,0,0,1,.3-13.466c1.239-9.334,7.23-17.467,8.83-26.746.51-2.952.565-5.978,1.223-8.9a44.048,44.048,0,0,1,2.349-6.834q3.672-9.035,7.342-18.071a52.3,52.3,0,0,0-10.632-5.636Z" transform="translate(9.987 23.903)" fill="#cd8451"/>
            <path id="Trazado_185161" data-name="Trazado 185161" d="M54.516,78.533c-1.638,14.63-3.277,29.353-2.3,44.042.383,5.775,1.147,11.74-.7,17.227-.731,2.178-1.881,4.347-1.623,6.631a5.568,5.568,0,0,0,9.629,3.149c-.091,1.253,1.983,1.579,2.764.6s.6-2.393.382-3.629q-.521-2.917-1.04-5.833a10.369,10.369,0,0,0,4.2,3.88,1.225,1.225,0,0,0,1.61-1.708,48.506,48.506,0,0,0-4.034-5.9,9.849,9.849,0,0,1-2.184-3.614,8.722,8.722,0,0,1,.075-3.386c1.176-7.5,2.8-14.982,2.859-22.577.031-4.063-1.843-9.112-1.8-13.175a109.438,109.438,0,0,1,2.516-19.716c-3.813-1.151-6.3-.4-10.269-.035Z" transform="translate(-40.61 24.737)" fill="#cd8451"/>
            <path id="Trazado_185162" data-name="Trazado 185162" d="M27.581,47.647c6.315.112,11.826,4.075,16.863,7.885,2.968,2.245,6.024,4.6,7.772,7.887,1.9,3.57,2.023,7.815,1.7,11.847-1.147,14.141-7.2,27.358-13.152,40.235q-5.74,12.411-11.481,24.82a4.81,4.81,0,0,1-1.8,2.392,4.423,4.423,0,0,1-2.593.283,27,27,0,0,1-8.75-2.507,3.005,3.005,0,0,1-1.4-1.089,3.174,3.174,0,0,1-.25-1.682C15,123.635,21.591,110.6,25.064,96.942c1.73-6.8-1.416-14.594-.49-21.549,1.211-9.087.063-18.587,3.1-27.236Z" transform="translate(20.169 15.948)" fill="#3c3fa7"/>
            <path id="Trazado_185163" data-name="Trazado 185163" d="M69.957,49.752c-4.638,1.966-9.4,4.012-12.969,7.566a29.964,29.964,0,0,0-6.117,9.735C44.495,82.116,44.413,99,44.65,115.352q.158,10.949.448,21.895a14.162,14.162,0,0,0,12.123-.554c3.151-13.227,6.315-26.535,7.155-40.107.358-5.763.292-11.543.521-17.311a171.327,171.327,0,0,1,3.669-29.119Z" transform="translate(-35.923 16.653)" fill="#3c3fa7"/>
            <path id="Trazado_185164" data-name="Trazado 185164" d="M19.772,129.34a.839.839,0,1,0,.838-.84.839.839,0,0,0-.838.84" transform="translate(45.702 43.011)" fill="#ba7863"/>
            <path id="Trazado_185165" data-name="Trazado 185165" d="M24.565,129.262a.839.839,0,1,0,.84-.84.839.839,0,0,0-.84.84" transform="translate(34.512 42.984)" fill="#ba7863"/>
            <path id="Trazado_185166" data-name="Trazado 185166" d="M30.694,129.262a.839.839,0,1,0,.838-.84.839.839,0,0,0-.838.84" transform="translate(20.203 42.984)" fill="#ba7863"/>
            <path id="Trazado_185167" data-name="Trazado 185167" d="M48.137,128.162a.839.839,0,1,0,.84-.84.839.839,0,0,0-.84.84" transform="translate(-20.522 42.616)" fill="#ba7863"/>
            <path id="Trazado_185168" data-name="Trazado 185168" d="M64.322,125.332a.839.839,0,1,0,.84-.838.839.839,0,0,0-.84.838" transform="translate(-58.309 41.67)" fill="#ba7863"/>
            <path id="Trazado_185169" data-name="Trazado 185169" d="M67.465,124.7a.839.839,0,1,0,.838-.84.838.838,0,0,0-.838.84" transform="translate(-65.647 41.459)" fill="#ba7863"/>
            <path id="Trazado_185170" data-name="Trazado 185170" d="M18.846,129.537c-.2,1.036-.436,2.414.533,3.158a.948.948,0,0,0,1.139.091.75.75,0,0,0,.326-.929.315.315,0,0,1,.543-.319,1.458,1.458,0,0,1-1.273,2.033c-1.09.065-1.887-1.025-2.031-2a6.61,6.61,0,0,1,.157-2.2c.076-.4.682-.23.607.167" transform="translate(47.926 43.226)" fill="#5f9a9b"/>
            <path id="Trazado_185171" data-name="Trazado 185171" d="M23.585,129.65a3.089,3.089,0,0,0-.072,2.656,1.811,1.811,0,0,0,1.851.953,1.269,1.269,0,0,0,.941-.583l-.032.243-.172-.85c-.08-.4.526-.565.607-.167.04.2.079.392.119.589a.687.687,0,0,1-.032.589,1.812,1.812,0,0,1-.565.534,2.284,2.284,0,0,1-1.53.252,2.344,2.344,0,0,1-1.365-.718,2.934,2.934,0,0,1-.7-1.726,4.156,4.156,0,0,1,.41-2.089.315.315,0,0,1,.543.318" transform="translate(36.475 43.238)" fill="#5f9a9b"/>
            <path id="Trazado_185172" data-name="Trazado 185172" d="M29.027,129.663A1.76,1.76,0,0,0,32,131.522a.315.315,0,0,1,.444,0,.32.32,0,0,1,0,.444,2.477,2.477,0,0,1-2.455.782,2.341,2.341,0,0,1-1.715-1.89,2.428,2.428,0,0,1,.211-1.514c.18-.363.723-.044.543.318" transform="translate(23.324 43.24)" fill="#5f9a9b"/>
            <path id="Trazado_185173" data-name="Trazado 185173" d="M48.55,128.391a2.487,2.487,0,0,0-.468,1.072,1.509,1.509,0,0,0,.151,1.02,1.007,1.007,0,0,0,.137.187c.027.027.053.052.081.077-.044-.039.047.031.061.039s.056.032.085.047c.053.027.013.007,0,0l.053.02a1.19,1.19,0,0,0,.216.052c-.065-.009.036,0,.057,0,.037,0,.075,0,.113,0s.075,0,.113-.008c-.063.007.033-.005.056-.011a1.527,1.527,0,0,0,.216-.06c.013-.005.025-.011.039-.015.045-.019-.043.02,0,0s.073-.036.108-.057.068-.043.1-.065-.036.032,0,0l.049-.043c.024-.024.047-.051.069-.075.04-.041.005-.007,0,0a.656.656,0,0,0,.041-.064c.012-.02.045-.1.023-.037a.922.922,0,0,0,.032-.108c0-.009.011-.064.005-.021s0-.027,0-.036-.011-.144,0-.08a.325.325,0,0,1,.22-.387.317.317,0,0,1,.387.22,1.138,1.138,0,0,1-.39,1.081,1.747,1.747,0,0,1-1.125.394,1.449,1.449,0,0,1-1.1-.474,2,2,0,0,1-.447-1.453,3.112,3.112,0,0,1,.673-1.664.315.315,0,0,1,.444,0,.323.323,0,0,1,0,.444" transform="translate(-20.27 42.795)" fill="#5f9a9b"/>
            <path id="Trazado_185174" data-name="Trazado 185174" d="M64.259,125.437a2.952,2.952,0,0,0-.16,2.344,1.208,1.208,0,0,0,.275.391.9.9,0,0,0,.085.075c.028.023.008.005,0,0,.017.013.036.025.055.037a1.841,1.841,0,0,0,.2.113.293.293,0,0,0,.061.025c.036.013.073.027.109.037a1.6,1.6,0,0,0,.224.052h.013a.31.31,0,0,0,.049,0c.037,0,.075.005.112.005s.064,0,.1,0c.013,0,.127-.013.075-.005a1.4,1.4,0,0,0,.24-.06s.048-.019.019-.007.039-.019.044-.021a.9.9,0,0,0,.105-.06c.013-.008.024-.017.037-.025.043-.031-.051.047.019-.017.024-.023.051-.048.075-.073,0-.005.045-.053.023-.028s.019-.025.023-.031c.024-.041.048-.081.069-.125a.315.315,0,1,1,.543.318,1.615,1.615,0,0,1-2,.661,1.888,1.888,0,0,1-.948-.69,2.487,2.487,0,0,1-.415-1.425,4.316,4.316,0,0,1,.359-1.662.324.324,0,0,1,.387-.22.315.315,0,0,1,.219.387" transform="translate(-57.63 41.852)" fill="#5f9a9b"/>
            <path id="Trazado_185175" data-name="Trazado 185175" d="M68.225,125.147a1.889,1.889,0,0,0-1.161,1.99,1.691,1.691,0,0,0,1.73,1.4,1.726,1.726,0,0,0,1.256-.482.314.314,0,0,1,.444.444,2.514,2.514,0,0,1-3.089.255,2.326,2.326,0,0,1-.707-3,2.359,2.359,0,0,1,1.36-1.215c.384-.129.549.479.167.607" transform="translate(-65.715 41.679)" fill="#5f9a9b"/>
            <path id="Trazado_185176" data-name="Trazado 185176" d="M28.379,68.414a38.079,38.079,0,0,1-3.322,16.78c-.594,1.336-1.229,2.653-1.767,4.013a26.261,26.261,0,0,0-1.211,4.1,29.381,29.381,0,0,1-1.1,4.2,27.38,27.38,0,0,1-1.875,3.769,43.816,43.816,0,0,0-2.172,4.282,36.5,36.5,0,0,0-1.6,4.566.314.314,0,0,1-.606-.167,37.249,37.249,0,0,1,3.229-7.92c.671-1.221,1.4-2.416,1.987-3.681a19.2,19.2,0,0,0,1.279-4.07,36.6,36.6,0,0,1,1.085-4.255c.468-1.339,1.056-2.631,1.643-3.921s1.173-2.607,1.656-3.953a37.138,37.138,0,0,0,1.207-4.1,36.968,36.968,0,0,0,.934-9.651c-.015-.4.614-.4.629,0" transform="translate(45.497 22.798)" fill="#446b6b"/>
            <path id="Trazado_185177" data-name="Trazado 185177" d="M36.611,115.688q-.783,2.016-1.567,4.032a.324.324,0,0,1-.387.219.316.316,0,0,1-.219-.387L36,115.521a.325.325,0,0,1,.387-.22.317.317,0,0,1,.22.387" transform="translate(10.971 38.589)" fill="#446b6b"/>
            <path id="Trazado_185178" data-name="Trazado 185178" d="M37.941,115.449a18.3,18.3,0,0,1-1.4,4.068c-.175.364-.717.045-.543-.319a17.564,17.564,0,0,0,1.332-3.916c.085-.4.693-.228.607.167" transform="translate(7.586 38.51)" fill="#446b6b"/>
            <path id="Trazado_185179" data-name="Trazado 185179" d="M39.341,114.951a17.3,17.3,0,0,1-1.387,4.278c-.174.366-.717.047-.543-.318a16.661,16.661,0,0,0,1.323-4.127c.073-.4.679-.23.607.167" transform="translate(4.306 38.344)" fill="#446b6b"/>
            <path id="Trazado_185180" data-name="Trazado 185180" d="M40.778,114.6a21.787,21.787,0,0,1-1.328,4.255.318.318,0,0,1-.431.113.324.324,0,0,1-.112-.431,21.127,21.127,0,0,0,1.264-4.1c.08-.4.687-.23.607.167" transform="translate(0.875 38.227)" fill="#446b6b"/>
            <path id="Trazado_185181" data-name="Trazado 185181" d="M42.207,113.871q-.557,2.25-1.114,4.5a.315.315,0,0,1-.607-.167q.559-2.25,1.114-4.5a.315.315,0,0,1,.607.167" transform="translate(-2.699 37.983)" fill="#446b6b"/>
            <path id="Trazado_185182" data-name="Trazado 185182" d="M43.332,112.944q-.314,2.411-.627,4.821a.326.326,0,0,1-.315.315.316.316,0,0,1-.315-.315l.629-4.821a.325.325,0,0,1,.314-.315.316.316,0,0,1,.315.315" transform="translate(-5.946 37.698)" fill="#446b6b"/>
            <path id="Trazado_185183" data-name="Trazado 185183" d="M35.537,116.48l-1.478,3.359a.316.316,0,0,1-.43.113.323.323,0,0,1-.113-.431l1.478-3.359a.315.315,0,0,1,.43-.112.321.321,0,0,1,.113.43" transform="translate(13.283 38.83)" fill="#446b6b"/>
            <path id="Trazado_185184" data-name="Trazado 185184" d="M55.823,112.347q-.1,2.01-.2,4.016c-.02.4-.65.4-.63,0q.1-2.008.2-4.016c.02-.4.649-.4.629,0" transform="translate(-35.677 37.503)" fill="#446b6b"/>
            <path id="Trazado_185185" data-name="Trazado 185185" d="M57.113,112.581a15.632,15.632,0,0,1-.143,3.939.318.318,0,0,1-.387.22.323.323,0,0,1-.22-.387,15,15,0,0,0,.121-3.772c-.037-.4.591-.4.629,0" transform="translate(-38.855 37.581)" fill="#446b6b"/>
            <path id="Trazado_185186" data-name="Trazado 185186" d="M58.564,112.591a15.39,15.39,0,0,1-.1,4.267.318.318,0,0,1-.387.22.324.324,0,0,1-.22-.387,14.858,14.858,0,0,0,.083-4.1.316.316,0,0,1,.314-.315.323.323,0,0,1,.315.315" transform="translate(-42.332 37.58)" fill="#446b6b"/>
            <path id="Trazado_185187" data-name="Trazado 185187" d="M59.872,112.506a13.969,13.969,0,0,1,.282,3.785c-.027.4-.655.4-.63,0a13.333,13.333,0,0,0-.259-3.618c-.083-.4.523-.563.607-.167" transform="translate(-45.729 37.581)" fill="#446b6b"/>
            <path id="Trazado_185188" data-name="Trazado 185188" d="M61.395,112.147a15.19,15.19,0,0,1,.121,4.267.324.324,0,0,1-.315.314.317.317,0,0,1-.315-.314,14.6,14.6,0,0,0-.1-4.1c-.068-.4.539-.566.606-.167" transform="translate(-49.2 37.461)" fill="#446b6b"/>
            <path id="Trazado_185189" data-name="Trazado 185189" d="M62.886,112.028a13.109,13.109,0,0,1,0,4.174.316.316,0,0,1-.386.22.323.323,0,0,1-.22-.387,12.151,12.151,0,0,0,0-3.84.326.326,0,0,1,.22-.387.319.319,0,0,1,.387.22" transform="translate(-52.622 37.42)" fill="#446b6b"/>
            <path id="Trazado_185190" data-name="Trazado 185190" d="M46.069,55.218a7.5,7.5,0,0,1-2.816,5.4,9.168,9.168,0,0,1-6.212,2.065,13.515,13.515,0,0,1-6.89-2.346,9.375,9.375,0,0,1-2.681-2.452,5.779,5.779,0,0,1-.926-2.692,6.231,6.231,0,0,1,2.553-5.67c.335-.23.65.316.318.543a5.536,5.536,0,0,0-2.266,4.515,5.329,5.329,0,0,0,.586,2.52,7.077,7.077,0,0,0,2.228,2.342c3.506,2.523,8.471,3.763,12.279,1.156a7.043,7.043,0,0,0,3.2-5.386c.015-.4.645-.406.629,0" transform="translate(12.08 16.559)" fill="#446b6b"/>
            <path id="Trazado_185191" data-name="Trazado 185191" d="M31.579,56.376v2.891a.314.314,0,0,1-.629,0V56.376a.315.315,0,0,1,.629,0" transform="translate(20.654 18.768)" fill="#446b6b"/>
            <path id="Trazado_185192" data-name="Trazado 185192" d="M33.393,56.446a10.049,10.049,0,0,0-.566,2.992c-.012.4-.642.406-.629,0a10.58,10.58,0,0,1,.587-3.159.323.323,0,0,1,.387-.219.317.317,0,0,1,.22.386" transform="translate(17.159 18.76)" fill="#446b6b"/>
            <path id="Trazado_185193" data-name="Trazado 185193" d="M35.628,56.3a10.518,10.518,0,0,0-.82,2.32.316.316,0,0,1-.609-.167,11.276,11.276,0,0,1,.886-2.471.314.314,0,1,1,.542.318" transform="translate(12.237 18.687)" fill="#446b6b"/>
            <path id="Trazado_185194" data-name="Trazado 185194" d="M37.591,55.807a12.4,12.4,0,0,0-1.556,2.828.324.324,0,0,1-.387.22.317.317,0,0,1-.22-.387,13,13,0,0,1,1.62-2.979.323.323,0,0,1,.43-.112.315.315,0,0,1,.113.43" transform="translate(8.641 18.521)" fill="#446b6b"/>
            <path id="Trazado_185195" data-name="Trazado 185195" d="M39.5,55.261a20.128,20.128,0,0,0-2.047,2.346.324.324,0,0,1-.43.112.316.316,0,0,1-.113-.43,21.025,21.025,0,0,1,2.146-2.473c.288-.284.734.16.444.444" transform="translate(4.75 18.317)" fill="#446b6b"/>
            <path id="Trazado_185196" data-name="Trazado 185196" d="M40.728,54.936a5.478,5.478,0,0,1-2.416,1.147.323.323,0,0,1-.387-.22.318.318,0,0,1,.22-.387,4.825,4.825,0,0,0,2.138-.984.322.322,0,0,1,.444,0,.317.317,0,0,1,0,.444" transform="translate(2.118 18.209)" fill="#446b6b"/>
            <path id="Trazado_185197" data-name="Trazado 185197" d="M40.374,53.685H38.125a.314.314,0,1,1,0-.629h2.249a.314.314,0,1,1,0,.629" transform="translate(2.388 17.759)" fill="#446b6b"/>
            <path id="Trazado_185198" data-name="Trazado 185198" d="M40.252,52.228l-2.085-.342a.318.318,0,0,1-.22-.387.322.322,0,0,1,.387-.22l2.085.342a.318.318,0,0,1,.22.387.322.322,0,0,1-.387.22" transform="translate(2.257 17.162)" fill="#446b6b"/>
            <path id="Trazado_185199" data-name="Trazado 185199" d="M39.966,50.98a7.912,7.912,0,0,0-.89-.145,8.3,8.3,0,0,0-.948-.044.315.315,0,0,1,0-.63,9.111,9.111,0,0,1,2,.212.317.317,0,0,1,.22.387.322.322,0,0,1-.387.22" transform="translate(2.704 16.789)" fill="#446b6b"/>
            <path id="Trazado_185200" data-name="Trazado 185200" d="M29.371,55.98a8.859,8.859,0,0,0,1.391,2.03.314.314,0,1,1-.444.444,9.476,9.476,0,0,1-1.49-2.157.323.323,0,0,1,.113-.431.318.318,0,0,1,.43.113" transform="translate(24.266 18.686)" fill="#446b6b"/>
            <path id="Trazado_185201" data-name="Trazado 185201" d="M28.418,55.384l.958,1.289a.307.307,0,0,1,.032.242.319.319,0,0,1-.144.188.325.325,0,0,1-.431-.112L27.875,55.7a.315.315,0,0,1,.112-.431.325.325,0,0,1,.431.113" transform="translate(26.974 18.486)" fill="#446b6b"/>
            <path id="Trazado_185202" data-name="Trazado 185202" d="M27.45,54.264c.036.016.069.032.107.047l.031.013c.061.025.125.048.187.071.124.043.248.079.374.111s.254.056.38.076l.031,0,.113.013c.068.007.135.011.2.015a.315.315,0,1,1,0,.63,4.745,4.745,0,0,1-1.739-.436.315.315,0,0,1-.112-.43.32.32,0,0,1,.428-.113" transform="translate(28.345 18.15)" fill="#446b6b"/>
            <path id="Trazado_185203" data-name="Trazado 185203" d="M26.85,53.006l1.279-.2a.348.348,0,0,1,.243.029.33.33,0,0,1,.144.19.315.315,0,0,1-.219.386l-1.28.2a.346.346,0,0,1-.242-.032.325.325,0,0,1-.145-.188.322.322,0,0,1,.22-.388" transform="translate(29.486 17.672)" fill="#446b6b"/>
            <path id="Trazado_185204" data-name="Trazado 185204" d="M24.518,91.987a4.644,4.644,0,0,0-.893,1.949.315.315,0,0,1-.607-.167,5.3,5.3,0,0,1,1.056-2.226.315.315,0,0,1,.444,0,.322.322,0,0,1,0,.444" transform="translate(38.223 30.61)" fill="#446b6b"/>
            <path id="Trazado_185205" data-name="Trazado 185205" d="M26.075,92.093a8.322,8.322,0,0,1-.693,2.322.315.315,0,0,1-.43.112.321.321,0,0,1-.113-.43,7.845,7.845,0,0,0,.63-2.172.315.315,0,0,1,.386-.22.322.322,0,0,1,.22.387" transform="translate(34.36 30.692)" fill="#446b6b"/>
            <path id="Trazado_185206" data-name="Trazado 185206" d="M27.705,91.963q-.284.817-.567,1.632a.315.315,0,1,1-.607-.167q.284-.817.567-1.632a.315.315,0,0,1,.607.167" transform="translate(30.431 30.647)" fill="#446b6b"/>
            <path id="Trazado_185207" data-name="Trazado 185207" d="M24.252,87.875q-.246,1.123-.494,2.246a.318.318,0,0,1-.387.22.322.322,0,0,1-.22-.387q.248-1.123.5-2.246a.314.314,0,1,1,.606.167" transform="translate(38.393 29.28)" fill="#446b6b"/>
            <path id="Trazado_185208" data-name="Trazado 185208" d="M22.721,83.855l-.683,1.264a.316.316,0,0,1-.43.112.322.322,0,0,1-.113-.43l.683-1.264a.315.315,0,0,1,.43-.112.32.32,0,0,1,.113.43" transform="translate(42.145 27.909)" fill="#446b6b"/>
            <path id="Trazado_185209" data-name="Trazado 185209" d="M25.391,83.3q-.4.963-.8,1.927a.322.322,0,0,1-.387.22.317.317,0,0,1-.219-.387q.4-.963.8-1.927a.321.321,0,0,1,.386-.22.318.318,0,0,1,.22.387" transform="translate(36.149 27.749)" fill="#446b6b"/>
            <path id="Trazado_185210" data-name="Trazado 185210" d="M59.864,85.023v2.571a.315.315,0,0,1-.629,0V85.023a.315.315,0,0,1,.629,0" transform="translate(-45.383 28.357)" fill="#446b6b"/>
            <path id="Trazado_185211" data-name="Trazado 185211" d="M61.31,86.23v.964a.317.317,0,0,1-.315.315.321.321,0,0,1-.315-.315V86.23a.315.315,0,0,1,.63,0" transform="translate(-48.758 28.757)" fill="#446b6b"/>
            <path id="Trazado_185212" data-name="Trazado 185212" d="M62.354,86.859l.161.482a.357.357,0,0,1-.032.243.323.323,0,0,1-.188.144.312.312,0,0,1-.242-.032.336.336,0,0,1-.145-.188c-.053-.16-.107-.32-.161-.482a.25.25,0,0,1-.005-.125.244.244,0,0,1,.037-.116.314.314,0,0,1,.431-.113.34.34,0,0,1,.144.188" transform="translate(-51.384 28.996)" fill="#446b6b"/>
            <path id="Trazado_185213" data-name="Trazado 185213" d="M60.659,78.287q-.1.961-.207,1.923a.322.322,0,0,1-.315.314c-.155-.007-.334-.139-.314-.314q.1-.963.207-1.923a.322.322,0,0,1,.314-.315.319.319,0,0,1,.315.315" transform="translate(-46.964 26.098)" fill="#446b6b"/>
            <path id="Trazado_185214" data-name="Trazado 185214" d="M59.383,79.008v.8a.314.314,0,0,1-.629,0v-.8a.314.314,0,1,1,.629,0" transform="translate(-44.26 26.339)" fill="#446b6b"/>
            <path id="Trazado_185215" data-name="Trazado 185215" d="M48.413,88.678a45.281,45.281,0,0,0-6.9-7.284q-1.093-.925-2.248-1.778c-.322-.239-.008-.785.318-.543a45.872,45.872,0,0,1,7.533,7q.955,1.115,1.838,2.289c.244.323-.3.638-.543.318" transform="translate(-7.707 26.447)" fill="#446b6b"/>
            <path id="Trazado_185216" data-name="Trazado 185216" d="M48.488,89.388a33.382,33.382,0,0,0-7.651-6.812c-.34-.219-.025-.763.318-.543a33.887,33.887,0,0,1,7.777,6.911c.258.31-.187.757-.444.444" transform="translate(-9.778 27.44)" fill="#446b6b"/>
            <path id="Trazado_185218" data-name="Trazado 185218" d="M58.861,22.674c-.946,5.185-6.519,18.212-6.5,18.247,1.738-.24,2.386,1.06,3.061,2.727A7.716,7.716,0,0,1,55.3,49a7.224,7.224,0,0,1-3.186,4.122,3.708,3.708,0,0,1-4.659-.814,122.216,122.216,0,0,1-2.97,15.1,3.719,3.719,0,0,1-3.578,2.735c-3.038-.043-6.868-.778-8.574-2.154a3.1,3.1,0,0,1-1.038-1.272,3.84,3.84,0,0,1-.045-1.889,57.79,57.79,0,0,1,1.594-7.394c-4.437-.924-15.245-3.879-14.867-8.62.407-5.1,10.457-30.225,11.942-34.951,0,0,21.477,6.146,28.945,8.809" transform="translate(10.703 4.641)" fill="#cd8451"/>
            <path id="Trazado_185219" data-name="Trazado 185219" d="M31.945,46.551l8.469,2.238-9.308,1.327Z" transform="translate(11.61 15.581)" fill="#7f4e33"/>
            <path id="Trazado_185220" data-name="Trazado 185220" d="M26.739,37.878a7.231,7.231,0,0,0-1.13.646l-.117.084c-.021.016-.143.107-.057.041-.092.071-.182.144-.27.22q-.24.208-.463.436t-.426.475c0,.007-.121.152-.045.055l-.087.116c-.063.085-.124.172-.183.26-.117.178-.228.359-.33.545-.056.1-.109.206-.16.31-.025.052-.049.1-.073.157-.011.024-.077.178-.028.063a.648.648,0,0,1-.774.439.636.636,0,0,1-.44-.774,7.9,7.9,0,0,1,3.949-4.16.644.644,0,0,1,.861.226.637.637,0,0,1-.226.861" transform="translate(36.976 12.29)" fill="#7f4e33"/>
            <path id="Trazado_185221" data-name="Trazado 185221" d="M25.112,40.478a2.4,2.4,0,0,0-.239-.227c-.037-.032-.108-.059.021.015-.023-.013-.043-.031-.064-.045-.041-.029-.085-.057-.129-.085-.095-.057-.192-.1-.292-.152-.069-.035.132.049.025.011l-.072-.028c-.055-.019-.111-.036-.167-.053s-.1-.027-.151-.037a.692.692,0,0,1-.171-.033c.017.012.143.016.052.008l-.077-.008c-.059,0-.116-.008-.175-.008-.109,0-.22.017-.328.016.025,0,.139-.023.052-.007-.025,0-.052.008-.076.013-.064.012-.127.028-.19.045a.63.63,0,0,1-.335-1.215,3.281,3.281,0,0,1,3.206.9.629.629,0,0,1-.89.89" transform="translate(37.542 12.912)" fill="#7f4e33"/>
            <path id="Trazado_185222" data-name="Trazado 185222" d="M29.523,37.034A2.071,2.071,0,0,0,30.545,33.1a2.071,2.071,0,0,0-1.022,3.939" transform="translate(23.994 11.062)"/>
            <path id="Trazado_185223" data-name="Trazado 185223" d="M40.124,33.417a2.071,2.071,0,0,0,1.022-3.939,2.071,2.071,0,0,0-1.022,3.939" transform="translate(-0.756 9.852)"/>
            <path id="Trazado_185224" data-name="Trazado 185224" d="M39.077,40.131a3.567,3.567,0,0,1-4.766,1.539.634.634,0,0,1-.226-.861.644.644,0,0,1,.861-.226c.044.024.089.045.133.068.107.053-.06-.015.011,0,.088.023.172.06.26.083s.16.037.242.052c.161.029-.135-.008.029,0,.041,0,.083.005.124.008.091,0,.182,0,.274,0l.124-.009c.075-.005.089-.011.005,0a3.363,3.363,0,0,0,.535-.129l.117-.043c.063-.023.088-.039.011,0,.084-.039.166-.079.246-.124s.157-.092.234-.144c.015-.009.128-.089.057-.039s.039-.032.052-.043c.069-.06.136-.121.2-.187.029-.029.057-.06.084-.091s.117-.148.027-.027a2.648,2.648,0,0,0,.28-.47.632.632,0,0,1,.861-.226.646.646,0,0,1,.226.861" transform="translate(9.008 13.116)" fill="#7f4e33"/>
            <path id="Trazado_185225" data-name="Trazado 185225" d="M43.259,23.89a2.479,2.479,0,0,0-.239,1.257l-6.23-.166a5.822,5.822,0,0,1,5.974-1.49Z" transform="translate(1.179 7.767)"/>
            <path id="Trazado_185226" data-name="Trazado 185226" d="M24.794,26.368a2.485,2.485,0,0,1-.529,1.165q2.593,1.728,5.188,3.453a5.823,5.823,0,0,0-4.025-4.658Z" transform="translate(31.702 8.812)"/>
            <path id="Trazado_185227" data-name="Trazado 185227" d="M48.056,68.149a16.5,16.5,0,0,0-1.631,2.712c-.653,1.284-1.235,2.6-1.789,3.932-1.368,3.282-2.583,6.63-3.781,9.977S38.5,91.47,37.263,94.8c-1.592,4.307-3.2,8.612-4.617,12.98a109.041,109.041,0,0,0-3.537,13.394c-.108.566-.208,1.133-.3,1.7-.067.4-.673.23-.606-.167a101.441,101.441,0,0,1,3.346-13.547c1.4-4.453,3-8.836,4.623-13.211,1.26-3.4,2.465-6.819,3.682-10.235s2.439-6.816,3.8-10.169c.578-1.425,1.18-2.842,1.847-4.228a22.868,22.868,0,0,1,1.7-3.047c.132-.195.272-.383.418-.567.25-.319.693.129.444.444" transform="translate(7.782 22.625)" fill="#446b6b"/>
            <path id="Trazado_185229" data-name="Trazado 185229" d="M51.985,61.4c-.777,2.369-1.554,4.74-2.256,7.133q-.595,2.024-1.156,4.059a16,16,0,0,0-.762,4.865c.064,1.651.466,3.267.633,4.908a47.563,47.563,0,0,1,.156,5.068q-.024,5.123-.049,10.247-.028,5.752-.055,11.5a.315.315,0,0,1-.63,0q.05-10.3.1-20.6c.008-1.728.043-3.461-.065-5.187-.1-1.663-.459-3.285-.641-4.938a13.86,13.86,0,0,1,.4-4.862c.362-1.47.8-2.924,1.216-4.378.774-2.681,1.635-5.334,2.5-7.984.127-.383.734-.219.607.167" transform="translate(-21.444 20.423)" fill="#446b6b"/>
            <path id="Trazado_185234" data-name="Trazado 185234" d="M39.636,129.979v3.534a.315.315,0,0,1-.629,0v-3.534a.315.315,0,0,1,.629,0" transform="translate(1.843 43.404)" fill="#7f4e33"/>
            <path id="Trazado_185235" data-name="Trazado 185235" d="M41.75,129.878a7.628,7.628,0,0,1,.22,3.4.317.317,0,0,1-.387.22.322.322,0,0,1-.219-.387,6.91,6.91,0,0,0-.222-3.066.315.315,0,0,1,.607-.167" transform="translate(-3.42 43.398)" fill="#7f4e33"/>
            <path id="Trazado_185236" data-name="Trazado 185236" d="M44.161,129.648a6.015,6.015,0,0,1,.264,3.069.316.316,0,0,1-.387.219.322.322,0,0,1-.22-.387,5.358,5.358,0,0,0-.264-2.733.319.319,0,0,1,.22-.387.322.322,0,0,1,.387.22" transform="translate(-9.085 43.317)" fill="#7f4e33"/>
            <path id="Trazado_185237" data-name="Trazado 185237" d="M56.567,128.054a13.981,13.981,0,0,0,.535,3.482.315.315,0,0,1-.607.167,14.685,14.685,0,0,1-.557-3.649.315.315,0,0,1,.629,0" transform="translate(-38.234 42.76)" fill="#7f4e33"/>
            <path id="Trazado_185238" data-name="Trazado 185238" d="M59.332,128.54q.2,2.084.41,4.168a.317.317,0,0,1-.315.315.323.323,0,0,1-.315-.315L58.7,128.54a.316.316,0,0,1,.314-.315.322.322,0,0,1,.315.315" transform="translate(-44.551 42.919)" fill="#7f4e33"/>
            <path id="Trazado_185239" data-name="Trazado 185239" d="M61.457,128.219q.39,1.59.782,3.179c.1.392-.51.561-.606.167q-.392-1.59-.783-3.179c-.1-.392.51-.561.607-.167" transform="translate(-49.91 42.841)" fill="#7f4e33"/>
            <path id="Trazado_185240" data-name="Trazado 185240" d="M64.378,128.6a40.844,40.844,0,0,1-8.76-.689c-.4-.075-.23-.681.167-.606a40.149,40.149,0,0,0,8.593.666.315.315,0,0,1,0,.629" transform="translate(-45.07 42.609)" fill="#7f4e33"/>
            <path id="Trazado_185241" data-name="Trazado 185241" d="M46.073,131.1l-8.036-1.263c-.4-.063-.23-.669.167-.606l8.036,1.261c.4.063.23.67-.167.607" transform="translate(-3.391 43.254)" fill="#7f4e33"/>
            <path id="Trazado_185242" data-name="Trazado 185242" d="M27.688,64.465l-2.579-2.884c-.27-.3.174-.747.444-.444l2.579,2.884c.27.3-.174.747-.444.444" transform="translate(31.925 20.429)" fill="#446b6b"/>
            <path id="Trazado_185243" data-name="Trazado 185243" d="M28.406,65.923l-2.561-2.9a.322.322,0,0,1,0-.444.318.318,0,0,1,.446,0q1.279,1.449,2.56,2.9a.32.32,0,0,1,0,.444.317.317,0,0,1-.444,0" transform="translate(30.225 20.915)" fill="#446b6b"/>
            <path id="Trazado_185244" data-name="Trazado 185244" d="M46.078,55.193a8.228,8.228,0,0,0-3.7-2.17.315.315,0,0,1,.168-.606,8.852,8.852,0,0,1,3.98,2.332c.284.288-.16.734-.444.444" transform="translate(-9.332 17.54)" fill="#446b6b"/>
            <path id="Trazado_185245" data-name="Trazado 185245" d="M46.423,56.46a8.082,8.082,0,0,0-3.293-2.35.323.323,0,0,1-.22-.386.317.317,0,0,1,.387-.22,8.668,8.668,0,0,1,3.57,2.513.32.32,0,0,1,0,.443.314.314,0,0,1-.444,0" transform="translate(-10.671 17.903)" fill="#446b6b"/>
            <path id="Trazado_185246" data-name="Trazado 185246" d="M22.376,162.1q4.286,7.766,8.473,15.584,1.175,2.194,2.344,4.394c.19.358-.354.675-.543.318q-4.16-7.834-8.418-15.615-1.2-2.184-2.4-4.363c-.2-.355.347-.673.543-.318" transform="translate(31.226 54.205)" fill="#491e0b"/>
            <path id="Trazado_185247" data-name="Trazado 185247" d="M23.905,167.153a97.478,97.478,0,0,1,6.273,9.618q.8,1.407,1.559,2.842c.188.358-.355.675-.543.318a97.414,97.414,0,0,0-5.947-9.824q-.921-1.333-1.885-2.636c-.242-.326.3-.641.543-.318" transform="translate(30.664 55.903)" fill="#491e0b"/>
            <path id="Trazado_185248" data-name="Trazado 185248" d="M45.6,163.48q3.564,5.007,6.811,10.231.919,1.483,1.814,2.982a.315.315,0,0,1-.543.318q-3.149-5.277-6.626-10.351-.987-1.439-2-2.862c-.235-.331.31-.645.543-.318" transform="translate(-20.797 54.672)" fill="#491e0b"/>
            <path id="Trazado_185249" data-name="Trazado 185249" d="M44.124,165.024l9.424,15.216q1.323,2.136,2.645,4.271c.214.346-.33.662-.543.318l-9.424-15.216q-1.323-2.136-2.645-4.27c-.214-.347.33-.663.543-.319" transform="translate(-20.804 55.186)" fill="#491e0b"/>
            <path id="Trazado_185250" data-name="Trazado 185250" d="M49.728,178.84a24.159,24.159,0,0,1,3.1,4.977c.17.366-.372.685-.543.318a23.575,23.575,0,0,0-3-4.85c-.252-.312.191-.761.444-.444" transform="translate(-24.996 59.824)" fill="#491e0b"/>
            <path id="Trazado_185251" data-name="Trazado 185251" d="M23.679,209.5q-.316,1.608-.631,3.215a.315.315,0,0,1-.607-.167q.316-1.608.631-3.215a.315.315,0,0,1,.607.167" transform="translate(39.913 69.989)" fill="#873d15"/>
            <path id="Trazado_185252" data-name="Trazado 185252" d="M24.711,208.7v4.82a.315.315,0,0,1-.629,0V208.7a.315.315,0,0,1,.629,0" transform="translate(36.689 69.752)" fill="#873d15"/>
            <path id="Trazado_185253" data-name="Trazado 185253" d="M26.556,208.852a14.949,14.949,0,0,1,.745,4.586.315.315,0,0,1-.629,0,14.376,14.376,0,0,0-.723-4.419c-.127-.386.482-.55.607-.167" transform="translate(31.631 69.832)" fill="#873d15"/>
            <path id="Trazado_185254" data-name="Trazado 185254" d="M28.006,208.84q.483,1.928.966,3.855a.315.315,0,0,1-.607.168q-.482-1.928-.966-3.856a.315.315,0,0,1,.607-.167" transform="translate(28.004 69.826)" fill="#873d15"/>
            <path id="Trazado_185255" data-name="Trazado 185255" d="M36.791,208.391a6.651,6.651,0,0,1-.19,4.343.325.325,0,0,1-.387.219.316.316,0,0,1-.22-.387,6.077,6.077,0,0,0,.19-4.008.315.315,0,0,1,.607-.167" transform="translate(8.454 69.677)" fill="#873d15"/>
            <path id="Trazado_185256" data-name="Trazado 185256" d="M38.436,208.872a5.679,5.679,0,0,1,.113,3.7c-.12.386-.727.22-.607-.167a5.11,5.11,0,0,0-.113-3.369.319.319,0,0,1,.22-.387.323.323,0,0,1,.387.22" transform="translate(4.267 69.835)" fill="#873d15"/>
            <path id="Trazado_185257" data-name="Trazado 185257" d="M40.268,208.359q.308,1.77.618,3.538a.323.323,0,0,1-.219.387.317.317,0,0,1-.387-.219q-.31-1.77-.618-3.54a.323.323,0,0,1,.219-.387.318.318,0,0,1,.387.22" transform="translate(-0.278 69.663)" fill="#873d15"/>
            <path id="Trazado_185258" data-name="Trazado 185258" d="M41.956,208.363l1,4.168c.095.394-.513.561-.606.167q-.5-2.084-1-4.168c-.093-.392.513-.561.607-.167" transform="translate(-4.6 69.667)" fill="#873d15"/>
            <path id="Trazado_185259" data-name="Trazado 185259" d="M43.66,208.885q.3,1.742.6,3.485a.324.324,0,0,1-.22.388.318.318,0,0,1-.387-.22q-.3-1.744-.6-3.486a.325.325,0,0,1,.22-.387.318.318,0,0,1,.387.22" transform="translate(-8.184 69.839)" fill="#873d15"/>
            <path id="Trazado_185260" data-name="Trazado 185260" d="M47.534,136.712a30.922,30.922,0,0,0-11.864-.924c-.4.047-.4-.583,0-.629a31.391,31.391,0,0,1,12.031.945.315.315,0,0,1-.167.607" transform="translate(-1.589 45.17)" fill="#873d15"/>
            <path id="Trazado_185261" data-name="Trazado 185261" d="M34.845,163.219q-.649,4.969-.822,9.985t.131,10.017q.3,5.033,1.085,10.022.777,4.949,2.018,9.813t2.94,9.577q.214.593.434,1.183c.143.379-.466.543-.606.167q-1.762-4.717-3.069-9.587t-2.138-9.838q-.835-4.959-1.2-9.982t-.258-10.064q.11-5.035.7-10.042.074-.625.156-1.249a.325.325,0,0,1,.314-.315.317.317,0,0,1,.315.315" transform="translate(8.401 54.526)" fill="#491e0b"/>
            <path id="Trazado_185262" data-name="Trazado 185262" d="M42.459,29.219a23.248,23.248,0,0,0-6.711,6.333,23.97,23.97,0,0,0-1.42,2.285q-.112-.43-.226-.861a20.722,20.722,0,0,0,4,1.616.63.63,0,0,1-.335,1.213,22.313,22.313,0,0,1-4.3-1.743.64.64,0,0,1-.226-.861A24.47,24.47,0,0,1,39.5,29.777a25.5,25.5,0,0,1,2.328-1.644c.69-.43,1.323.659.635,1.086" transform="translate(6.525 9.383)" fill="#7f4e33"/>
            <path id="Trazado_185263" data-name="Trazado 185263" d="M43.38,42.968a2.936,2.936,0,0,1-3.45-1.644A6.433,6.433,0,0,1,39.7,37.21a17.049,17.049,0,0,1,3.5-7.338,5.323,5.323,0,0,1-6.943-7.716c-1.941,3.319-7.691,3.183-9.471-.224a3.814,3.814,0,0,1-7.458,1.03c.559,2.374-2.286,4.491-4.674,3.989-2.8-.589-4.566-3.624-4.567-6.485S11.453,14.928,13,12.518c.38-.594.868-1.24,1.57-1.3s1.332.973.741,1.357C16.4,8.282,21.269,5.847,25.695,6.023s8.5,2.324,12.4,4.422l8.241,4.43c3.785,2.037,7.716,4.2,10.153,7.739Z" transform="translate(23.591 2.013)"/>
            <path id="Trazado_185264" data-name="Trazado 185264" d="M50.37,12.538A7.918,7.918,0,0,0,46.417,7.5h.57a6.524,6.524,0,0,0-1.715,9.169l-.771-.2a2.02,2.02,0,0,0,.7-2.336,2.255,2.255,0,0,0-2.289-1.571c-2.8.023-3.924,3-3.724,5.382a16.4,16.4,0,0,0,1.564,5c.284.661-.687,1.237-.976.57-1.341-3.107-2.859-7.082-.566-10.16a4.685,4.685,0,0,1,3.895-1.919,3.384,3.384,0,0,1,3.134,2.238,3.169,3.169,0,0,1-1.172,3.768.579.579,0,0,1-.771-.2,7.53,7.53,0,0,1-.828-7.073,7.319,7.319,0,0,1,2.1-3.038,5.654,5.654,0,0,1,.741-.541c.4-.236.675-.075,1.041.14a8.992,8.992,0,0,1,4.1,5.506.564.564,0,0,1-1.088.3" transform="translate(-8.695 2.168)"/>
            <path id="Trazado_185265" data-name="Trazado 185265" d="M32.048,16.74c2.806,1.865,3.53,6.521.79,8.8a2.87,2.87,0,0,1-2.563.69,2.082,2.082,0,0,1-1.611-1.817,1.859,1.859,0,0,1,1.389-1.847.843.843,0,0,1,1.089.529,5.81,5.81,0,0,1,.326,1.323,6.547,6.547,0,0,1-2.033,5.658c-.537.489-1.337-.308-.8-.8A5.432,5.432,0,0,0,30,23.269l.4.394c-.447-.069-.7.6-.553.932a1.211,1.211,0,0,0,1.211.587c1.078-.108,1.859-1.267,2.158-2.213a4.723,4.723,0,0,0-1.738-5.255c-.6-.4-.037-1.377.57-.974" transform="translate(20.996 5.571)"/>
          </g>
        </g>
      </g>
    </g>
  </g>
</svg>
