<svg xmlns="http://www.w3.org/2000/svg" xmlns:xlink="http://www.w3.org/1999/xlink" width="190" height="161" viewBox="0 0 190 161">
  <defs>
    <clipPath id="clip-path">
      <rect id="Rect치ngulo_45662" data-name="Rect치ngulo 45662" width="190" height="161" rx="14" transform="translate(5821 -6397)" fill="#e1e8ff"/>
    </clipPath>
    <clipPath id="clip-path-2">
      <rect id="Rect치ngulo_45657" data-name="Rect치ngulo 45657" width="131.342" height="360.568" fill="none"/>
    </clipPath>
    <clipPath id="clip-path-3">
      <path id="Trazado_185433" data-name="Trazado 185433" d="M79.94,359.467l-.007,0,.007,0M45.422,333.455s-5.823,21.109-7.167,27.108a.791.791,0,0,0,.148.005h0c1.295,0,10.7-.277,20.235-.554,10.411-.3,20.972-.606,21.291-.549-6.458-1.856-20.989-7.959-21.35-8.681-.218-.435,3.077-12.536,3.124-17.823-1.12-.1-2.454-.145-3.891-.145-4.149,0-9.162.355-12.394.639" fill="none"/>
    </clipPath>
    <clipPath id="clip-path-5">
      <path id="Trazado_185444" data-name="Trazado 185444" d="M119.685,352.774h0M81,330.235S77.763,352.5,77.16,358.791c-.059.058,10.527-1.475,21.15-3.008,10.5-1.516,21.045-3.032,21.368-3.01-6.849-1.139-22.508-5.673-22.971-6.367-.279-.42,1.536-13.177.9-18.589-4.507.1-12.2,1.517-16.605,2.418" fill="none"/>
    </clipPath>
    <clipPath id="clip-path-7">
      <path id="Trazado_185469" data-name="Trazado 185469" d="M101.2,129.2h0m-18.26-12.726s-2.276,11.348-2.765,14.563c-.031.029,5.18-.445,10.421-.918,5.206-.471,10.441-.941,10.6-.92-3.321-.788-10.854-3.58-11.06-3.951-.123-.223,1.159-6.727,1.016-9.527-.16-.006-.329-.009-.5-.009a60.744,60.744,0,0,0-7.708.762" fill="none"/>
    </clipPath>
    <clipPath id="clip-path-9">
      <path id="Trazado_185479" data-name="Trazado 185479" d="M39.644,126.862h0m10.048-13.478c-.143,2.8,1.14,9.3,1.016,9.526-.205.371-7.739,3.164-11.061,3.952.16-.021,5.4.449,10.6.919,5.241.474,10.452.947,10.422.918-.49-3.215-2.766-14.563-2.766-14.563a60.779,60.779,0,0,0-7.7-.761c-.177,0-.348,0-.509.009" fill="none"/>
    </clipPath>
  </defs>
  <g id="Enmascarar_grupo_313" data-name="Enmascarar grupo 313" transform="translate(-5821 6397)" clip-path="url(#clip-path)">
    <g id="Grupo_175571" data-name="Grupo 175571" transform="translate(5694.551 -6439.998)">
      <path id="Trazado_185816" data-name="Trazado 185816" d="M189.906,100.022c-1.445,24.534-18.6,47.959-41.827,49.412-26.681,2.243-51.171-13.811-77.748-13.981-13.552-1.275-26.262,4.419-39.469,6.257C1.032,142.911-3.513,104.451,2.05,79.661,25.512-37.21,191.53-21.309,189.906,100.022Z" transform="matrix(0.914, -0.407, 0.407, 0.914, 0, 77.246)" fill="#c4d1ff"/>
      <path id="Trazado_185819" data-name="Trazado 185819" d="M189.905,100.022c-1.445,24.534-18.6,47.959-41.827,49.412-26.681,2.243-51.171-13.811-77.748-13.981-13.552-1.275-26.262,4.419-39.469,6.257C1.032,142.912-3.513,104.452,2.05,79.661,25.512-37.21,191.53-21.309,189.905,100.022Z" transform="matrix(-0.07, 0.998, -0.998, -0.07, 396.898, 10.439)" fill="#c4d1ff"/>
      <path id="Trazado_185818" data-name="Trazado 185818" d="M.014,122.957c1.718,30.16,22.113,58.956,49.735,60.742,31.725,2.757,60.845-16.978,92.447-17.186,16.114-1.567,31.227,5.432,46.931,7.692C224.6,175.681,230,128.4,223.384,97.927,195.487-45.742-1.918-26.195.014,122.957Z" transform="translate(325.723 258.391) rotate(174)" fill="#a6bbff" opacity="0.388" style="mix-blend-mode: multiply;isolation: isolate"/>
    </g>
    <g id="Grupo_175535" data-name="Grupo 175535" transform="translate(5850.329 -6397)">
      <g id="Grupo_175518" data-name="Grupo 175518">
        <g id="Grupo_175517" data-name="Grupo 175517" clip-path="url(#clip-path-2)">
          <path id="Trazado_185422" data-name="Trazado 185422" d="M102.906,63.729c-.25-.086.268-.16.294.141a10.083,10.083,0,0,1-2.432,7.533,1.812,1.812,0,0,1,1.107-1.451c2.325,2.1,1.773,7.1-.933,8.458,1.03.439,1.092,2.264.363,3.216a4.811,4.811,0,0,1-2.96,1.5c1.014,1.111.5,3.273-.683,4.135a4.755,4.755,0,0,1-4.059.394,4.831,4.831,0,0,1-7.157,1.094,1.766,1.766,0,0,1-3.006-.278,2.321,2.321,0,0,1,1.305-3.16c.587.695-.541,1.857-1.271,1.379s-.863-1.633-.785-2.6a9.994,9.994,0,0,1,5.445-8.306,3.092,3.092,0,0,0,1.281-.786,4.3,4.3,0,0,0,.543-2.365c.374-5.022,4.908-9.065,9.178-8.183Z"/>
          <path id="Trazado_185423" data-name="Trazado 185423" d="M46.072,319.4a94.843,94.843,0,0,0,1.065,22.87,1.9,1.9,0,0,0,.393,1.026,1.93,1.93,0,0,0,1.187.445l7.481,1a2.108,2.108,0,0,0,2.956-1.847q4.6-18.178,9.2-36.356Z" fill="#cd8451"/>
          <path id="Trazado_185424" data-name="Trazado 185424" d="M38.255,360.563c-.127.1,41.483-1.226,41.685-1.1-6.455-1.854-21-7.962-21.357-8.683-.218-.436,3.076-12.536,3.124-17.824-4.354-.4-11.934.113-16.285.494,0,0-5.823,21.11-7.167,27.108" fill="#9a8728"/>
          <path id="Trazado_185425" data-name="Trazado 185425" d="M62.292,356.624a4.936,4.936,0,0,1,3.894-3.7c.613-.12.366-1.015-.243-.9a5.88,5.88,0,0,0-4.589,4.357c-.127.58.808.822.938.237" fill="#4f657f"/>
          <path id="Trazado_185426" data-name="Trazado 185426" d="M59.713,355.261a4.509,4.509,0,0,1,4.777-2.778.5.5,0,0,0,.592-.329.465.465,0,0,0-.344-.566,5.507,5.507,0,0,0-5.962,3.436c-.2.564.738.8.937.237" fill="#4f657f"/>
          <path id="Trazado_185427" data-name="Trazado 185427" d="M57.009,353.959a6.9,6.9,0,0,1,4.668-3.634.464.464,0,1,0-.243-.9,7.835,7.835,0,0,0-5.266,4.07c-.264.534.574,1,.841.459" fill="#4f657f"/>
          <path id="Trazado_185428" data-name="Trazado 185428" d="M59.273,343.943a7.967,7.967,0,0,1-2.172-3.275,7.661,7.661,0,0,1-.4-1.918c-.029-.393-.194-1.625.3-1.815.429-.165.926.5,1.126.769a7.141,7.141,0,0,1,1.338,5.381c-.079.484.61.844.89.348a13.658,13.658,0,0,1,2.208-2.934,14.262,14.262,0,0,1,1.383-1.224,4.615,4.615,0,0,1,1.414-.845,1.069,1.069,0,0,1,1.172.253c.344.433-.227.847-.538,1.116a17.841,17.841,0,0,1-2.916,2.047,18.717,18.717,0,0,1-3.767,1.607.464.464,0,1,0,.243.9,19.9,19.9,0,0,0,4.063-1.732,19.466,19.466,0,0,0,1.838-1.194,11.3,11.3,0,0,0,1.655-1.368,1.453,1.453,0,0,0,.4-1.581,1.8,1.8,0,0,0-1.228-.986c-1.339-.331-2.623.773-3.536,1.552a14.6,14.6,0,0,0-3.233,3.934l.889.348a8.036,8.036,0,0,0-.218-3.627,6.981,6.981,0,0,0-1.79-3.122,1.885,1.885,0,0,0-1.455-.57,1.419,1.419,0,0,0-1.161,1.271,7.593,7.593,0,0,0,.434,3.742,8.949,8.949,0,0,0,2.382,3.579c.45.412,1.138-.239.687-.652" fill="#4f657f"/>
        </g>
      </g>
      <g id="Grupo_175520" data-name="Grupo 175520">
        <g id="Grupo_175519" data-name="Grupo 175519" clip-path="url(#clip-path-3)">
          <path id="Trazado_185429" data-name="Trazado 185429" d="M47.84,340.434a2.845,2.845,0,0,1,4.219,1.614,2.762,2.762,0,0,1-3.423,2.854,2.625,2.625,0,0,1-1.106-4.21Z" fill="#f5e6df"/>
          <path id="Trazado_185430" data-name="Trazado 185430" d="M37.193,359.41l21.063-.553,20.982-.551,11.863-.312a.463.463,0,1,0,0-.925l-21.063.553-20.983.551-11.863.312a.463.463,0,1,0,0,.925" fill="#f5e6df"/>
          <path id="Trazado_185431" data-name="Trazado 185431" d="M69.742,354.309a3.375,3.375,0,0,0-3.315,3.969.485.485,0,0,0,.938-.233,2.43,2.43,0,0,1,2.375-2.811.463.463,0,1,0,0-.925" fill="#f5e6df"/>
          <path id="Trazado_185432" data-name="Trazado 185432" d="M38.952,353.493a5.441,5.441,0,0,1,3.653,5.295c-.031.6.938.6.969,0A6.389,6.389,0,0,0,39.2,352.6c-.587-.2-.833.694-.248.894" fill="#f5e6df"/>
        </g>
      </g>
      <g id="Grupo_175522" data-name="Grupo 175522">
        <g id="Grupo_175521" data-name="Grupo 175521" clip-path="url(#clip-path-2)">
          <path id="Trazado_185434" data-name="Trazado 185434" d="M79.94,308.721l2.193,28,11.79.993a227.775,227.775,0,0,0,6.7-35.963Z" fill="#cd8451"/>
          <path id="Trazado_185435" data-name="Trazado 185435" d="M77.16,358.79c-.117.117,42.3-6.126,42.525-6.016-6.846-1.138-22.515-5.673-22.978-6.369-.279-.419,1.536-13.177.9-18.588-4.508.1-12.2,1.517-16.605,2.418,0,0-3.243,22.265-3.846,28.555" fill="#9a8728"/>
          <path id="Trazado_185436" data-name="Trazado 185436" d="M101.255,351.94a5.015,5.015,0,0,1,3.511-4.238c.611-.194.244-1.08-.365-.887a5.967,5.967,0,0,0-4.135,4.993c-.056.608.933.745.989.132" fill="#4f657f"/>
          <path id="Trazado_185437" data-name="Trazado 185437" d="M98.44,350.85a4.588,4.588,0,0,1,4.532-3.4.512.512,0,0,0,.564-.406.485.485,0,0,0-.425-.538,5.6,5.6,0,0,0-5.66,4.213c-.131.6.858.731.989.132" fill="#4f657f"/>
          <path id="Trazado_185438" data-name="Trazado 185438" d="M95.5,349.836a7.006,7.006,0,0,1,4.31-4.263c.6-.213.239-1.1-.364-.887a7.952,7.952,0,0,0-4.866,4.78c-.2.577.717.954.92.37" fill="#4f657f"/>
          <path id="Trazado_185439" data-name="Trazado 185439" d="M96.533,339.331a8.334,8.334,0,0,1-2.645-3.093,7.948,7.948,0,0,1-.66-1.914c-.08-.4-.408-1.638.069-1.889.418-.22,1.013.4,1.252.653a7.515,7.515,0,0,1,1.162,1.591,7.353,7.353,0,0,1,.9,3.753c-.018.505.733.792.955.252a13.922,13.922,0,0,1,1.882-3.259,14.523,14.523,0,0,1,1.259-1.414,4.664,4.664,0,0,1,1.338-1.03,1.109,1.109,0,0,1,1.232.121c.408.4-.123.893-.406,1.2a18.136,18.136,0,0,1-2.722,2.435,18.984,18.984,0,0,1-3.649,2.085.48.48,0,0,0,.364.888,20.266,20.266,0,0,0,3.936-2.248,19.694,19.694,0,0,0,1.728-1.436,11.525,11.525,0,0,0,1.517-1.593,1.488,1.488,0,0,0,.207-1.664,1.887,1.887,0,0,0-1.384-.864c-1.414-.181-2.585,1.1-3.42,2a14.783,14.783,0,0,0-2.8,4.4l.955.252a8.317,8.317,0,0,0-.69-3.683,7.282,7.282,0,0,0-2.235-2.981,1.961,1.961,0,0,0-1.562-.412,1.443,1.443,0,0,0-1.025,1.436,7.865,7.865,0,0,0,.926,3.774,9.357,9.357,0,0,0,2.9,3.38c.513.367,1.134-.379.619-.748" fill="#4f657f"/>
        </g>
      </g>
      <g id="Grupo_175524" data-name="Grupo 175524">
        <g id="Grupo_175523" data-name="Grupo 175523" clip-path="url(#clip-path-5)">
          <path id="Trazado_185440" data-name="Trazado 185440" d="M84.38,337.086A2.954,2.954,0,0,1,88.9,338.24a2.811,2.811,0,0,1-3.136,3.32,2.719,2.719,0,0,1-1.674-4.173Z" fill="#f5e6df"/>
          <path id="Trazado_185441" data-name="Trazado 185441" d="M75.925,357.737l21.487-3.04,21.4-3.028,12.1-1.712a.477.477,0,1,0-.117-.946l-21.487,3.039-21.4,3.029-12.1,1.712a.477.477,0,1,0,.117.946" fill="#f5e6df"/>
          <path id="Trazado_185442" data-name="Trazado 185442" d="M108.583,348.7a3.436,3.436,0,0,0-2.882,4.447.5.5,0,0,0,.93-.348,2.474,2.474,0,0,1,2.069-3.153.477.477,0,1,0-.117-.946" fill="#f5e6df"/>
          <path id="Trazado_185443" data-name="Trazado 185443" d="M76.963,351.481a5.681,5.681,0,0,1,4.42,4.984c.045.613,1.037.5.992-.111a6.67,6.67,0,0,0-5.273-5.816c-.626-.137-.763.807-.139.943" fill="#f5e6df"/>
        </g>
      </g>
      <g id="Grupo_175526" data-name="Grupo 175526">
        <g id="Grupo_175525" data-name="Grupo 175525" clip-path="url(#clip-path-2)">
          <path id="Trazado_185445" data-name="Trazado 185445" d="M36.853,189.194A734.1,734.1,0,0,0,33.78,328.776q17.337.709,34.7.425a865.639,865.639,0,0,0,9.007-108.186q-.032,52.817-.062,105.633l35.439-3.994c1.22-.137,2.586-.357,3.3-1.354a4.435,4.435,0,0,0,.558-2.613,582.61,582.61,0,0,0-14.294-130.552,5.762,5.762,0,0,0-1.758-3.549,5.77,5.77,0,0,0-3.328-.779L38.789,182.19Z" fill="#d9c7c2"/>
          <path id="Trazado_185446" data-name="Trazado 185446" d="M13.571,115.474c.014-4.251,11.387-13.111,13.5-16.8A68.18,68.18,0,0,1,34.7,88.483a22.639,22.639,0,0,1-.583,22.576Z" fill="#56480d"/>
          <path id="Trazado_185447" data-name="Trazado 185447" d="M122.066,102.146c-2.471-5.34-11.111-18.21-16.99-18a13.952,13.952,0,0,1-3.418-.028,12.453,12.453,0,0,0,4.428,10.75c3.129,2.554,12.13,8.495,15.98,7.276" fill="#56480d"/>
          <path id="Trazado_185448" data-name="Trazado 185448" d="M97.853,119.763a130.747,130.747,0,0,0,11-12.53c2.535-3.289,12.289-17.695,13.153-21.757.654-3.075-11.394-49.778-11.221-51.212s-1.462-3.092-2.578-2.175a7.8,7.8,0,0,0-.312-3.452,2.672,2.672,0,0,0-2.7-1.781,4.081,4.081,0,0,0-.292-3.01,3.8,3.8,0,0,0-2.745.7c.709-1.487-1.461-3.011-2.99-2.4s-2.286,2.3-2.816,3.861-1.08,3.273-2.462,4.167c-1.747-.468-4.332-.418-4.544,1.379a3.134,3.134,0,0,0,.728,2.005,69.4,69.4,0,0,0,7.148,9.008,12.2,12.2,0,0,1,2.536,3.349,11.229,11.229,0,0,1,.664,3.857c.687,12.963,2.445,34.289,2.015,35.531-.413,1.192-11.786,21.565-16.524,27.144Z" fill="#cd8451"/>
          <path id="Trazado_185449" data-name="Trazado 185449" d="M56.186,108.688c-4.852-2.65-16.892-15.012-23.273-19.571-1.608-1.15-10.9-27.068-13.032-33.461a11.951,11.951,0,0,1-.9-4.985c.247-2.3,1.8-4.314,1.884-6.623a5.324,5.324,0,0,0-4.652-5.34,3.685,3.685,0,0,0-1.772-2.6c-1.668-.955-3.74-.4-5.567.175-1.048.33-2.354,1.36-1.7,2.258C5.461,37.461.894,42.527,1.694,44.415A2.152,2.152,0,0,0,0,46.665a6.613,6.613,0,0,0,.991,2.924C2.978,53.4,6.808,54.52,7.953,58.68a108.925,108.925,0,0,1,2.335,13.509,172.515,172.515,0,0,0,3.59,18.08,39.862,39.862,0,0,0,2.641,7.8c2.35,4.779,6.288,8.508,10.2,12.055q12.23,11.086,25.215,21.255Z" fill="#cd8451"/>
          <path id="Trazado_185450" data-name="Trazado 185450" d="M74.175,89.889C67.42,94.446,38.909,91.316,34.9,88.336c-3.007,18.053-21.447,26.709-21.076,27.167,5.742,7.1,14.027,9.345,21.7,14.3,1.226.792,2.986,26.243-6.286,67.1,16.264-5.893,32.706,11.209,44.943,10.372,20.395-1.4,30.171-9.743,30.171-9.743s4.2-75.069,4.715-75.743c8.4-11.044,5.962-7.685,13.005-19.643-7.087.181-14.611-9.9-20.468-17.95Z" fill="#9a8728"/>
          <path id="Trazado_185451" data-name="Trazado 185451" d="M49.072,108.338l2.118,6.137a.567.567,0,0,0,.587.474,32.125,32.125,0,0,0,6.167.3,29.083,29.083,0,0,0-1.21-7.705l-7.627.383Z" fill="#cd8451"/>
          <path id="Trazado_185452" data-name="Trazado 185452" d="M83.345,110.689q-.041,4.282.035,8.566a58.4,58.4,0,0,0,5.961.122.7.7,0,0,0,.845-.765q.525-4.889.672-9.806a26.051,26.051,0,0,1-5.259-.9Z" fill="#cd8451"/>
          <path id="Trazado_185453" data-name="Trazado 185453" d="M92.429,87.834A53.061,53.061,0,0,1,91,111.945a1.133,1.133,0,0,1-1.285,1.027,51.033,51.033,0,0,1-7.408-.137,1.3,1.3,0,0,1-.889-.321,1.317,1.317,0,0,1-.235-.784A145.065,145.065,0,0,0,76.4,84.586l15.723-.354Z" fill="#d9c7c2"/>
          <path id="Trazado_185454" data-name="Trazado 185454" d="M42.1,39.795a6.151,6.151,0,0,1-9.1-2.967,2.251,2.251,0,0,1,.25-2.191c.526-.563,1.736-.335,1.753.436A4.408,4.408,0,0,1,28.481,29.9a5.57,5.57,0,0,1-3.062-5.652,4.54,4.54,0,0,1,4.949-3.722,4.191,4.191,0,0,1-3.931-4.182,4.192,4.192,0,0,1,4.23-3.879c-.187-2.175.221-4.577,1.836-6.045s4.655-1.365,5.619.594A3.558,3.558,0,0,1,45,5.327a3.442,3.442,0,0,1,6.76.965,7.242,7.242,0,0,1,5.071-3.609c2.137-.217,4.49,1.391,4.491,3.54A3.55,3.55,0,0,1,66.5,5.96a3.553,3.553,0,0,1-.593,5.156A3.112,3.112,0,0,1,69.1,13.691a6.56,6.56,0,0,1-.908,4.328,5.4,5.4,0,0,1-.319,6.321,2.584,2.584,0,0,1,1.482,4.737,5.9,5.9,0,0,1-2.432,6.33,11.141,11.141,0,0,1-6.914,1.715Z"/>
          <path id="Trazado_185455" data-name="Trazado 185455" d="M73.072,34.491,88.8,26.541a6.231,6.231,0,0,1,1.488-.6c1.984-.422,3.805,1.1,5.266,2.506a1.525,1.525,0,0,1,.549.842c.1.85-1.152,1.176-1.941.844s-1.53-.981-2.376-.852A4.747,4.747,0,0,1,90.4,33.057a14.04,14.04,0,0,1-3.355,2.427A88.8,88.8,0,0,1,73.821,42.23a40.674,40.674,0,0,1-2.128-6.54Z" fill="#cd8451"/>
          <path id="Trazado_185456" data-name="Trazado 185456" d="M38.263,43.471a105.974,105.974,0,0,1-12.184-4.084,22.952,22.952,0,0,0-5.388-1.728,6.766,6.766,0,0,0-5.347,1.3l3.143.664c.186,1.107-1.179,2.277-.535,3.2a1.785,1.785,0,0,0,.571.465A141.421,141.421,0,0,0,38.935,53.479a10.77,10.77,0,0,0,.107-6.128Z" fill="#cd8451"/>
          <path id="Trazado_185457" data-name="Trazado 185457" d="M75.611,58.392q-.68-2.913-1.36-5.827c-.4-1.7-2.338-3.358-.73-4,3.722-1.5,4.242-2.829,4.275-2.709L73,32.973a47.329,47.329,0,0,1-37.318,6l-.123,14.1a4.027,4.027,0,0,0,.449,2.326,3.208,3.208,0,0,0,1.321.961l4.666,2.266q.709,7.408,1.42,14.816a4.88,4.88,0,0,0,.562,2.188,3.667,3.667,0,0,0,2.435,1.344A45.618,45.618,0,0,0,75.1,74.135a2.226,2.226,0,0,0,1.2-.948,2.823,2.823,0,0,0,.147-1.435l-.987-14.079Z" fill="#6a9899"/>
          <path id="Trazado_185458" data-name="Trazado 185458" d="M63.857,63.442l-4.4-2.072-4.2,2.455.609-4.83-3.633-3.24,4.781-.913,1.957-4.457L61.31,54.65l4.843.486-3.331,3.549Z" fill="#346060"/>
          <path id="Trazado_185459" data-name="Trazado 185459" d="M63.862,14.436q1.071,4.826,2.141,9.65a4.749,4.749,0,0,1,6.3,3.252,4.751,4.751,0,0,1-4.552,5.435A12.408,12.408,0,0,1,45.6,42.388a5.34,5.34,0,0,1-8.008.025,5.343,5.343,0,0,1,1.83-7.8L35.746,24.262A2.917,2.917,0,0,1,35.5,22.94a2.718,2.718,0,0,1,.941-1.5c3.39-3.292,7.873-5.2,12.347-6.709,4.983-1.686,10.683-2.924,15.321-.44Z" fill="#cd8451"/>
          <path id="Trazado_185460" data-name="Trazado 185460" d="M80.176,131.034c-.061.057,20.919-1.9,21.025-1.837-3.32-.787-10.858-3.581-11.064-3.952-.124-.223,1.159-6.727,1.016-9.527a54.864,54.864,0,0,0-8.211.753s-2.276,11.348-2.766,14.563" fill="#87c3a9"/>
          <path id="Trazado_185461" data-name="Trazado 185461" d="M92.195,128.224a2.556,2.556,0,0,1,1.851-2.075c.306-.081.153-.548-.151-.466a3.04,3.04,0,0,0-2.181,2.444c-.046.311.435.411.481.1" fill="#4f657f"/>
          <path id="Trazado_185462" data-name="Trazado 185462" d="M90.849,127.581a2.271,2.271,0,0,1,2.326-1.615.253.253,0,0,0,.289-.191.247.247,0,0,0-.192-.289,2.772,2.772,0,0,0-2.9,2c-.082.3.4.4.481.1" fill="#4f657f"/>
          <path id="Trazado_185463" data-name="Trazado 185463" d="M89.442,126.973a3.523,3.523,0,0,1,2.244-2.064.246.246,0,0,0-.151-.467A4,4,0,0,0,89,126.755c-.116.291.322.512.44.218" fill="#4f657f"/>
          <path id="Trazado_185464" data-name="Trazado 185464" d="M90.27,121.6a4.246,4.246,0,0,1-1.2-1.668,4.192,4.192,0,0,1-.264-1c-.027-.207-.149-.854.092-.969.212-.1.484.236.593.373a3.855,3.855,0,0,1,.521.852,3.933,3.933,0,0,1,.325,1.955c-.025.259.335.429.46.158a7.287,7.287,0,0,1,1.023-1.62,7.415,7.415,0,0,1,.661-.689,2.308,2.308,0,0,1,.687-.49.523.523,0,0,1,.6.1c.188.218-.088.455-.236.606a9.085,9.085,0,0,1-1.409,1.172,9.24,9.24,0,0,1-1.853.964c-.294.113-.143.58.152.466a9.816,9.816,0,0,0,2-1.039,9.568,9.568,0,0,0,.892-.687,5.794,5.794,0,0,0,.792-.774.8.8,0,0,0,.153-.849.924.924,0,0,0-.652-.485c-.687-.135-1.3.489-1.737.929a7.65,7.65,0,0,0-1.509,2.179l.46.158a4.455,4.455,0,0,0-.225-1.913,3.742,3.742,0,0,0-1-1.6.933.933,0,0,0-.753-.258.742.742,0,0,0-.546.708,4.21,4.21,0,0,0,.337,1.968,4.762,4.762,0,0,0,1.317,1.822c.24.2.567-.161.326-.366" fill="#4f657f"/>
        </g>
      </g>
      <g id="Grupo_175528" data-name="Grupo 175528">
        <g id="Grupo_175527" data-name="Grupo 175527" clip-path="url(#clip-path-7)">
          <path id="Trazado_185465" data-name="Trazado 185465" d="M84.384,120.092a1.35,1.35,0,1,1-.148.146Z" fill="#f5e6df"/>
          <path id="Trazado_185466" data-name="Trazado 185466" d="M79.6,130.456l10.624-.928,10.582-.925,5.984-.523c.314-.028.287-.517-.028-.49l-10.624.929-10.582.924-5.984.523c-.314.028-.287.518.028.49" fill="#f5e6df"/>
          <path id="Trazado_185467" data-name="Trazado 185467" d="M95.886,126.774a1.767,1.767,0,0,0-1.549,2.2c.09.3.556.151.466-.151a1.272,1.272,0,0,1,1.111-1.559.246.246,0,0,0-.028-.49" fill="#f5e6df"/>
          <path id="Trazado_185468" data-name="Trazado 185468" d="M80.305,127.271a2.883,2.883,0,0,1,2.012,2.692c0,.317.493.288.49-.028a3.382,3.382,0,0,0-2.4-3.145c-.3-.089-.4.393-.1.481" fill="#f5e6df"/>
        </g>
      </g>
      <g id="Grupo_175530" data-name="Grupo 175530">
        <g id="Grupo_175529" data-name="Grupo 175529" clip-path="url(#clip-path-2)">
          <path id="Trazado_185470" data-name="Trazado 185470" d="M60.669,128.7c.061.057-20.919-1.9-21.025-1.837,3.32-.787,10.858-3.581,11.064-3.952.124-.223-1.159-6.727-1.016-9.527a54.864,54.864,0,0,1,8.211.753s2.276,11.348,2.766,14.563" fill="#87c3a9"/>
          <path id="Trazado_185471" data-name="Trazado 185471" d="M48.65,125.89a2.556,2.556,0,0,0-1.851-2.075c-.306-.082-.153-.548.151-.467a3.043,3.043,0,0,1,2.181,2.445c.046.311-.435.41-.481.1" fill="#4f657f"/>
          <path id="Trazado_185472" data-name="Trazado 185472" d="M50,125.246a2.271,2.271,0,0,0-2.326-1.615.252.252,0,0,1-.289-.191.247.247,0,0,1,.192-.289,2.772,2.772,0,0,1,2.9,2c.082.3-.4.4-.481.1" fill="#4f657f"/>
          <path id="Trazado_185473" data-name="Trazado 185473" d="M51.4,124.638a3.523,3.523,0,0,0-2.244-2.064.246.246,0,0,1,.151-.467,4,4,0,0,1,2.533,2.314c.116.291-.322.511-.44.217" fill="#4f657f"/>
          <path id="Trazado_185474" data-name="Trazado 185474" d="M50.575,119.269a4.246,4.246,0,0,0,1.2-1.668,4.192,4.192,0,0,0,.264-1c.027-.207.149-.854-.092-.969-.212-.1-.484.236-.593.373a3.832,3.832,0,0,0-.521.852,3.931,3.931,0,0,0-.325,1.955c.025.259-.335.429-.46.158a7.143,7.143,0,0,0-1.684-2.309,2.309,2.309,0,0,0-.687-.49.523.523,0,0,0-.6.1c-.188.219.088.456.236.607a9.023,9.023,0,0,0,1.409,1.171,9.245,9.245,0,0,0,1.853.965c.294.113.143.58-.152.466a9.816,9.816,0,0,1-2-1.039,9.7,9.7,0,0,1-.892-.687,5.794,5.794,0,0,1-.792-.774.8.8,0,0,1-.153-.849.924.924,0,0,1,.652-.485c.687-.135,1.3.489,1.737.928a7.654,7.654,0,0,1,1.509,2.18l-.46.158a4.453,4.453,0,0,1,.225-1.913,3.736,3.736,0,0,1,1-1.6.933.933,0,0,1,.753-.258.742.742,0,0,1,.546.708,4.212,4.212,0,0,1-.337,1.968,4.762,4.762,0,0,1-1.317,1.822c-.24.2-.567-.161-.326-.366" fill="#4f657f"/>
        </g>
      </g>
      <g id="Grupo_175532" data-name="Grupo 175532">
        <g id="Grupo_175531" data-name="Grupo 175531" clip-path="url(#clip-path-9)">
          <path id="Trazado_185475" data-name="Trazado 185475" d="M56.461,117.757a1.35,1.35,0,1,0,.148.146Z" fill="#f5e6df"/>
          <path id="Trazado_185476" data-name="Trazado 185476" d="M61.242,128.121l-10.624-.928-10.582-.925-5.984-.523c-.314-.028-.287-.517.028-.49l10.624.929,10.583.924,5.983.523c.314.028.287.517-.028.49" fill="#f5e6df"/>
          <path id="Trazado_185477" data-name="Trazado 185477" d="M44.959,124.44a1.767,1.767,0,0,1,1.549,2.2c-.09.3-.556.151-.466-.151a1.272,1.272,0,0,0-1.111-1.559.246.246,0,0,1,.028-.49" fill="#f5e6df"/>
          <path id="Trazado_185478" data-name="Trazado 185478" d="M60.54,124.937a2.883,2.883,0,0,0-2.012,2.692c0,.317-.493.288-.49-.028a3.382,3.382,0,0,1,2.405-3.145c.3-.089.4.393.1.481" fill="#f5e6df"/>
        </g>
      </g>
      <g id="Grupo_175534" data-name="Grupo 175534">
        <g id="Grupo_175533" data-name="Grupo 175533" clip-path="url(#clip-path-2)">
          <path id="Trazado_185480" data-name="Trazado 185480" d="M52.68,76.453c-3.724-.695-8.06-1.259-10.929.991-2.632,2.064-2.87,5.653-2.492,8.779,1.022,8.45,5.022,16.339,8.968,24.057l8.7.112a1.455,1.455,0,0,0,.835-.156c.408-.276.332-.837.214-1.285q-1.809-6.9-3.619-13.79c3.086-.522,18.54-3.076,21.675-2.915-1.531-4.1-1.14-7.682-2.671-11.785-.554-1.486-.568-2.761-1.728-3.929s-17.849-.294-19.465.284Z" fill="#d9c7c2"/>
          <path id="Trazado_185481" data-name="Trazado 185481" d="M62.391,72.515c-2.07,3.431-4.212,7.5-2.808,11.247,1.446,3.862,9.265,6.89,9.265,6.89-.632,2.122-2.154,7.661-3.13,11.736a4.573,4.573,0,0,0,3.032,5.419,24.928,24.928,0,0,0,9.212,1.169,2.008,2.008,0,0,0,1.271-.391,2.084,2.084,0,0,0,.5-1.308q1.179-8.844,1.644-17.762a1.491,1.491,0,0,1,.065-.382c.286-.869,1.1-.734,1.755-.588,2.535.564,5.4.655,7.5-.863s2.731-5.123.63-6.648c-.587-.426-1.4-.769-1.133-1.708a1.641,1.641,0,0,1,.169-.375l9.758-16.565A91.723,91.723,0,0,0,80.975,51.544a5.2,5.2,0,0,0-2.4-.435c-.614.05-1.781-.39-2.2-.034-1.985,1.686-10.742,16.066-13.984,21.44" fill="#cd8451"/>
          <path id="Trazado_185482" data-name="Trazado 185482" d="M68.849,90.652l8.007,2.158-8.8.924Z" fill="#7f4e33"/>
          <path id="Trazado_185483" data-name="Trazado 185483" d="M66.751,68.426a1.8,1.8,0,0,1,.206-.126s.133-.063.064-.034c.03-.013.061-.024.092-.034a2,2,0,0,1,.257-.071c.04-.008.081-.016.121-.022-.067.009.019,0,.044,0a2.21,2.21,0,0,1,.244,0c.04,0,.08,0,.12.01-.073-.009.03.006.043.009a1.861,1.861,0,0,1,.259.069c.03.01.061.021.09.033-.067-.028.063.033.063.033.069.036.132.078.2.12s0-.005.035.025.058.049.086.076a2.263,2.263,0,0,1,.159.166c.1.1-.02-.034.026.032.023.031.044.063.066.1.042.065.075.133.112.2.066.121-.022-.074.027.056.013.036.026.072.037.108a2.077,2.077,0,0,1,.056.223c.005.031.011.1.005.033,0,.046.008.092.009.138a.472.472,0,0,0,.943,0,2.476,2.476,0,0,0-1.283-2.087,2.527,2.527,0,0,0-2.555.136.483.483,0,0,0-.169.645.477.477,0,0,0,.646.169"/>
          <path id="Trazado_185484" data-name="Trazado 185484" d="M78.126,74.691a1.9,1.9,0,0,1,.207-.126s.133-.063.064-.034c.03-.013.061-.024.091-.034a1.974,1.974,0,0,1,.258-.071c.04-.009.08-.017.12-.022-.066.009.02,0,.045,0a2.19,2.19,0,0,1,.243,0c.041,0,.081,0,.122.01-.075-.009.029.006.042.009a1.939,1.939,0,0,1,.259.069c.03.01.061.021.091.033-.069-.028.061.033.061.033.069.036.133.078.2.12s0-.005.034.024.058.05.086.077c.057.052.108.109.16.166.1.1-.021-.034.026.032.022.031.044.063.065.1.042.065.076.133.113.2.065.121-.022-.074.026.056.013.036.026.072.037.108a1.865,1.865,0,0,1,.056.223c.006.031.012.1.006.033,0,.046.007.092.008.138a.472.472,0,0,0,.943,0,2.471,2.471,0,0,0-1.282-2.087,2.527,2.527,0,0,0-2.555.136.483.483,0,0,0-.169.645.476.476,0,0,0,.645.169"/>
          <path id="Trazado_185485" data-name="Trazado 185485" d="M67,82.868a2.485,2.485,0,0,0,3.388.486,7.166,7.166,0,0,0,2.277-3.006,6.284,6.284,0,0,1-5.8,0Z" fill="#fff"/>
          <path id="Trazado_185486" data-name="Trazado 185486" d="M66.6,83.106a2.689,2.689,0,0,0,2.742,1.119,4.165,4.165,0,0,0,2.733-1.89,13.536,13.536,0,0,0,1.005-1.749.475.475,0,0,0-.645-.645,5.812,5.812,0,0,1-5.322,0,.477.477,0,0,0-.71.408q.066,1.261.133,2.523a.481.481,0,0,0,.471.471.475.475,0,0,0,.471-.471l-.132-2.523-.709.407a6.8,6.8,0,0,0,6.273,0l-.645-.645a8.167,8.167,0,0,1-1.716,2.544,3.006,3.006,0,0,1-.542.381,2.127,2.127,0,0,1-.23.11,2.843,2.843,0,0,1-.313.1,2.5,2.5,0,0,1-.3.061c-.055.008-.011,0,0,0l-.075.007c-.059,0-.117.008-.176.01a3.188,3.188,0,0,1-.324-.011c-.025,0-.05,0-.074-.008.011,0,.058.009,0,0s-.112-.02-.167-.034a1.419,1.419,0,0,1-.939-.638c-.316-.517-1.132-.043-.814.476" fill="#7f4e33"/>
          <path id="Trazado_185487" data-name="Trazado 185487" d="M80.947,66.97a.4.4,0,0,0-.382.577,1.288,1.288,0,0,0,.349.436,3.12,3.12,0,0,0,1.071.486l3.175.98a.492.492,0,0,0-.18-.37,7.779,7.779,0,0,0-3.029-1.989,1.681,1.681,0,0,0-1-.12"/>
          <path id="Trazado_185488" data-name="Trazado 185488" d="M73.992,63.074a.4.4,0,0,1,.055.689,1.273,1.273,0,0,1-.515.214,3.129,3.129,0,0,1-1.173-.091l-3.253-.674a.493.493,0,0,1,.336-.237,7.786,7.786,0,0,1,3.612-.281,1.685,1.685,0,0,1,.938.38"/>
          <path id="Trazado_185489" data-name="Trazado 185489" d="M47.542,26.765a.61.61,0,0,1,.726.759,1.944,1.944,0,0,1-.4.748,4.77,4.77,0,0,1-1.471,1.017l-4.483,2.326a.746.746,0,0,1,.169-.6,11.836,11.836,0,0,1,3.991-3.8,2.561,2.561,0,0,1,1.471-.451"/>
          <path id="Trazado_185490" data-name="Trazado 185490" d="M55.907,23.371a.61.61,0,0,0-.372.983,1.937,1.937,0,0,0,.662.53,4.776,4.776,0,0,0,1.752.363l5.034.392a.747.747,0,0,0-.39-.489,11.848,11.848,0,0,0-5.155-1.938,2.563,2.563,0,0,0-1.531.159"/>
          <path id="Trazado_185491" data-name="Trazado 185491" d="M53.269,33.349a46.61,46.61,0,0,1,4.836.441c.382.055.773.1,1.149.186a.523.523,0,0,1,.287.134.33.33,0,0,1,.048.239,2.518,2.518,0,0,1-.26.819l-.5,1.147Q58.263,37.6,57.7,38.9a.486.486,0,0,0,.169.645.474.474,0,0,0,.645-.169q.549-1.254,1.1-2.509.282-.645.565-1.29a3.755,3.755,0,0,0,.348-1.11,1.249,1.249,0,0,0-.378-1.08,2.085,2.085,0,0,0-1.107-.4q-1.35-.216-2.71-.359-1.525-.159-3.059-.22a.472.472,0,0,0,0,.943" fill="#7f4e33"/>
          <path id="Trazado_185492" data-name="Trazado 185492" d="M52.759,41.317a5.043,5.043,0,0,0,5.556.572,4.406,4.406,0,0,0,1.287-1.01.483.483,0,0,0,0-.667.477.477,0,0,0-.667,0,3.914,3.914,0,0,1-2.668,1.3,4.03,4.03,0,0,1-1.517-.156,3.571,3.571,0,0,1-1.324-.709.484.484,0,0,0-.667,0,.477.477,0,0,0,0,.667" fill="#7f4e33"/>
          <path id="Trazado_185493" data-name="Trazado 185493" d="M67.564,30.064l2.392-2.9a.482.482,0,0,0,0-.667.476.476,0,0,0-.666,0q-1.2,1.451-2.393,2.9a.483.483,0,0,0,0,.667.478.478,0,0,0,.667,0" fill="#7f4e33"/>
          <path id="Trazado_185494" data-name="Trazado 185494" d="M68.8,29.218a1.326,1.326,0,0,1,.211.067l-.112-.047a1.368,1.368,0,0,1,.285.168l-.1-.074a1.312,1.312,0,0,1,.235.236c-.023-.032-.048-.064-.074-.1a1.356,1.356,0,0,1,.168.287c-.016-.037-.031-.075-.047-.113a1.211,1.211,0,0,1,.066.212.472.472,0,0,0,.862.113.516.516,0,0,0,.047-.364,1.761,1.761,0,0,0-1.294-1.3.5.5,0,0,0-.365.047.485.485,0,0,0-.216.282.471.471,0,0,0,.33.58" fill="#7f4e33"/>
          <path id="Trazado_185495" data-name="Trazado 185495" d="M39.07,39.188a4.72,4.72,0,0,1,.664.112,5.989,5.989,0,0,1,.742.226,3.021,3.021,0,0,1,.28.116c.114.053.226.108.336.168a6.02,6.02,0,0,1,.657.411.473.473,0,0,0,.645-.169.484.484,0,0,0-.169-.645,6.5,6.5,0,0,0-3.155-1.162.473.473,0,0,0-.471.472.483.483,0,0,0,.471.471" fill="#7f4e33"/>
          <path id="Trazado_185496" data-name="Trazado 185496" d="M40,40.585c.024-.036.049-.07.075-.1-.025.031-.049.063-.074.1a1.761,1.761,0,0,1,.3-.3l-.095.074a1.881,1.881,0,0,1,.388-.226l-.113.048a1.808,1.808,0,0,1,.433-.12l-.126.017A1.906,1.906,0,0,1,41,40.053a.472.472,0,0,0,0-.943,2.226,2.226,0,0,0-1.819,1,.475.475,0,0,0,.169.645A.482.482,0,0,0,40,40.585" fill="#a46e4a"/>
          <path id="Trazado_185497" data-name="Trazado 185497" d="M39.46,34.587a23.8,23.8,0,0,0,.162-11.828A3.446,3.446,0,0,0,45.2,18.8c-.436,2.207,2.142,4.267,4.3,3.621a4.278,4.278,0,0,0,2.458-5.488,4.324,4.324,0,0,0,7.546-1.17,2.273,2.273,0,0,0,2.167,3.979,3.408,3.408,0,0,0,.514,3.955,6.988,6.988,0,0,0,3.722,1.974,17.054,17.054,0,0,0-.52-11.642A6.372,6.372,0,0,0,63.9,11.709a5.625,5.625,0,0,0-2.127-1.127c-3.223-1.006-6.71-.315-9.983.515a125.125,125.125,0,0,0-14.466,4.616,10.215,10.215,0,0,0-3.647,2.056c-2.689,2.684-1.8,7.16-.712,10.8.827,2.783,1.93,5.891,4.584,7.065Z"/>
          <path id="Trazado_185498" data-name="Trazado 185498" d="M49.329,35.282a1.335,1.335,0,1,1-1.335-1.336,1.336,1.336,0,0,1,1.335,1.336"/>
          <path id="Trazado_185499" data-name="Trazado 185499" d="M63.311,30.882a1.336,1.336,0,1,1-1.336-1.336,1.336,1.336,0,0,1,1.336,1.336"/>
          <path id="Trazado_185500" data-name="Trazado 185500" d="M43.334,46.6l-.825,8.793-.234,2.49c-.029.3.443.3.471,0q.413-4.4.826-8.793.117-1.245.233-2.49c.029-.3-.443-.3-.471,0" fill="#346060"/>
          <path id="Trazado_185501" data-name="Trazado 185501" d="M69.186,40.209a41.094,41.094,0,0,1,2.576,7.9c.065.3.52.17.455-.126a41.693,41.693,0,0,0-2.624-8.008c-.123-.277-.529-.037-.407.238" fill="#346060"/>
          <path id="Trazado_185502" data-name="Trazado 185502" d="M37.575,44.41q-.523,4.382-.755,8.791-.066,1.261-.108,2.524c-.01.3.461.3.471,0q.149-4.41.587-8.8.126-1.257.276-2.512c.036-.3-.435-.3-.471,0" fill="#346060"/>
          <path id="Trazado_185503" data-name="Trazado 185503" d="M70.761,34.608q2.166,4.423,3.99,9,.518,1.3,1.007,2.612c.1.282.561.16.455-.125q-1.744-4.672-3.841-9.2-.588-1.271-1.2-2.527c-.133-.272-.54-.034-.407.238" fill="#346060"/>
          <path id="Trazado_185504" data-name="Trazado 185504" d="M65.31,145.739a68.715,68.715,0,0,1,9.906-5.048A69.411,69.411,0,0,1,85.8,137.3q3.03-.708,6.117-1.14c.3-.042.172-.5-.125-.454a68.978,68.978,0,0,0-10.908,2.442,69.719,69.719,0,0,0-10.305,4.128q-2.82,1.4-5.5,3.052c-.258.159-.021.567.238.407" fill="#56480d"/>
          <path id="Trazado_185505" data-name="Trazado 185505" d="M70.459,147.37a44.572,44.572,0,0,1,18.871-7.46c.3-.044.172-.5-.125-.455a44.66,44.66,0,0,0-7.8,1.884,45.229,45.229,0,0,0-7.335,3.235,44.461,44.461,0,0,0-3.85,2.389c-.248.172-.012.58.238.407" fill="#56480d"/>
          <path id="Trazado_185506" data-name="Trazado 185506" d="M30.058,114.908l-1.97,2.533a.243.243,0,0,0,0,.333.237.237,0,0,0,.333,0q.985-1.266,1.97-2.533a.243.243,0,0,0,0-.333.237.237,0,0,0-.333,0" fill="#9a8728"/>
          <path id="Trazado_185507" data-name="Trazado 185507" d="M31.624,115.6l-1.317,1.9a.236.236,0,0,0,.407.238l1.317-1.9a.236.236,0,1,0-.407-.238" fill="#9a8728"/>
          <path id="Trazado_185508" data-name="Trazado 185508" d="M32.651,117.177a3.682,3.682,0,0,0-1.064,2.4c-.016.3.455.3.471,0a3.187,3.187,0,0,1,.926-2.071.236.236,0,0,0-.333-.333" fill="#9a8728"/>
          <path id="Trazado_185509" data-name="Trazado 185509" d="M15.46,46.577l2.4-4.128,1.181-2.03a14.916,14.916,0,0,1,1.067-1.74,2.791,2.791,0,0,1,.62-.6,1.016,1.016,0,0,1,.339-.16.807.807,0,0,1,.327-.032l-.282-.216a3.36,3.36,0,0,1,.249,2.007,18.611,18.611,0,0,1-.5,2.249q-.621,2.43-1.4,4.818-.444,1.374-.94,2.73a.475.475,0,0,0,.329.58.482.482,0,0,0,.58-.329q.879-2.41,1.6-4.873.363-1.239.686-2.491a23.738,23.738,0,0,0,.531-2.327,4.87,4.87,0,0,0-.1-2.314,2.59,2.59,0,0,0-.23-.526.691.691,0,0,0-.65-.251,1.99,1.99,0,0,0-.978.292,4.352,4.352,0,0,0-1.365,1.5c-.449.731-.865,1.484-1.3,2.225L14.646,46.1a.472.472,0,0,0,.814.476" fill="#7f4e33"/>
          <path id="Trazado_185510" data-name="Trazado 185510" d="M89.233,32.521a20.084,20.084,0,0,1,3.1-1.9,15.5,15.5,0,0,1,3.392-1.27,2.885,2.885,0,0,1,1.623.025,1.464,1.464,0,0,1,.863.917.774.774,0,0,1-.035.536,1.647,1.647,0,0,1-.423.54,9.676,9.676,0,0,1-1.374,1.013,14.492,14.492,0,0,1-3.613,1.668c-.579.176-.332,1.086.251.909a15.49,15.49,0,0,0,3.635-1.635,13.388,13.388,0,0,0,1.63-1.167,2.264,2.264,0,0,0,.9-1.587,2.088,2.088,0,0,0-.735-1.594,2.751,2.751,0,0,0-1.811-.669,6.361,6.361,0,0,0-2.1.4c-.644.212-1.275.458-1.895.731a20.022,20.022,0,0,0-3.892,2.266.485.485,0,0,0-.169.645.475.475,0,0,0,.645.169" fill="#7f4e33"/>
          <path id="Trazado_185511" data-name="Trazado 185511" d="M97.046,24.4c-.3.765-.887,1.383-1.214,2.138a2.6,2.6,0,0,0-.024,2.122,1.57,1.57,0,0,0,1.759.966,4,4,0,0,0,1.216-.571,11.439,11.439,0,0,0,3.127-2.831c.283-.368-.277-.92-.645-.645a7.27,7.27,0,0,0-1.9,2.081,5.743,5.743,0,0,0-.885,2.6,1.853,1.853,0,0,0,1.384,2.028,2.785,2.785,0,0,0,2.41-.952c.649-.7,1.078-1.655,1.929-2.117q-.237-.408-.476-.814a7.449,7.449,0,0,0-1.866,1.754,6.308,6.308,0,0,0-1.136,2.315,2.42,2.42,0,0,0,.633,2.45,1.665,1.665,0,0,0,1.189.424,2.274,2.274,0,0,0,1.248-.57c.413-.332.788-.716,1.175-1.076l1.267-1.181-.667-.666a10,10,0,0,0-1.879,2.269,3.357,3.357,0,0,0-.374,2.7,2.986,2.986,0,0,0,1.736,1.8,1.943,1.943,0,0,0,2.182-.651c.279-.338.491-.718.74-1.077.026-.039.054-.077.082-.115.062-.085-.022.023.04-.05a2.426,2.426,0,0,1,.216-.226c.1-.092-.041.026.025-.021a1.388,1.388,0,0,1,.128-.081c.009-.005.137-.058.047-.025a1.323,1.323,0,0,1,.174-.049.471.471,0,1,0-.25-.909,2.671,2.671,0,0,0-1.54,1.4c-.087.137-.176.273-.27.4s.027-.032-.028.039c-.025.031-.05.062-.076.092a2.348,2.348,0,0,1-.2.2,1.122,1.122,0,0,1-.279.175,1.174,1.174,0,0,1-.224.059c.08-.013,0,0-.011,0h-.182c-.015,0-.093-.01-.012,0a1.308,1.308,0,0,1-.136-.027,1.756,1.756,0,0,1-.223-.072c.02.008.066.031-.019-.011-.043-.021-.086-.044-.128-.068-.063-.036-.168-.1-.2-.128a2.12,2.12,0,0,1-.6-.725,1.738,1.738,0,0,1-.2-.9,2.875,2.875,0,0,1,.307-1.1,8.62,8.62,0,0,1,1.816-2.242c.435-.426-.224-1.079-.667-.666l-1.942,1.81a3.836,3.836,0,0,1-.823.653.79.79,0,0,1-.375.091.723.723,0,0,1-.323-.1,1.129,1.129,0,0,1-.456-.568,1.847,1.847,0,0,1-.017-1.016,5.542,5.542,0,0,1,.912-1.914,6.2,6.2,0,0,1,1.657-1.592.472.472,0,0,0-.476-.814,5.593,5.593,0,0,0-1.692,1.738,2.774,2.774,0,0,1-1.6,1.219.877.877,0,0,1-.684-.129.966.966,0,0,1-.325-.748,4.25,4.25,0,0,1,.619-2.108,6.137,6.137,0,0,1,1.7-1.985l-.646-.645a10.042,10.042,0,0,1-3.367,2.82,1.31,1.31,0,0,1-.424.15c-.038.005-.077,0-.116,0-.018,0-.091-.013-.008,0-.028-.005-.057-.012-.085-.019s-.131-.054-.046-.013a1,1,0,0,1-.145-.085c.073.052-.051-.051-.066-.066s-.039-.043-.058-.065c.049.059,0,0-.006-.01a1.811,1.811,0,0,1-.113-.2c-.006-.011-.036-.082-.009-.015-.012-.029-.022-.059-.032-.088-.021-.06-.038-.121-.053-.183,0-.015-.036-.193-.025-.112a1.965,1.965,0,0,1-.015-.242c0-.065,0-.129.008-.193.006-.1,0-.04,0-.018q.007-.047.018-.093A2.084,2.084,0,0,1,96.7,26.9c.36-.785.938-1.438,1.257-2.246a.474.474,0,0,0-.329-.58.482.482,0,0,0-.58.329" fill="#7f4e33"/>
          <path id="Trazado_185512" data-name="Trazado 185512" d="M102.808,33.93a7.849,7.849,0,0,0-1.974,7.407,7.171,7.171,0,0,0,.895,2.081.481.481,0,0,0,.645.17.476.476,0,0,0,.169-.645,6.881,6.881,0,0,1-.247-6.736,6.166,6.166,0,0,1,1.179-1.61c.432-.427-.235-1.094-.667-.667" fill="#7f4e33"/>
          <path id="Trazado_185513" data-name="Trazado 185513" d="M96.513,34.414A4.568,4.568,0,0,1,99.441,38.7a.472.472,0,0,0,.943,0,5.519,5.519,0,0,0-3.62-5.193.472.472,0,1,0-.251.909" fill="#7f4e33"/>
          <path id="Trazado_185514" data-name="Trazado 185514" d="M10.063,48.289a8.869,8.869,0,0,1,2.648,5.5.483.483,0,0,0,.471.471.477.477,0,0,0,.473-.471,9.882,9.882,0,0,0-2.926-6.166c-.436-.423-1.1.244-.666.667" fill="#7f4e33"/>
          <path id="Trazado_185515" data-name="Trazado 185515" d="M.711,48.014l2.4,2.234c.371.347.731.714,1.132,1.028a2.034,2.034,0,0,0,1.316.517,1.425,1.425,0,0,0,1.125-.584,1.5,1.5,0,0,0-.03-1.471,23.394,23.394,0,0,0-1.359-2.645,25.887,25.887,0,0,0-1.916-2.785l-.667.666q1.134,1.2,2.377,2.292a15.706,15.706,0,0,0,1.3,1.069,2.384,2.384,0,0,0,1.395.5,1.614,1.614,0,0,0,1.268-.616A1.569,1.569,0,0,0,9.148,46.7a22.375,22.375,0,0,0-1.426-2.919,28.159,28.159,0,0,0-1.98-3.031.487.487,0,0,0-.645-.169.476.476,0,0,0-.169.645,20.48,20.48,0,0,0,4.561,4.989,1.465,1.465,0,0,0,.788.362.988.988,0,0,0,.749-.276,1.823,1.823,0,0,0,.456-1.317,7.7,7.7,0,0,0-2.794-5.766.478.478,0,0,0-.619-.037.471.471,0,0,0-.122.608A30.723,30.723,0,0,0,9.992,42.67q.555.695,1.152,1.355a6.085,6.085,0,0,0,1.13,1.057,2.079,2.079,0,0,0,1.432.393,1.251,1.251,0,0,0,1-.991,4.558,4.558,0,0,0-.14-1.705q-.165-.927-.376-1.847a39.676,39.676,0,0,0-1.133-3.986.483.483,0,0,0-.58-.33.477.477,0,0,0-.329.58,38.66,38.66,0,0,1,1.627,6.532,1.891,1.891,0,0,1,.022.505.45.45,0,0,1-.077.207c.018-.022-.072.073-.066.067.072-.06-.13.058-.027.019a.673.673,0,0,1-.109.029c-.07.014.1.012-.034,0,0,0-.157-.01-.065,0-.041-.006-.082-.016-.123-.026a1.56,1.56,0,0,1-.5-.231,4.911,4.911,0,0,1-.939-.888c-.367-.4-.723-.818-1.066-1.241a28.444,28.444,0,0,1-2.031-2.859l-.741.571a6.812,6.812,0,0,1,2.48,4.483,5.463,5.463,0,0,1,.038.664,1.058,1.058,0,0,1-.085.462c.028-.071-.088.206-.064.11l-.015.016c-.025.022-.02.021.014-.005l-.036.022c.05-.016.049-.015,0,0,.088-.01.008.008-.008,0l-.064-.021A1.127,1.127,0,0,1,10,45.422a20.135,20.135,0,0,1-2.2-2.035,19.469,19.469,0,0,1-2.06-2.639l-.814.476a28.028,28.028,0,0,1,2.985,4.99q.135.29.262.583a1.6,1.6,0,0,1,.186.647.349.349,0,0,1-.038.174c-.049.093-.035.069-.113.134.016-.013.058-.037-.025.016a.822.822,0,0,1-.134.072c.024-.009.052-.018-.031.008a1.16,1.16,0,0,1-.152.037c.079-.013-.086.005-.082.005-.035,0-.07,0-.1,0-.142-.008.076.029-.094-.014l-.128-.034a2.142,2.142,0,0,1-.593-.32,13.191,13.191,0,0,1-1.059-.873q-1.273-1.11-2.432-2.34a.477.477,0,0,0-.667,0,.482.482,0,0,0,0,.666,24.42,24.42,0,0,1,2.758,4.438q.138.287.27.578a1.966,1.966,0,0,1,.188.5.675.675,0,0,1,0,.135c0,.015-.017.077-.011.037s-.052.072,0,.008a.586.586,0,0,1-.064.068.4.4,0,0,1-.089.058c.05-.024-.094.03-.083.027-.015,0-.148.029-.07.019a.836.836,0,0,1-.2,0c.08.009-.038-.012-.052-.015a1.013,1.013,0,0,1-.153-.05,1.847,1.847,0,0,1-.4-.255c-.361-.291-.689-.629-1.029-.945l-2.4-2.235c-.444-.413-1.112.252-.667.667" fill="#7f4e33"/>
          <path id="Trazado_185516" data-name="Trazado 185516" d="M89.363,29.83a2.541,2.541,0,0,1,2.359.1.236.236,0,0,0,.238-.407,3.031,3.031,0,0,0-2.835-.1.238.238,0,0,0-.085.322.241.241,0,0,0,.323.085" fill="#7f4e33"/>
          <path id="Trazado_185517" data-name="Trazado 185517" d="M18.346,37.359a4.5,4.5,0,0,0-3.531,2.249,2.749,2.749,0,0,0-.31,2.141A1.488,1.488,0,0,0,15.814,42.8,1.241,1.241,0,0,0,17.2,41.93c.065-.3-.389-.422-.454-.125a.773.773,0,0,1-.865.529,1.023,1.023,0,0,1-.95-.82c-.306-1.167.613-2.388,1.526-3a4,4,0,0,1,1.893-.679c.3-.025.3-.5,0-.472" fill="#7f4e33"/>
          <path id="Trazado_185518" data-name="Trazado 185518" d="M30.766,46.283l1.284.963a.236.236,0,0,0,.322-.085.242.242,0,0,0-.085-.322L31,45.876a.237.237,0,0,0-.323.085.242.242,0,0,0,.085.322" fill="#7f4e33"/>
          <path id="Trazado_185519" data-name="Trazado 185519" d="M79.116,36.625l2.264-1.579a.241.241,0,0,0,.084-.322.238.238,0,0,0-.322-.086l-2.264,1.581a.24.24,0,0,0-.084.321.235.235,0,0,0,.322.085" fill="#7f4e33"/>
          <path id="Trazado_185520" data-name="Trazado 185520" d="M54.851,4.41c.838-2.149,2.7-4.094,5.177-3.926a3.381,3.381,0,0,1,2.637,1.5,4.552,4.552,0,0,1,.628,2.8,6.047,6.047,0,0,1-.3,1.476,4.162,4.162,0,0,1-.73,1.434.988.988,0,0,1-1.356.093A1.8,1.8,0,0,1,60.266,6.3a5.641,5.641,0,0,1,3.56-5.033,5.7,5.7,0,0,1,6.04,1.359,5.242,5.242,0,0,1,.512.611c.175.245.584.01.407-.238A6.047,6.047,0,0,0,59.826,5.762a2.93,2.93,0,0,0,.33,1.91A1.752,1.752,0,0,0,61.6,8.5a1.685,1.685,0,0,0,1.4-1.078,6.441,6.441,0,0,0,.6-1.591,5.7,5.7,0,0,0-.152-3.311,3.837,3.837,0,0,0-2.347-2.3,4.724,4.724,0,0,0-3.725.388,6.584,6.584,0,0,0-2.589,2.784,9.622,9.622,0,0,0-.4.892c-.11.283.346.405.455.125"/>
          <path id="Trazado_185521" data-name="Trazado 185521" d="M48.217,19.147a4.523,4.523,0,0,0,3.5,3.816,3.464,3.464,0,0,0,3.875-2.537,2.523,2.523,0,0,0-1.15-2.674.238.238,0,0,0-.346.141,2.578,2.578,0,0,0,1.37,2.7,4.092,4.092,0,0,0,3.58.089,15.192,15.192,0,0,0,2.106-1.049.236.236,0,0,0-.238-.408,8.625,8.625,0,0,1-3.37,1.345,2.916,2.916,0,0,1-2.644-1.1,1.779,1.779,0,0,1-.349-1.455l-.346.141a2.031,2.031,0,0,1,.949,2.04,2.625,2.625,0,0,1-1.157,1.767,3.11,3.11,0,0,1-2.114.548,3.466,3.466,0,0,1-2.023-1.073,4.505,4.505,0,0,1-1.184-2.419c-.048-.3-.5-.172-.455.125"/>
          <path id="Trazado_185522" data-name="Trazado 185522" d="M81.787,51.688a.475.475,0,0,0,.169.645c2.369,1.113-.033-.879-.169-.645" fill="#d18015"/>
          <path id="Trazado_185523" data-name="Trazado 185523" d="M84.255,86.26a15.809,15.809,0,0,1,5.35-.54.472.472,0,1,0,0-.943,16.649,16.649,0,0,0-5.6.574.472.472,0,0,0,.251.909" fill="#7f4e33"/>
          <path id="Trazado_185524" data-name="Trazado 185524" d="M86.632,85.8l.642.963a.5.5,0,0,0,.282.217.471.471,0,0,0,.579-.33.47.47,0,0,0-.047-.363l-.642-.963a.5.5,0,0,0-.282-.217.473.473,0,0,0-.58.33.474.474,0,0,0,.048.363" fill="#7f4e33"/>
          <path id="Trazado_185525" data-name="Trazado 185525" d="M48.995,80.887a124.052,124.052,0,0,1,3.931,12.449q.462,1.791.872,3.6a.472.472,0,1,0,.909-.251,123.834,123.834,0,0,0-3.556-12.561q-.6-1.75-1.247-3.483a.484.484,0,0,0-.58-.329.475.475,0,0,0-.329.58" fill="#a8938e"/>
          <path id="Trazado_185526" data-name="Trazado 185526" d="M82.543,110.711l6.729-.728a.486.486,0,0,0,.472-.472.475.475,0,0,0-.472-.471l-6.729.728a.485.485,0,0,0-.471.472.474.474,0,0,0,.471.471" fill="#a8938e"/>
          <path id="Trazado_185527" data-name="Trazado 185527" d="M47.043,108.737a35.606,35.606,0,0,1,9.2-.319.476.476,0,0,0,.472-.472.481.481,0,0,0-.472-.471,36.57,36.57,0,0,0-9.45.353.475.475,0,0,0-.329.58.483.483,0,0,0,.58.329" fill="#a8938e"/>
          <path id="Trazado_185528" data-name="Trazado 185528" d="M75.52,68.936a11.8,11.8,0,0,0-7.152,5.081A11.351,11.351,0,0,0,67.243,76.3a.475.475,0,0,0,.328.58q1.771.461,3.5,1.082a.475.475,0,0,0,.58-.329.481.481,0,0,0-.329-.58q-1.722-.621-3.5-1.082l.329.58A10.85,10.85,0,0,1,73.6,70.605a10.31,10.31,0,0,1,2.176-.76.472.472,0,0,0-.251-.909" fill="#7f4e33"/>
          <path id="Trazado_185529" data-name="Trazado 185529" d="M95.109,108.52q2.22,4.263,4.439,8.526l1.263,2.426c.141.269.548.031.408-.238l-4.44-8.526-1.263-2.426c-.14-.269-.547-.031-.407.238" fill="#56480d"/>
          <path id="Trazado_185530" data-name="Trazado 185530" d="M99.943,84.5a78.824,78.824,0,0,0,5.36,9.524,28.3,28.3,0,0,0,7.261,7.629,17.942,17.942,0,0,0,5.305,2.472.236.236,0,0,0,.126-.454,19.361,19.361,0,0,1-8.642-5.357A41.455,41.455,0,0,1,103.14,89.6c-.985-1.753-1.9-3.544-2.79-5.346-.135-.272-.541-.033-.407.238" fill="#56480d"/>
          <path id="Trazado_185531" data-name="Trazado 185531" d="M16.491,117.487a30.281,30.281,0,0,0,6.074-2.856,32.25,32.25,0,0,0,5.324-4.091,33.17,33.17,0,0,0,4.381-5.1,32.3,32.3,0,0,0,3.248-5.875,30.362,30.362,0,0,0,1.927-6.427q.073-.41.136-.82c.045-.3-.409-.425-.455-.125a30,30,0,0,1-1.717,6.4,31.6,31.6,0,0,1-3.048,5.878,32.554,32.554,0,0,1-4.19,5.139,31.86,31.86,0,0,1-5.119,4.159,29.942,29.942,0,0,1-5.9,2.988c-.26.1-.521.189-.783.278-.286.1-.163.553.125.455" fill="#56480d"/>
          <path id="Trazado_185532" data-name="Trazado 185532" d="M61.872,103.89a12.338,12.338,0,0,0,5.066,5.849,13.639,13.639,0,0,0,7.468,2.016,11.735,11.735,0,0,0,4.3-.951c.277-.12.038-.526-.238-.407a11.808,11.808,0,0,1-7.357.551,13.207,13.207,0,0,1-6.482-3.659,11.122,11.122,0,0,1-2.3-3.524c-.112-.278-.569-.157-.455.125" fill="#56480d"/>
          <path id="Trazado_185533" data-name="Trazado 185533" d="M73.831,229.456a81.446,81.446,0,0,0,10.125-5.347q1.365-.847,2.693-1.75a.484.484,0,0,0,.17-.645.476.476,0,0,0-.645-.169,81.466,81.466,0,0,1-9.907,5.743q-1.441.707-2.912,1.354a.475.475,0,0,0-.169.645.483.483,0,0,0,.645.169" fill="#56480d"/>
          <path id="Trazado_185534" data-name="Trazado 185534" d="M35.082,220.664l10.665-.1c.854-.008,1.711-.036,2.565-.022a2.814,2.814,0,0,1,.835.1.8.8,0,0,1,.513.359,1.753,1.753,0,0,1,.088.945c-.029.444-.06.887-.09,1.331q-.089,1.331-.178,2.662-.357,5.306-.712,10.61-.357,5.325-.715,10.649l-.711,10.61-.09,1.331c.157-.157.315-.314.472-.472a71.878,71.878,0,0,1-12.378.259q-1.74-.115-3.472-.314a.475.475,0,0,0-.471.472.482.482,0,0,0,.471.471,71.867,71.867,0,0,0,12.376.345q1.74-.1,3.474-.29a.486.486,0,0,0,.471-.471q.363-5.4.725-10.806.365-5.421.728-10.844.362-5.4.725-10.806.09-1.35.181-2.7.046-.686.092-1.371a9.4,9.4,0,0,0,.056-1.244,1.674,1.674,0,0,0-1.255-1.618,6.971,6.971,0,0,0-2.21-.146l-10.822.1-1.333.013a.472.472,0,0,0,0,.943" fill="#56480d"/>
          <path id="Trazado_185535" data-name="Trazado 185535" d="M48.366,220.21a13.586,13.586,0,0,1-4.779,4.819A14.591,14.591,0,0,1,37.08,227.1a13.01,13.01,0,0,1-3.845-.3.471.471,0,1,0-.25.909,14.577,14.577,0,0,0,7.274-.214,15.566,15.566,0,0,0,6.351-3.575,14.025,14.025,0,0,0,2.57-3.234.472.472,0,0,0-.814-.476" fill="#56480d"/>
          <path id="Trazado_185536" data-name="Trazado 185536" d="M106.968,214.44l-4.91.144a.48.48,0,0,0-.454.6q.726,4.893,1.454,9.787.723,4.875,1.447,9.749t1.448,9.748q.363,2.446.727,4.894l.36,2.427q.091.607.181,1.214a4.929,4.929,0,0,0,.2.946,1.708,1.708,0,0,0,1.2,1.174,2.426,2.426,0,0,0,1.331-.142c.239-.086.472-.189.7-.292l.275-.125.156-.069.078-.034c.081-.036-.028.011.022-.009a3.95,3.95,0,0,1,.577-.194c.047-.01.1-.019.142-.027-.092.016-.022,0,.03,0s.078,0,.118,0c.131,0-.046-.023.052,0,.036.01.073.022.109.03.075.017-.007,0-.023-.01.019.011.04.019.058.03s.121.1.044.026c.035.034.071.067.1.1a.471.471,0,1,0,.666-.666c-.691-.759-1.695-.4-2.493-.05-.2.09-.4.184-.609.272-.068.03.063-.026,0,0l-.059.024-.157.061c-.1.037-.206.072-.311.1-.05.014-.1.027-.152.038-.02,0-.152.028-.088.018s-.066.006-.086.007c-.055,0-.108,0-.163,0-.117,0,.044.02-.034,0-.046-.012-.092-.021-.138-.034-.023-.007-.045-.016-.067-.024,0,0,.076.037.03.011a.782.782,0,0,1-.46-.668,8.668,8.668,0,0,1-.174-.989q-.18-1.214-.361-2.427-.36-2.427-.721-4.855-.72-4.854-1.442-9.709t-1.442-9.709q-.717-4.834-1.436-9.67l-.18-1.214-.455.6,4.91-.144c.6-.018.608-.961,0-.943" fill="#56480d"/>
          <path id="Trazado_185537" data-name="Trazado 185537" d="M103.023,216.251a12.6,12.6,0,0,0,5.09,4.835,12.778,12.778,0,0,0,1.909.792.472.472,0,0,0,.251-.909,11.709,11.709,0,0,1-5.38-3.67,11.183,11.183,0,0,1-1.056-1.524.472.472,0,0,0-.814.476" fill="#56480d"/>
          <path id="Trazado_185538" data-name="Trazado 185538" d="M34.412,318.978l13.544.909L61.5,320.8l7.594.51a.471.471,0,1,0,0-.943l-13.544-.909-13.543-.908-7.594-.51a.471.471,0,0,0,0,.943" fill="#56480d"/>
          <path id="Trazado_185539" data-name="Trazado 185539" d="M77.214,319.681a19.7,19.7,0,0,0,7.314-.206c2.451-.412,4.9-.857,7.344-1.3q7.362-1.335,14.7-2.781,4.128-.813,8.251-1.662a.471.471,0,1,0-.25-.909q-7.292,1.5-14.6,2.892Q92.7,317.1,85.406,318.371c-2.606.455-5.311.951-7.941.4a.483.483,0,0,0-.581.329.477.477,0,0,0,.33.58" fill="#56480d"/>
          <path id="Trazado_185540" data-name="Trazado 185540" d="M32.5,275.712a71.569,71.569,0,0,1,11.693.715q1.638.238,3.264.551l-.346-.455q-.384,5.748-.629,11.5t-.352,11.516q-.062,3.252-.077,6.505l.471-.472a65.52,65.52,0,0,1-10.794-.944q-1.527-.264-3.039-.6a.483.483,0,0,0-.58.329.477.477,0,0,0,.329.58,67.123,67.123,0,0,0,10.95,1.487q1.566.081,3.134.089a.479.479,0,0,0,.472-.471q.028-5.762.2-11.52t.473-11.511q.172-3.249.389-6.494a.475.475,0,0,0-.346-.455,73.118,73.118,0,0,0-11.821-1.288q-1.694-.045-3.387-.011a.472.472,0,0,0,0,.943" fill="#56480d"/>
          <path id="Trazado_185541" data-name="Trazado 185541" d="M46.525,277.343a15.531,15.531,0,0,1-4.6,4.192,16.4,16.4,0,0,1-5.908,2.149,15.378,15.378,0,0,1-3.521.13.474.474,0,0,0-.471.471.481.481,0,0,0,.471.472,16.45,16.45,0,0,0,6.533-.847,17.371,17.371,0,0,0,5.771-3.3,16.249,16.249,0,0,0,2.537-2.787.475.475,0,0,0-.169-.645.482.482,0,0,0-.645.169" fill="#56480d"/>
          <path id="Trazado_185542" data-name="Trazado 185542" d="M112.737,269.565c-2.724.282-5.453.538-8.174.848a4.642,4.642,0,0,0-1.591.4,2.235,2.235,0,0,0-1.093,1.31,9.456,9.456,0,0,0-.327,1.778q-.141,1.005-.253,2.014a67.122,67.122,0,0,0,.121,15.751,67.682,67.682,0,0,0,1.449,7.826c.077.314.158.628.24.94a.475.475,0,0,0,.454.347,39.138,39.138,0,0,1,8.1-.168q1.119.093,2.231.252a.487.487,0,0,0,.58-.329.475.475,0,0,0-.329-.58,39.716,39.716,0,0,0-8.255-.339q-1.166.075-2.324.221l.455.346a67.055,67.055,0,0,1-1.523-7.532,66.107,66.107,0,0,1-.635-7.606,67.207,67.207,0,0,1,.237-7.681q.168-1.889.444-3.766a3.881,3.881,0,0,1,.412-1.556,1.6,1.6,0,0,1,1.093-.6,16.831,16.831,0,0,1,1.7-.205l1.981-.2,4-.414,1.01-.105a.485.485,0,0,0,.471-.472.474.474,0,0,0-.471-.471" fill="#56480d"/>
          <path id="Trazado_185543" data-name="Trazado 185543" d="M101.656,272.115a15.923,15.923,0,0,0,4.72,4.311,16.351,16.351,0,0,0,6,2.15,15.469,15.469,0,0,0,3.617.114.483.483,0,0,0,.472-.471.475.475,0,0,0-.472-.471,14.924,14.924,0,0,1-5.986-.7,15.413,15.413,0,0,1-5.219-2.918,14.483,14.483,0,0,1-2.316-2.494.484.484,0,0,0-.645-.169.476.476,0,0,0-.169.645" fill="#56480d"/>
          <path id="Trazado_185544" data-name="Trazado 185544" d="M46.227,199.113a30.923,30.923,0,0,1-8.469,6.589c-.886.469-1.795.9-2.723,1.274a.487.487,0,0,0-.33.58.475.475,0,0,0,.58.329,31.936,31.936,0,0,0,9.422-5.914q1.147-1.039,2.187-2.191a.483.483,0,0,0,0-.667.478.478,0,0,0-.667,0" fill="#56480d"/>
          <path id="Trazado_185545" data-name="Trazado 185545" d="M99.787,201.635a29.831,29.831,0,0,1,5.435,4.115c.439.419,1.106-.247.667-.667a30.9,30.9,0,0,0-5.626-4.261.471.471,0,0,0-.476.813" fill="#56480d"/>
          <path id="Trazado_185546" data-name="Trazado 185546" d="M34.613,190.67c.53-1.079,1.863-1.166,2.922-1.079a16.571,16.571,0,0,1,1.977.343c.819.169,1.636.343,2.45.532a38.333,38.333,0,0,1,4.8,1.4,26.17,26.17,0,0,1,4.379,2.156c2.769,1.675,5.335,3.663,8.184,5.21a40.259,40.259,0,0,0,18.208,4.852q.588.014,1.176.01a.236.236,0,0,0,0-.472A39.756,39.756,0,0,1,60.078,199.1c-2.9-1.516-5.492-3.493-8.261-5.215a27.973,27.973,0,0,0-4.36-2.253,35.135,35.135,0,0,0-4.809-1.488c-.826-.2-1.656-.381-2.487-.555-.713-.149-1.427-.318-2.15-.415a4.145,4.145,0,0,0-3.329.621,2.1,2.1,0,0,0-.476.638c-.133.271.273.511.407.238" fill="#56480d"/>
          <path id="Trazado_185547" data-name="Trazado 185547" d="M90.455,79.881a2.913,2.913,0,0,1,.962-5.737c-1.641-2.315.227-6.14,3.062-6.27-1.844-1.989-.507-5.854,2.171-6.279a3.914,3.914,0,0,1-4.944-2.474c-2.025,1.211-5.043-.943-4.556-3.251a2.681,2.681,0,0,1-4.361-1.034,3.482,3.482,0,0,1-4.914.4l-2.987,1.808a5.2,5.2,0,0,1-2.251.915,1.783,1.783,0,0,1-1.907-1.2c-.176-.8.8-1.671,1.48-1.218a3.733,3.733,0,0,1,4.44-5.4,3.609,3.609,0,0,1,3.515-4.486,4.107,4.107,0,0,1,7.14-3.761,3.332,3.332,0,0,1,5.7,3.1,3.817,3.817,0,0,1,4.587,4.13A2.981,2.981,0,0,1,101.7,53.3c.811-.587,2.027.229,2.2,1.215a4.513,4.513,0,0,1-.792,2.836,2.543,2.543,0,0,1,2.015,2.861,7.394,7.394,0,0,1-1.673,3.473c1.046-.466,1.954,1.147,1.506,2.2s-1.528,1.677-2.265,2.554c-.955,1.137-1.3,2.653-1.967,3.979s-1.957,2.588-3.426,2.368a2.65,2.65,0,0,1-2.9,3.042,1.876,1.876,0,1,1-3.714.368Z"/>
          <path id="Trazado_185548" data-name="Trazado 185548" d="M81.464,88.561a2.5,2.5,0,1,0,2,4.5,1.661,1.661,0,0,0,3.211.418c.087.412.695.5,1.028.244a1.893,1.893,0,0,0,.556-1.1l1.113-4.493a16.377,16.377,0,0,1-8.079-.4Z"/>
          <path id="Trazado_185549" data-name="Trazado 185549" d="M102.681,84.715a23.367,23.367,0,0,0,14.08,1.134c.531-.122.306-.937-.224-.815A22.6,22.6,0,0,1,102.906,83.9c-.5-.207-.722.61-.225.815" fill="#7f4e33"/>
          <path id="Trazado_185550" data-name="Trazado 185550" d="M31.986,90.489a23.083,23.083,0,0,1-4.943,9.527c-.356.41.24,1.01.6.6a24.006,24.006,0,0,0,5.16-9.9.423.423,0,0,0-.815-.225" fill="#7f4e33"/>
        </g>
      </g>
    </g>
  </g>
</svg>
