<svg xmlns="http://www.w3.org/2000/svg" xmlns:xlink="http://www.w3.org/1999/xlink" width="190" height="161" viewBox="0 0 190 161">
  <defs>
    <clipPath id="clip-path">
      <rect id="Rectángulo_45667" data-name="Rectángulo 45667" width="190" height="161" rx="14" transform="translate(5821 -6730)" fill="#e1e8ff"/>
    </clipPath>
    <clipPath id="clip-path-2">
      <rect id="Rectángulo_45670" data-name="Rectángulo 45670" width="122.725" height="213.616" fill="none"/>
    </clipPath>
    <clipPath id="clip-path-4">
      <rect id="Rectángulo_45668" data-name="Rectángulo 45668" width="16.373" height="8.946" fill="none"/>
    </clipPath>
  </defs>
  <g id="Enmascarar_grupo_314" data-name="Enmascarar grupo 314" transform="translate(-5821 6730)" clip-path="url(#clip-path)">
    <g id="Grupo_175567" data-name="Grupo 175567" transform="translate(5758.551 -6746)">
      <path id="Trazado_185816" data-name="Trazado 185816" d="M189.906,100.022c-1.445,24.534-18.6,47.959-41.827,49.412-26.681,2.243-51.171-13.811-77.748-13.981-13.552-1.275-26.262,4.419-39.469,6.257C1.032,142.912-3.513,104.452,2.05,79.661,25.512-37.21,191.53-21.309,189.906,100.022Z" transform="matrix(-0.914, 0.407, -0.407, -0.914, 427.449, 156.47)" fill="#c4d1ff"/>
      <path id="Trazado_185819" data-name="Trazado 185819" d="M189.906,100.022c-1.445,24.534-18.6,47.959-41.827,49.412-26.681,2.243-51.171-13.811-77.748-13.981-13.552-1.275-26.262,4.419-39.469,6.257C1.032,142.912-3.513,104.452,2.05,79.661,25.512-37.21,191.53-21.309,189.906,100.022Z" transform="matrix(0.07, -0.998, 0.998, 0.07, 0, 258.246)" fill="#c4d1ff"/>
      <path id="Trazado_185818" data-name="Trazado 185818" d="M.011,96.394c1.347,23.644,17.336,46.22,38.991,47.62,24.872,2.161,47.7-13.31,72.476-13.474,12.633-1.229,24.481,4.258,36.792,6.03,27.806,1.158,32.043-35.907,26.857-59.8C153.256-35.86-1.5-20.536.011,96.394Z" transform="matrix(0.995, -0.105, 0.105, 0.995, 73.478, 18.505)" fill="#a6bbff" opacity="0.388" style="mix-blend-mode: multiply;isolation: isolate"/>
    </g>
    <g id="Grupo_175546" data-name="Grupo 175546" transform="translate(5854.638 -6730)">
      <g id="Grupo_175545" data-name="Grupo 175545" clip-path="url(#clip-path-2)">
        <g id="Grupo_175544" data-name="Grupo 175544">
          <g id="Grupo_175543" data-name="Grupo 175543" clip-path="url(#clip-path-2)">
            <path id="Trazado_185614" data-name="Trazado 185614" d="M86.575,34.369c1.818-1.253,1.521-3.429-.609-4.481.107-.037.2-.09.3-.133a35.157,35.157,0,0,1-7.538-4.635c-2.952-2.222-4.709-2.794-8.616-3.679a35.272,35.272,0,0,0-11.386-.477,21.387,21.387,0,0,0-6.089,2.254A15.207,15.207,0,0,1,42.555,27.03c.576.635,1.2,1.255,1.828,1.859-2.608-.189-4.917,1.291-5.4,2.872s.383,3.193,1.354,4.687c-1.973.008-3.377,1.327-3.327,2.536s1.122,2.3,2.163,3.326a2.875,2.875,0,0,0-2.866,1.1,2.821,2.821,0,0,0,.068,2.268q.615,1.953,1.228,3.905c.585,1.862,1.889,4.146,4.973,4.307-.956,1.6.1,3.562,2.419,4.5a9.767,9.767,0,0,0,7.707-.4l13.294,1c.353.541,3.509.195,3.863.735,4.42-.679,12.9-4.149,15.455-6.459,1.325-1.2,2.133-3.327-.166-3.653,3.11-.757,4.385-3.47,2.407-5.123,2.309-.792,2.707-3.061.725-4.134,2.748-1.673,1.807-4.978-1.7-5.983" transform="translate(6.042 3.467)"/>
            <path id="Trazado_185615" data-name="Trazado 185615" d="M23.385,186.46c9.448-3.878,28.366.621,38.066,3.822,5.81,1.917,20.445.685,26.417,2.017s-.588-28.452,4.255-32.191q-2.606-10.458-6.116-20.665c-2.462-7.158-5.229-1.4-11.714-5.3-6.185-3.721-13.8-3.132-20.73-1.1s-14.082-7.962-21.019-5.971Z" transform="translate(3.916 21.233)" fill="#346060"/>
            <path id="Trazado_185616" data-name="Trazado 185616" d="M36.566,83.053c-2.459,6.473-3.555,14.473-4.106,22.39a146.469,146.469,0,0,0,.007,22.06c1.12,13.614-10.031,44.9-9.155,45.306,10.849,4.98,65.1,2.037,65.493,1.284.336-.635,3.154-2.263,3.3-3.118,2.273-13.226-7.3-27.5-5.023-40.725a243.153,243.153,0,0,0,3.676-27.87c.529-9.544-.063-19.58-2.6-27.873A16.528,16.528,0,0,0,85.726,69.2a8.4,8.4,0,0,0-2.545-2.02c-9.619-5.554-21.526-8.4-33.267-2.821,0,0-9.308,8.064-13.347,18.7" transform="translate(3.895 10.269)" fill="#534763"/>
            <path id="Trazado_185617" data-name="Trazado 185617" d="M50.791,49.13c.511,3.442-.127,15.283-.127,15.283s-4.036.368-3.3.551c3.3,5.687,4.722,7.808,10.09,8.255,8.973.748,13.5-5.167,15.96-8.989-3.356-1.117-6.42-2.6-6.834-4.238a5.043,5.043,0,0,1-.03-1.737q.422-4.336.846-8.671A60.87,60.87,0,0,0,56.807,49.2Z" transform="translate(7.915 8.225)" fill="#cd8451"/>
            <g id="Grupo_175542" data-name="Grupo 175542" transform="translate(58.608 58.842)" opacity="0.3">
              <g id="Grupo_175541" data-name="Grupo 175541">
                <g id="Grupo_175540" data-name="Grupo 175540" clip-path="url(#clip-path-4)">
                  <path id="Trazado_185618" data-name="Trazado 185618" d="M50.2,50.4l3.121,2.571c2.1,1.728,4.662,3.568,7.284,2.859a8.583,8.583,0,0,0,2.385-1.223l3.584-2.342q-1.564,2.066-3.15,4.118a8.681,8.681,0,0,1-2.412,2.389c-2.223,1.267-5.181.3-6.958-1.536s-2.65-4.349-3.459-6.776Z" transform="translate(-50.202 -50.403)" fill="#5b3421"/>
                </g>
              </g>
            </g>
            <path id="Trazado_185619" data-name="Trazado 185619" d="M77.079,27.371c-.188,3.153-1.366,9.223-1.554,12.377a41.706,41.706,0,0,1-1.136,8.7,21.2,21.2,0,0,1-13.847,14.3,4.965,4.965,0,0,1-2.175.3,5.647,5.647,0,0,1-2.645-1.49c-2.308-1.927-4.667-3.916-6.136-6.539a35.769,35.769,0,0,1-3.675-13.59c-.039-3.709.534-11.392.794-15.091L60.063,14.292l5.871,3.119Z" transform="translate(7.687 2.393)" fill="#cd8451"/>
            <path id="Trazado_185620" data-name="Trazado 185620" d="M69.2,39.23a2.966,2.966,0,0,1,3.816-1.382A3.981,3.981,0,0,1,75.231,41.5a6.151,6.151,0,0,1-1.746,4.053,4.587,4.587,0,0,1-4.16,1.7Z" transform="translate(11.587 6.299)" fill="#cd8451"/>
            <path id="Trazado_185621" data-name="Trazado 185621" d="M48.254,36.428a2.973,2.973,0,0,0-3.4.06,4.753,4.753,0,0,0-1.813,3.051,7.1,7.1,0,0,0,5.695,8.028Z" transform="translate(7.188 6.014)" fill="#cd8451"/>
            <path id="Trazado_185622" data-name="Trazado 185622" d="M44.409,38.645a8.638,8.638,0,0,1,1.7,4.233.566.566,0,0,0,.55.55.555.555,0,0,0,.551-.55,9.691,9.691,0,0,0-1.849-4.789.568.568,0,0,0-.753-.2.554.554,0,0,0-.2.753" transform="translate(7.422 6.332)" fill="#7f4e33"/>
            <path id="Trazado_185623" data-name="Trazado 185623" d="M44.493,40.977l1.32.273a.582.582,0,0,0,.424-.055.549.549,0,0,0,.2-.753.547.547,0,0,0-.329-.253l-1.319-.273a.591.591,0,0,0-.425.055.565.565,0,0,0-.252.329.553.553,0,0,0,.055.424.547.547,0,0,0,.329.253" transform="translate(7.382 6.681)" fill="#7f4e33"/>
            <path id="Trazado_185624" data-name="Trazado 185624" d="M70.631,44.132A11.97,11.97,0,0,1,71.95,42.7c.232-.215.474-.419.723-.615.126-.1-.047.034.027-.021l.1-.075c.067-.05.134-.1.2-.147.135-.1.273-.19.413-.281a.55.55,0,0,0-.556-.95,12.463,12.463,0,0,0-3.007,2.743.567.567,0,0,0,0,.779.556.556,0,0,0,.779,0" transform="translate(11.67 6.787)" fill="#7f4e33"/>
            <path id="Trazado_185625" data-name="Trazado 185625" d="M71.437,42.611c.019.02.035.041.053.062-.029-.037-.057-.075-.086-.111a1.151,1.151,0,0,1,.147.251l-.056-.132a1.187,1.187,0,0,1,.081.3c-.007-.049-.013-.1-.02-.147a1.154,1.154,0,0,1,0,.291c.006-.048.013-.1.02-.146a1.471,1.471,0,0,1-.033.159.571.571,0,0,0,.055.424.549.549,0,0,0,.753.2.578.578,0,0,0,.253-.328,1.682,1.682,0,0,0-.389-1.595.55.55,0,0,0-.94.39.6.6,0,0,0,.161.389" transform="translate(11.934 6.977)" fill="#7f4e33"/>
            <path id="Trazado_185626" data-name="Trazado 185626" d="M68.64,61.6c8.45-1.044,22.275,7.2,27.881,13.614s8.793,14.558,11.272,22.7c2.229,7.325,3.983,14.909,3.679,22.56s-2.852,15.436-8.237,20.878a16.94,16.94,0,0,1-4.769,3.5c-5.4,2.535-12.854-.874-15.882-6.018a207.765,207.765,0,0,1,4.727,30.9,2.465,2.465,0,0,1-.176,1.407c-.29.51.028,29.911-.527,30.106l-5.882,2.066c-1.708-4.728-4.279-38.681-5.055-43.647-.461-2.95-.608-5.941-1.031-8.9-1.657-11.594-7.5-22.486-7.636-34.2a71.12,71.12,0,0,1,.883-10.3q1.951-14.491,3.9-28.981c.543-4.03-4.719-11.937-3.15-15.689" transform="translate(11.219 10.3)" fill="#534763"/>
            <path id="Trazado_185627" data-name="Trazado 185627" d="M57.293,62.063c2.606,8.351-9.31,20.566-8.91,29.305.291,6.353,2.549,12.55,2.338,18.907a49.087,49.087,0,0,1-1.609,9.609q-1.986,8.4-3.97,16.791c-1.787,7.557-3.6,15.187-7.033,22.152-1.674,3.4-7.651,36.408-10.723,38.622-.82-2.722,2.678-52.734.643-59.7-4.357,2.675-9.008,5.438-14.119,5.438A13.924,13.924,0,0,1,.363,126.047a27.392,27.392,0,0,1,3.122-7Q12.346,103.385,22.01,88.2c3.31-5.2,6.73-10.41,11.189-14.669S47.668,63.355,53.807,62.8Z" transform="translate(0 10.392)" fill="#534763"/>
            <path id="Trazado_185628" data-name="Trazado 185628" d="M24.685,118.045a28.159,28.159,0,0,0-.189,9.984c.056.349.586.2.531-.146a27.369,27.369,0,0,1,.189-9.692c.069-.346-.461-.494-.531-.146" transform="translate(4.042 19.732)" fill="#3a3143"/>
            <path id="Trazado_185629" data-name="Trazado 185629" d="M88.128,104.208a19.639,19.639,0,0,1,6.993,8.309,25.549,25.549,0,0,1,2.11,12.108A35.627,35.627,0,0,1,96,132.014a.275.275,0,0,0,.53.146,32.75,32.75,0,0,0,.981-13.512,23.021,23.021,0,0,0-4.492-10.658,18.907,18.907,0,0,0-4.609-4.258c-.3-.194-.574.283-.278.475" transform="translate(14.735 17.361)" fill="#3a3143"/>
            <path id="Trazado_185630" data-name="Trazado 185630" d="M43.736,64.422a39.465,39.465,0,0,1-1.784,12.906c-.375,1.192-.8,2.368-1.291,3.519a.287.287,0,0,0,.1.377.278.278,0,0,0,.377-.1A40.108,40.108,0,0,0,44.216,68.2q.126-1.886.07-3.777a.275.275,0,0,0-.55,0" transform="translate(6.803 10.742)" fill="#3a3143"/>
            <path id="Trazado_185631" data-name="Trazado 185631" d="M44.4,66.4a6.939,6.939,0,0,1-.343,4.581c-.141.321.333.6.475.278a7.544,7.544,0,0,0,.4-5,.276.276,0,0,0-.531.146" transform="translate(7.372 11.061)" fill="#3a3143"/>
            <path id="Trazado_185632" data-name="Trazado 185632" d="M72.6,63.455a26.212,26.212,0,0,0,.941,8.228.275.275,0,0,0,.53-.147,25.728,25.728,0,0,1-.921-8.081c.016-.354-.534-.354-.55,0" transform="translate(12.152 10.58)" fill="#3a3143"/>
            <path id="Trazado_185633" data-name="Trazado 185633" d="M74.316,64.428q.173,1.683.348,3.366a.283.283,0,0,0,.274.276.278.278,0,0,0,.276-.276q-.173-1.683-.348-3.366a.283.283,0,0,0-.274-.276.278.278,0,0,0-.276.276" transform="translate(12.443 10.742)" fill="#3a3143"/>
            <path id="Trazado_185634" data-name="Trazado 185634" d="M53.119,39.055a1.7,1.7,0,1,1,1.543-1.532,1.552,1.552,0,0,1-1.543,1.532" transform="translate(8.689 5.98)"/>
            <path id="Trazado_185635" data-name="Trazado 185635" d="M65.8,40.34a1.7,1.7,0,1,1,1.543-1.532A1.552,1.552,0,0,1,65.8,40.34" transform="translate(10.812 6.195)"/>
            <path id="Trazado_185636" data-name="Trazado 185636" d="M53.269,30.007a.473.473,0,0,1,.452.677,1.507,1.507,0,0,1-.409.516,3.7,3.7,0,0,1-1.26.578l-3.735,1.169a.574.574,0,0,1,.21-.437,9.19,9.19,0,0,1,3.557-2.357,2,2,0,0,1,1.184-.146" transform="translate(8.09 5.017)"/>
            <path id="Trazado_185637" data-name="Trazado 185637" d="M66.479,28.694a.472.472,0,0,0-.451.677,1.5,1.5,0,0,0,.407.516,3.68,3.68,0,0,0,1.261.577l3.735,1.17a.586.586,0,0,0-.21-.438,9.2,9.2,0,0,0-3.558-2.356,2,2,0,0,0-1.184-.146" transform="translate(11.048 4.798)"/>
            <path id="Trazado_185638" data-name="Trazado 185638" d="M85.262,97.327a13.574,13.574,0,0,1,5.29-5.2,12.915,12.915,0,0,1,1.939-.864c.332-.118.188-.649-.147-.531a14.06,14.06,0,0,0-7.557,6.316.275.275,0,0,0,.475.278" transform="translate(14.19 15.19)" fill="#3a3143"/>
            <path id="Trazado_185639" data-name="Trazado 185639" d="M85.58,98.291a19.014,19.014,0,0,1,9.886-5.361c.347-.07.2-.6-.146-.531a19.709,19.709,0,0,0-8.2,3.779A19.022,19.022,0,0,0,85.191,97.9c-.249.253.14.642.389.389" transform="translate(14.251 15.47)" fill="#3a3143"/>
            <path id="Trazado_185640" data-name="Trazado 185640" d="M68.707,111.477a12.821,12.821,0,0,1,4.027-.831c.353-.014.355-.564,0-.55a13.252,13.252,0,0,0-4.172.85c-.328.125-.186.657.146.531" transform="translate(11.449 18.434)" fill="#3a3143"/>
            <path id="Trazado_185641" data-name="Trazado 185641" d="M74.186,135.48a16.616,16.616,0,0,1,4.478-1.295.277.277,0,0,0,.193-.339.282.282,0,0,0-.339-.193,17.188,17.188,0,0,0-4.611,1.351c-.322.145-.042.62.279.475" transform="translate(12.351 22.378)" fill="#3a3143"/>
            <path id="Trazado_185642" data-name="Trazado 185642" d="M77.44,157.056a5.7,5.7,0,0,1,3.961-1.128c.353.033.35-.517,0-.55a6.162,6.162,0,0,0-4.239,1.2c-.279.21-.006.689.278.475" transform="translate(12.9 26.012)" fill="#3a3143"/>
            <path id="Trazado_185643" data-name="Trazado 185643" d="M39.666,111.664a68.76,68.76,0,0,1-1.959,12.467c-1,4.1-2.279,8.123-3.628,12.118-1.355,4.015-2.789,8-4.113,12.028a123.011,123.011,0,0,0-3.416,12.107,63.1,63.1,0,0,0-1.542,12.328q-.014.79,0,1.578a.275.275,0,0,0,.55,0,59.4,59.4,0,0,1,1.258-12.482,111.688,111.688,0,0,1,3.274-12.126c1.3-4.031,2.726-8.019,4.1-12.027s2.676-8.013,3.735-12.1a73.694,73.694,0,0,0,2.191-12.315q.065-.786.109-1.575c.021-.354-.53-.353-.55,0" transform="translate(4.186 18.653)" fill="#3a3143"/>
            <path id="Trazado_185644" data-name="Trazado 185644" d="M93.89,106.926a40.564,40.564,0,0,1,4.3,12.108q.331,1.793.5,3.611c.033.349.583.353.551,0A41.247,41.247,0,0,0,96,109.987q-.741-1.707-1.637-3.339c-.17-.311-.646-.033-.475.278" transform="translate(15.715 17.834)" fill="#3a3143"/>
            <path id="Trazado_185645" data-name="Trazado 185645" d="M8.656,107.346a17.662,17.662,0,0,0-4.68,6.506,18.639,18.639,0,0,0-1.467,7.866,17.224,17.224,0,0,0,.757,4.495c.105.336.636.193.531-.147a17.105,17.105,0,0,1-.531-7.746,18.2,18.2,0,0,1,2.852-7.284,16.7,16.7,0,0,1,2.928-3.3c.269-.231-.121-.619-.389-.389" transform="translate(0.418 17.962)" fill="#3a3143"/>
            <path id="Trazado_185646" data-name="Trazado 185646" d="M57.6,48.655a4.252,4.252,0,0,0,4.332-2.146.55.55,0,1,0-.95-.556,3.368,3.368,0,0,1-.284.452c.035-.047.008-.011-.012.014s-.057.069-.086.1c-.06.067-.12.131-.184.193s-.117.11-.177.162c0,0-.132.107-.055.048l-.086.063a3.714,3.714,0,0,1-.455.279c-.071.036-.144.071-.217.1-.053.023.049-.016-.042.015l-.125.047a3.571,3.571,0,0,1-.49.131c-.043.009-.088.016-.131.023-.062.011.064,0-.039.006s-.177.015-.266.018-.16,0-.24,0c-.044,0-.089,0-.133-.008-.022,0-.175-.02-.065,0a.568.568,0,0,0-.677.384.554.554,0,0,0,.384.677" transform="translate(9.577 7.649)" fill="#7f4e33"/>
            <path id="Trazado_185647" data-name="Trazado 185647" d="M59.626,33.073a12.143,12.143,0,0,0-4.276,9.865,11.481,11.481,0,0,0,.576,3.075.56.56,0,0,0,.81.329,15.066,15.066,0,0,1,4.655-1.71.557.557,0,0,0,.385-.677.564.564,0,0,0-.678-.385,16.054,16.054,0,0,0-4.918,1.822l.808.328a11.082,11.082,0,0,1,1.46-9.764,10.4,10.4,0,0,1,1.958-2.1.555.555,0,0,0,0-.779.563.563,0,0,0-.779,0" transform="translate(9.265 5.512)" fill="#7f4e33"/>
            <path id="Trazado_185648" data-name="Trazado 185648" d="M48.207,103.532q3.469,4.273,6.5,8.876,3,4.555,5.548,9.391,1.443,2.744,2.733,5.565c.147.321.621.042.475-.278q-2.3-5.019-5.078-9.794t-6.023-9.243q-1.816-2.506-3.768-4.907c-.223-.276-.611.116-.389.389" transform="translate(8.061 17.255)" fill="#3a3143"/>
            <path id="Trazado_185649" data-name="Trazado 185649" d="M48.489,109.34l7.3,9.051q1.035,1.284,2.069,2.566c.222.276.609-.116.389-.389q-3.648-4.527-7.3-9.051-1.033-1.284-2.069-2.566c-.222-.277-.609.116-.389.389" transform="translate(8.108 18.227)" fill="#3a3143"/>
            <path id="Trazado_185650" data-name="Trazado 185650" d="M52.293,15.773,44.065,31.642a3.258,3.258,0,0,0,3.991-1.813,6.212,6.212,0,0,0-.114-4.727,3.779,3.779,0,0,0,5.214-3.261,3.761,3.761,0,0,0,6.518-3.494,3.667,3.667,0,0,0,6.412,1.2,75.438,75.438,0,0,0-13.792-3.772" transform="translate(7.378 2.641)"/>
            <path id="Trazado_185651" data-name="Trazado 185651" d="M77.256,24.753a11.1,11.1,0,0,1-7.007-1.874,36.728,36.728,0,0,0-7.23-3.853,3.375,3.375,0,0,0,4.88,4.2,2.338,2.338,0,0,0,.095,3.467,3.736,3.736,0,0,0,3.756.427A2.459,2.459,0,0,0,73,30.621a3.332,3.332,0,0,0,3.745-1.358,5.272,5.272,0,0,0,.607-4.127c-.029-.126-.062-.255-.095-.383" transform="translate(10.511 3.186)"/>
            <path id="Trazado_185652" data-name="Trazado 185652" d="M66.262,0,33.607,18.322l11.484,4.946,39.382-.6,10.785.532Z" transform="translate(5.627 0)" fill="#3a3143"/>
            <path id="Trazado_185653" data-name="Trazado 185653" d="M37.468,32.493s17.46-5.08,27.791-3.558S88.38,32.418,88.38,32.418L78.541,14,75.7,13.587a70.9,70.9,0,0,0-25.169.814l-1.64.351Z" transform="translate(6.274 2.148)" fill="#595167"/>
            <path id="Trazado_185654" data-name="Trazado 185654" d="M80.069,18.284s-15.813-5.263-38.112,6.257l6.185-9.775s14.821-3.987,29.647-.749Z" transform="translate(7.025 2.135)" fill="#54415c"/>
            <path id="Trazado_185655" data-name="Trazado 185655" d="M29.747,46.635c10.235-2.41,10.4-23.049,13.643-36.865S54.576,6.477,54.576,6.477" transform="translate(4.981 0.442)" fill="none" stroke="#fab74c" stroke-miterlimit="10" stroke-width="0.5"/>
            <path id="Trazado_185656" data-name="Trazado 185656" d="M26.182,43.09s7.3-1.344,6.991-3.037-8.806-2.471-8.806-2.471l4.249,1.457L25.139,40.5l2.877-.034Z" transform="translate(4.08 6.293)" fill="#fab74c"/>
            <path id="Trazado_185657" data-name="Trazado 185657" d="M93.962,158.564s-24.279,12.081-21.477-8.807c.818-6.1,8.63-23.683,10.763-38.645,3.233-22.674.711-43.821-1.327-45.408-3.383-2.633-16.342-6.337-16.342-6.337s11.3,3.124,4.886,22.312-15.319,78.158-5.939,85.832S92.3,172.869,92.3,172.869Z" transform="translate(10.122 9.941)" fill="#f9b64b"/>
            <path id="Trazado_185658" data-name="Trazado 185658" d="M50.684,62.064s-3.815,62.832-5.857,69.488-4.776,23.431-10.612,27.19-16.989,13.79-18.775,11.427-6.016-8.138-6.016-8.138,19.321-9.964,20.458-19.5-.874-73.908,8.875-76.112,11.927-4.358,11.927-4.358" transform="translate(1.578 10.392)" fill="#f9b64b"/>
            <path id="Trazado_185659" data-name="Trazado 185659" d="M99.651,126.1a14.662,14.662,0,0,1-1.749,4.915l-4.248,8.542a2.627,2.627,0,0,1-.286.465c-.964,1.211-2.239.456-3.178-.252L82.959,134.3a12.063,12.063,0,0,1-3.463-3.453,12.085,12.085,0,0,1-1.142-5.089q-.806-10.752-1.613-21.505a11.864,11.864,0,0,0-.825-4.165A11.832,11.832,0,0,0,73.2,96.74c-3.021-2.908-6.575-7.337-9.812-10.863a1.284,1.284,0,0,1,1.068-2.146A1.878,1.878,0,1,1,67.215,81.2a2.226,2.226,0,1,1,3.375-2.885l.064-1.654a1.286,1.286,0,0,1,2.1-.947,86.075,86.075,0,0,1,7.928,7.777,5.144,5.144,0,0,0-1.651-3.669l.916-2.752c2.272,1.847,4.3,3.291,5.137,6.054.378,1.247.975,15.613,1.157,16.9,1.319,9.385,13.829,22.03,13.414,26.074" transform="translate(10.556 12.629)" fill="#cd8451"/>
            <path id="Trazado_185660" data-name="Trazado 185660" d="M69.378,77.628a6.425,6.425,0,0,1,1.915,2.955c.1.337.634.194.53-.147a6.939,6.939,0,0,0-2.057-3.2c-.265-.233-.656.155-.388.389" transform="translate(11.602 12.921)" fill="#7f4e33"/>
            <path id="Trazado_185661" data-name="Trazado 185661" d="M66.024,80.253a8.727,8.727,0,0,1,2.195,2.488.275.275,0,0,0,.474-.278,9.085,9.085,0,0,0-2.28-2.6.284.284,0,0,0-.389,0,.277.277,0,0,0,0,.389" transform="translate(11.042 13.359)" fill="#7f4e33"/>
            <path id="Trazado_185662" data-name="Trazado 185662" d="M64.129,82.634l1.957,1.978a.275.275,0,0,0,.389-.389q-.977-.989-1.957-1.978c-.249-.252-.639.137-.389.389" transform="translate(10.724 13.757)" fill="#7f4e33"/>
            <path id="Trazado_185663" data-name="Trazado 185663" d="M66.138,87.033a41.615,41.615,0,0,1,7.531-7c.285-.205.011-.683-.277-.475a42.071,42.071,0,0,0-7.643,7.086c-.226.269.161.661.389.389" transform="translate(10.997 13.313)" fill="#7f4e33"/>
            <path id="Trazado_185664" data-name="Trazado 185664" d="M16.542,80.774c6.171-3.03,13.852-5.9,19.952-9.072,0,0-4.366-.371-4.4-.367a162.857,162.857,0,0,0-18.528,6.787l.7,1.089Z" transform="translate(2.271 11.944)" fill="#adc4c4"/>
            <path id="Trazado_185665" data-name="Trazado 185665" d="M25.878,110.3c-4.043-10.31-8.617-21.774-12.316-32.212.646-.194,1.993.7,2.636.5q10.243-3.157,20.249-7.022l14.937,36.016a135.948,135.948,0,0,1-21.755,11.985l-4.7-10.861Z" transform="translate(2.271 11.982)" fill="#9a8728"/>
            <path id="Trazado_185666" data-name="Trazado 185666" d="M16.245,78q1.355,4.185,2.713,8.372c.109.335.641.191.53-.147q-1.355-4.185-2.712-8.371c-.111-.336-.642-.193-.531.146" transform="translate(2.718 13.004)" fill="#56480d"/>
            <path id="Trazado_185667" data-name="Trazado 185667" d="M15.029,77.856l12.615-4.6,3.605-1.315c.082-.029.047-.162-.037-.132L18.6,76.41l-3.6,1.313c-.083.03-.048.163.036.133" transform="translate(2.502 12.024)" fill="#709998"/>
            <path id="Trazado_185668" data-name="Trazado 185668" d="M15.652,78.186C20.34,76.552,25.023,74.9,29.61,73A18.355,18.355,0,0,1,33.4,71.757c.086-.015.05-.148-.036-.133a16.818,16.818,0,0,0-3.4,1.08c-1.121.459-2.239.923-3.367,1.365-2.315.907-4.652,1.758-7,2.588q-1.993.7-3.988,1.4c-.083.029-.048.162.036.133" transform="translate(2.607 11.993)" fill="#709998"/>
            <path id="Trazado_185669" data-name="Trazado 185669" d="M21.625,75.969A77.534,77.534,0,0,0,30,73.006q1.133-.475,2.25-.986c.081-.037.011-.155-.069-.119a77.323,77.323,0,0,1-8.216,3.206q-1.18.384-2.372.73a.069.069,0,0,0,.036.133" transform="translate(3.607 12.038)" fill="#709998"/>
            <path id="Trazado_185670" data-name="Trazado 185670" d="M14.013,90.546c5.162-2.535,11.588-4.938,16.691-7.59,0,0-3.653-.311-3.683-.307a136.183,136.183,0,0,0-15.5,5.678l.588.911Z" transform="translate(1.929 13.839)" fill="#adc4c4"/>
            <path id="Trazado_185671" data-name="Trazado 185671" d="M21.823,115.242c-3.382-8.625-7.209-18.216-10.3-26.947.541-.163,1.667.584,2.205.417q8.57-2.641,16.941-5.873,6.246,15.065,12.5,30.129a113.859,113.859,0,0,1-18.2,10.026l-3.93-9.086Z" transform="translate(1.929 13.871)" fill="#ffb9a0"/>
            <path id="Trazado_185672" data-name="Trazado 185672" d="M13.839,88.187c.3.937.655,1.86.995,2.784q.876,2.392,1.768,4.776,1.026,2.758,2.055,5.516.918,2.464,1.829,4.932c.378,1.03.765,2.059,1.116,3.1.022.064.043.128.064.194.055.167.32.1.265-.074-.3-.937-.655-1.86-.995-2.784q-.876-2.392-1.768-4.776-1.026-2.758-2.055-5.516-.918-2.464-1.829-4.932c-.378-1.03-.764-2.059-1.116-3.1l-.064-.194c-.054-.167-.32-.1-.265.074" transform="translate(2.316 14.738)" fill="#c8682c"/>
            <path id="Trazado_185673" data-name="Trazado 185673" d="M12.751,88.117l10.563-3.85,3.006-1.1c.082-.03.047-.163-.036-.133L15.72,86.889l-3,1.1c-.083.03-.048.163.036.133" transform="translate(2.121 13.903)" fill="#709998"/>
            <path id="Trazado_185674" data-name="Trazado 185674" d="M13.272,88.393c3.923-1.367,7.839-2.748,11.678-4.341a15.518,15.518,0,0,1,3.17-1.038c.088-.015.05-.148-.036-.133a14.25,14.25,0,0,0-2.852.907c-.944.388-1.887.779-2.837,1.151-1.938.758-3.893,1.469-5.854,2.163q-1.651.583-3.305,1.157c-.084.029-.048.162.036.133" transform="translate(2.208 13.877)" fill="#709998"/>
            <path id="Trazado_185675" data-name="Trazado 185675" d="M18.269,86.538a65.367,65.367,0,0,0,8.888-3.305c.081-.037.011-.155-.07-.119A64.864,64.864,0,0,1,18.233,86.4a.069.069,0,0,0,.036.133" transform="translate(3.045 13.915)" fill="#709998"/>
            <path id="Trazado_185676" data-name="Trazado 185676" d="M5.327,121.176a14.67,14.67,0,0,0-.118,5.215q.462,4.749.926,9.5a2.54,2.54,0,0,0,.1.536c.469,1.474,1.929,1.225,3.059.9l8.7-2.533a12.064,12.064,0,0,0,4.467-1.993,12.048,12.048,0,0,0,2.88-4.348q4.586-9.759,9.171-19.52a11.848,11.848,0,0,1,2.255-3.6,11.811,11.811,0,0,1,3.735-2.16c3.861-1.64,8.758-4.513,13.04-6.653a1.283,1.283,0,0,0-.235-2.385,1.878,1.878,0,1,0-1.679-3.352,2.225,2.225,0,1,0-2.126-3.9l.529-1.569a1.286,1.286,0,0,0-1.62-1.631c-3.3,1.085-5.984,5.559-9.684,5.277a13.371,13.371,0,0,0,4.205-3.991,1.19,1.19,0,0,0-1.354-1.8,14.519,14.519,0,0,0-7.173,4.566A25.7,25.7,0,0,0,32.4,91.085c-4.576,8.3-26.018,26.165-27.071,30.091" transform="translate(0.843 13.916)" fill="#cd8451"/>
            <path id="Trazado_185677" data-name="Trazado 185677" d="M40.9,89.692a37.451,37.451,0,0,0,3.628-3.862c.222-.272-.166-.663-.39-.389A37.559,37.559,0,0,1,40.509,89.3c-.262.24.128.629.389.389" transform="translate(6.768 14.291)" fill="#7f4e33"/>
            <path id="Trazado_185678" data-name="Trazado 185678" d="M42.94,91.768,46.5,88.577c.265-.237-.126-.626-.389-.39l-3.555,3.192c-.265.237.126.625.389.389" transform="translate(7.11 14.754)" fill="#7f4e33"/>
            <path id="Trazado_185679" data-name="Trazado 185679" d="M44.2,94.854a21.6,21.6,0,0,1,3.3-3.013.285.285,0,0,0,.1-.377.279.279,0,0,0-.377-.1,22.321,22.321,0,0,0-3.411,3.1c-.236.264.153.654.389.389" transform="translate(7.324 15.291)" fill="#7f4e33"/>
            <path id="Trazado_185680" data-name="Trazado 185680" d="M39.264,88.66a26.452,26.452,0,0,1,5.215,7.372c.153.32.627.041.475-.278a26.869,26.869,0,0,0-5.3-7.483.275.275,0,0,0-.389.389" transform="translate(6.561 14.767)" fill="#7f4e33"/>
          </g>
        </g>
      </g>
    </g>
  </g>
</svg>
