<svg xmlns="http://www.w3.org/2000/svg" xmlns:xlink="http://www.w3.org/1999/xlink" width="206" height="177" viewBox="0 0 206 177">
  <defs>
    <clipPath id="clip-path">
      <rect id="Rectángulo_45444" data-name="Rectángulo 45444" width="153" height="177" transform="translate(0 2)" fill="#fff" stroke="#707070" stroke-width="1"/>
    </clipPath>
    <clipPath id="clip-path-2">
      <rect id="Rectángulo_45449" data-name="Rectángulo 45449" width="107.049" height="282.198" fill="none"/>
    </clipPath>
    <clipPath id="clip-path-4">
      <rect id="Rectángulo_45445" data-name="Rectángulo 45445" width="15.298" height="5.281" fill="none"/>
    </clipPath>
  </defs>
  <g id="Grupo_175453" data-name="Grupo 175453" transform="translate(-697 -1103)">
    <path id="Rectángulo_45468" data-name="Rectángulo 45468" d="M34,0H172a34,34,0,0,1,34,34V68a0,0,0,0,1,0,0H0a0,0,0,0,1,0,0V34A34,34,0,0,1,34,0Z" transform="translate(697 1212)" fill="#6b8dfc"/>
    <g id="Enmascarar_grupo_304" data-name="Enmascarar grupo 304" transform="translate(724 1101)" clip-path="url(#clip-path)">
      <g id="Grupo_175418" data-name="Grupo 175418" transform="translate(23 2)">
        <g id="Grupo_175426" data-name="Grupo 175426" clip-path="url(#clip-path-2)">
          <g id="Grupo_175425" data-name="Grupo 175425">
            <g id="Grupo_175424" data-name="Grupo 175424" clip-path="url(#clip-path-2)">
              <path id="Trazado_184870" data-name="Trazado 184870" d="M125.456,23.111S115.329.987,139.674.021c25.41-1.008,9.478,35.09,9.478,35.09s12.2,4.537,14.116,10.688,2.42,13.915-5.142,14.923S140.783,47.21,141.085,37.631s-15.629-14.52-15.629-14.52" transform="translate(-75.95 0)" fill="#fce6a3"/>
              <path id="Trazado_184871" data-name="Trazado 184871" d="M47.852,247.258,39.437,283.38,27.063,294.55l-3.638,6.309.874,2.086,2.086-.873,1.359,2.959,5.724-7.182,4.755-3.786-5.142,7.716a18.159,18.159,0,0,0,9.993-14.413s12.037-30.767,13.54-37.318Z" transform="translate(-14.421 -152.221)" fill="#fca19f"/>
              <path id="Trazado_184872" data-name="Trazado 184872" d="M86.976,204.739l5.892-26.546,10.487,2.117-7.663,27.628Z" transform="translate(-53.546 -109.702)" fill="#fca19f"/>
              <path id="Trazado_184873" data-name="Trazado 184873" d="M186.533,661.607l2.137-29.138-10.49.971L180.316,662Z" transform="translate(-109.694 -389.372)" fill="#fca19f"/>
              <path id="Trazado_184874" data-name="Trazado 184874" d="M154.168,698.872s2.838,7.373,1.583,12.927l-31.156.144s-1.948-5.966,5.087-7.493,16.79-6.4,16.79-6.4,4.99,3.4,7.7.823" transform="translate(-76.553 -429.745)" fill="#c3e6ff"/>
              <path id="Trazado_184875" data-name="Trazado 184875" d="M155.777,728.809l-31.157.143a6.555,6.555,0,0,1-.1-3.129l31.6-.145a15.189,15.189,0,0,1-.34,3.131" transform="translate(-76.57 -446.755)" fill="#f7ead5"/>
              <path id="Trazado_184876" data-name="Trazado 184876" d="M168.193,698.835a4.328,4.328,0,0,0-1.022-1.411,4.466,4.466,0,0,0-2.341-.813,19,19,0,0,0-2.182-.144,4.7,4.7,0,0,0-2.739.613c-.238.164-.469.425-.409.708a.706.706,0,0,0,.436.446,3.55,3.55,0,0,0,2.029.086q2.46-.395,4.876-1.014a10.028,10.028,0,0,0-.3,2.669,5.4,5.4,0,0,0,.555,2.445,2.011,2.011,0,0,0,.712.8,1.065,1.065,0,0,0,1.037.054,1.121,1.121,0,0,0,.513-.9,2.888,2.888,0,0,0-.169-1.059A15.087,15.087,0,0,0,168.193,698.835Z" transform="translate(-98.188 -428.771)" fill="none" stroke="#fff" stroke-linecap="round" stroke-linejoin="round" stroke-width="1.11"/>
              <path id="Trazado_184877" data-name="Trazado 184877" d="M62.957,662.307l7.657-28.7H59.724L55.086,663.05Z" transform="translate(-33.913 -390.072)" fill="#fca19f"/>
              <path id="Trazado_184878" data-name="Trazado 184878" d="M29.821,698.872s2.838,7.373,1.583,12.927l-31.156.144s-1.948-5.966,5.087-7.493,16.79-6.4,16.79-6.4,4.99,3.4,7.7.823" transform="translate(0 -429.745)" fill="#c3e6ff"/>
              <path id="Trazado_184879" data-name="Trazado 184879" d="M31.43,728.809l-31.157.143a6.555,6.555,0,0,1-.1-3.129l31.6-.145a15.189,15.189,0,0,1-.34,3.131" transform="translate(-0.017 -446.755)" fill="#f7ead5"/>
              <path id="Trazado_184880" data-name="Trazado 184880" d="M43.846,698.835a4.322,4.322,0,0,0-1.022-1.411,4.466,4.466,0,0,0-2.341-.813,19,19,0,0,0-2.182-.144,4.7,4.7,0,0,0-2.739.613c-.238.164-.469.425-.409.708a.706.706,0,0,0,.436.446,3.55,3.55,0,0,0,2.029.086q2.46-.395,4.876-1.014a10.043,10.043,0,0,0-.3,2.669,5.4,5.4,0,0,0,.555,2.445,2.012,2.012,0,0,0,.712.8,1.065,1.065,0,0,0,1.037.054,1.121,1.121,0,0,0,.513-.9,2.9,2.9,0,0,0-.168-1.059A15.121,15.121,0,0,0,43.846,698.835Z" transform="translate(-21.635 -428.771)" fill="none" stroke="#fff" stroke-linecap="round" stroke-linejoin="round" stroke-width="1.11"/>
              <path id="Trazado_184881" data-name="Trazado 184881" d="M105.193,276.714s8.541,10.028,11.286,18.7-2.865,133.741-2.865,133.741-9.007,3.86-16.963.41L88.124,311.98s-.229-1.084-1.144,0S69.652,428.512,69.652,428.512s-11.795,1.93-18.116-3c0,0,10.951-121.969,15.832-133.08s8.541-15.719,8.541-15.719Z" transform="translate(-31.728 -170.356)" fill="#478e87"/>
              <path id="Trazado_184882" data-name="Trazado 184882" d="M187.961,281.079s7.321,10.982,9.609,19.218-1.9,131.975-1.9,131.975" transform="translate(-115.716 -173.043)" fill="none" stroke="#1e183f" stroke-linecap="round" stroke-linejoin="round" stroke-width="1.411"/>
              <line id="Línea_1485" data-name="Línea 1485" x2="23.024" y2="21.748" transform="translate(59.745 110.882)" fill="none" stroke="#1e183f" stroke-linecap="round" stroke-linejoin="round" stroke-width="1.411"/>
              <path id="Trazado_184883" data-name="Trazado 184883" d="M217.066,162.155l7.065,41.676-.353,36.385,8.831,14.138,1.766,7.065-1.413,1.767-1.766-1.413-2.12,2.473-3.532-8.478-3.533-4.946,2.826,8.831a18.159,18.159,0,0,1-5.652-16.6s-6.359-33.559-6.005-40.271l-6.359-32.146Z" transform="translate(-127.327 -99.829)" fill="#fca19f"/>
              <line id="Línea_1486" data-name="Línea 1486" x1="13.51" y2="20.427" transform="translate(34.011 109.273)" fill="none" stroke="#1e183f" stroke-linecap="round" stroke-linejoin="round" stroke-width="1.411"/>
              <path id="Trazado_184884" data-name="Trazado 184884" d="M137.492,155.74l.256-1.116,2.074,6.887a90.262,90.262,0,0,0,13.608-1.41s-3.251-22.855-6.225-25.142-16.066-6.569-16.066-6.569l-15.024-.3-13.064,4.424a2.291,2.291,0,0,0-1.471,1.551l-5.246,18.682,1.226,1.431s-.018-3.115.029-.132c.083,5.227,5.144,7.3,5.144,7.3l-.936,18.771-6.05,17.343c10.753,4.8,44.87-1.21,44.87-1.21l-7.568-15.278a1.308,1.308,0,0,1-.1-.881c.427-6.421,4.537-24.351,4.537-24.351" transform="translate(-58.946 -78.855)" fill="#5dafa9"/>
              <path id="Trazado_184885" data-name="Trazado 184885" d="M157.35,79.248s-.217,16.187.279,17.461,3.387,2.016,3.387,2.016-17.342,14.52-17.646,14.217a96.282,96.282,0,0,1-1.714-14.116s3.486-.94,3.917-1.9,1.894-11.366,1.894-11.366Z" transform="translate(-87.209 -48.788)" fill="#fca19f"/>
              <path id="Trazado_184886" data-name="Trazado 184886" d="M162.619,83,160,84.68l-5.129,4.1c-.166,1.156-.471,3.245-.789,5.266a14.349,14.349,0,0,0,10.76-7.831c0-.993.012-1.9.018-2.636Z" transform="translate(-94.857 -51.101)" fill="#f97070"/>
              <g id="Grupo_175423" data-name="Grupo 175423" transform="translate(56.667 78.823)" style="mix-blend-mode: multiply;isolation: isolate">
                <g id="Grupo_175422" data-name="Grupo 175422">
                  <g id="Grupo_175421" data-name="Grupo 175421" clip-path="url(#clip-path-4)">
                    <path id="Trazado_184887" data-name="Trazado 184887" d="M162.73,205.771s-8.484,6.119-15.3-.7c0,0,7.927,11.4,15.3.7" transform="translate(-147.432 -205.076)" fill="#5dafa9"/>
                  </g>
                </g>
              </g>
              <path id="Trazado_184888" data-name="Trazado 184888" d="M103.5,170.9s-3.339,8.438-3.063,9.634.207,5.637,5.174,7.17l-.395,9.252" transform="translate(-61.823 -105.211)" fill="none" stroke="#37374f" stroke-linecap="round" stroke-linejoin="round" stroke-width="0.787"/>
              <path id="Trazado_184889" data-name="Trazado 184889" d="M128.039,19.446c-.852,14.419,6.482,20.285,9.742,20.447,4.207.209,11.42-3.278,12.882-9.709,0,0,5.167-.252,5.428-3.109.48-5.264-3.5-2.356-3.5-2.356s6.368-18.351-8-21.68c-9.382-2.175-15.738,2.584-16.554,16.408" transform="translate(-78.784 -1.56)" fill="#fca19f"/>
              <path id="Trazado_184890" data-name="Trazado 184890" d="M162.78,44.989c-.149-.317-.806-.361-1.1-.44a5.126,5.126,0,0,0-1.855-.157,10.654,10.654,0,0,0-1.455.264c-.324.078-.887.293-1.181.032a.516.516,0,0,1-.009-.672c.346-.451,1.186-.525,1.7-.594,1.5-.2,3.182.02,3.9,1.567" transform="translate(-96.692 -26.693)" fill="#945661"/>
              <path id="Trazado_184891" data-name="Trazado 184891" d="M128.93,44.846c.145-.319.8-.37,1.1-.452a5.127,5.127,0,0,1,1.853-.177,10.623,10.623,0,0,1,1.458.248c.324.074.891.283,1.181.019a.515.515,0,0,0,0-.672c-.351-.447-1.192-.512-1.706-.576-1.5-.187-3.181.055-3.883,1.61" transform="translate(-79.374 -26.585)" fill="#945661"/>
              <path id="Trazado_184892" data-name="Trazado 184892" d="M166.26,63.005c-.023-.661-1.095-1.161-2.393-1.117s-2.333.617-2.31,1.278,1.095,1.161,2.393,1.117,2.333-.617,2.31-1.278" transform="translate(-99.46 -38.099)" fill="#f97070"/>
              <path id="Trazado_184893" data-name="Trazado 184893" d="M134.33,63.248c-.023-.661-.976-1.165-2.129-1.126s-2.068.608-2.045,1.269.976,1.165,2.128,1.126,2.069-.608,2.046-1.269" transform="translate(-80.129 -38.244)" fill="#f97070"/>
              <path id="Trazado_184894" data-name="Trazado 184894" d="M149.122,59.3a2.434,2.434,0,0,1-1.77-.976.2.2,0,0,1-.025-.2,12.1,12.1,0,0,0,.613-6.248.2.2,0,0,1,.156-.235.2.2,0,0,1,.234.156,12.336,12.336,0,0,1-.59,6.368,1.95,1.95,0,0,0,1.368.732l.068,0a.2.2,0,0,1,.024.4l-.079,0" transform="translate(-90.691 -31.795)" fill="#37374f"/>
              <path id="Trazado_184895" data-name="Trazado 184895" d="M163,51.891c.036-1.2-.552-2.19-1.314-2.214s-1.409.929-1.445,2.129.552,2.19,1.314,2.214,1.409-.929,1.445-2.129" transform="translate(-98.648 -30.582)" fill="#37374f"/>
              <path id="Trazado_184896" data-name="Trazado 184896" d="M136.113,51.362c.036-1.2-.552-2.19-1.314-2.214s-1.409.929-1.445,2.129.552,2.19,1.314,2.214,1.409-.929,1.445-2.129" transform="translate(-82.097 -30.257)" fill="#37374f"/>
              <path id="Trazado_184897" data-name="Trazado 184897" d="M152.825,20.667l-2.115,3.456S138.558,17.152,136.05,8.2c0,0-7.525,8.149-11.132,10.705,0,0,.157-13.581,6.9-15.658s16.462-3.2,19.6,2.556,1.411,14.859,1.411,14.859" transform="translate(-76.904 -0.965)" fill="#fce6a3"/>
              <path id="Trazado_184898" data-name="Trazado 184898" d="M149.018,75.927,145.9,74.1l-1.13.938-1.06-.908L141.336,76.1s1.018,3.764,3.774,3.838c3.184.086,3.908-4.009,3.908-4.009" transform="translate(-87.012 -45.617)" fill="#f97070"/>
              <path id="Trazado_184899" data-name="Trazado 184899" d="M149.018,78.858l-7.682.171s3.7,5.177,7.682-.171" transform="translate(-87.012 -48.548)" fill="#fff"/>
              <rect id="Rectángulo_45446" data-name="Rectángulo 45446" width="10.285" height="5.596" transform="translate(63.648 65.465)" fill="#fff"/>
              <rect id="Rectángulo_45447" data-name="Rectángulo 45447" width="1.361" height="2.874" transform="translate(67.883 63.499)" fill="#c3e6ff"/>
              <path id="Trazado_184900" data-name="Trazado 184900" d="M176.676,175.648h-6.705a.277.277,0,1,1,0-.554h6.705a.277.277,0,1,1,0,.554" transform="translate(-104.469 -107.794)" fill="#37374f"/>
              <path id="Trazado_184901" data-name="Trazado 184901" d="M174.061,179.338h-4.147a.221.221,0,0,1-.221-.22V179a.221.221,0,0,1,.221-.221h4.147a.221.221,0,0,1,.221.221v.114a.221.221,0,0,1-.221.22" transform="translate(-104.469 -110.066)" fill="#37374f"/>
            </g>
          </g>
        </g>
      </g>
    </g>
  </g>
</svg>
