<svg xmlns="http://www.w3.org/2000/svg" xmlns:xlink="http://www.w3.org/1999/xlink" width="1030" height="354" viewBox="0 0 1030 354">
  <defs>
    <clipPath id="clip-path">
      <path id="Rectángulo_45636" data-name="Rectángulo 45636" d="M17,0h996a17,17,0,0,1,17,17V300a0,0,0,0,1,0,0H0a0,0,0,0,1,0,0V17A17,17,0,0,1,17,0Z" transform="translate(285 2147.719)" fill="#3c3fa7"/>
    </clipPath>
    <clipPath id="clip-path-2">
      <path id="Rectángulo_45553" data-name="Rectángulo 45553" d="M17,0h996a17,17,0,0,1,17,17V354a0,0,0,0,1,0,0H0a0,0,0,0,1,0,0V17A17,17,0,0,1,17,0Z" transform="translate(285 2093.719)" fill="#3c3fa7"/>
    </clipPath>
    <clipPath id="clip-path-3">
      <rect id="Rectángulo_45598" data-name="Rectángulo 45598" width="54.947" height="62.805" fill="none"/>
    </clipPath>
    <clipPath id="clip-path-4">
      <rect id="Rectángulo_45596" data-name="Rectángulo 45596" width="1.671" height="1.348" fill="none"/>
    </clipPath>
    <clipPath id="clip-path-5">
      <rect id="Rectángulo_45597" data-name="Rectángulo 45597" width="4.256" height="1.402" fill="none"/>
    </clipPath>
    <clipPath id="clip-path-6">
      <rect id="Rectángulo_45623" data-name="Rectángulo 45623" width="752.016" height="431.498" fill="none"/>
    </clipPath>
    <clipPath id="clip-path-7">
      <rect id="Rectángulo_45626" data-name="Rectángulo 45626" width="278.53" height="218.495" fill="none"/>
    </clipPath>
    <clipPath id="clip-path-8">
      <rect id="Rectángulo_45624" data-name="Rectángulo 45624" width="6.37" height="5.14" fill="none"/>
    </clipPath>
    <clipPath id="clip-path-9">
      <rect id="Rectángulo_45625" data-name="Rectángulo 45625" width="16.22" height="5.344" fill="none"/>
    </clipPath>
  </defs>
  <g id="Grupo_175485" data-name="Grupo 175485" transform="translate(-285 -2093.719)">
    <path id="Rectángulo_45312" data-name="Rectángulo 45312" d="M17,0h996a17,17,0,0,1,17,17V300a0,0,0,0,1,0,0H0a0,0,0,0,1,0,0V17A17,17,0,0,1,17,0Z" transform="translate(285 2147.719)" fill="#3c3fa7"/>
    <g id="Enmascarar_grupo_307" data-name="Enmascarar grupo 307" clip-path="url(#clip-path)">
      <g id="Grupo_175487" data-name="Grupo 175487" transform="translate(44.874 2102.86) rotate(-45)">
        <g id="Grupo_162315" data-name="Grupo 162315" transform="translate(12.928 12.719)" style="mix-blend-mode: overlay;isolation: isolate">
          <path id="Trazado_143614" data-name="Trazado 143614" d="M381.065,193.9c-28.706,28.879-58.284,56.782-88.382,84.238,13.755-28.387,28.464-56.374,41.6-85.025,14.888-32.481,32.484-76.637,17.012-109.336-35.257-74.533-136.371,4.587-174.067,44.549-4.014,4.26-7.865,8.692-11.76,13.076,14.244-31.557,27.243-63.91,25.687-97.256-2.139-45.85-44.513-55-82.378-31.983C68.116,36.875,34.5,78.018,6.309,115.281c-23.948,31.649,26.4,58.553,50.15,27.35A456.4,456.4,0,0,1,98.777,94.517q-3.466,5.925-7,11.83C76.2,132.378,60.795,158.5,47.831,185.752c-24.822,52.17-61.317,124.491-35.386,177.071,13.07,26.5,46.444,27.776,72.159,15.625,34.567-16.334,59.516-50.127,83.4-78.849,24.926-29.989,47.117-61.644,70.344-92.813,9.7-13.024,19.41-26.228,30.4-38.3.252-.28.514-.538.765-.812l-.3.825c-6.606,18.035-14.838,35.425-23.169,52.864-15.5,32.446-35.147,66.745-41.852,101.6-5.927,30.82,5.128,64.582,42.636,60.71,35.261-3.639,64.939-38.229,89.447-61.534,29.678-28.227,58.872-56.965,88.071-85.675C454.828,206.49,411.218,163.573,381.065,193.9Z" transform="translate(5.763 5.624)" fill="#3c384f"/>
          <path id="Trazado_143615" data-name="Trazado 143615" d="M248.989,395.17c-13.8.609-25.3-3.645-33.416-12.405-11.277-12.178-15.469-32.638-11.219-54.73,5.541-28.8,19.447-56.772,32.891-83.812,3.22-6.477,6.409-12.89,9.436-19.23,2.87-6.013,5.889-12.33,8.9-18.859q-2.65,3.536-5.248,7.031l-1.719,2.311q-9.053,12.144-17.954,24.349c-16.73,22.806-34.03,46.393-52.6,68.73-2.712,3.262-5.439,6.591-8.2,9.956-21.312,26.021-45.465,55.511-77.4,70.6-28.469,13.438-64.886,11.633-79.416-17.842-26.115-52.947,7.829-124.059,32.617-175.98l2.813-5.9c7.293-15.338,15.373-30.352,23.9-45.318q-2.894,3.631-5.687,7.308C52,170.658,27.766,171.447,12.807,161.062c-12.371-8.589-18.78-25.289-5.2-43.24,30.1-39.778,63.563-80,104.264-104.738C134.461-.642,158.651-3.776,176.6,4.7c15.8,7.464,25.046,23.2,26.029,44.326,1.154,24.772-5.368,48.819-14.292,71.88,30.535-29.447,86.463-71.764,129.626-67.63,19.827,1.909,34.737,13.148,44.315,33.4,15.758,33.3.222,76.314-17.055,113.992-8.223,17.939-17.185,35.865-25.853,53.207l-3.068,6.134c24.5-22.756,46.453-43.916,66.639-64.219v.006c9.98-10.046,22.269-14.117,34.571-11.483a36.9,36.9,0,0,1,27.79,27.121c2.855,12.224-1.17,24.466-11.342,34.464l-3.321,3.261c-27.646,27.185-56.231,55.3-84.827,82.485-3.524,3.354-7.149,6.936-10.888,10.629-22.239,21.957-49.914,49.289-82.237,52.624C251.436,395.028,250.2,395.116,248.989,395.17Zm26.5-227.228a5.127,5.127,0,0,1,2.727.6,5.016,5.016,0,0,1,2.405,6.251l-.3.831c-6.924,18.912-15.67,37.226-23.386,53.384-3.058,6.4-6.278,12.873-9.523,19.4-13.082,26.319-26.613,53.531-31.849,80.753-3.553,18.483-.2,35.972,8.748,45.637,6.637,7.168,16.108,10.127,28.184,8.922,27.985-2.892,52.808-27.4,74.709-49.027,3.8-3.747,7.483-7.387,11.06-10.794,28.519-27.117,57.069-55.188,84.678-82.338l3.315-3.26c9-8.843,9.262-17.631,7.906-23.447a26.945,26.945,0,0,0-20.01-19.555c-5.832-1.255-14.617-.879-23.411,7.972v.006c-26.078,26.226-55.063,53.851-88.619,84.45a5.86,5.86,0,0,1-7.2.743,5.256,5.256,0,0,1-1.587-6.746c5.2-10.731,10.534-21.4,15.871-32.071,8.619-17.25,17.536-35.085,25.671-52.835,16.186-35.294,30.855-75.332,16.968-104.679-8.071-17.074-19.846-26.127-36-27.677-40.239-3.86-99.108,41.6-128.836,73.118-3.171,3.355-6.234,6.828-9.3,10.3l-2.32,2.628a5.967,5.967,0,0,1-7.347,1.439,5.216,5.216,0,0,1-1.988-6.8c13.562-30.059,26.679-62.126,25.166-94.623-.813-17.411-7.828-29.726-20.286-35.612-14.531-6.864-34.611-4.024-53.718,7.584C78.374,46.118,45.875,85.24,16.544,124c-9.265,12.249-4.335,22.337,3.374,27.688,10.44,7.241,27.25,7.407,37.854-6.531a465.334,465.334,0,0,1,42.911-48.795,5.877,5.877,0,0,1,7.475-.867,5.323,5.323,0,0,1,1.274,7.119q-3.484,5.951-7.035,11.882c-15.769,26.359-30.981,52.229-43.662,78.883l-2.82,5.916C32.132,249.113-.431,317.341,23.394,365.651c11.573,23.467,41.408,24.492,64.9,13.4,29.312-13.845,51.491-40.923,72.936-67.113,2.774-3.382,5.525-6.741,8.261-10.026,18.318-22.041,35.5-45.466,52.118-68.121q8.962-12.224,18.009-24.425l1.719-2.305c9.111-12.237,18.53-24.885,29.08-36.479l.532-.567A6.878,6.878,0,0,1,275.493,167.941Zm111.349,31.59.051,0Z" transform="translate(-0.008 -0.009)" fill="#3c384f"/>
          <path id="Trazado_143616" data-name="Trazado 143616" d="M27.611,3.054C4.748,45.532-9.286,94.767,7.166,138.613c2.429,6.485,13.589,3.108,11.125-3.471C2.851,93.974,15.7,48.236,37.2,8.282,40.752,1.7,31.174-3.567,27.611,3.054Z" transform="translate(24.531 216.659)" fill="#3c384f"/>
          <path id="Trazado_143617" data-name="Trazado 143617" d="M16.413,29.871c-.1-.007-.186-.031-.277-.044-.146-.3-.274-.621-.321-.708l-.027-.032c-.009-.044.006-.011-.008-.078-.623-2.476-1.034-4.99-1.478-7.518q-1.535-8.8-3.075-17.591C10.73,1.053,7.242-.731,4.392.291A6.305,6.305,0,0,0,.1,7.37q1.739,9.946,3.484,19.9c.965,5.519,2.581,12.746,9.315,13.563,2.909.353,6.316-1.035,7.188-4.232C20.832,33.86,19.537,30.249,16.413,29.871Z" transform="translate(47.734 307.531)" fill="#3c384f"/>
          <path id="Trazado_143618" data-name="Trazado 143618" d="M22.5.6C16.177-2.517,9.98,7.423,16.309,10.544,25.049,14.852,27.35,24.306,27.282,33.7c-.068,10.662-1.78,21.692-4.013,32.287A229.062,229.062,0,0,1,.781,127.14c-3.544,6.592,6.029,11.849,9.591,5.228A240.07,240.07,0,0,0,35.684,60.394C39.275,40.05,43.782,11.091,22.5.6Z" transform="translate(303.364 86.336)" fill="#3c384f"/>
        </g>
        <g id="Grupo_162318" data-name="Grupo 162318" transform="translate(0.008 0.009)">
          <g id="Grupo_162317" data-name="Grupo 162317" transform="translate(0)">
            <g id="Grupo_162316" data-name="Grupo 162316">
              <path id="Trazado_143619" data-name="Trazado 143619" d="M381.07,193.9c-28.706,28.879-58.284,56.782-88.387,84.233,13.754-28.382,28.47-56.374,41.6-85.02,14.888-32.481,32.479-76.636,17.012-109.335-35.257-74.533-136.37,4.581-174.067,44.549-4.02,4.255-7.865,8.687-11.76,13.076,14.238-31.556,27.237-63.909,25.687-97.256-2.139-45.85-44.513-55-82.378-31.988C68.116,36.877,34.508,78.019,6.309,115.282c-23.948,31.649,26.4,58.553,50.156,27.349A456.985,456.985,0,0,1,98.777,94.513q-3.466,5.925-6.994,11.835C76.205,132.379,60.8,158.5,47.836,185.748,23.008,237.923-13.481,310.239,12.45,362.825c13.07,26.5,46.439,27.777,72.159,15.625,34.567-16.334,59.516-50.127,83.4-78.848,24.926-29.989,47.111-61.644,70.338-92.813,9.71-13.025,19.416-26.229,30.4-38.3.251-.274.519-.532.77-.812l-.3.831c-6.606,18.035-14.844,35.425-23.169,52.864-15.5,32.441-35.147,66.74-41.852,101.6-5.933,30.82,5.128,64.582,42.636,60.71,35.255-3.639,64.934-38.228,89.441-61.534,29.684-28.227,58.878-56.971,88.077-85.681C454.827,206.492,411.218,163.575,381.07,193.9Z" transform="translate(5.758 5.623)" fill="#6b8dfc"/>
              <path id="Trazado_143620" data-name="Trazado 143620" d="M248.983,395.164c-13.8.609-25.3-3.639-33.41-12.4-11.277-12.178-15.469-32.637-11.219-54.736,5.535-28.8,19.441-56.766,32.891-83.812,3.214-6.476,6.4-12.884,9.435-19.224,2.869-6.013,5.889-12.33,8.9-18.859-1.767,2.352-3.516,4.7-5.248,7.031l-1.719,2.3c-6.035,8.1-12,16.229-17.96,24.35-16.725,22.811-34.025,46.4-52.595,68.73q-4.069,4.9-8.2,9.962c-21.312,26.015-45.465,55.505-77.4,70.6-28.475,13.438-64.886,11.628-79.416-17.848-26.115-52.942,7.829-124.053,32.611-175.98l2.819-5.9c7.293-15.338,15.373-30.352,23.9-45.318q-2.885,3.63-5.687,7.3c-14.678,19.293-38.917,20.082-53.875,9.7-12.371-8.589-18.78-25.289-5.2-43.24,30.1-39.778,63.563-80,104.258-104.743C134.461-.642,158.645-3.776,176.6,4.7c15.8,7.464,25.041,23.2,26.029,44.32,1.154,24.772-5.368,48.825-14.3,71.88,30.54-29.441,86.463-71.759,129.625-67.625,19.827,1.909,34.742,13.147,44.321,33.4,15.752,33.3.216,76.309-17.055,113.992-8.223,17.933-17.185,35.864-25.853,53.2L316.3,260c24.5-22.751,46.453-43.91,66.639-64.214h0c9.98-10.046,22.269-14.111,34.571-11.478a36.88,36.88,0,0,1,27.784,27.121c2.86,12.224-1.164,24.46-11.336,34.458l-3.321,3.266c-27.646,27.185-56.231,55.291-84.827,82.485-3.524,3.354-7.149,6.936-10.894,10.629-22.234,21.956-49.909,49.289-82.232,52.624C251.43,395.023,250.2,395.111,248.983,395.164Zm26.5-227.228a5.118,5.118,0,0,1,2.726.608,5.01,5.01,0,0,1,2.411,6.251l-.3.831c-6.923,18.906-15.67,37.226-23.386,53.383-3.057,6.4-6.277,12.868-9.523,19.4-13.087,26.319-26.618,53.532-31.855,80.748-3.553,18.483-.2,35.972,8.753,45.642,6.632,7.162,16.108,10.127,28.184,8.922,27.985-2.892,52.808-27.4,74.7-49.027,3.8-3.752,7.488-7.393,11.066-10.794,28.519-27.117,57.068-55.188,84.678-82.338l3.315-3.266c8.993-8.837,9.261-17.626,7.9-23.447a26.929,26.929,0,0,0-20.01-19.55c-5.827-1.255-14.611-.879-23.405,7.972h0c-26.078,26.226-55.063,53.851-88.619,84.456a5.861,5.861,0,0,1-7.2.743,5.25,5.25,0,0,1-1.587-6.746c5.2-10.731,10.534-21.4,15.866-32.076,8.624-17.245,17.536-35.079,25.677-52.829,16.181-35.294,30.855-75.332,16.968-104.685-8.076-17.068-19.852-26.121-36-27.677-40.239-3.854-99.113,41.6-128.842,73.118-3.166,3.36-6.229,6.833-9.3,10.3l-2.326,2.634a5.958,5.958,0,0,1-7.341,1.438,5.222,5.222,0,0,1-1.993-6.807c13.568-30.054,26.685-62.126,25.171-94.618C190.412,33.111,183.4,20.8,170.939,14.91c-14.536-6.858-34.611-4.018-53.718,7.59C78.368,46.113,45.875,85.24,16.544,124c-9.271,12.249-4.335,22.332,3.374,27.682,10.44,7.247,27.25,7.412,37.854-6.526a464.179,464.179,0,0,1,42.911-48.795,5.87,5.87,0,0,1,7.469-.867,5.312,5.312,0,0,1,1.274,7.113q-3.484,5.959-7.03,11.887c-15.774,26.359-30.981,52.228-43.668,78.883L55.91,199.3C32.132,249.113-.431,317.341,23.394,365.645c11.573,23.473,41.408,24.5,64.9,13.408,29.312-13.845,51.491-40.929,72.936-67.113q4.162-5.082,8.255-10.031c18.323-22.036,35.5-45.46,52.123-68.116q8.963-12.225,18.009-24.43l1.719-2.3c9.111-12.237,18.531-24.89,29.075-36.479l.537-.567A6.872,6.872,0,0,1,275.488,167.936Zm111.349,31.6.057,0Z" transform="translate(-0.008 -0.009)"/>
            </g>
            <path id="Trazado_143621" data-name="Trazado 143621" d="M27.614,3.055C4.746,45.533-9.283,94.762,7.163,138.615c2.435,6.479,13.595,3.108,11.13-3.471C2.848,93.97,15.7,48.237,37.206,8.283,40.75,1.692,31.177-3.566,27.614,3.055Z" transform="translate(24.528 216.658)"/>
            <path id="Trazado_143622" data-name="Trazado 143622" d="M16.413,29.871c-.1-.007-.186-.031-.277-.044-.146-.3-.279-.621-.327-.708l-.021-.033c-.009-.044.006-.017-.008-.084-.623-2.471-1.039-4.989-1.478-7.513Q12.76,12.695,11.228,3.9C10.73,1.053,7.242-.731,4.386.291A6.3,6.3,0,0,0,.1,7.369L3.576,27.262c.97,5.524,2.586,12.751,9.32,13.569,2.909.348,6.316-1.035,7.188-4.232C20.832,33.86,19.532,30.249,16.413,29.871Z" transform="translate(47.734 307.531)"/>
            <path id="Trazado_143623" data-name="Trazado 143623" d="M22.5.6c-6.318-3.115-12.521,6.825-6.186,9.946C25.05,14.852,27.346,24.306,27.284,33.69c-.068,10.662-1.78,21.7-4.013,32.293A229.064,229.064,0,0,1,.783,127.14c-3.55,6.592,6.029,11.849,9.591,5.228A240.32,240.32,0,0,0,35.686,60.394C39.277,40.044,43.784,11.085,22.5.6Z" transform="translate(303.362 86.336)"/>
          </g>
        </g>
      </g>
      <g id="Grupo_175488" data-name="Grupo 175488" transform="translate(1571.336 2492.029) rotate(135)">
        <g id="Grupo_162315-2" data-name="Grupo 162315" transform="translate(12.928 12.719)" style="mix-blend-mode: overlay;isolation: isolate">
          <path id="Trazado_143614-2" data-name="Trazado 143614" d="M381.065,193.9c-28.706,28.879-58.284,56.782-88.382,84.238,13.755-28.387,28.464-56.374,41.6-85.025,14.888-32.481,32.484-76.637,17.012-109.336-35.257-74.533-136.371,4.587-174.067,44.549-4.014,4.26-7.865,8.692-11.76,13.076,14.244-31.557,27.243-63.91,25.687-97.256-2.139-45.85-44.513-55-82.378-31.983C68.116,36.875,34.5,78.018,6.309,115.281c-23.948,31.649,26.4,58.553,50.15,27.35A456.4,456.4,0,0,1,98.777,94.517q-3.466,5.925-7,11.83C76.2,132.378,60.795,158.5,47.831,185.752c-24.822,52.17-61.317,124.491-35.386,177.071,13.07,26.5,46.444,27.776,72.159,15.625,34.567-16.334,59.516-50.127,83.4-78.849,24.926-29.989,47.117-61.644,70.344-92.813,9.7-13.024,19.41-26.228,30.4-38.3.252-.28.514-.538.765-.812l-.3.825c-6.606,18.035-14.838,35.425-23.169,52.864-15.5,32.446-35.147,66.745-41.852,101.6-5.927,30.82,5.128,64.582,42.636,60.71,35.261-3.639,64.939-38.229,89.447-61.534,29.678-28.227,58.872-56.965,88.071-85.675C454.828,206.49,411.218,163.573,381.065,193.9Z" transform="translate(5.763 5.624)" fill="#3c384f"/>
          <path id="Trazado_143615-2" data-name="Trazado 143615" d="M248.989,395.17c-13.8.609-25.3-3.645-33.416-12.405-11.277-12.178-15.469-32.638-11.219-54.73,5.541-28.8,19.447-56.772,32.891-83.812,3.22-6.477,6.409-12.89,9.436-19.23,2.87-6.013,5.889-12.33,8.9-18.859q-2.65,3.536-5.248,7.031l-1.719,2.311q-9.053,12.144-17.954,24.349c-16.73,22.806-34.03,46.393-52.6,68.73-2.712,3.262-5.439,6.591-8.2,9.956-21.312,26.021-45.465,55.511-77.4,70.6-28.469,13.438-64.886,11.633-79.416-17.842-26.115-52.947,7.829-124.059,32.617-175.98l2.813-5.9c7.293-15.338,15.373-30.352,23.9-45.318q-2.894,3.631-5.687,7.308C52,170.658,27.766,171.447,12.807,161.062c-12.371-8.589-18.78-25.289-5.2-43.24,30.1-39.778,63.563-80,104.264-104.738C134.461-.642,158.651-3.776,176.6,4.7c15.8,7.464,25.046,23.2,26.029,44.326,1.154,24.772-5.368,48.819-14.292,71.88,30.535-29.447,86.463-71.764,129.626-67.63,19.827,1.909,34.737,13.148,44.315,33.4,15.758,33.3.222,76.314-17.055,113.992-8.223,17.939-17.185,35.865-25.853,53.207l-3.068,6.134c24.5-22.756,46.453-43.916,66.639-64.219v.006c9.98-10.046,22.269-14.117,34.571-11.483a36.9,36.9,0,0,1,27.79,27.121c2.855,12.224-1.17,24.466-11.342,34.464l-3.321,3.261c-27.646,27.185-56.231,55.3-84.827,82.485-3.524,3.354-7.149,6.936-10.888,10.629-22.239,21.957-49.914,49.289-82.237,52.624C251.436,395.028,250.2,395.116,248.989,395.17Zm26.5-227.228a5.127,5.127,0,0,1,2.727.6,5.016,5.016,0,0,1,2.405,6.251l-.3.831c-6.924,18.912-15.67,37.226-23.386,53.384-3.058,6.4-6.278,12.873-9.523,19.4-13.082,26.319-26.613,53.531-31.849,80.753-3.553,18.483-.2,35.972,8.748,45.637,6.637,7.168,16.108,10.127,28.184,8.922,27.985-2.892,52.808-27.4,74.709-49.027,3.8-3.747,7.483-7.387,11.06-10.794,28.519-27.117,57.069-55.188,84.678-82.338l3.315-3.26c9-8.843,9.262-17.631,7.906-23.447a26.945,26.945,0,0,0-20.01-19.555c-5.832-1.255-14.617-.879-23.411,7.972v.006c-26.078,26.226-55.063,53.851-88.619,84.45a5.86,5.86,0,0,1-7.2.743,5.256,5.256,0,0,1-1.587-6.746c5.2-10.731,10.534-21.4,15.871-32.071,8.619-17.25,17.536-35.085,25.671-52.835,16.186-35.294,30.855-75.332,16.968-104.679-8.071-17.074-19.846-26.127-36-27.677-40.239-3.86-99.108,41.6-128.836,73.118-3.171,3.355-6.234,6.828-9.3,10.3l-2.32,2.628a5.967,5.967,0,0,1-7.347,1.439,5.216,5.216,0,0,1-1.988-6.8c13.562-30.059,26.679-62.126,25.166-94.623-.813-17.411-7.828-29.726-20.286-35.612-14.531-6.864-34.611-4.024-53.718,7.584C78.374,46.118,45.875,85.24,16.544,124c-9.265,12.249-4.335,22.337,3.374,27.688,10.44,7.241,27.25,7.407,37.854-6.531a465.334,465.334,0,0,1,42.911-48.795,5.877,5.877,0,0,1,7.475-.867,5.323,5.323,0,0,1,1.274,7.119q-3.484,5.951-7.035,11.882c-15.769,26.359-30.981,52.229-43.662,78.883l-2.82,5.916C32.132,249.113-.431,317.341,23.394,365.651c11.573,23.467,41.408,24.492,64.9,13.4,29.312-13.845,51.491-40.923,72.936-67.113,2.774-3.382,5.525-6.741,8.261-10.026,18.318-22.041,35.5-45.466,52.118-68.121q8.962-12.224,18.009-24.425l1.719-2.305c9.111-12.237,18.53-24.885,29.08-36.479l.532-.567A6.878,6.878,0,0,1,275.493,167.941Zm111.349,31.59.051,0Z" transform="translate(-0.008 -0.009)" fill="#3c384f"/>
          <path id="Trazado_143616-2" data-name="Trazado 143616" d="M27.611,3.054C4.748,45.532-9.286,94.767,7.166,138.613c2.429,6.485,13.589,3.108,11.125-3.471C2.851,93.974,15.7,48.236,37.2,8.282,40.752,1.7,31.174-3.567,27.611,3.054Z" transform="translate(24.531 216.659)" fill="#3c384f"/>
          <path id="Trazado_143617-2" data-name="Trazado 143617" d="M16.413,29.871c-.1-.007-.186-.031-.277-.044-.146-.3-.274-.621-.321-.708l-.027-.032c-.009-.044.006-.011-.008-.078-.623-2.476-1.034-4.99-1.478-7.518q-1.535-8.8-3.075-17.591C10.73,1.053,7.242-.731,4.392.291A6.305,6.305,0,0,0,.1,7.37q1.739,9.946,3.484,19.9c.965,5.519,2.581,12.746,9.315,13.563,2.909.353,6.316-1.035,7.188-4.232C20.832,33.86,19.537,30.249,16.413,29.871Z" transform="translate(47.734 307.531)" fill="#3c384f"/>
          <path id="Trazado_143618-2" data-name="Trazado 143618" d="M22.5.6C16.177-2.517,9.98,7.423,16.309,10.544,25.049,14.852,27.35,24.306,27.282,33.7c-.068,10.662-1.78,21.692-4.013,32.287A229.062,229.062,0,0,1,.781,127.14c-3.544,6.592,6.029,11.849,9.591,5.228A240.07,240.07,0,0,0,35.684,60.394C39.275,40.05,43.782,11.091,22.5.6Z" transform="translate(303.364 86.336)" fill="#3c384f"/>
        </g>
        <g id="Grupo_162318-2" data-name="Grupo 162318" transform="translate(0.008 0.009)">
          <g id="Grupo_162317-2" data-name="Grupo 162317" transform="translate(0)">
            <g id="Grupo_162316-2" data-name="Grupo 162316">
              <path id="Trazado_143619-2" data-name="Trazado 143619" d="M381.07,193.9c-28.706,28.879-58.284,56.782-88.387,84.233,13.754-28.382,28.47-56.374,41.6-85.02,14.888-32.481,32.479-76.636,17.012-109.335-35.257-74.533-136.37,4.581-174.067,44.549-4.02,4.255-7.865,8.687-11.76,13.076,14.238-31.556,27.237-63.909,25.687-97.256-2.139-45.85-44.513-55-82.378-31.988C68.116,36.877,34.508,78.019,6.309,115.282c-23.948,31.649,26.4,58.553,50.156,27.349A456.985,456.985,0,0,1,98.777,94.513q-3.466,5.925-6.994,11.835C76.205,132.379,60.8,158.5,47.836,185.748,23.008,237.923-13.481,310.239,12.45,362.825c13.07,26.5,46.439,27.777,72.159,15.625,34.567-16.334,59.516-50.127,83.4-78.848,24.926-29.989,47.111-61.644,70.338-92.813,9.71-13.025,19.416-26.229,30.4-38.3.251-.274.519-.532.77-.812l-.3.831c-6.606,18.035-14.844,35.425-23.169,52.864-15.5,32.441-35.147,66.74-41.852,101.6-5.933,30.82,5.128,64.582,42.636,60.71,35.255-3.639,64.934-38.228,89.441-61.534,29.684-28.227,58.878-56.971,88.077-85.681C454.827,206.492,411.218,163.575,381.07,193.9Z" transform="translate(5.758 5.623)" fill="#6b8dfc"/>
              <path id="Trazado_143620-2" data-name="Trazado 143620" d="M248.983,395.164c-13.8.609-25.3-3.639-33.41-12.4-11.277-12.178-15.469-32.637-11.219-54.736,5.535-28.8,19.441-56.766,32.891-83.812,3.214-6.476,6.4-12.884,9.435-19.224,2.869-6.013,5.889-12.33,8.9-18.859-1.767,2.352-3.516,4.7-5.248,7.031l-1.719,2.3c-6.035,8.1-12,16.229-17.96,24.35-16.725,22.811-34.025,46.4-52.595,68.73q-4.069,4.9-8.2,9.962c-21.312,26.015-45.465,55.505-77.4,70.6-28.475,13.438-64.886,11.628-79.416-17.848-26.115-52.942,7.829-124.053,32.611-175.98l2.819-5.9c7.293-15.338,15.373-30.352,23.9-45.318q-2.885,3.63-5.687,7.3c-14.678,19.293-38.917,20.082-53.875,9.7-12.371-8.589-18.78-25.289-5.2-43.24,30.1-39.778,63.563-80,104.258-104.743C134.461-.642,158.645-3.776,176.6,4.7c15.8,7.464,25.041,23.2,26.029,44.32,1.154,24.772-5.368,48.825-14.3,71.88,30.54-29.441,86.463-71.759,129.625-67.625,19.827,1.909,34.742,13.147,44.321,33.4,15.752,33.3.216,76.309-17.055,113.992-8.223,17.933-17.185,35.864-25.853,53.2L316.3,260c24.5-22.751,46.453-43.91,66.639-64.214h0c9.98-10.046,22.269-14.111,34.571-11.478a36.88,36.88,0,0,1,27.784,27.121c2.86,12.224-1.164,24.46-11.336,34.458l-3.321,3.266c-27.646,27.185-56.231,55.291-84.827,82.485-3.524,3.354-7.149,6.936-10.894,10.629-22.234,21.956-49.909,49.289-82.232,52.624C251.43,395.023,250.2,395.111,248.983,395.164Zm26.5-227.228a5.118,5.118,0,0,1,2.726.608,5.01,5.01,0,0,1,2.411,6.251l-.3.831c-6.923,18.906-15.67,37.226-23.386,53.383-3.057,6.4-6.277,12.868-9.523,19.4-13.087,26.319-26.618,53.532-31.855,80.748-3.553,18.483-.2,35.972,8.753,45.642,6.632,7.162,16.108,10.127,28.184,8.922,27.985-2.892,52.808-27.4,74.7-49.027,3.8-3.752,7.488-7.393,11.066-10.794,28.519-27.117,57.068-55.188,84.678-82.338l3.315-3.266c8.993-8.837,9.261-17.626,7.9-23.447a26.929,26.929,0,0,0-20.01-19.55c-5.827-1.255-14.611-.879-23.405,7.972h0c-26.078,26.226-55.063,53.851-88.619,84.456a5.861,5.861,0,0,1-7.2.743,5.25,5.25,0,0,1-1.587-6.746c5.2-10.731,10.534-21.4,15.866-32.076,8.624-17.245,17.536-35.079,25.677-52.829,16.181-35.294,30.855-75.332,16.968-104.685-8.076-17.068-19.852-26.121-36-27.677-40.239-3.854-99.113,41.6-128.842,73.118-3.166,3.36-6.229,6.833-9.3,10.3l-2.326,2.634a5.958,5.958,0,0,1-7.341,1.438,5.222,5.222,0,0,1-1.993-6.807c13.568-30.054,26.685-62.126,25.171-94.618C190.412,33.111,183.4,20.8,170.939,14.91c-14.536-6.858-34.611-4.018-53.718,7.59C78.368,46.113,45.875,85.24,16.544,124c-9.271,12.249-4.335,22.332,3.374,27.682,10.44,7.247,27.25,7.412,37.854-6.526a464.179,464.179,0,0,1,42.911-48.795,5.87,5.87,0,0,1,7.469-.867,5.312,5.312,0,0,1,1.274,7.113q-3.484,5.959-7.03,11.887c-15.774,26.359-30.981,52.228-43.668,78.883L55.91,199.3C32.132,249.113-.431,317.341,23.394,365.645c11.573,23.473,41.408,24.5,64.9,13.408,29.312-13.845,51.491-40.929,72.936-67.113q4.162-5.082,8.255-10.031c18.323-22.036,35.5-45.46,52.123-68.116q8.963-12.225,18.009-24.43l1.719-2.3c9.111-12.237,18.531-24.89,29.075-36.479l.537-.567A6.872,6.872,0,0,1,275.488,167.936Zm111.349,31.6.057,0Z" transform="translate(-0.008 -0.009)"/>
            </g>
            <path id="Trazado_143621-2" data-name="Trazado 143621" d="M27.614,3.055C4.746,45.533-9.283,94.762,7.163,138.615c2.435,6.479,13.595,3.108,11.13-3.471C2.848,93.97,15.7,48.237,37.206,8.283,40.75,1.692,31.177-3.566,27.614,3.055Z" transform="translate(24.528 216.658)"/>
            <path id="Trazado_143622-2" data-name="Trazado 143622" d="M16.413,29.871c-.1-.007-.186-.031-.277-.044-.146-.3-.279-.621-.327-.708l-.021-.033c-.009-.044.006-.017-.008-.084-.623-2.471-1.039-4.989-1.478-7.513Q12.76,12.695,11.228,3.9C10.73,1.053,7.242-.731,4.386.291A6.3,6.3,0,0,0,.1,7.369L3.576,27.262c.97,5.524,2.586,12.751,9.32,13.569,2.909.348,6.316-1.035,7.188-4.232C20.832,33.86,19.532,30.249,16.413,29.871Z" transform="translate(47.734 307.531)"/>
            <path id="Trazado_143623-2" data-name="Trazado 143623" d="M22.5.6c-6.318-3.115-12.521,6.825-6.186,9.946C25.05,14.852,27.346,24.306,27.284,33.69c-.068,10.662-1.78,21.7-4.013,32.293A229.064,229.064,0,0,1,.783,127.14c-3.55,6.592,6.029,11.849,9.591,5.228A240.32,240.32,0,0,0,35.686,60.394C39.277,40.044,43.784,11.085,22.5.6Z" transform="translate(303.362 86.336)"/>
          </g>
        </g>
      </g>
      <g id="Grupo_175486" data-name="Grupo 175486" transform="translate(212.667 13.258)">
        <path id="Trazado_185125" data-name="Trazado 185125" d="M611.508,159.8C606.855,80.8,551.624,5.37,476.823.692,390.908-6.529,312.048,45.164,226.468,45.711c-43.639,4.1-84.565-14.228-127.092-20.148C3.324,21.695-11.311,145.539,6.6,225.365,82.15,601.7,616.739,550.495,611.508,159.8Z" transform="matrix(0.799, 0.602, -0.602, 0.799, 535.028, 2110.019)" fill="#6b8dfc"/>
        <path id="Trazado_185126" data-name="Trazado 185126" d="M.035,154.006C4.373,77.87,55.859,5.175,125.587.667c80.088-6.959,153.6,42.859,233.376,43.386,40.68,3.956,78.83-13.712,118.473-19.417,89.538-3.728,103.18,115.624,86.481,192.555C493.494,579.873-4.841,530.528.035,154.006Z" transform="translate(1243.283 2373.271) rotate(-171)" fill="#3c3fa7" opacity="0.388" style="mix-blend-mode: multiply;isolation: isolate"/>
        <path id="Trazado_185127" data-name="Trazado 185127" d="M.035,154.006C4.373,77.87,55.859,5.175,125.587.667c80.088-6.959,153.6,42.859,233.376,43.386,40.68,3.956,78.83-13.712,118.473-19.417,89.538-3.728,103.18,115.624,86.481,192.555C493.494,579.873-4.841,530.528.035,154.006Z" transform="matrix(0.995, 0.105, -0.105, 0.995, -14.178, 2176.616)" fill="#3c3fa7" opacity="0.388" style="mix-blend-mode: multiply;isolation: isolate"/>
      </g>
    </g>
    <g id="Enmascarar_grupo_306" data-name="Enmascarar grupo 306" clip-path="url(#clip-path-2)">
      <g id="Grupo_175484" data-name="Grupo 175484" transform="translate(410.531 2093.719)">
        <g id="Grupo_175489" data-name="Grupo 175489">
          <g id="Grupo_175462" data-name="Grupo 175462">
            <g id="Grupo_175491" data-name="Grupo 175491">
              <rect id="Rectángulo_45570" data-name="Rectángulo 45570" width="24.665" height="0.793" transform="translate(349.045 46.359)" fill="#dbb3a7"/>
              <rect id="Rectángulo_45571" data-name="Rectángulo 45571" width="38.275" height="0.793" transform="translate(302.88 46.359)" fill="#dbb3a7"/>
              <path id="Trazado_184987" data-name="Trazado 184987" d="M652.095,225.623a18.348,18.348,0,0,0-21.342-.085s-48.745,35.169-49.52,36.4a8.956,8.956,0,0,0-1.385,4.791v63.382a9.085,9.085,0,0,0,9.058,9.058H693.983a9.085,9.085,0,0,0,9.058-9.058V266.726a9,9,0,0,0-2.188-5.882c-.882-1.027-48.758-35.221-48.758-35.221" transform="translate(33.384 12.79)" fill="#ffb74d"/>
              <rect id="Rectángulo_45572" data-name="Rectángulo 45572" width="54.362" height="1.058" transform="translate(619.51 345.257) rotate(-56.866)" fill="#f49d2a"/>
              <rect id="Rectángulo_45573" data-name="Rectángulo 45573" width="1.058" height="54.362" transform="translate(698.564 300.32) rotate(-33.161)" fill="#f49d2a"/>
              <path id="Trazado_184988" data-name="Trazado 184988" d="M641.107,298.543a19.048,19.048,0,0,1-10.706-3.267L584.2,263.9l.6-.876L631,294.4a18.1,18.1,0,0,0,20.336-.076l45.32-31.294.6.869-45.32,31.294a19.045,19.045,0,0,1-10.825,3.349" transform="translate(33.634 15.143)" fill="#f49d2a"/>
              <path id="Trazado_184989" data-name="Trazado 184989" d="M688.044,189.348a8.188,8.188,0,0,1,8.187,8.141v34.306H679.857V197.489a8.188,8.188,0,0,1,8.187-8.141" transform="translate(39.141 10.901)" fill="#e0bdaf"/>
              <path id="Trazado_184990" data-name="Trazado 184990" d="M692.851,189.348h-88.3a8.192,8.192,0,0,0-8.185,7.775l0,12.4v66.72L630,299.082A18.645,18.645,0,0,0,650.932,299l33.7-23.268V224.557h.036V197.489a8.273,8.273,0,0,1,8.187-8.141" transform="translate(34.334 10.901)" fill="#fff"/>
              <rect id="Rectángulo_45574" data-name="Rectángulo 45574" width="8.315" height="0.793" transform="translate(699.007 211.406)" fill="#dbb3a7"/>
              <rect id="Rectángulo_45575" data-name="Rectángulo 45575" width="48.01" height="0.793" transform="translate(642.337 211.406)" fill="#dbb3a7"/>
              <rect id="Rectángulo_45576" data-name="Rectángulo 45576" width="32.493" height="0.793" transform="translate(674.829 221.685)" fill="#dbb3a7"/>
              <rect id="Rectángulo_45577" data-name="Rectángulo 45577" width="18.69" height="0.793" transform="translate(642.336 221.685)" fill="#dbb3a7"/>
              <rect id="Rectángulo_45578" data-name="Rectángulo 45578" width="64.985" height="0.793" transform="translate(642.337 231.966)" fill="#dbb3a7"/>
              <rect id="Rectángulo_45579" data-name="Rectángulo 45579" width="19.292" height="0.793" transform="translate(688.029 242.248)" fill="#dbb3a7"/>
              <rect id="Rectángulo_45580" data-name="Rectángulo 45580" width="35.071" height="0.793" transform="translate(642.337 242.248)" fill="#dbb3a7"/>
              <rect id="Rectángulo_45581" data-name="Rectángulo 45581" width="4.891" height="0.793" transform="translate(702.43 252.528)" fill="#dbb3a7"/>
              <rect id="Rectángulo_45582" data-name="Rectángulo 45582" width="54.513" height="0.793" transform="translate(642.337 252.528)" fill="#dbb3a7"/>
              <rect id="Rectángulo_45583" data-name="Rectángulo 45583" width="18.214" height="0.793" transform="translate(689.108 262.808)" fill="#dbb3a7"/>
              <rect id="Rectángulo_45584" data-name="Rectángulo 45584" width="38.671" height="0.793" transform="translate(642.337 262.808)" fill="#dbb3a7"/>
              <rect id="Rectángulo_45585" data-name="Rectángulo 45585" width="7.232" height="0.793" transform="translate(700.09 273.09)" fill="#dbb3a7"/>
              <rect id="Rectángulo_45586" data-name="Rectángulo 45586" width="50.192" height="0.793" transform="translate(642.336 273.09)" fill="#dbb3a7"/>
              <rect id="Rectángulo_45587" data-name="Rectángulo 45587" width="31.353" height="0.793" transform="translate(675.969 283.37)" fill="#dbb3a7"/>
              <rect id="Rectángulo_45588" data-name="Rectángulo 45588" width="50.971" height="0.793" transform="translate(645.338 293.65)" fill="#dbb3a7"/>
              <rect id="Rectángulo_45589" data-name="Rectángulo 45589" width="18.096" height="0.793" transform="translate(659.312 303.932)" fill="#dbb3a7"/>
              <path id="Trazado_184991" data-name="Trazado 184991" d="M706.976,334.637H663a3.8,3.8,0,0,1-3.791-3.79V304.32A3.8,3.8,0,0,1,663,300.53h43.975a3.8,3.8,0,0,1,3.79,3.79v26.526a3.8,3.8,0,0,1-3.79,3.79" transform="translate(37.953 17.302)" fill="#fff"/>
              <path id="Trazado_184992" data-name="Trazado 184992" d="M684.851,318.1a7.917,7.917,0,0,1-4.585-1.462l-19.333-13.707.458-.646,19.335,13.707a7.135,7.135,0,0,0,8.3-.032l18.967-13.673.464.642L689.49,316.6a7.925,7.925,0,0,1-4.638,1.5" transform="translate(38.052 17.403)" fill="#dbb3a7"/>
              <rect id="Rectángulo_45590" data-name="Rectángulo 45590" width="23.458" height="0.794" transform="translate(699.642 349.048) rotate(-58.004)" fill="#dbb3a7"/>
              <rect id="Rectángulo_45591" data-name="Rectángulo 45591" width="0.794" height="23.458" transform="matrix(0.848, -0.531, 0.531, 0.848, 732.723, 329.58)" fill="#dbb3a7"/>
              <path id="Trazado_184993" data-name="Trazado 184993" d="M711.734,303.444a6.031,6.031,0,1,1-6.031-6.031,6.031,6.031,0,0,1,6.031,6.031" transform="translate(40.282 17.123)" fill="#ea5770"/>
              <path id="Trazado_184994" data-name="Trazado 184994" d="M706.594,306.983H705.8v-2.622h-3.7l4.492-5.382v4.589h.839v.793h-.839Zm-2.8-3.415h2v-2.4Z" transform="translate(40.422 17.213)" fill="#fff"/>
              <path id="Trazado_184995" data-name="Trazado 184995" d="M487.452,349.448H281.193a6.7,6.7,0,0,1-6.7-6.7V49.958a6.7,6.7,0,0,1,6.7-6.7h206.26a6.7,6.7,0,0,1,6.7,6.7V342.752a6.7,6.7,0,0,1-6.7,6.7" transform="translate(15.804 2.491)" fill="#9b5670"/>
              <path id="Trazado_184996" data-name="Trazado 184996" d="M427.934,64.9H333.443a2.6,2.6,0,0,1-2.587-2.588V53.395a2.6,2.6,0,0,1,2.587-2.588h94.491a2.6,2.6,0,0,1,2.588,2.588v8.917a2.6,2.6,0,0,1-2.588,2.588" transform="translate(19.048 2.925)" fill="#e2cfc7"/>
              <rect id="Rectángulo_45592" data-name="Rectángulo 45592" width="199.904" height="272.433" transform="translate(300.174 62.628)" fill="#fff"/>
              <rect id="Rectángulo_45593" data-name="Rectángulo 45593" width="162.633" height="22.416" transform="translate(318.473 80.286)" fill="#f7e6df"/>
              <path id="Trazado_184997" data-name="Trazado 184997" d="M377.554,92.952a8.9,8.9,0,0,1-3.317.547c-4.917,0-7.083-3.083-7.083-6.576,0-4.643,3.395-7,7.316-7a7.923,7.923,0,0,1,3.3.585l-.682,2.771a6.415,6.415,0,0,0-2.44-.469,3.883,3.883,0,0,0,.059,7.765,7.265,7.265,0,0,0,2.36-.39Z" transform="translate(21.138 4.601)" fill="#592b5b"/>
              <path id="Trazado_184998" data-name="Trazado 184998" d="M382.178,93.272,378,80.122h3.862l1.385,5.17a44.312,44.312,0,0,1,1.092,4.6h.039c.331-1.62.7-3.142,1.092-4.547l1.425-5.229h3.746l-4.312,13.15Z" transform="translate(21.763 4.613)" fill="#592b5b"/>
              <rect id="Rectángulo_45594" data-name="Rectángulo 45594" width="54.948" height="62.806" transform="translate(318.706 112.694)" fill="#ffb74d"/>
              <path id="Trazado_184999" data-name="Trazado 184999" d="M356.722,169.783h-55.74v-63.6h55.74Zm-54.947-.793h54.154V106.978H301.775Z" transform="translate(17.328 6.113)" fill="#f7e6df"/>
              <path id="Trazado_185128" data-name="Trazado 185128" d="M246.99,57.991H395.337l7.722,8.351.222-8.351h5.407a7.4,7.4,0,0,0,7.4-7.4V14.29a7.4,7.4,0,0,0-7.4-7.4H246.99a7.4,7.4,0,0,0-7.4,7.4v36.3a7.4,7.4,0,0,0,7.4,7.4" transform="translate(-328.683 1.483)" fill="#fff"/>
              <rect id="Rectángulo_45637" data-name="Rectángulo 45637" width="29.22" height="0.793" transform="translate(-75.251 19.393)" fill="#dbb3a7"/>
              <rect id="Rectángulo_45638" data-name="Rectángulo 45638" width="37.998" height="0.793" transform="translate(-26.032 19.393)" fill="#dbb3a7"/>
              <rect id="Rectángulo_45639" data-name="Rectángulo 45639" width="19.165" height="0.793" transform="translate(18.742 19.393)" fill="#dbb3a7"/>
              <rect id="Rectángulo_45640" data-name="Rectángulo 45640" width="69.55" height="0.793" transform="translate(-75.251 28.744)" fill="#dbb3a7"/>
              <rect id="Rectángulo_45641" data-name="Rectángulo 45641" width="33.276" height="0.793" transform="translate(4.632 28.744)" fill="#dbb3a7"/>
              <rect id="Rectángulo_45642" data-name="Rectángulo 45642" width="27.22" height="0.793" transform="translate(-75.251 38.095)" fill="#dbb3a7"/>
              <rect id="Rectángulo_45643" data-name="Rectángulo 45643" width="73.273" height="0.793" transform="translate(-35.365 38.095)" fill="#dbb3a7"/>
              <path id="Trazado_185129" data-name="Trazado 185129" d="M264.981,45.309a14.423,14.423,0,1,0-14.423-14.423,14.439,14.439,0,0,0,14.423,14.423m0-28.053a13.63,13.63,0,1,1-13.63,13.63,13.646,13.646,0,0,1,13.63-13.63" transform="translate(-203.6 2.035)" fill="#dbb3a7"/>
              <path id="Trazado_185130" data-name="Trazado 185130" d="M254.666,39.828h.793a8.445,8.445,0,0,1,8.435-8.434h1.7a8.444,8.444,0,0,1,8.434,8.434h.793A9.238,9.238,0,0,0,265.6,30.6h-1.7a9.238,9.238,0,0,0-9.228,9.227" transform="translate(-203.362 2.849)" fill="#dbb3a7"/>
              <path id="Trazado_185131" data-name="Trazado 185131" d="M264.465,29.625a4.952,4.952,0,1,0-4.952-4.952,4.958,4.958,0,0,0,4.952,4.952m0-9.11a4.158,4.158,0,1,1-4.158,4.158,4.164,4.164,0,0,1,4.158-4.158" transform="translate(-203.083 2.223)" fill="#dbb3a7"/>
            </g>
          </g>
          <g id="Grupo_175470" data-name="Grupo 175470" transform="translate(319.146 112.018)">
            <g id="Grupo_175469" data-name="Grupo 175469" clip-path="url(#clip-path-3)">
              <path id="Trazado_185000" data-name="Trazado 185000" d="M303.118,161.625c2.26,1.837,2.152,3.79,2.163,6.051h43.543c2.824-1.79,6.5,1.286,9.46-4.517,2.3-4.519.719-9.9-7.159-15.441s-.212-3.943-1.268-10.377c-.6-3.643-3.371-5.115-9.022-9.037s-.663-4.368-2.364-11.018a11.748,11.748,0,0,0-.737-2.05c-4.071-8.757-15.117-9.338-22.815-3.509-4.69,3.552-3.455,10.966-3.075,13.423.651,4.217,2.469,3.935.911,6.712s-.351,5.1,2.556,8.659-3.36,4.04-8.241,6.927-8.573,10.42-3.952,14.175" transform="translate(-301.816 -105.806)" fill="#181709"/>
              <path id="Trazado_185001" data-name="Trazado 185001" d="M306.84,165.675q.7-.974,1.421-1.942c1.529-2.046,3.124-4.075,4.754-6.081q1.223-1.507,2.47-2.993l1.252-1.483.629-.731.617-.711.043-.051a5.443,5.443,0,1,0-8.218-7.138l-.686.789-.664.774-1.31,1.55q-1.3,1.553-2.584,3.129c-1.706,2.1-3.383,4.235-5.023,6.426s-3.241,4.442-4.776,6.853c-.331.525-.658,1.062-.982,1.606Z" transform="translate(-302.232 -103.804)" fill="#c9614d"/>
              <path id="Trazado_185002" data-name="Trazado 185002" d="M305.609,163.893c.15.484.323.967.507,1.449.07.183.142.367.214.551l0,0H338.62c.462-.88.927-1.758,1.389-2.6.061-.111.123-.222.181-.331.874-1.588,1.722-3.091,2.486-4.439l.24-.42c.176-.31.347-.612.513-.9q.262-.462.51-.885c.066-.112.13-.223.194-.33a14.314,14.314,0,0,0,1.654-3.212c.079-.507.151-1.03.184-1.563.009-.129.015-.259.018-.388a8.1,8.1,0,0,0-.031-.96c-.015-.163-.035-.324-.063-.485a5.635,5.635,0,0,0-.252-.971,4.635,4.635,0,0,0-.2-.484,6.8,6.8,0,0,0-2.834-2.912c-.106-.064-.216-.127-.33-.189-.149-.084-.307-.166-.47-.247s-.344-.167-.526-.25c-.415-.185-.862-.366-1.347-.537a24.008,24.008,0,0,1-4.22-1.915q-.221-.128-.42-.257a12.24,12.24,0,0,1-1.307-.942c-.1-.081-.194-.163-.282-.241a4.751,4.751,0,0,1-1.288-1.58l-7.143.832-.465.054-4.064.474a19.523,19.523,0,0,1-3.5,1.672q-.29.1-.583.185c-.245.07-.49.132-.733.182-.145.031-.29.056-.431.076-.166.025-.331.044-.494.054-1.7.108-3.154.116-4.149.98a2.858,2.858,0,0,0-.353.368,4.242,4.242,0,0,0-.754,1.613c-.039.148-.072.3-.1.448-.008.044-.016.089-.023.133-.014.077-.024.155-.036.233s-.021.17-.03.255a23.433,23.433,0,0,0,.106,3.779,9.894,9.894,0,0,1,0,1.563c-.012.127-.027.25-.05.369a2.469,2.469,0,0,1-.43,1.062c-.633.84-1.795,1.865-2.725,3.244-.038.057-.076.113-.113.172-.062.1-.123.2-.182.3l-.072.121a7.534,7.534,0,0,0-.963,2.771c-.008.062-.016.125-.022.189-.009.087-.017.175-.023.264,0,.036,0,.071,0,.108a6.78,6.78,0,0,0,0,.734,10.5,10.5,0,0,0,.4,2.35c.039.154.086.306.131.46" transform="translate(-301.582 -104.024)" fill="#fff"/>
              <path id="Trazado_185003" data-name="Trazado 185003" d="M309.373,151.428q1.057-.062,2.114-.1h.025c.123,0,.244-.01.368-.012q3.323-.109,6.649.016l.391.015h0q3.53.146,7.039.548c.129.013.259.027.389.043h0q4.183.495,8.311,1.352c.184.038.369.077.553.117l.382.081q4.091.892,8.094,2.135l.194-.33q-3.993-1.242-8.082-2.136c-.128-.03-.255-.057-.383-.084q-4.412-.949-8.9-1.484h0c-.131-.017-.26-.032-.39-.047q-2.243-.26-4.5-.416-1.283-.089-2.569-.142c-.131-.007-.261-.012-.392-.016q-3.33-.128-6.664-.024c-.124,0-.246.007-.37.013q-1.109.037-2.215.1c-.013.127-.029.25-.051.369" transform="translate(-301.334 -103.33)" fill="#e2cec3"/>
              <path id="Trazado_185004" data-name="Trazado 185004" d="M305.084,159.259q2.119-.4,4.262-.648l.056-.006.36-.041q3.239-.36,6.5-.4l.385,0q3.323-.021,6.639.286l.376.036a66.977,66.977,0,0,1,8.179,1.321c.122.026.242.055.364.082a66.4,66.4,0,0,1,7.8,2.319c.061-.111.122-.222.181-.331q-1.047-.387-2.106-.734-2.822-.93-5.716-1.6l-.364-.082a67.115,67.115,0,0,0-8.208-1.331l-.377-.036q-3.32-.311-6.66-.293c-.129,0-.257,0-.386,0q-3.262.036-6.509.391c-.12.012-.239.025-.359.04q-2.208.252-4.394.656c-.011.087-.018.175-.023.264,0,.035-.005.071-.005.108" transform="translate(-301.581 -102.933)" fill="#e2cec3"/>
              <path id="Trazado_185005" data-name="Trazado 185005" d="M309.346,145.792q1.055-.081,2.114-.134,1.145-.057,2.292-.086l.389-.007q3.5-.07,6.987.145c.134.007.268.016.4.026q3.753.244,7.474.816c.134.019.268.04.4.061a86.772,86.772,0,0,1,9.276,1.988q.192.051.384.1h0q3.373.934,6.658,2.141c.009-.129.015-.26.018-.389q-2.194-.806-4.432-1.489-1-.3-2-.583h0c-.129-.038-.257-.072-.385-.108a87.01,87.01,0,0,0-9.311-2.008l-.4-.061q-3.733-.577-7.506-.828c-.135-.011-.269-.019-.4-.026q-3.5-.217-7.013-.154c-.13,0-.26,0-.392.008q-2.248.049-4.491.218c-.008.043-.016.088-.023.132-.014.077-.024.157-.036.234" transform="translate(-301.336 -103.659)" fill="#e2cec3"/>
              <path id="Trazado_185006" data-name="Trazado 185006" d="M328.857,165.57c.609-1.664,1.261-3.311,2-4.921.053-.115.107-.229.161-.346q.489-1.044,1.016-2.072,1.147-2.234,2.46-4.376c.068-.11.135-.221.205-.331q1.526-2.46,3.262-4.779h0c.078-.106.16-.213.241-.319h0q1.455-1.924,3.053-3.74c-.106-.063-.217-.127-.33-.189q-1.624,1.851-3.109,3.822c-.055.071-.109.144-.164.217-.025.036-.053.071-.077.1q-1.735,2.33-3.259,4.8c-.069.111-.138.221-.2.332a66.241,66.241,0,0,0-3.459,6.448c-.054.116-.108.231-.161.347-.754,1.636-1.416,3.311-2.035,5Z" transform="translate(-300.235 -103.699)" fill="#e2cec3"/>
              <path id="Trazado_185007" data-name="Trazado 185007" d="M320.758,165.809c.6-2.128,1.262-4.241,2.026-6.324.044-.118.088-.237.132-.357.027-.071.054-.144.081-.217.811-2.159,1.716-4.287,2.72-6.367h0c.055-.115.11-.232.168-.347h0q1.325-2.714,2.883-5.306c.068-.113.136-.227.206-.342a62.121,62.121,0,0,1,4.13-5.963c-.1-.081-.192-.162-.281-.241a61.41,61.41,0,0,0-4.249,6.142c-.07.114-.14.228-.206.343q-.3.495-.586,1-1.22,2.124-2.288,4.324c-.057.115-.113.234-.169.35q-1.547,3.228-2.788,6.592l-.132.359c-.765,2.09-1.427,4.217-2.032,6.358Z" transform="translate(-300.701 -103.938)" fill="#e2cec3"/>
              <path id="Trazado_185008" data-name="Trazado 185008" d="M324.12,140.156a.185.185,0,0,1,0-.369.185.185,0,0,1,0,.369" transform="translate(-300.496 -103.97)" fill="#e2cec3"/>
              <path id="Trazado_185009" data-name="Trazado 185009" d="M314.332,165.85c.457-1.891.948-3.774,1.5-5.645.1-.333.2-.667.3-1,.037-.121.075-.241.113-.363.718-2.311,1.518-4.6,2.408-6.847h0c.047-.121.093-.241.143-.362q1.134-2.832,2.464-5.578c.057-.121.115-.237.174-.355q1.421-2.894,3.084-5.664c.047-.078.094-.158.144-.237.031-.053.063-.107.1-.16l-.464.054q-1.767,2.914-3.263,5.982c-.058.117-.116.236-.172.355q-.842,1.737-1.6,3.514-.441,1.033-.855,2.074c-.05.119-.1.241-.143.361q-1.334,3.388-2.4,6.865c-.038.122-.075.244-.112.367-.671,2.191-1.256,4.409-1.794,6.639Z" transform="translate(-301.07 -103.979)" fill="#e2cec3"/>
              <path id="Trazado_185010" data-name="Trazado 185010" d="M308.054,165.71c.474-2.09.984-4.175,1.556-6.243.034-.123.068-.247.1-.371q1.028-3.671,2.262-7.272c.042-.123.086-.246.128-.37q1-2.882,2.132-5.71c.049-.123.1-.243.148-.365q.673-1.667,1.4-3.313c-.146.031-.29.055-.433.076q-.7,1.612-1.356,3.246l-.145.365q-1.034,2.6-1.952,5.251c-.053.154-.108.309-.161.462l-.125.369q-1.229,3.617-2.253,7.3c-.036.125-.07.251-.1.375-.567,2.052-1.071,4.123-1.543,6.2Z" transform="translate(-301.43 -103.839)" fill="#e2cec3"/>
              <path id="Trazado_185011" data-name="Trazado 185011" d="M333.38,164.976a68.41,68.41,0,0,1,6.356-9.761c.172-.221-.139-.536-.313-.312a73.38,73.38,0,0,0-5.338,7.829c-.427.734-.834,1.486-1.229,2.244Z" transform="translate(-299.982 -103.104)" fill="#110e0a"/>
              <path id="Trazado_185012" data-name="Trazado 185012" d="M315.674,127.86l1.409,7.714s-1.054.987-3.754.235l1.94-7.943Z" transform="translate(-301.107 -104.657)" fill="#fff"/>
              <path id="Trazado_185013" data-name="Trazado 185013" d="M314.561,123.6a1.829,1.829,0,0,0-1.5,1.733c-.237,1.617.588,4.311,2.222,3.972s-.718-5.706-.718-5.706" transform="translate(-301.125 -104.902)" fill="#722324"/>
              <line id="Línea_1488" data-name="Línea 1488" y2="0.001" transform="translate(17.964 31.225)" fill="#c9614d"/>
              <path id="Trazado_185014" data-name="Trazado 185014" d="M332.183,140.223a13.168,13.168,0,0,1-6.917,4.882c-5.933,1.7-6.7-1.687-6.7-1.687a11.388,11.388,0,0,0,.464-2.493c.025-.329.039-.666.042-1.015a27.61,27.61,0,0,0-.192-3.194q-.046-.422-.1-.875l0-.035c4.157-1.009,7.554-2.874,9.868-5.958l.622-.376.42-.254.078.242-.075.774a15.205,15.205,0,0,0,2.5,9.989" transform="translate(-300.805 -104.579)" fill="#c9614d"/>
              <path id="Trazado_185015" data-name="Trazado 185015" d="M333.178,139.076c-1.738,3.935-3.619,8.162-7.308,10.658-1.577,1.067-3.751,1.991-5.658,1.331a4.933,4.933,0,0,1-2.917-3.74c-.535-2.449.382-4.912,1.238-7.172.1-.263.529-.149.427.117a14.594,14.594,0,0,0-1.365,6.043,4.942,4.942,0,0,0,2.482,4.223c1.88.862,4.171-.2,5.727-1.293a14.872,14.872,0,0,0,3.857-4.184,44.5,44.5,0,0,0,3.135-6.207c.114-.26.5-.035.382.223" transform="translate(-300.887 -104.031)" fill="#110e0a"/>
              <path id="Trazado_185016" data-name="Trazado 185016" d="M325.759,132.854c-.868,1.991-2.889,5.516-6.7,6.847a27.576,27.576,0,0,0-.191-3.194q-.046-.422-.1-.875c.081.01.166.016.25.021,2.27.137,4.727-1.046,6.747-2.8" transform="translate(-300.794 -104.369)" fill="#181709"/>
              <path id="Trazado_185017" data-name="Trazado 185017" d="M335.031,124.194a5.233,5.233,0,0,1-4.508,5.432l-.016,0h0l-.062.006c-.038.133-.085.264-.133.4-.021.058-.043.117-.066.174l-.007.017c-1.574,3.956-6.878,6.586-9.825,6.868a6.712,6.712,0,0,1-2.008-.122c-3.176-.464-4.052-4.653-3.783-7.919a12.308,12.308,0,0,1,.187-1.348c.005-.029.012-.058.017-.087,0,0-1.359-4.449-1.74-6.4-.737-3.79,1.19-7.825,9.52-9.165s10.7,3.727,11.478,6.446c.131.454.226,3.2-.2,3.674a2.241,2.241,0,0,1,1.15,2.028" transform="translate(-301.129 -105.58)" fill="#c9614d"/>
              <path id="Trazado_185018" data-name="Trazado 185018" d="M316,125.129c.085.552.385.963.672.92s.452-.527.367-1.079-.385-.965-.672-.92-.452.527-.367,1.079" transform="translate(-300.954 -104.876)" fill="#181709"/>
              <path id="Trazado_185019" data-name="Trazado 185019" d="M317.561,124.521a.151.151,0,0,0,.069-.06.149.149,0,0,0-.053-.2,2.373,2.373,0,0,0-2.571.076.148.148,0,1,0,.187.228,2.108,2.108,0,0,1,2.234-.05.148.148,0,0,0,.134.008" transform="translate(-301.013 -104.885)" fill="#181709"/>
              <path id="Trazado_185020" data-name="Trazado 185020" d="M320.562,124.511c.085.552.385.964.672.92s.452-.527.367-1.079-.386-.965-.673-.92-.451.527-.366,1.079" transform="translate(-300.691 -104.912)" fill="#181709"/>
              <path id="Trazado_185021" data-name="Trazado 185021" d="M322.358,124.074a.141.141,0,0,0,.075-.052.147.147,0,0,0-.026-.207,2.371,2.371,0,0,0-2.559-.25.148.148,0,1,0,.157.251,2.107,2.107,0,0,1,2.222.233.147.147,0,0,0,.132.025" transform="translate(-300.735 -104.921)" fill="#181709"/>
              <path id="Trazado_185022" data-name="Trazado 185022" d="M321.186,128.633s0,2.647-2.215,2.9a2.283,2.283,0,0,1-2.565-1.912Z" transform="translate(-300.929 -104.612)" fill="#fff"/>
              <path id="Trazado_185023" data-name="Trazado 185023" d="M319.345,132.335a1.185,1.185,0,0,0,.654-.444.2.2,0,1,0-.332-.223.812.812,0,0,1-.862.278.2.2,0,0,0-.091.389,1.306,1.306,0,0,0,.631,0" transform="translate(-300.806 -104.443)" fill="#722324"/>
              <path id="Trazado_185024" data-name="Trazado 185024" d="M333.913,122.2a4.885,4.885,0,0,0-.674.126,4.98,4.98,0,0,0-2.859,2.192c-.12-.767-.94-4.282-6.073-4.86-.074-.007-.152-.016-.235-.022a4.376,4.376,0,0,1-.566-2.2c.512-2.087-9.535-1.027-9.872,2.175-.142,1.342-.217,2.217-.257,2.784h0a5.431,5.431,0,0,0-.035,1.042s-.887.924-.962-3.487a5.991,5.991,0,0,1,1.49-3.935c2.005-2.437,5.812-4.185,10.022-4.723,6.233-.8,10.776,5.751,11.074,8.141s-1.053,2.768-1.053,2.768" transform="translate(-301.161 -105.615)" fill="#181709"/>
              <g id="Grupo_175465" data-name="Grupo 175465" transform="translate(13.491 22.122)" opacity="0.5">
                <g id="Grupo_175464" data-name="Grupo 175464">
                  <g id="Grupo_175463" data-name="Grupo 175463" clip-path="url(#clip-path-4)">
                    <path id="Trazado_185025" data-name="Trazado 185025" d="M316.2,127.421c.017.335-.7.651-1.671.765a12.309,12.309,0,0,1,.187-1.348c.847.05,1.469.278,1.484.584" transform="translate(-314.529 -126.838)" fill="#722324"/>
                  </g>
                </g>
              </g>
              <path id="Trazado_185026" data-name="Trazado 185026" d="M318.123,128.48a.255.255,0,0,1-.141-.025l-1.2-.593a.256.256,0,0,1-.032-.44,3.685,3.685,0,0,0,1.543-2.707.256.256,0,0,1,.507.074,4.261,4.261,0,0,1-1.422,2.8l.827.409a.256.256,0,0,1-.087.484" transform="translate(-300.916 -104.851)" fill="#722324"/>
              <path id="Trazado_185027" data-name="Trazado 185027" d="M320.178,122.427a.622.622,0,0,1-.919-.8,1.8,1.8,0,0,1,1.007-.767,4.509,4.509,0,0,1,3.97.588,11.526,11.526,0,0,0-3.467.613,3.506,3.506,0,0,0-.591.37" transform="translate(-300.771 -105.073)" fill="#181709"/>
              <path id="Trazado_185028" data-name="Trazado 185028" d="M316.708,122.83a.622.622,0,0,0,.682-1.013,1.809,1.809,0,0,0-1.17-.484c-2.34-.162-2.928,1.376-2.928,1.376a8.247,8.247,0,0,1,2.75-.085,3.529,3.529,0,0,1,.666.206" transform="translate(-301.109 -105.033)" fill="#181709"/>
              <g id="Grupo_175468" data-name="Grupo 175468" transform="translate(20.375 21.582)" opacity="0.5">
                <g id="Grupo_175467" data-name="Grupo 175467">
                  <g id="Grupo_175466" data-name="Grupo 175466" clip-path="url(#clip-path-5)">
                    <path id="Trazado_185029" data-name="Trazado 185029" d="M321.038,127.136c.019.383.988.644,2.163.585s2.112-.418,2.093-.8-.988-.644-2.163-.585-2.112.418-2.093.8" transform="translate(-321.038 -126.327)" fill="#722324"/>
                  </g>
                </g>
              </g>
              <path id="Trazado_185030" data-name="Trazado 185030" d="M329.682,128.7l-.016,0h0l-.062.006c-.038.133-.085.264-.133.4-.021.058-.043.117-.066.174l-.006.016a2.706,2.706,0,0,1-1.171-.372,2.165,2.165,0,0,1-.646-.61.306.306,0,0,1,.5-.35,1.641,1.641,0,0,0,.769.586,2.219,2.219,0,0,0,.544.13,2.55,2.55,0,0,0,.288.02" transform="translate(-300.289 -104.658)" fill="#722324"/>
              <path id="Trazado_185031" data-name="Trazado 185031" d="M329.207,127.234a.306.306,0,0,0,.233-.26c.26-2.15,2.729-3.243,2.754-3.253a.305.305,0,0,0-.241-.561c-.115.05-2.815,1.239-3.119,3.74a.3.3,0,0,0,.266.339.277.277,0,0,0,.107-.005" transform="translate(-300.214 -104.929)" fill="#722324"/>
              <path id="Trazado_185032" data-name="Trazado 185032" d="M331.722,125.788a.286.286,0,0,0,.107-.049.3.3,0,0,0,.072-.425,2.1,2.1,0,0,0-1.9-.783.305.305,0,0,0,.067.607,1.486,1.486,0,0,1,1.337.529.3.3,0,0,0,.318.121" transform="translate(-300.162 -104.849)" fill="#722324"/>
              <path id="Trazado_185033" data-name="Trazado 185033" d="M331.756,133.421c-1.661,1.228-3.359,1.875-5.194.265a15.614,15.614,0,0,1,1.3-7.418c1.463-2.867-1.089-6.4-1.089-6.4,1.627.674,3.427.655,4.394,2.557-1.613,1.861-.607,6.915.589,11" transform="translate(-300.347 -105.117)" fill="#181709"/>
              <path id="Trazado_185034" data-name="Trazado 185034" d="M331.109,127.027l2.712,7.359s-.87,1.153-3.659.875l.548-8.159Z" transform="translate(-300.138 -104.705)" fill="#fff"/>
              <path id="Trazado_185035" data-name="Trazado 185035" d="M334.578,152.65l.469.814.476.84.943,1.7q.938,1.7,1.848,3.413,1.629,3.068,3.136,6.162h12.009q-.893-2.029-1.838-3.994c-1.188-2.467-2.422-4.883-3.691-7.274q-.952-1.793-1.932-3.567l-.988-1.774-.5-.887-.521-.907a5.443,5.443,0,1,0-9.44,5.42Z" transform="translate(-299.927 -103.702)" fill="#c9614d"/>
            </g>
          </g>
          <g id="Grupo_175472" data-name="Grupo 175472">
            <g id="Grupo_175471" data-name="Grupo 175471" clip-path="url(#clip-path-6)">
              <path id="Trazado_185036" data-name="Trazado 185036" d="M457.74,112.316H372.985a2.894,2.894,0,0,1,0-5.787H457.74a2.894,2.894,0,0,1,0,5.787m-84.755-4.994a2.1,2.1,0,0,0,0,4.2H457.74a2.1,2.1,0,0,0,0-4.2Z" transform="translate(21.307 6.133)" fill="#8b5991"/>
              <path id="Trazado_185037" data-name="Trazado 185037" d="M411,122.371H372.985a2.894,2.894,0,0,1,0-5.787H411a2.894,2.894,0,1,1,0,5.787m-38.011-4.994a2.1,2.1,0,0,0,0,4.2H411a2.1,2.1,0,1,0,0-4.2Z" transform="translate(21.307 6.712)" fill="#8b5991"/>
              <path id="Trazado_185038" data-name="Trazado 185038" d="M317.374,191.071h-14.3a1.991,1.991,0,0,1-1.988-1.988v-1.811a1.991,1.991,0,0,1,1.988-1.988h14.3a1.991,1.991,0,0,1,1.988,1.988v1.811a1.991,1.991,0,0,1-1.988,1.988m-14.3-4.994a1.2,1.2,0,0,0-1.2,1.2v1.811a1.2,1.2,0,0,0,1.2,1.2h14.3a1.2,1.2,0,0,0,1.2-1.2v-1.811a1.2,1.2,0,0,0-1.2-1.2Z" transform="translate(17.334 10.667)" fill="#ea5770"/>
              <path id="Trazado_185039" data-name="Trazado 185039" d="M317.374,204.344h-14.3a1.991,1.991,0,0,1-1.988-1.988v-1.811a1.991,1.991,0,0,1,1.988-1.988h14.3a1.991,1.991,0,0,1,1.988,1.988v1.811a1.991,1.991,0,0,1-1.988,1.988m-14.3-4.994a1.2,1.2,0,0,0-1.2,1.2v1.811a1.2,1.2,0,0,0,1.2,1.2h14.3a1.2,1.2,0,0,0,1.2-1.2v-1.811a1.2,1.2,0,0,0-1.2-1.2Z" transform="translate(17.334 11.432)" fill="#ea5770"/>
              <path id="Trazado_185040" data-name="Trazado 185040" d="M317.374,217.616h-14.3a1.991,1.991,0,0,1-1.988-1.988v-1.81a1.992,1.992,0,0,1,1.988-1.989h14.3a1.991,1.991,0,0,1,1.988,1.989v1.81a1.991,1.991,0,0,1-1.988,1.988m-14.3-4.994a1.2,1.2,0,0,0-1.2,1.2v1.81a1.2,1.2,0,0,0,1.2,1.2h14.3a1.2,1.2,0,0,0,1.2-1.2v-1.81a1.2,1.2,0,0,0-1.2-1.2Z" transform="translate(17.334 12.196)" fill="#ea5770"/>
              <rect id="Rectángulo_45599" data-name="Rectángulo 45599" width="64.06" height="0.793" transform="translate(417.044 143.7)" fill="#dbb3a7"/>
              <rect id="Rectángulo_45600" data-name="Rectángulo 45600" width="16.949" height="0.793" transform="translate(392.031 143.7)" fill="#dbb3a7"/>
              <rect id="Rectángulo_45601" data-name="Rectángulo 45601" width="16.63" height="0.793" transform="translate(464.474 154.239)" fill="#dbb3a7"/>
              <rect id="Rectángulo_45602" data-name="Rectángulo 45602" width="61.919" height="0.793" transform="translate(392.031 154.239)" fill="#dbb3a7"/>
              <rect id="Rectángulo_45603" data-name="Rectángulo 45603" width="40.414" height="0.793" transform="translate(440.691 164.777)" fill="#dbb3a7"/>
              <rect id="Rectángulo_45604" data-name="Rectángulo 45604" width="15.395" height="0.793" transform="translate(419.641 164.777)" fill="#dbb3a7"/>
              <rect id="Rectángulo_45605" data-name="Rectángulo 45605" width="21.503" height="0.793" transform="translate(392.031 164.777)" fill="#dbb3a7"/>
              <rect id="Rectángulo_45606" data-name="Rectángulo 45606" width="30.71" height="0.793" transform="translate(450.395 175.316)" fill="#dbb3a7"/>
              <rect id="Rectángulo_45607" data-name="Rectángulo 45607" width="45.927" height="0.793" transform="translate(392.031 175.316)" fill="#dbb3a7"/>
              <rect id="Rectángulo_45608" data-name="Rectángulo 45608" width="26.997" height="0.793" transform="translate(451.9 200.945)" fill="#dbb3a7"/>
              <rect id="Rectángulo_45609" data-name="Rectángulo 45609" width="40.565" height="0.793" transform="translate(400.126 200.945)" fill="#dbb3a7"/>
              <rect id="Rectángulo_45610" data-name="Rectángulo 45610" width="38.959" height="0.793" transform="translate(343.846 200.945)" fill="#dbb3a7"/>
              <rect id="Rectángulo_45611" data-name="Rectángulo 45611" width="47.295" height="0.793" transform="translate(431.602 214.981)" fill="#dbb3a7"/>
              <rect id="Rectángulo_45612" data-name="Rectángulo 45612" width="52.981" height="0.793" transform="translate(372.059 214.981)" fill="#dbb3a7"/>
              <rect id="Rectángulo_45613" data-name="Rectángulo 45613" width="19.479" height="0.793" transform="translate(343.846 214.981)" fill="#dbb3a7"/>
              <rect id="Rectángulo_45614" data-name="Rectángulo 45614" width="14.422" height="0.793" transform="translate(464.474 229.018)" fill="#dbb3a7"/>
              <rect id="Rectángulo_45615" data-name="Rectángulo 45615" width="37.725" height="0.793" transform="translate(416.225 229.018)" fill="#dbb3a7"/>
              <rect id="Rectángulo_45616" data-name="Rectángulo 45616" width="63.767" height="0.793" transform="translate(343.846 229.018)" fill="#dbb3a7"/>
              <rect id="Rectángulo_45617" data-name="Rectángulo 45617" width="119.858" height="0.793" transform="translate(317.894 298.551)" fill="#dbb3a7"/>
              <path id="Trazado_185041" data-name="Trazado 185041" d="M343.257,239.153h-39.04a3.13,3.13,0,0,1,0-6.261h39.04a3.13,3.13,0,0,1,0,6.261m-39.04-5.468a2.337,2.337,0,0,0,0,4.674h39.04a2.337,2.337,0,0,0,0-4.674Z" transform="translate(17.334 13.408)" fill="#8b5991"/>
              <path id="Trazado_185042" data-name="Trazado 185042" d="M424.324,239.153H354.56a3.13,3.13,0,1,1,0-6.261h69.764a3.13,3.13,0,1,1,0,6.261m-69.764-5.468a2.337,2.337,0,1,0,0,4.674h69.764a2.337,2.337,0,1,0,0-4.674Z" transform="translate(20.233 13.408)" fill="#8b5991"/>
              <rect id="Rectángulo_45618" data-name="Rectángulo 45618" width="163.306" height="0.793" transform="translate(318.472 285.465)" fill="#dbb3a7"/>
              <path id="Trazado_185043" data-name="Trazado 185043" d="M416.947,68.5H343.164a3.294,3.294,0,0,1-3.29-3.29V56.093a3.294,3.294,0,0,1,3.29-3.29h73.783a3.294,3.294,0,0,1,3.29,3.29v9.113a3.294,3.294,0,0,1-3.29,3.29M343.164,53.6a2.5,2.5,0,0,0-2.5,2.5v9.113a2.5,2.5,0,0,0,2.5,2.5h73.783a2.5,2.5,0,0,0,2.5-2.5V56.093a2.5,2.5,0,0,0-2.5-2.5Z" transform="translate(19.568 3.04)" fill="#e2cfc7"/>
              <path id="Trazado_185044" data-name="Trazado 185044" d="M646.217,333.661H360.678a7,7,0,0,1-7-6.995V146.936a7,7,0,0,1,7-7H646.217a7,7,0,0,1,6.994,7v179.73a6.994,6.994,0,0,1-6.994,6.995" transform="translate(20.363 8.057)" fill="#592b5b"/>
              <rect id="Rectángulo_45619" data-name="Rectángulo 45619" width="275.053" height="172.664" transform="translate(386.283 158.526)" fill="#fff"/>
              <rect id="Rectángulo_45620" data-name="Rectángulo 45620" width="275.053" height="172.664" transform="translate(386.283 158.526)" fill="#efe1dc"/>
              <rect id="Rectángulo_45621" data-name="Rectángulo 45621" width="275.051" height="5.893" transform="translate(386.284 158.525)" fill="#fff"/>
              <path id="Trazado_185045" data-name="Trazado 185045" d="M321.871,323.256A10.466,10.466,0,0,0,332.3,333.327H678.26a10.468,10.468,0,0,0,10.426-10.071Z" transform="translate(18.531 18.611)" fill="#592b5b"/>
              <rect id="Rectángulo_45622" data-name="Rectángulo 45622" width="285.539" height="0.793" transform="translate(381.039 341.321)" fill="#8b5991"/>
              <path id="Trazado_185046" data-name="Trazado 185046" d="M495.439,147.319a2.681,2.681,0,1,1,2.682-2.681,2.684,2.684,0,0,1-2.682,2.681m0-4.57a1.888,1.888,0,1,0,1.889,1.889,1.89,1.89,0,0,0-1.889-1.889" transform="translate(28.37 8.173)" fill="#8b5991"/>
              <path id="Trazado_185047" data-name="Trazado 185047" d="M370.318,152.592a1.257,1.257,0,1,1-1.257-1.257,1.257,1.257,0,0,1,1.257,1.257" transform="translate(21.176 8.713)" fill="#ffb43b"/>
              <path id="Trazado_185048" data-name="Trazado 185048" d="M374.993,152.592a1.257,1.257,0,1,1-1.257-1.257,1.257,1.257,0,0,1,1.257,1.257" transform="translate(21.445 8.713)" fill="#ffb43b"/>
              <path id="Trazado_185049" data-name="Trazado 185049" d="M379.669,152.592a1.257,1.257,0,1,1-1.257-1.257,1.257,1.257,0,0,1,1.257,1.257" transform="translate(21.714 8.713)" fill="#ffb43b"/>
            </g>
          </g>
          <g id="Grupo_175480" data-name="Grupo 175480" transform="translate(382.805 112.695)">
            <g id="Grupo_175479" data-name="Grupo 175479" clip-path="url(#clip-path-7)">
              <path id="Trazado_185050" data-name="Trazado 185050" d="M408.135,320.208a22.636,22.636,0,0,1,5.155,5.73H618.433c8.686-17.2,2.616-37.656-27.337-58.728-30.02-21.119-.806-15.025-4.834-39.546-2.281-13.884-12.845-19.5-34.382-34.441s-2.53-16.646-9.01-41.992a44.992,44.992,0,0,0-2.808-7.808c-15.515-33.373-57.615-35.592-86.951-13.373-17.875,13.538-13.169,41.79-11.722,51.152,2.483,16.072,9.412,15,3.472,25.584s-1.34,19.453,9.738,33-12.8,15.4-31.4,26.4-32.671,39.714-15.063,54.022" transform="translate(-359.772 -106.047)" fill="#181709"/>
              <path id="Trazado_185051" data-name="Trazado 185051" d="M434.713,318.31q5.181-6.66,10.528-13.246,4.659-5.741,9.417-11.408l4.773-5.644,2.4-2.791,2.349-2.7.166-.2a20.743,20.743,0,0,0-31.324-27.2l-2.615,3.009-2.53,2.95-4.995,5.908q-4.97,5.922-9.847,11.923c-6.5,8.008-12.89,16.136-19.142,24.493-3.634,4.871-7.213,9.824-10.729,14.908Z" transform="translate(-360.746 -98.418)" fill="#c9614d"/>
              <path id="Trazado_185052" data-name="Trazado 185052" d="M415.693,319.148h137.14c2.112-3.783,4.158-7.407,6.062-10.761q.463-.807.914-1.6c.671-1.18,1.322-2.333,1.954-3.443.665-1.172,1.317-2.3,1.945-3.375.247-.426.5-.848.735-1.255,3.337-5.684,5.929-9.9,6.3-12.24.3-1.931.576-3.928.7-5.956.033-.493.056-.989.07-1.482a30.722,30.722,0,0,0-.117-3.659c-.056-.619-.135-1.232-.243-1.852a21.438,21.438,0,0,0-.96-3.7,16.732,16.732,0,0,0-.765-1.845c-1.846-3.942-5.155-7.728-10.8-11.1-.4-.244-.825-.483-1.256-.722-.571-.318-1.171-.632-1.789-.941-.642-.324-1.312-.638-2.006-.952-1.579-.708-3.285-1.4-5.136-2.047a91.469,91.469,0,0,1-16.078-7.3c-.563-.323-1.092-.651-1.6-.979a47.274,47.274,0,0,1-4.981-3.589c-.38-.309-.736-.619-1.073-.919-3.983-3.561-4.911-6.021-4.911-6.021l-27.222,3.172-1.771.206-15.492,1.8a74.387,74.387,0,0,1-13.332,6.373q-1.1.381-2.222.7c-.933.268-1.865.507-2.793.694-.552.117-1.1.216-1.645.291-.632.1-1.261.168-1.879.206-6.485.412-12.019.445-15.811,3.734A10.891,10.891,0,0,0,436.281,252a16.12,16.12,0,0,0-2.873,6.143c-.15.567-.272,1.134-.374,1.71-.033.169-.061.337-.089.507-.052.3-.094.594-.136.889q-.063.485-.112.971c-.493,4.86.127,9.906.4,14.4a38.35,38.35,0,0,1,.01,5.956c-.048.482-.108.951-.192,1.406a9.36,9.36,0,0,1-1.64,4.048c-2.413,3.2-6.837,7.1-10.384,12.362-.146.216-.291.431-.431.657-.239.37-.468.745-.694,1.129-.093.15-.183.3-.276.459a28.675,28.675,0,0,0-3.67,10.558c-.033.239-.06.478-.084.722-.038.332-.066.665-.089,1.007-.01.136-.019.272-.019.412a24.86,24.86,0,0,0-.014,2.8c.014.337.053.673.078,1.009" transform="translate(-358.879 -99.257)" fill="#fff"/>
              <path id="Trazado_185053" data-name="Trazado 185053" d="M431.972,281.344q4.028-.24,8.056-.384c.033,0,.066-.005.1-.005.469-.014.933-.033,1.4-.042q12.667-.414,25.343.061l1.49.056h.005q13.446.555,26.823,2.086.739.078,1.486.168h0q15.943,1.885,31.674,5.15,1.055.219,2.109.445c.488.1.97.206,1.453.314q15.6,3.395,30.849,8.135c.247-.426.5-.848.735-1.255q-15.218-4.738-30.8-8.144c-.488-.113-.97-.216-1.457-.319q-16.815-3.612-33.914-5.651h0c-.5-.066-.99-.123-1.486-.179q-8.547-.991-17.138-1.584-4.892-.336-9.789-.538c-.5-.029-1-.048-1.5-.061q-12.694-.492-25.4-.093c-.469.014-.937.027-1.411.047q-4.224.141-8.439.389c-.048.482-.108.951-.192,1.406" transform="translate(-357.936 -96.613)" fill="#e2cec3"/>
              <path id="Trazado_185054" data-name="Trazado 185054" d="M432.084,308.693c.455-.056.914-.108,1.368-.16q12.344-1.371,24.776-1.518c.488-.01.979-.014,1.467-.019q12.667-.078,25.306,1.091c.478.042.956.09,1.434.136a255.453,255.453,0,0,1,31.172,5.033c.464.1.923.21,1.388.314,1.916.444,3.823.932,5.729,1.42h5.61Q525,313.5,519.609,312.25c-.464-.108-.924-.21-1.388-.314a255.824,255.824,0,0,0-31.281-5.074c-.478-.048-.956-.094-1.434-.136q-12.653-1.188-25.38-1.116c-.492,0-.979.005-1.472.015-8.285.093-16.57.586-24.809,1.49q-.682.07-1.363.154-8.414.963-16.749,2.5c-.037.332-.066.665-.089,1.007-.01.136-.019.273-.019.412q8.076-1.5,16.242-2.469c.071-.01.146-.018.216-.023" transform="translate(-358.877 -95.1)" fill="#e2cec3"/>
              <path id="Trazado_185055" data-name="Trazado 185055" d="M431.87,259.865q4.021-.309,8.056-.511,4.366-.217,8.736-.328l1.485-.029q13.321-.267,26.628.553.766.043,1.532.1,14.3.936,28.483,3.111c.511.075,1.022.155,1.527.235a331.024,331.024,0,0,1,35.354,7.578c.487.131.974.262,1.462.4h0q12.851,3.563,25.376,8.158c.033-.492.056-.989.07-1.481q-8.365-3.071-16.894-5.675-3.8-1.16-7.628-2.221h-.005c-.492-.146-.979-.277-1.467-.412a331.334,331.334,0,0,0-35.484-7.653c-.507-.079-1.017-.16-1.528-.235q-14.226-2.2-28.6-3.158c-.516-.038-1.026-.071-1.537-.1q-13.343-.83-26.726-.591c-.5.01-.993.019-1.5.033q-8.568.19-17.118.83c-.033.168-.061.337-.089.505-.052.3-.094.6-.136.891" transform="translate(-357.941 -97.867)" fill="#e2cec3"/>
              <path id="Trazado_185056" data-name="Trazado 185056" d="M512.854,317.91c.215-.472.414-.951.63-1.42.2-.441.408-.881.614-1.322q1.862-3.979,3.871-7.892,4.372-8.519,9.376-16.678c.258-.422.516-.844.784-1.266q5.812-9.377,12.427-18.21h0c.3-.407.609-.815.919-1.218h0q5.546-7.339,11.635-14.255c-.4-.244-.824-.483-1.255-.722q-6.193,7.058-11.851,14.565c-.212.277-.418.553-.623.83-.1.135-.2.267-.3.4q-6.614,8.871-12.423,18.29c-.262.422-.525.844-.777,1.27a252.411,252.411,0,0,0-13.183,24.57c-.206.441-.412.881-.613,1.322-.266.574-.509,1.158-.769,1.734Z" transform="translate(-353.367 -98.018)" fill="#e2cec3"/>
              <path id="Trazado_185057" data-name="Trazado 185057" d="M480.4,318.82q1.16-3.395,2.39-6.767l.506-1.364c.1-.276.206-.552.31-.829,3.092-8.229,6.542-16.336,10.365-24.261h.005c.21-.445.421-.885.642-1.326h0q5.048-10.346,10.984-20.215.387-.655.788-1.308a235.855,235.855,0,0,1,15.741-22.723c-.38-.309-.736-.619-1.073-.919a234.78,234.78,0,0,0-16.195,23.408q-.4.654-.788,1.307-1.131,1.885-2.23,3.8-4.654,8.09-8.717,16.477-.33.668-.646,1.336-5.9,12.309-10.624,25.123-.252.682-.505,1.363-1.256,3.438-2.431,6.9Z" transform="translate(-355.232 -98.929)" fill="#e2cec3"/>
              <path id="Trazado_185058" data-name="Trazado 185058" d="M488.174,238.387a.7.7,0,0,1,0-1.406.7.7,0,0,1,0,1.406" transform="translate(-354.739 -99.051)" fill="#e2cec3"/>
              <path id="Trazado_185059" data-name="Trazado 185059" d="M455.149,318.976c.4-1.394.79-2.79,1.2-4.181.38-1.274.759-2.545,1.153-3.815.141-.464.287-.923.432-1.388q4.105-13.208,9.176-26.092h0c.179-.459.356-.919.545-1.373q4.323-10.8,9.39-21.261c.221-.455.441-.905.666-1.355q5.419-11.028,11.753-21.584c.178-.3.361-.6.548-.905.117-.2.244-.407.366-.609l-1.771.206q-6.734,11.106-12.433,22.794-.338.674-.66,1.355-3.206,6.622-6.1,13.393-1.68,3.936-3.257,7.905c-.187.459-.37.918-.544,1.378q-5.083,12.905-9.156,26.162c-.146.464-.287.929-.427,1.393q-1.215,3.974-2.347,7.976Z" transform="translate(-356.685 -99.084)" fill="#e2cec3"/>
              <path id="Trazado_185060" data-name="Trazado 185060" d="M430.912,318.443q.849-3.235,1.737-6.459c.127-.473.257-.947.393-1.42q3.915-13.981,8.623-27.714c.16-.468.324-.937.488-1.411q3.8-10.979,8.124-21.757.274-.7.564-1.392,2.565-6.355,5.317-12.63c-.552.117-1.1.216-1.643.291q-2.679,6.144-5.169,12.371c-.188.464-.371.927-.554,1.386q-3.941,9.926-7.441,20.016c-.2.586-.406,1.176-.609,1.762q-.24.7-.478,1.406-4.68,13.792-8.585,27.827c-.135.473-.265.951-.4,1.425-.58,2.1-1.138,4.2-1.689,6.3Z" transform="translate(-358.073 -98.552)" fill="#e2cec3"/>
              <path id="Trazado_185061" data-name="Trazado 185061" d="M533.051,315.644c4.417-6.852,9.153-13.484,14.087-19.866.656-.849-.53-2.052-1.193-1.193C540.678,301.4,535.659,308.4,531,315.644Z" transform="translate(-352.234 -95.752)" fill="#110e0a"/>
              <path id="Trazado_185062" data-name="Trazado 185062" d="M455.985,191.523l5.37,29.4s-4.021,3.761-14.309.895l7.389-30.276Z" transform="translate(-357.068 -101.668)" fill="#fff"/>
              <path id="Trazado_185063" data-name="Trazado 185063" d="M451.741,175.277s-4.825.442-5.726,6.6,2.238,16.428,8.465,15.141-2.739-21.746-2.739-21.746" transform="translate(-357.136 -102.604)" fill="#722324"/>
              <line id="Línea_1489" data-name="Línea 1489" y2="0.005" transform="translate(111.861 120.428)" fill="#c9614d"/>
              <path id="Trazado_185064" data-name="Trazado 185064" d="M518.9,238.639a50.19,50.19,0,0,1-26.358,18.606c-22.614,6.493-25.556-6.431-25.556-6.431a43.244,43.244,0,0,0,1.771-9.5c.1-1.252.15-2.537.159-3.868a104.691,104.691,0,0,0-.732-12.171c-.115-1.072-.244-2.186-.387-3.333l-.015-.136c15.845-3.844,28.787-10.953,37.606-22.707l2.373-1.432,1.6-.971.3.924-.287,2.95c-1.391,13.87,1.8,25.335,9.527,38.069" transform="translate(-355.92 -101.371)" fill="#c9614d"/>
              <path id="Trazado_185065" data-name="Trazado 185065" d="M522.694,234.271c-6.623,15-13.793,31.107-27.849,40.618-6.01,4.067-14.3,7.59-21.567,5.074-6.086-2.107-9.8-8.224-11.114-14.251-2.039-9.334,1.453-18.72,4.722-27.335.381-1,2.013-.569,1.627.448-2.78,7.328-5.738,15.049-5.205,23.03.418,6.267,3.452,13.337,9.46,16.093,7.166,3.286,15.9-.769,21.825-4.929a56.662,56.662,0,0,0,14.7-15.945c4.793-7.444,8.376-15.577,11.942-23.655.438-.991,1.892-.133,1.457.851" transform="translate(-356.232 -99.282)" fill="#110e0a"/>
              <path id="Trazado_185066" data-name="Trazado 185066" d="M494.42,210.555c-3.31,7.591-11.013,21.025-25.548,26.092a104.975,104.975,0,0,0-.733-12.171c-.114-1.071-.244-2.186-.387-3.333.313.035.635.059.955.079,8.646.523,18.013-3.984,25.713-10.668" transform="translate(-355.876 -100.573)" fill="#181709"/>
              <path id="Trazado_185067" data-name="Trazado 185067" d="M529.756,177.552c.589,8.595-5.963,19.62-17.183,20.7l-.059.006h0l-.237.025c-.147.506-.325,1.006-.51,1.517-.079.22-.163.444-.247.664a.312.312,0,0,1-.027.061c-6,15.081-26.214,25.1-37.445,26.178a25.68,25.68,0,0,1-7.654-.464c-12.1-1.77-15.443-17.733-14.419-30.181a47.19,47.19,0,0,1,.714-5.139c.023-.11.045-.221.068-.331,0,0-5.18-16.957-6.633-24.409-2.807-14.445,4.535-29.822,36.285-34.928s40.774,14.2,43.74,24.567c.5,1.727.863,12.195-.768,14,3.135,1.337,4.184,4.844,4.38,7.732" transform="translate(-357.153 -105.187)" fill="#c9614d"/>
              <path id="Trazado_185068" data-name="Trazado 185068" d="M457.232,181.116c.32,2.1,1.467,3.674,2.56,3.507s1.717-2.008,1.4-4.112-1.468-3.674-2.56-3.507-1.719,2.008-1.4,4.112" transform="translate(-356.486 -102.505)" fill="#181709"/>
              <path id="Trazado_185069" data-name="Trazado 185069" d="M463.179,178.8a.563.563,0,0,0,.059-1c-.223-.132-5.54-3.193-9.8.288a.563.563,0,1,0,.712.873c3.655-2.99,8.467-.217,8.516-.188a.567.567,0,0,0,.511.031" transform="translate(-356.711 -102.537)" fill="#181709"/>
              <path id="Trazado_185070" data-name="Trazado 185070" d="M474.614,178.76c.321,2.1,1.468,3.674,2.56,3.507s1.719-2.008,1.4-4.112-1.469-3.674-2.561-3.507-1.717,2.008-1.4,4.112" transform="translate(-355.485 -102.641)" fill="#181709"/>
              <path id="Trazado_185071" data-name="Trazado 185071" d="M481.455,177.092a.564.564,0,0,0,.187-.987c-.206-.159-5.091-3.869-9.757-.953a.563.563,0,1,0,.6.955c4.007-2.505,8.427.855,8.47.889a.563.563,0,0,0,.5.1" transform="translate(-355.653 -102.675)" fill="#181709"/>
              <path id="Trazado_185072" data-name="Trazado 185072" d="M476.991,194.469s-.016,10.089-8.44,11.05-9.773-7.284-9.773-7.284Z" transform="translate(-356.392 -101.499)" fill="#fff"/>
              <path id="Trazado_185073" data-name="Trazado 185073" d="M469.975,208.578a4.52,4.52,0,0,0,2.492-1.694.762.762,0,0,0-1.265-.85,3.089,3.089,0,0,1-3.287,1.06.762.762,0,0,0-.345,1.484,4.968,4.968,0,0,0,2.4,0" transform="translate(-355.92 -100.852)" fill="#722324"/>
              <path id="Trazado_185074" data-name="Trazado 185074" d="M525.5,169.954a18.781,18.781,0,0,0-2.567.48c-5.34,1.392-8.482,4.9-10.9,8.355-.453-2.921-3.581-16.318-23.143-18.519-.28-.031-.581-.06-.895-.084a16.686,16.686,0,0,1-2.155-8.394c1.95-7.953-36.34-3.915-37.625,8.291-.539,5.114-.826,8.447-.979,10.607v.005a20.837,20.837,0,0,0-.134,3.97s-3.381,3.52-3.664-13.289a22.817,22.817,0,0,1,5.678-15c7.641-9.288,22.15-15.948,38.193-18,23.755-3.041,41.065,21.919,42.2,31.027s-4.016,10.549-4.016,10.549" transform="translate(-357.276 -105.319)" fill="#181709"/>
              <g id="Grupo_175475" data-name="Grupo 175475" transform="translate(94.817 85.734)" opacity="0.5">
                <g id="Grupo_175474" data-name="Grupo 175474">
                  <g id="Grupo_175473" data-name="Grupo 175473" clip-path="url(#clip-path-8)">
                    <path id="Trazado_185075" data-name="Trazado 185075" d="M457.99,189.851c.063,1.278-2.671,2.484-6.369,2.915a47.447,47.447,0,0,1,.714-5.139c3.229.188,5.6,1.058,5.655,2.224" transform="translate(-451.621 -187.627)" fill="#722324"/>
                  </g>
                </g>
              </g>
              <path id="Trazado_185076" data-name="Trazado 185076" d="M465.32,193.886a.969.969,0,0,1-.536-.1l-4.556-2.261a.976.976,0,0,1-.12-1.678c3.311-2.274,5.179-5.552,5.88-10.318a.975.975,0,1,1,1.93.283c-.692,4.7-2.426,8.133-5.418,10.662l3.151,1.563a.976.976,0,0,1-.331,1.844" transform="translate(-356.34 -102.407)" fill="#722324"/>
              <path id="Trazado_185077" data-name="Trazado 185077" d="M473.151,170.818a2.37,2.37,0,0,1-3.5-3.066,6.87,6.87,0,0,1,3.834-2.925,17.2,17.2,0,0,1,15.134,2.243s-9.126.3-13.215,2.338a13.331,13.331,0,0,0-2.252,1.41" transform="translate(-355.787 -103.256)" fill="#181709"/>
              <path id="Trazado_185078" data-name="Trazado 185078" d="M459.926,172.353a2.37,2.37,0,0,0,2.6-3.861,6.876,6.876,0,0,0-4.457-1.844c-8.917-.618-11.161,5.243-11.161,5.243s6.007-1.242,10.482-.323a13.192,13.192,0,0,1,2.538.785" transform="translate(-357.076 -103.103)" fill="#181709"/>
              <g id="Grupo_175478" data-name="Grupo 175478" transform="translate(121.05 83.677)" opacity="0.5">
                <g id="Grupo_175477" data-name="Grupo 175477">
                  <g id="Grupo_175476" data-name="Grupo 175476" clip-path="url(#clip-path-9)">
                    <path id="Trazado_185079" data-name="Trazado 185079" d="M476.427,188.766c.073,1.458,3.764,2.456,8.242,2.228s8.049-1.593,7.976-3.051-3.765-2.456-8.244-2.228-8.048,1.593-7.974,3.051" transform="translate(-476.426 -185.682)" fill="#722324"/>
                  </g>
                </g>
              </g>
              <path id="Trazado_185080" data-name="Trazado 185080" d="M509.371,194.741l-.058.006h-.005l-.238.026c-.146.506-.323,1.006-.509,1.517-.08.219-.164.444-.247.664a.35.35,0,0,1-.029.061,10.355,10.355,0,0,1-4.459-1.419,8.232,8.232,0,0,1-2.462-2.326,1.164,1.164,0,0,1,1.908-1.334,6.256,6.256,0,0,0,2.932,2.231,8.423,8.423,0,0,0,2.07.494,9.748,9.748,0,0,0,1.1.078" transform="translate(-353.953 -101.673)" fill="#722324"/>
              <path id="Trazado_185081" data-name="Trazado 185081" d="M507.562,189.139a1.162,1.162,0,0,0,.887-.992c.993-8.192,10.4-12.356,10.494-12.4a1.163,1.163,0,0,0-.92-2.135c-.438.188-10.728,4.721-11.883,14.252a1.164,1.164,0,0,0,1.421,1.272" transform="translate(-353.666 -102.705)" fill="#722324"/>
              <path id="Trazado_185082" data-name="Trazado 185082" d="M517.143,183.627a1.129,1.129,0,0,0,.407-.184,1.164,1.164,0,0,0,.274-1.621,7.982,7.982,0,0,0-7.241-2.981,1.163,1.163,0,0,0,.254,2.312,5.653,5.653,0,0,1,5.092,2.017,1.161,1.161,0,0,0,1.214.458" transform="translate(-353.469 -102.402)" fill="#722324"/>
              <path id="Trazado_185083" data-name="Trazado 185083" d="M517.274,212.715c-6.334,4.679-12.8,7.147-19.794,1.013-.736-10.1,1.562-21.623,4.955-28.272,5.574-10.925-4.153-24.393-4.153-24.393,6.2,2.565,13.061,2.492,16.745,9.742-6.146,7.093-2.309,26.357,2.247,41.91" transform="translate(-354.172 -103.422)" fill="#181709"/>
              <path id="Trazado_185084" data-name="Trazado 185084" d="M514.81,188.35l10.333,28.043s-3.317,4.4-13.944,3.336l2.088-31.095Z" transform="translate(-353.374 -101.851)" fill="#fff"/>
              <path id="Trazado_185085" data-name="Trazado 185085" d="M528.031,286l1.784,3.105,1.815,3.2,3.6,6.458q3.572,6.477,7.042,13.009,1.631,3.071,3.233,6.151h46.445q-6.314-13-13.034-25.61-3.63-6.831-7.365-13.6l-3.763-6.759-1.915-3.381-1.986-3.457a20.743,20.743,0,0,0-35.978,20.655Z" transform="translate(-352.571 -98.031)" fill="#c9614d"/>
            </g>
          </g>
          <g id="Grupo_175482" data-name="Grupo 175482">
            <g id="Grupo_175481" data-name="Grupo 175481" clip-path="url(#clip-path-6)">
              <path id="Trazado_185086" data-name="Trazado 185086" d="M512.126,289.337a13.914,13.914,0,1,1-13.913-13.913,13.913,13.913,0,0,1,13.913,13.913" transform="translate(27.882 15.857)" fill="#7cc46c"/>
              <path id="Trazado_185087" data-name="Trazado 185087" d="M500.06,283.58h-9.286a1.524,1.524,0,0,0-1.374,1.631v7.314a1.524,1.524,0,0,0,1.374,1.631h9.286a1.523,1.523,0,0,0,1.374-1.631v-7.314a1.523,1.523,0,0,0-1.374-1.631" transform="translate(28.176 16.327)" fill="#fff"/>
              <path id="Trazado_185088" data-name="Trazado 185088" d="M504.247,285.108l-1.724,1.725a1.081,1.081,0,0,0-.318.767V290a1.081,1.081,0,0,0,.318.767l1.724,1.725a1.082,1.082,0,0,0,1.848-.766v-5.849a1.082,1.082,0,0,0-1.848-.766" transform="translate(28.913 16.396)" fill="#fff"/>
              <path id="Trazado_185089" data-name="Trazado 185089" d="M464.4,289.337a13.914,13.914,0,1,1-13.914-13.913A13.914,13.914,0,0,1,464.4,289.337" transform="translate(25.135 15.857)" fill="#7cc46c"/>
              <path id="Trazado_185090" data-name="Trazado 185090" d="M455.288,288.966H454.2a4.182,4.182,0,1,1-8.364,0h-1.089a5.259,5.259,0,0,0,4.726,5.216v1.473h-2.166v1.088h5.422v-1.088h-2.167v-1.473a5.26,5.26,0,0,0,4.727-5.216" transform="translate(25.605 16.637)" fill="#fff"/>
              <path id="Trazado_185091" data-name="Trazado 185091" d="M449.945,292.684h0a3.381,3.381,0,0,1-3.372-3.372v-5.882a3.372,3.372,0,1,1,6.743,0v5.882a3.381,3.381,0,0,1-3.372,3.372" transform="translate(25.711 16.124)" fill="#fff"/>
              <path id="Trazado_185092" data-name="Trazado 185092" d="M559.85,289.337a13.914,13.914,0,1,1-13.913-13.913,13.913,13.913,0,0,1,13.913,13.913" transform="translate(30.63 15.857)" fill="#ea5770"/>
              <path id="Trazado_185093" data-name="Trazado 185093" d="M543.148,281.425l.559,5.146-1.991.694a9.12,9.12,0,0,0,5.235,5.682l.962-1.969,5.168.918s-.177,4.07-3.065,4.743c-3.848.514-7.07-1.991-8.726-4.073s-4.34-6.6-2.8-9.329c1.3-1.858,4.653-1.813,4.653-1.813" transform="translate(30.976 16.202)" fill="#fff"/>
              <path id="Trazado_185094" data-name="Trazado 185094" d="M259.526,193.628s-4.758,1.383-4.869,5.2,3.763,5.533,5.809,6.252,4.371-10.567-.94-11.452" transform="translate(14.661 11.148)" fill="#ffb9a9"/>
              <path id="Trazado_185095" data-name="Trazado 185095" d="M310.773,208.208s-4.537-12.559-.609-17.76,7.691-4.315,8.853-3.264l1.161,7.746s3.818,6.8,3.929,7.8,3.052,17.767,3.052,17.767,1.55,32.373,1.994,36.19,0,41.684,0,41.684l-40.321,8.979,5.344-33.785s-16.525-13.131-18-23.015L260.242,245.9c-4.74-1.567-5.293-7.985,0-9.958-7.451.092-6.952-8.871-.664-11.434-6.9-.7-7.285-10.272,1.18-12.614Z" transform="translate(14.647 10.731)" fill="#ffb9a9"/>
              <path id="Trazado_185096" data-name="Trazado 185096" d="M307.074,246.15H262.243l-4.585-71.183h54Z" transform="translate(14.834 10.073)" fill="#fff"/>
              <path id="Trazado_185097" data-name="Trazado 185097" d="M309.268,221.73l1.959-31.326H258.046L260,221.73Z" transform="translate(14.856 10.962)" fill="#7cc46c"/>
              <path id="Trazado_185098" data-name="Trazado 185098" d="M257.163,169.543l-1.054,5.736h57.278l-1.054-5.736Z" transform="translate(14.745 9.761)" fill="#592b5b"/>
              <path id="Trazado_185099" data-name="Trazado 185099" d="M306.518,163.077H262.28l-1.459,7.942h47.157Z" transform="translate(15.016 9.389)" fill="#592b5b"/>
              <rect id="Rectángulo_45627" data-name="Rectángulo 45627" width="46.752" height="0.793" transform="translate(276.039 178.908)" fill="#8b5991"/>
              <path id="Trazado_185100" data-name="Trazado 185100" d="M290.192,217.379a11.537,11.537,0,1,1,11.537-11.537,11.55,11.55,0,0,1-11.537,11.537m0-22.281a10.744,10.744,0,1,0,10.744,10.744A10.757,10.757,0,0,0,290.192,195.1" transform="translate(16.043 11.187)" fill="#62a851"/>
              <rect id="Rectángulo_45628" data-name="Rectángulo 45628" width="16.359" height="0.793" transform="matrix(0.065, -0.998, 0.998, 0.065, 325.037, 201.339)" fill="#dbb3a7"/>
              <path id="Trazado_185101" data-name="Trazado 185101" d="M315.97,208.376c1.941-.118,3.869-.335,5.788-.622-.314-2.607-.564-4.689-.6-5.022-.11-1-3.928-7.8-3.928-7.8l-1.162-7.746c-1.161-1.051-4.924-1.936-8.852,3.265-3.712,4.915.13,16.387.565,17.634,2.639.7,5.488.458,8.19.293" transform="translate(17.595 10.731)" fill="#ffb9a9"/>
              <path id="Trazado_185102" data-name="Trazado 185102" d="M311.662,208.261a12,12,0,0,1-4.145-.723l.4-.98a11.276,11.276,0,0,0,4.414.625l.068,1.057c-.25.015-.495.022-.734.022" transform="translate(17.705 11.892)" fill="#ea8c73"/>
              <rect id="Rectángulo_45629" data-name="Rectángulo 45629" width="1.058" height="6.616" transform="matrix(0.781, -0.624, 0.624, 0.781, 324.121, 238.523)" fill="#ea8c73"/>
              <path id="Trazado_185103" data-name="Trazado 185103" d="M314.043,198.394c-1.982,0-2.917-3.112-3.51-5.84-.711-3.259,4.8-5.766,5.039-5.87l.433.965c-1.383.62-4.878,2.667-4.44,4.68.963,4.423,2.016,5.008,2.519,5.007.866-.043,1.924-1.646,2.386-2.645l.96.444c-.149.324-1.512,3.17-3.294,3.256-.031,0-.062,0-.093,0" transform="translate(17.875 10.748)" fill="#ea8c73"/>
              <path id="Trazado_185104" data-name="Trazado 185104" d="M302.905,255.6c-5.938-3.027-4.226-11.3-4.149-11.648l1.034.223c-.018.078-1.616,7.827,3.595,10.483Z" transform="translate(17.184 14.045)" fill="#ea8c73"/>
              <path id="Trazado_185105" data-name="Trazado 185105" d="M275.415,247.556l-.806-.685a8.612,8.612,0,0,1,3.716-2.511l.271,1.022a7.614,7.614,0,0,0-3.181,2.174" transform="translate(15.81 14.069)" fill="#ea8c73"/>
              <path id="Trazado_185106" data-name="Trazado 185106" d="M277.113,252.345l-.934-.5c.117-.219,2.9-5.379,6.675-7.093l.438.962c-3.448,1.568-6.153,6.578-6.179,6.629" transform="translate(15.9 14.091)" fill="#ea8c73"/>
              <rect id="Rectángulo_45630" data-name="Rectángulo 45630" width="1.501" height="1.058" transform="translate(274.158 234.718) rotate(-7.296)" fill="#ea8c73"/>
              <rect id="Rectángulo_45631" data-name="Rectángulo 45631" width="1.593" height="1.057" transform="translate(274.766 246.161) rotate(-13.413)" fill="#ea8c73"/>
              <path id="Trazado_185107" data-name="Trazado 185107" d="M189.029,124.417l3.031,84.368c-26.691,17.841-75.841,18.382-101.551,0l8.277-91.5Z" transform="translate(5.211 6.752)" fill="#ffb9a9"/>
              <path id="Trazado_185108" data-name="Trazado 185108" d="M203.791,115.906q-.338,0-.678-.021c-8.464-.518-14.759-10.605-14.033-22.485s8.208-21.126,16.669-20.606c4.136.253,7.874,2.756,10.523,7.047a26.512,26.512,0,0,1,3.51,15.438c-.708,11.561-7.809,20.627-15.992,20.627M190.136,93.464c-.691,11.3,5.16,20.883,13.042,21.365,7.866.474,14.858-8.317,15.549-19.616A25.445,25.445,0,0,0,215.372,80.4c-2.464-3.991-5.9-6.317-9.687-6.547-7.872-.472-14.859,8.316-15.549,19.616Z" transform="translate(10.883 4.19)" fill="#fff"/>
              <path id="Trazado_185109" data-name="Trazado 185109" d="M104.86,38.565,219.007,49.66s-6.367,65.155-9.966,95.766-22.27,33.539-22.27,33.539c-23.1,8.958-85.247,2.627-90.589-34.183Z" transform="translate(5.538 2.22)" fill="#ffb9a9"/>
              <path id="Trazado_185110" data-name="Trazado 185110" d="M170.77,107.317c-3.062-7.524-2.873-13.838.5-16.892,2.1-1.9,5.178-2.078,8.222-.467l-.494.935c-2.677-1.414-5.234-1.3-7.018.317-2.34,2.117-3.631,7.355-.233,15.708Z" transform="translate(9.707 5.116)" fill="#ea8c73"/>
              <path id="Trazado_185111" data-name="Trazado 185111" d="M176.9,108.776l-.948-.469c1.107-2.24,1.248-4.086.417-5.488-1.732-2.922-7.116-3.178-7.171-3.18l.042-1.057c.244.011,6.01.279,8.038,3.694,1.027,1.73.9,3.917-.378,6.5" transform="translate(9.741 5.676)" fill="#ea8c73"/>
              <path id="Trazado_185112" data-name="Trazado 185112" d="M101.621,39.281c-3.2-21.846,9.439-31.556,23.823-31.637,0,0,78.22-8.855,88.189-7.5a27,27,0,0,1,9.24,50.5,19.751,19.751,0,0,1-3.309,1.687,34.643,34.643,0,0,1-4.917,1.181c-.33.057-.662.1-1,.149-.142.02-.282.042-.423.06l-.131.015a45.507,45.507,0,0,1-6.11.318l-7.93,58.566c-.934,6.9-1.6,12.429-9.1,11.413l-.1-19.957c.345-3.866.359-10.243-2.884-12.943-4.241-3.532-12.632-2.789-15.581,1.928C164.736,102.9,175,123.341,175,123.341s-11.64,24.273-23.691,31.707c-18.719,8.82-45.5,6.3-54.646-6.6C91.34,99.73,80.272,53.33,101.621,39.281" transform="translate(5.125 0)" fill="#592b5b"/>
              <rect id="Rectángulo_45632" data-name="Rectángulo 45632" width="1.058" height="35.809" transform="translate(195.043 96.316) rotate(-86.112)" fill="#fff"/>
              <path id="Trazado_185113" data-name="Trazado 185113" d="M202.276,51.629c-.158,0-15.991-.335-31.536-1.911l.08-.789c15.511,1.572,31.314,1.9,31.472,1.907Z" transform="translate(9.83 2.817)" fill="#8b5991"/>
              <path id="Trazado_185114" data-name="Trazado 185114" d="M195.6,46.137q-3.247,0-6.832-.356l.078-.789c12.605,1.252,22-.837,27.927-6.213A19.108,19.108,0,0,0,223,25.8l.793,0a19.553,19.553,0,0,1-6.471,13.553c-4.962,4.512-12.251,6.783-21.72,6.783" transform="translate(10.868 1.485)" fill="#8b5991"/>
              <path id="Trazado_185115" data-name="Trazado 185115" d="M193.837,104.58c-.094,3.246,1.106,7.983,5.537,8.523,3.717.611,5.32-2.343,8.029-1.355,4.47,21.205-1.051,63.719-22.322,62.3l-.622-56.037Z" transform="translate(10.62 6.021)" fill="#592b5b"/>
              <path id="Trazado_185116" data-name="Trazado 185116" d="M327.416,289.656l1.11-23L270.3,264.332l-.361,22.14Z" transform="translate(15.541 15.218)" fill="#fff"/>
              <path id="Trazado_185117" data-name="Trazado 185117" d="M329.194,415.416l1.237-129.375-65.866-6.7-13.2,136.08Z" transform="translate(14.472 16.082)" fill="#592b5b"/>
              <path id="Trazado_185118" data-name="Trazado 185118" d="M289.333,419.782l9.844-141.055s4.194-45.474-35.761-56.85l-66.145-18.056c-41.955.742-88.5-.992-104.278,0L29.142,225.9C12.421,232.193,3.376,243.32,0,260.309v43.67l8.98,115.8Z" transform="translate(0 11.716)" fill="#592b5b"/>
              <path id="Trazado_185119" data-name="Trazado 185119" d="M289.333,419.782l9.844-141.055s4.194-45.474-35.761-56.85l-66.145-18.056c-41.955.742-88.5-.992-104.278,0L29.142,225.9C12.421,232.193,3.376,243.32,0,260.309v43.67l8.98,115.8Z" transform="translate(0 11.716)" fill="#592b5b"/>
              <path id="Trazado_185120" data-name="Trazado 185120" d="M92.463,182.7H192.831l5.81,23.877H82.373Z" transform="translate(4.742 10.518)" fill="#fff"/>
              <path id="Trazado_185121" data-name="Trazado 185121" d="M193.073,290.906l45.033,127.946h92.441c-9.666-39.192-39.681-160.871-40.219-162.843a47.662,47.662,0,0,0-1.7-5.077l-.025-.1-.013.006a49.683,49.683,0,0,0-33.079-29.175c-27.362-7.679-56.453,7.363-64.978,33.6a47.052,47.052,0,0,0,2.541,35.647Z" transform="translate(10.834 12.646)" fill="#592b5b"/>
              <path id="Trazado_185122" data-name="Trazado 185122" d="M244.508,417.2,195.834,300.387c-5.828-21.529-4.4-39.364,4.228-53.057,11.908-18.9,33.7-23.1,33.915-23.144l.145.779c-.216.041-21.676,4.191-33.394,22.795-8.5,13.5-9.9,31.117-4.146,52.371l48.656,116.763Z" transform="translate(11.072 12.907)" fill="#8b5991"/>
              <rect id="Rectángulo_45633" data-name="Rectángulo 45633" width="0.793" height="137.046" transform="translate(301.48 271.561) rotate(-13.873)" fill="#8b5991"/>
              <path id="Trazado_185123" data-name="Trazado 185123" d="M251.838,416.628l-21-135.444a22.964,22.964,0,0,0-22.9-22.9H5.422A22.711,22.711,0,0,0,0,258.944V393.879l.044,22.749Z" transform="translate(0 14.87)" fill="#9b5670"/>
              <path id="Trazado_185124" data-name="Trazado 185124" d="M216.182,415.723c-3.006-17.182-5.522-34.674-7.954-51.589C203.9,334.066,199.43,302.976,192,271.9c-1.838-7.347-9.016-12.281-19.2-13.2l.07-.789c10.539.944,17.978,6.1,19.9,13.8,7.44,31.119,11.916,62.228,16.243,92.311,2.431,16.912,4.947,34.4,7.95,51.567Z" transform="translate(9.949 14.849)" fill="#843a5c"/>
            </g>
          </g>
          <g id="Grupo_175490" data-name="Grupo 175490" transform="translate(0 -23)">
            <path id="Trazado_184979" data-name="Trazado 184979" d="M689.806,139.524H541.459l-7.722,8.351-.222-8.351h-5.407a7.4,7.4,0,0,1-7.4-7.4v-36.3a7.4,7.4,0,0,1,7.4-7.4h161.7a7.4,7.4,0,0,1,7.4,7.4v36.3a7.4,7.4,0,0,1-7.4,7.4" transform="translate(29.979 5.091)" fill="#fff"/>
            <rect id="Rectángulo_45554" data-name="Rectángulo 45554" width="29.22" height="0.793" transform="translate(682.721 104.307)" fill="#dbb3a7"/>
            <rect id="Rectángulo_45555" data-name="Rectángulo 45555" width="37.998" height="0.793" transform="translate(624.725 104.307)" fill="#dbb3a7"/>
            <rect id="Rectángulo_45556" data-name="Rectángulo 45556" width="19.164" height="0.793" transform="translate(598.783 104.307)" fill="#dbb3a7"/>
            <rect id="Rectángulo_45557" data-name="Rectángulo 45557" width="69.551" height="0.793" transform="translate(642.39 113.656)" fill="#dbb3a7"/>
            <rect id="Rectángulo_45558" data-name="Rectángulo 45558" width="33.275" height="0.793" transform="translate(598.783 113.656)" fill="#dbb3a7"/>
            <rect id="Rectángulo_45559" data-name="Rectángulo 45559" width="27.22" height="0.793" transform="translate(684.721 123.009)" fill="#dbb3a7"/>
            <rect id="Rectángulo_45560" data-name="Rectángulo 45560" width="73.272" height="0.793" transform="translate(598.783 123.009)" fill="#dbb3a7"/>
            <rect id="Rectángulo_45561" data-name="Rectángulo 45561" width="24.665" height="0.793" transform="translate(644.947 132.358)" fill="#dbb3a7"/>
            <rect id="Rectángulo_45562" data-name="Rectángulo 45562" width="38.275" height="0.793" transform="translate(598.783 132.358)" fill="#dbb3a7"/>
            <path id="Trazado_184980" data-name="Trazado 184980" d="M544.3,127.474a14.423,14.423,0,1,1,14.424-14.423A14.44,14.44,0,0,1,544.3,127.474m0-28.053a13.63,13.63,0,1,0,13.631,13.63A13.645,13.645,0,0,0,544.3,99.421" transform="translate(30.507 5.679)" fill="#dbb3a7"/>
            <path id="Trazado_184981" data-name="Trazado 184981" d="M554.142,121.992h-.793a8.443,8.443,0,0,0-8.434-8.434h-1.7a8.444,8.444,0,0,0-8.435,8.434h-.793a9.239,9.239,0,0,1,9.228-9.227h1.7a9.238,9.238,0,0,1,9.227,9.227" transform="translate(30.743 6.492)" fill="#dbb3a7"/>
            <path id="Trazado_184982" data-name="Trazado 184982" d="M543.786,111.791a4.952,4.952,0,1,1,4.953-4.952,4.958,4.958,0,0,1-4.953,4.952m0-9.111a4.159,4.159,0,1,0,4.159,4.159,4.163,4.163,0,0,0-4.159-4.159" transform="translate(31.022 5.866)" fill="#dbb3a7"/>
          </g>
        </g>
      </g>
    </g>
    <rect id="Rectángulo_45314" data-name="Rectángulo 45314" width="1030" height="37" transform="translate(285 2410.719)" fill="#6b8dfc" opacity="0.563"/>
  </g>
</svg>
