<svg xmlns="http://www.w3.org/2000/svg" xmlns:xlink="http://www.w3.org/1999/xlink" width="501.184" height="666.828" viewBox="0 0 501.184 666.828">
  <defs>
    <clipPath id="clip-path">
      <rect id="Rect치ngulo_42953" data-name="Rect치ngulo 42953" width="501.184" height="666.185" rx="11" transform="translate(0 0)" fill="#a6bbff"/>
    </clipPath>
  </defs>
  <g id="Grupo_175403" data-name="Grupo 175403" transform="translate(-164.523 -1450)">
    <g id="Enmascarar_grupo_243" data-name="Enmascarar grupo 243" transform="translate(164.523 1450)" clip-path="url(#clip-path)">
      <g id="Grupo_170223" data-name="Grupo 170223" transform="translate(-337.829 -304.313)">
        <rect id="Rect치ngulo_42952" data-name="Rect치ngulo 42952" width="542.953" height="693.16" rx="11" transform="translate(317.939 290.391)" fill="#fff7da"/>
        <g id="Grupo_170222" data-name="Grupo 170222" transform="translate(0 0)">
          <path id="Trazado_165129" data-name="Trazado 165129" d="M773.32,202.087C767.436,102.181,697.59,6.791,603,.875c-108.648-9.132-208.375,56.24-316.6,56.932C231.207,63,179.452,39.813,125.671,32.327,4.2,27.435-14.3,184.05,8.35,285,103.888,760.913,779.935,696.162,773.32,202.087Z" transform="matrix(-0.602, 0.799, -0.799, -0.602, 952.106, 366.74)" fill="#ffe891"/>
          <path id="Trazado_165130" data-name="Trazado 165130" d="M.035,154.006C4.373,77.87,55.859,5.175,125.587.667c80.088-6.959,153.6,42.859,233.376,43.386,40.68,3.956,78.83-13.712,118.473-19.417,89.538-3.728,103.18,115.624,86.481,192.555C493.494,579.873-4.841,530.528.035,154.006Z" transform="translate(404.243 1056.096) rotate(-81)" fill="#ffd947" opacity="0.388" style="mix-blend-mode: multiply;isolation: isolate"/>
        </g>
      </g>
    </g>
    <g id="Grupo_169825" data-name="Grupo 169825" transform="translate(191.523 1492)">
      <g id="Grupo_157493" data-name="Grupo 157493" transform="translate(0 0)">
        <g id="Grupo_158989" data-name="Grupo 158989" transform="translate(0 0)">
          <g id="Layer_3" data-name="Layer 3">
            <path id="Trazado_115817" data-name="Trazado 115817" d="M720.362,1127.076c-.222-7-.451-14.012-.768-21.016-.637-14.167-1.626-28.333-3.617-42.382-3.332-23.518-12.094-44.447-18.223-67.154a261.93,261.93,0,0,1-5.793-27.34,313.422,313.422,0,0,1-3.652-51.772c.146-17,1.377-34.155,7.344-50.221,3.241-8.733,6.838-19.683,13.937-26.094,1.124-1.013,3.118-2.129,4.044-3.079,0-.008,0-.016,0-.025.351-.269.693-.545,1.018-.839.243-1.572.538-3.137.773-4.728.02-.119.035-.243.052-.362-3.668-.3-7.717,2.355-10.943,3.756-7.686,3.344-15.577,6.2-23.237,9.617-3.525,1.573-7.1,3.222-10.546,4.9-3.361,1.635-6,4.387-9.378,6.03-3.774,1.838-7.557,3.656-11.395,5.374-2.9,1.3-5.813,2.585-8.7,3.914a80.545,80.545,0,0,0,8,15.9c-.1.359-.205.718-.317,1.075-2.849,9.058-8.405,16.881-12.2,25.524-.93,2.121-1.71,4.286-2.481,6.434l.008,0c1.737.946,1.808,3.063,2.4,4.891,4.895,15.164-3.13,23.925-5.334,38.112-1.769,11.361,2.481,21.634,2.01,32.726-.3,7.158-4.278,13.289-6.118,20.048a74.462,74.462,0,0,0-1.832,9.216c-4.111,29.608-10.771,59.061-16.569,88.432-1.389,7.036-2.592,14.638-4.408,22.069l.016,0c1.868,22.718,2.109,45.955,1.935,68.915H720.228c.5-10.261.875-20.53.906-30.8C721.181,1154.385,720.8,1140.855,720.362,1127.076Zm-25.14-39.754c-1.642-3.672.518-8.579,4.788-8.876,1.967-.138,3.182-.067,4.828,1.215,3.514,2.746,2.038,7.237-.419,10.15C701.985,1092.7,696.52,1090.223,695.222,1087.322Zm13.209,68.582c-2.437,2.889-7.9.412-9.2-2.489-1.642-3.676.518-8.579,4.784-8.876,1.967-.138,3.186-.067,4.828,1.215C712.365,1148.5,710.885,1152.992,708.431,1155.9Z" transform="translate(-511.103 -575.527)" fill="#8284d2"/>
            <path id="Trazado_115818" data-name="Trazado 115818" d="M649.788,399.943a1.9,1.9,0,0,1,.209,3.044,4.694,4.694,0,0,1-3.8.868c-1.892-.258-3.864-.383-5.76-.476-2.239-.111-4.487-.124-6.73-.2-1.629-.058-4.5.249-5.808-.944-1.66-1.517-.24-3,1.509-3.365a19.956,19.956,0,0,1,4.834.076c1.153.045,2.328.1,3.494.143,2.488.084,4.981.044,7.469.067C646.73,399.169,648.444,399.093,649.788,399.943Z" transform="translate(-525.826 -294.779)" fill="#ffbc3b"/>
            <path id="Trazado_115819" data-name="Trazado 115819" d="M619.141,299.629c2.119.133,1.963,2.461.672,3.512-.178.708-1.291.9-1.86,1.331-.855.637-5.519,4.251-6.245,5.025a13.381,13.381,0,0,1-2.2,1.6c-1.015.726-4.384,3.294-5.466,1.3a2.02,2.02,0,0,1,.218-1.9,8.023,8.023,0,0,1,3.187-2.63,10.065,10.065,0,0,0,3.116-2.35c.744-.926,5.484-4.215,6.387-4.945A3.3,3.3,0,0,1,619.141,299.629Z" transform="translate(-510.745 -230.566)" fill="#ffbc3b"/>
            <path id="Trazado_115820" data-name="Trazado 115820" d="M615.615,482.412a1.9,1.9,0,0,1-1.994,2.31,4.693,4.693,0,0,1-3.316-2.056c-1.162-1.513-2.471-2.991-3.753-4.393-1.513-1.655-3.1-3.245-4.638-4.878-1.117-1.189-3.374-2.987-3.463-4.758-.116-2.248,1.941-2.3,3.436-1.327a19.862,19.862,0,0,1,3.383,3.45c.787.85,1.584,1.714,2.381,2.564,1.709,1.811,3.507,3.534,5.261,5.306C613.986,479.711,615.254,480.868,615.615,482.412Z" transform="translate(-507.223 -338.822)" fill="#ffbc3b"/>
            <path id="Trazado_115821" data-name="Trazado 115821" d="M569.909,407.22c.516,3.24-3.218,3.129-5.581,2.991a11.836,11.836,0,0,1,2.8-3.739C568.288,405.466,569.624,405.421,569.909,407.22Z" transform="translate(-485.116 -299.344)" fill="#ffbc3b"/>
            <path id="Trazado_115822" data-name="Trazado 115822" d="M534.768,513.445c0,.1-.334-.049-.516-.111-.348-.111-.712-.245-1.046-.383a14.049,14.049,0,0,0-2.19-.766c-3.841-.908-7.665-2.283-11.422-3.481h-.107c0-1.072.054-2.163-.018-3.222-.045-.681-.3-1.451-.325-2.181l.058,0c0,.356,6.913,2.715,7.558,2.911a43.981,43.981,0,0,1,7.429,2.444c.3.151.694.543.992.44h.129a26.745,26.745,0,0,1-.334,4.389Z" transform="translate(-455.842 -362.529)" fill="#dedede"/>
            <path id="Trazado_115823" data-name="Trazado 115823" d="M534.882,523.286c.182.062.516.209.516.111l.209.036c-.062.378-.138.756-.227,1.13a12.3,12.3,0,0,1-1.028,3.276,8.921,8.921,0,0,1-.534.837l-.04-.027c-1.015-.409-2.052-1-3.124-1.348-3.347-1.095-6.726-2.564-9.966-3.939l-.352,0a23.711,23.711,0,0,0-.107-2.929,13.973,13.973,0,0,1-.111-1.78h.107c3.757,1.2,7.58,2.573,11.421,3.481a14.04,14.04,0,0,1,2.19.766C534.17,523.042,534.535,523.175,534.882,523.286Z" transform="translate(-456.472 -372.481)" fill="#dedede"/>
            <path id="Trazado_115824" data-name="Trazado 115824" d="M521.743,437.772h-.049c-.267-3.859-1.478-7.593-2.065-11.43-.734-4.816-1.175-9.93-2.858-14.533a21.434,21.434,0,0,0-.926-2.163c.285-.018.552-.031.788-.044a10.277,10.277,0,0,0,2.751-.69,7.846,7.846,0,0,0,2.55-1.7,11.629,11.629,0,0,0,2.119-2.034c.057-.089.116-.182.173-.276a10.379,10.379,0,0,0,5.154,4.006,10.2,10.2,0,0,0,2.751.69c.236.013.5.027.783.044a20.532,20.532,0,0,0-.921,2.163c-1.687,4.6-2.128,9.717-2.862,14.533-.529,3.472-1.776,7.019-1.8,10.545,0,.325.049.654.053.979C525.495,437.879,523.6,437.826,521.743,437.772Z" transform="translate(-453.704 -298.78)" fill="#ffbc3b"/>
            <path id="Trazado_115825" data-name="Trazado 115825" d="M534.18,537.308l.04.027a8.315,8.315,0,0,1-1.558,1.66c-1.442,1.171-3.743,1.331-5.506,1.1a7.27,7.27,0,0,1-5.114-3.378,8.211,8.211,0,0,1-1.175-3.009,11.266,11.266,0,0,1-.129-1.687l.352,0c3.24,1.375,6.618,2.844,9.966,3.939C532.128,536.311,533.165,536.9,534.18,537.308Z" transform="translate(-456.874 -381.139)" fill="#dedede"/>
            <path id="Trazado_115826" data-name="Trazado 115826" d="M537.394,382.645a10.8,10.8,0,0,1-1.286,5.706,11.632,11.632,0,0,1-1.807-4.46c-.236-1.291-.236-3.663,1.135-4.42C536.824,378.71,537.38,381.915,537.394,382.645Z" transform="translate(-465.585 -282.225)" fill="#ffbc3b"/>
            <path id="Trazado_115827" data-name="Trazado 115827" d="M535.081,254.676c.445.574-.084,1.571-.1,2.284-.022,1.068-.054,6.966.111,8.012a13.323,13.323,0,0,1-.1,2.724c-.053,1.246-.107,5.479-2.346,5.105a2.009,2.009,0,0,1-1.358-1.34,7.974,7.974,0,0,1-.107-4.131,10.179,10.179,0,0,0,.067-3.9c-.271-1.157.062-6.921.045-8.079a3.3,3.3,0,0,1,.605-2.315C533.314,251.453,535.045,253.011,535.081,254.676Z" transform="translate(-463.499 -199.955)" fill="#ffbc3b"/>
            <path id="Trazado_115828" data-name="Trazado 115828" d="M532.506,498.253c-.013.049.009.076-.04.125,0-.04,0-.085-.009-.125Z" transform="translate(-464.467 -359.261)" fill="#8cc295"/>
            <path id="Trazado_115829" data-name="Trazado 115829" d="M481.676,385.1l-.414.209-.1-.312a19.251,19.251,0,0,0-1.963-4.01c-2.034-3.12-5.435-4.562-8.208-6.837a32.035,32.035,0,0,1-11.261-22.771c-.721-14.025,9.979-27.28,24.361-27.605,6.281-.142,13.331,1.206,18.436,4.963a28.5,28.5,0,0,1,10.09,32.96,30.522,30.522,0,0,1-4.5,8.252c-2.057,2.689-5.11,4.322-7.211,6.882-1.909,2.319-4.576,4.656-4.838,7.842l-.035.338-.191.076c-1.589.143-3.209.2-4.843.2,0-.325-.053-.654-.053-.979.026-3.525,1.273-7.073,1.8-10.545.734-4.816,1.175-9.93,2.862-14.533a20.516,20.516,0,0,1,.921-2.163c2.364.138,6.1.249,5.582-2.991-.285-1.8-1.62-1.754-2.782-.748a11.834,11.834,0,0,0-2.8,3.739c-.285-.018-.548-.031-.783-.044a10.2,10.2,0,0,1-2.751-.69,10.379,10.379,0,0,1-5.154-4.006,10.8,10.8,0,0,0,1.286-5.706c-.013-.73-.57-3.935-1.959-3.174-1.371.757-1.371,3.129-1.135,4.42a11.635,11.635,0,0,0,1.807,4.46c-.058.093-.116.187-.174.276a11.627,11.627,0,0,1-2.118,2.034,7.845,7.845,0,0,1-2.55,1.7,10.274,10.274,0,0,1-2.751.69c-.236.013-.5.027-.788.044a11.838,11.838,0,0,0-2.8-3.739c-1.162-1.006-2.493-1.051-2.782.748-.517,3.24,3.218,3.129,5.581,2.991a21.5,21.5,0,0,1,.926,2.163c1.683,4.6,2.123,9.716,2.857,14.533.588,3.837,1.8,7.571,2.065,11.43C484.079,385.165,482.864,385.125,481.676,385.1Z" transform="translate(-417.322 -246.208)" fill="#ffbc3b"/>
            <path id="Trazado_115830" data-name="Trazado 115830" d="M519.2,499.685l-.058,0a1.966,1.966,0,0,1,.637-1.669l.414-.209c1.189.022,2.4.062,3.637.1,0,.04,0,.085.009.125.049-.049.027-.076.04-.125,1.856.054,3.752.107,5.639.094,1.634-.009,3.254-.062,4.843-.2l.191-.076c.73.468.766,1.536.766,2.31,0,1.055-.058,2.1-.036,3.16.018.761.031,1.527.027,2.288h-.129c-.3.1-.694-.289-.993-.441a43.982,43.982,0,0,0-7.429-2.444C526.109,502.4,519.2,500.041,519.2,499.685Z" transform="translate(-455.836 -358.917)" fill="#dedede"/>
            <path id="Trazado_115831" data-name="Trazado 115831" d="M502.686,406.472a11.836,11.836,0,0,1,2.8,3.739c-2.363.138-6.1.249-5.581-2.991C500.193,405.421,501.524,405.466,502.686,406.472Z" transform="translate(-443.344 -299.344)" fill="#ffbc3b"/>
            <path id="Trazado_115832" data-name="Trazado 115832" d="M439.927,467.31c1.5-.975,3.552-.921,3.441,1.327-.089,1.771-2.346,3.569-3.463,4.758-1.54,1.633-3.125,3.223-4.643,4.878-1.277,1.4-2.59,2.88-3.752,4.393a4.694,4.694,0,0,1-3.311,2.056,1.9,1.9,0,0,1-2-2.31c.361-1.544,1.634-2.7,2.706-3.783,1.753-1.772,3.552-3.494,5.261-5.306.8-.85,1.594-1.714,2.382-2.564A19.812,19.812,0,0,1,439.927,467.31Z" transform="translate(-395.59 -338.822)" fill="#ffbc3b"/>
            <path id="Trazado_115833" data-name="Trazado 115833" d="M420.725,314.747c1.233,1.3,1.549,3.325-.676,3.623-1.758.231-3.939-1.656-5.31-2.537-1.887-1.215-3.739-2.484-5.644-3.672-1.611-1.006-3.3-2.025-5-2.889a4.716,4.716,0,0,1-2.63-2.884,1.9,1.9,0,0,1,1.909-2.381c1.585.071,2.956,1.108,4.215,1.967,2.061,1.4,4.082,2.853,6.178,4.2.979.632,1.976,1.255,2.951,1.874A20.1,20.1,0,0,1,420.725,314.747Z" transform="translate(-379.548 -233.405)" fill="#ffbc3b"/>
            <path id="Trazado_115834" data-name="Trazado 115834" d="M400.839,398.871c1.754.365,3.174,1.847,1.509,3.365-1.309,1.193-4.175.886-5.8.944-2.243.076-4.491.089-6.734.2-1.9.094-3.864.218-5.755.476a4.7,4.7,0,0,1-3.806-.868,1.9,1.9,0,0,1,.209-3.044c1.344-.85,3.063-.775,4.589-.788,2.488-.022,4.981.018,7.469-.067,1.166-.04,2.337-.1,3.494-.143A19.923,19.923,0,0,1,400.839,398.871Z" transform="translate(-365.417 -294.779)" fill="#ffbc3b"/>
            <path id="Trazado_115835" data-name="Trazado 115835" d="M950.57,761.536l.008-.23c10.281-.34,22.287-6.32,31.123-13.2l.186.233c-.376,2.972-.2,6.237-.42,8.9a100.611,100.611,0,0,0-.313,15.9c-6.106.368-12.014,1.935-18.334,1.429a77.205,77.205,0,0,1-21.19-4.958c-5.81-2.26-10.974-6.007-15.916-9.739a74.1,74.1,0,0,1-8.916-8.627c-.514-.542-1.057-1.262-1.63-1.994,3.356,1.884,6.775,3.672,10.249,5.493a66.3,66.3,0,0,0,13.47,4.978A50.938,50.938,0,0,0,950.57,761.536Z" transform="translate(-712.432 -521.146)" fill="#e39476"/>
            <path id="Trazado_115836" data-name="Trazado 115836" d="M870.892,1533.007c3.514,2.746,2.038,7.238-.419,10.15-2.434,2.893-7.9.411-9.2-2.489-1.642-3.672.518-8.579,4.788-8.876C868.03,1531.653,869.245,1531.724,870.892,1533.007Z" transform="translate(-677.157 -1028.873)" fill="#37628f"/>
            <path id="Trazado_115837" data-name="Trazado 115837" d="M1207.276,1199.129h-93.153c.131-14.274.317-28.651-.953-42.8a308.2,308.2,0,0,1-1.389-35.8c.265-9.818-.515-19.77-.182-29.659.368-11.061,2.746-22.061,3.2-33.169a142.429,142.429,0,0,1,3.518-24.4c2.01-9.292,1.884-18.864,4.424-28.132,2.568-9.359,5.29-18.662,7.146-28.246,1.69-8.718,2.73-17.511,4.515-26.185a163.077,163.077,0,0,0,.938-59.37c-.934-5.781-1.338-11.531-2.77-17.245-2.806-11.179-7.9-22.081-16.636-29.853-3.229-2.873-7.649-4.262-10.8-6.933-.293-1.563-.637-3.118-.922-4.7-.024-.119-.043-.241-.063-.36,3.657-.412,7.788,2.109,11.057,3.407,7.787,3.1,15.766,5.7,23.529,8.876,3.573,1.461,7.2,3,10.7,4.559,3.411,1.527,6.138,4.195,9.565,5.73,3.831,1.717,7.669,3.415,11.559,5.01,8.271,3.4,16.632,6.668,24.384,11.167,10.288,5.967,19.96,11.935,28.152,20.783,7.653,8.271,13.743,19.185,19.034,29.066,5.865,10.938,10.289,23.166,14.254,34.9.958,2.845,2.367,5.71,2.921,8.658,1.04,5.549,1.417,11.338,2.255,16.949q1.425,9.515,2.6,19.07c1.6,12.948,2.9,25.932,4.028,38.927,1.433,16.573,1.255,33.248,3.032,49.793,1.737,16.209,8.061,30.751,10.791,46.656,1.77,10.317-.292,20.665-.965,30.977-.364,5.556,1.682,10.925,1.615,16.454-.063,5.323-1.492,10.526-1.639,15.869Z" transform="translate(-834.873 -575.65)" fill="#8284d2"/>
            <path id="Trazado_115838" data-name="Trazado 115838" d="M528.26,750.685c-.558-2.631-.9-5.283-1.393-7.962-.522-2.829-1.16-5.639-1.8-8.445-2.663-11.721-4.669-22.655-.974-34.4,3.32-10.546,9.078-20.217,11.6-31.033,1.729-7.416,1.318-14.867,1.076-22.425-.3-9.264.182-18.559.237-27.823.039-6.486-.72-15.912,5.71-19.85a4.357,4.357,0,0,1,4.879-.257c5.56,2.513,6.6,10.732,6.846,15.995.673,14.745.119,29.434.06,44.19,0,.8.146,1.294.178,2.022a18.28,18.28,0,0,1,5.995.732c8.6,2.592,14.444,10.234,19.723,17.135,1.2-5.042,4-11.144,9.268-12.917,1.6-.538,2.976-.914,4.567-.332a10.012,10.012,0,0,1,5.8,4.765c2.493,5.1-.083,11.448-1.207,16.573-.776,3.538-1.721,7.012-1.7,10.7.016,4.016.685,7.993.783,12.006.079,3.261.063,6.549-.182,9.818a51.885,51.885,0,0,1-2.133,11.733c-2.849,9.058-8.4,16.882-12.2,25.524-.93,2.121-1.709,4.286-2.481,6.434-2.24,6.229-4.424,12.3-10.115,16.66-7.495,5.749-17.523,3.862-25.136-.606a38.64,38.64,0,0,1-10.815-9.45,12.184,12.184,0,0,1-2.695-6.154c-.621-3.332-2.236-6.521-3.186-9.77C528.7,752.6,528.462,751.643,528.26,750.685Z" transform="translate(-457.74 -423.803)" fill="#f5b49b"/>
            <path id="Trazado_115839" data-name="Trazado 115839" d="M993.678,609.643c1.765,4.345-2.07,9.232-4.939,12.184-4.765,4.9-10.989,7.732-17.914,6.838a22.735,22.735,0,0,1-10.317-3.558,30.891,30.891,0,0,1-7.982-7.238c-1.678-2.271-3-6.4-1.12-8.951,1.559-2.113,4.55-2.845,7.059-2.584,2.311.238,4.685.273,7,.439a55.726,55.726,0,0,0,6.5-.032c2.837-.131,5.694.012,8.516-.356,2.576-.337,5.1-1.4,7.721-.835C990.623,606.073,992.7,607.24,993.678,609.643Z" transform="translate(-735.315 -428.674)" fill="#fff"/>
            <path id="Trazado_115840" data-name="Trazado 115840" d="M738.427,250.432c-.4-2.806-.716-5.619-1.048-8.413a48.967,48.967,0,0,0-1.567-9.149c-1.9-5.956-5.583-11.144-7.609-17.052a23.463,23.463,0,0,1-1.453-8.247c.048-3.2.471-6.383.748-9.572a107.5,107.5,0,0,1,2.822-15.789c1.642-6.846,4.108-13.921,3.368-21.032-.087-.823-.194-1.642-.3-2.465-.681-5.366,1.131-9.343,3.585-13.953,3.787-7.127,9.434-13.736,16.676-17.535,7.958-4.175,17.677-5.583,25.991-9.192a72,72,0,0,0,10.285-5.525c1.341-.866,2.363-1.982,3.775-2.715,2.129-1.1,4.385-2,6.573-2.94a38.16,38.16,0,0,1,8.231-2.5,59.111,59.111,0,0,1,26.228,1.4c8.2,2.355,16.723,7.376,18.753,16.3.522,2.3,2.24,2.078,4.325,2.078,6.161-1.4,12.774,0,18.255,3.007,7.978,4.369,10.672,11.955,14.966,19.355,3.811,6.573,9.145,12.065,13.815,18.009,5.94,7.566,10.463,16.11,8.991,26.018a75.363,75.363,0,0,0-1.25,13.585c.143,4.713-2.105,10.051-3.28,14.57-.764,2.924-1.045,6.1-2.188,8.856-2.742,6.6-3.19,13.549-2.877,20.57.02.511.044,1.021.075,1.535a46.186,46.186,0,0,1-.158,5.631,14.448,14.448,0,0,1-.692,3.922c-.4,1.1-1.326,2.8-2.671,3-4.4.649-3.554-12.121-3.621-14.471-.222-7.76-1.595-16.438-6.062-23.007a35.938,35.938,0,0,1-4.693-11.729,54.916,54.916,0,0,1-1.33-13.15c.008-7.048.518-14.163-3.257-20.57-3.451-5.857-10.538-8.445-17.008-8.927-1.551-.119-2.536-.02-4.056-.111-10.463-.629-20.767.091-30.5,4.179a23.992,23.992,0,0,1-9.743,1.753c-8.528-.155-16.6-3.562-24.855-5.295a42.749,42.749,0,0,0-12.034-.776c-4.258.293-8.528.558-12.065,3.28a20.046,20.046,0,0,0-6.6,9.782,38.465,38.465,0,0,0-1.611,8.1c-.344,3.439.649,6.711.364,10.119-.495,5.936-1.587,11.63-4.459,16.9-.744,1.373-1.255,2.841-1.884,4.266a23.813,23.813,0,0,1-2.2,3.4,47.617,47.617,0,0,0-4.717,7.9c-2.659,6.517-.982,13.656-.886,20.439.039,2.774.016,5.789-1.808,8.069-1.884,2.35-4.4,1.7-6.2-.412-1.876-2.2-2.081-4.994-2.556-7.713C738.8,252.961,738.6,251.7,738.427,250.432Z" transform="translate(-590.351 -103.484)" fill="#1e244a"/>
            <path id="Trazado_115841" data-name="Trazado 115841" d="M1103.747,832.359c.02.119.039.242.063.36-.123-.075-.241-.06-.28-.332C1103.6,832.375,1103.676,832.367,1103.747,832.359Z" transform="translate(-834.473 -575.733)" fill="#8cc295"/>
            <path id="Trazado_115842" data-name="Trazado 115842" d="M1086.774,481.729a9.928,9.928,0,0,1-1.686,7.171c-1.516,2.287-4.859,2.584-7.344,1.9a7.3,7.3,0,0,1-3.3-12.228c2.074-2.2,5.588-3.771,8.489-2.236A8.767,8.767,0,0,1,1086.774,481.729Z" transform="translate(-814.251 -344.662)" fill="#2b1a0f"/>
            <path id="Trazado_115843" data-name="Trazado 115843" d="M882.284,1720.726c3.518,2.746,2.038,7.238-.416,10.151-2.437,2.889-7.9.412-9.2-2.49-1.642-3.676.518-8.579,4.784-8.876C879.423,1719.373,880.642,1719.443,882.284,1720.726Z" transform="translate(-684.541 -1150.499)" fill="#37628f"/>
            <path id="Trazado_115844" data-name="Trazado 115844" d="M464.934,1048.977c4.895,15.164-3.13,23.926-5.334,38.112-1.769,11.361,2.481,21.634,2.01,32.726-.3,7.159-4.278,13.289-6.118,20.048a74.531,74.531,0,0,0-1.832,9.216c-4.111,29.608-10.771,59.061-16.569,88.432-1.389,7.036-2.592,14.638-4.408,22.069-2.3,9.426-5.58,18.579-11.452,25.963-13.941,17.527-47.463,24.329-65.163,8.18-10.566-9.644-14.63-24.99-16.07-38.729-3.2-30.458,5.971-63.082,16.173-91.431,3.569-9.917,8.385-19.331,12.018-29.224a115.183,115.183,0,0,0,6.7-28.5,53.088,53.088,0,0,1,5.714-20.027c3.925-7.282,10.712-12.517,13.11-20.661,3.261-11.076,1.163-23.913,12.453-31.06,1.262-.8,2.715-1.2,3.7-2.189.2.958.435,1.912.712,2.861.95,3.249,2.564,6.439,3.186,9.771a12.18,12.18,0,0,0,2.695,6.153,38.633,38.633,0,0,0,10.815,9.45c7.613,4.468,17.641,6.355,25.136.605,5.69-4.36,7.875-10.431,10.115-16.659l.008,0C464.273,1045.032,464.345,1047.149,464.934,1048.977Z" transform="translate(-339.35 -705.019)" fill="#8284d2"/>
            <path id="Trazado_115845" data-name="Trazado 115845" d="M910.729,778.576c0-.249.008-.495.02-.74a143.637,143.637,0,0,0,.02-14.942c-.146-2.489-.388-4.971-.756-7.432-.158-1.045-.495-2.086-.681-3.079-.17-.93.087-2.363-.558-3.13l.459-.8q.89.516,1.793,1.025c.574.732,1.116,1.452,1.63,1.994a74.086,74.086,0,0,0,8.916,8.627c4.943,3.732,10.107,7.479,15.916,9.739a77.212,77.212,0,0,0,21.19,4.958c6.32.507,12.228-1.061,18.334-1.429q.1,1.366.261,2.715c.079.645.178,1.278.289,1.911-.071.008-.146.016-.217.028.039.273.158.257.281.332.285,1.583.629,3.138.922,4.7a27.529,27.529,0,0,1,.57,6.534A30.434,30.434,0,0,1,975.9,801.5a33.885,33.885,0,0,1-17.712,16.406c-1.512.59-3.008,1.266-4.539,1.8a23.541,23.541,0,0,1-8.785,1.183,44.447,44.447,0,0,1-8.876-1.492c-4.717-1.255-8.654-2.545-12.659-5.485A33.363,33.363,0,0,1,910.717,795.7a16.048,16.048,0,0,1-.23-7.859,20.128,20.128,0,0,0,.332-3.977C910.82,782.1,910.7,780.317,910.729,778.576Z" transform="translate(-708.289 -521.372)" fill="#f5b49b"/>
            <path id="Trazado_115846" data-name="Trazado 115846" d="M1084.685,404.092a2.738,2.738,0,0,1-2.034,4.293c-1.978.3-3.91-.566-5.734-1.2-.831-.293-1.725-.637-2.568-.843a14.5,14.5,0,0,0-3.126.04c-3.035-.095-5.718,1.072-8.552,1.975a3.178,3.178,0,0,1-2.477-.111c-2.6-1.5-.566-4.032,1-5.425a10.213,10.213,0,0,1,3.435-2.089,29.555,29.555,0,0,1,5.631-1.678,18.719,18.719,0,0,1,4.887-.186C1078.464,399.232,1082.868,401.147,1084.685,404.092Z" transform="translate(-805.589 -294.812)" fill="#1e244a"/>
            <path id="Trazado_115847" data-name="Trazado 115847" d="M894.208,404.092a2.736,2.736,0,0,1-2.034,4.293c-1.978.3-3.905-.566-5.73-1.2-.831-.293-1.725-.637-2.568-.843a14.546,14.546,0,0,0-3.13.04c-3.035-.095-5.714,1.072-8.552,1.975a3.169,3.169,0,0,1-2.473-.111c-2.6-1.5-.566-4.032,1-5.425a10.173,10.173,0,0,1,3.435-2.089,29.608,29.608,0,0,1,5.628-1.678,18.733,18.733,0,0,1,4.887-.186C887.987,399.232,892.4,401.147,894.208,404.092Z" transform="translate(-682.179 -294.812)" fill="#1e244a"/>
            <path id="Trazado_115848" data-name="Trazado 115848" d="M899.244,481.729a9.932,9.932,0,0,1-1.69,7.171c-1.516,2.287-4.859,2.584-7.345,1.9a7.3,7.3,0,0,1-3.3-12.228c2.077-2.2,5.588-3.771,8.488-2.236A8.772,8.772,0,0,1,899.244,481.729Z" transform="translate(-692.747 -344.662)" fill="#2b1a0f"/>
            <path id="Trazado_115849" data-name="Trazado 115849" d="M784.484,453.937q-.9-.511-1.793-1.025c-3.435-1.971-6.807-4.068-10.111-6.407-6.509-4.61-13.482-9.881-18.286-16.323-2.846-3.811-5.79-7.459-8.766-11.187-2.647-3.316-4.357-7.265-6.921-10.637-2.726-3.593-5.8-4.163-9.584-6.308a31.59,31.59,0,0,1-10.071-8.8,22.52,22.52,0,0,1-2.786-4.068,34.777,34.777,0,0,1-2.007-5.263,17.589,17.589,0,0,1,.459-11.2,9.23,9.23,0,0,1,7.372-5.445c4.2-.42,5.647,2.623,7.831,5.5.174,1.266.368,2.529.59,3.791.475,2.719.681,5.516,2.557,7.713,1.8,2.113,4.313,2.762,6.2.412,1.824-2.279,1.848-5.3,1.809-8.069-.1-6.783-1.773-13.921.886-20.439a47.642,47.642,0,0,1,4.717-7.9,23.811,23.811,0,0,0,2.2-3.4c.629-1.424,1.14-2.893,1.884-4.266,2.873-5.271,3.965-10.965,4.46-16.9.285-3.408-.708-6.68-.364-10.119a38.438,38.438,0,0,1,1.611-8.1,20.047,20.047,0,0,1,6.6-9.782c3.538-2.723,7.808-2.988,12.066-3.28a42.746,42.746,0,0,1,12.034.776c8.259,1.733,16.327,5.14,24.855,5.295a23.994,23.994,0,0,0,9.743-1.753c9.731-4.088,20.035-4.808,30.5-4.179,1.52.091,2.5-.008,4.056.111,6.47.483,13.558,3.07,17.008,8.927,3.775,6.407,3.264,13.522,3.257,20.57a54.926,54.926,0,0,0,1.329,13.15,35.959,35.959,0,0,0,4.693,11.729c4.468,6.569,5.841,15.247,6.063,23.007.067,2.35-.776,15.12,3.621,14.471,1.346-.2,2.271-1.9,2.671-3a14.446,14.446,0,0,0,.693-3.922,46.233,46.233,0,0,0,.158-5.631c-.032-.514-.056-1.025-.075-1.536l.206-.008c3.728-5.576,11.761-2.691,13.977,2.64a18.145,18.145,0,0,1,.47,11.559,36.023,36.023,0,0,1-2.069,5.434,23.52,23.52,0,0,1-2.873,4.2,32.622,32.622,0,0,1-10.4,9.078c-2.936,1.666-6.039,3.007-9.046,4.535l-.214-.095c-3.811,8.7-8.516,17.713-14.353,24.756a200.449,200.449,0,0,1-15.307,15.931,63.727,63.727,0,0,1-5.01,4.317c-8.836,6.878-20.842,12.857-31.123,13.2l-.008.23a50.932,50.932,0,0,1-11.682-1.808,66.3,66.3,0,0,1-13.47-4.978C791.259,457.609,787.84,455.82,784.484,453.937ZM858.808,339.4a2.738,2.738,0,0,0,2.034-4.293c-1.816-2.944-6.221-4.86-9.541-5.224a18.726,18.726,0,0,0-4.887.186,29.568,29.568,0,0,0-5.631,1.678,10.215,10.215,0,0,0-3.435,2.089c-1.563,1.393-3.593,3.93-1,5.425a3.178,3.178,0,0,0,2.477.111c2.834-.9,5.516-2.07,8.552-1.975a14.514,14.514,0,0,1,3.126-.039c.843.206,1.737.55,2.568.843C854.9,338.833,856.83,339.7,858.808,339.4Zm-6.224,30.664a9.927,9.927,0,0,0,1.686-7.171,8.766,8.766,0,0,0-3.842-5.394c-2.9-1.535-6.415.032-8.488,2.236a7.3,7.3,0,0,0,3.3,12.228C847.724,372.647,851.068,372.351,852.584,370.063Zm-17.412,48.915c2.869-2.952,6.7-7.839,4.939-12.184-.977-2.4-3.055-3.569-5.469-4.092-2.624-.57-5.144.5-7.721.835-2.822.368-5.678.225-8.516.356a55.715,55.715,0,0,1-6.5.032c-2.319-.166-4.693-.2-7-.439-2.509-.261-5.5.471-7.059,2.584-1.884,2.548-.558,6.68,1.12,8.951a30.888,30.888,0,0,0,7.982,7.238,22.733,22.733,0,0,0,10.316,3.557C824.183,426.711,830.408,423.874,835.172,418.978ZM791.742,339.4a2.736,2.736,0,0,0,2.034-4.293c-1.812-2.944-6.221-4.86-9.541-5.224a18.739,18.739,0,0,0-4.887.186,29.617,29.617,0,0,0-5.628,1.678,10.17,10.17,0,0,0-3.434,2.089c-1.563,1.393-3.594,3.93-1,5.425a3.169,3.169,0,0,0,2.473.111c2.838-.9,5.517-2.07,8.552-1.975a14.552,14.552,0,0,1,3.13-.039c.843.206,1.737.55,2.568.843C787.836,338.833,789.763,339.7,791.742,339.4Zm-5.188,30.664a9.931,9.931,0,0,0,1.69-7.171A8.771,8.771,0,0,0,784.4,357.5c-2.9-1.535-6.411.032-8.488,2.236a7.3,7.3,0,0,0,3.3,12.228C781.695,372.647,785.039,372.351,786.554,370.063Z" transform="translate(-581.747 -225.826)" fill="#f5b49b"/>
            <path id="Trazado_115850" data-name="Trazado 115850" d="M491.806,356.959c-1.813.766-3.772,2.218-4.12,3.808-.188.859.075,1.775-.152,2.624-.379,1.418-1.915,2.124-3.012,3.1a6.291,6.291,0,0,0-1.656,6.773c.7,1.845,2.3,3.36,2.5,5.324.175,1.665-.622,3.625.5,4.866.954,1.052,2.647.81,3.979,1.3,1.713.631,2.737,2.452,4.4,3.206,2.41,1.093,5.157-.374,7.8-.492a29.23,29.23,0,0,1,4.77.556,6.323,6.323,0,0,0,4.609-.868c1.4-1.064,1.91-2.91,2.951-4.326a21.182,21.182,0,0,1,3.859-3.428,6.53,6.53,0,0,0,2.7-4.251c.176-2.337-1.7-4.29-2.373-6.535a25.153,25.153,0,0,1-.514-4.563c-.154-1.43-.625-3.31-2.109-3.87a23.409,23.409,0,0,0-2.531-.532c-2.651-.678-4.422-3.223-6.947-4.277a8.989,8.989,0,0,0-5.187-.349c-1.625.322-3.272,1.378-4.912,1.405A11.135,11.135,0,0,0,491.806,356.959Z" transform="translate(-432.089 -266.317)" fill="#fff"/>
            <path id="Trazado_115851" data-name="Trazado 115851" d="M1139.453,1270.507c-.684,12.771-12.1,22.015-17.766,33.482-4.946,10.019-5.376,21.583-5.711,32.751" transform="translate(-842.537 -859.615)" fill="none"/>
            <path id="Trazado_115852" data-name="Trazado 115852" d="M936.3,1595.359c-1.248-3.741-1.159-7.529-1.822-11.432-1.593-9.378-2.641-18.841-3.477-28.314-.4-4.522-.156-9.57-1.167-13.989a61.761,61.761,0,0,1-1.25-10.467,231.34,231.34,0,0,0-8.95-51.569c.2,1.209.393,2.423.566,3.645,1.911,13.493,2.9,27.095,3.538,40.7.026.56.053,1.12.078,1.68.316,7,.546,14.013.768,21.017.439,13.779.819,27.309.771,41.127-.031,10.273-.407,20.542-.906,30.8h15c-.231-3.088-.651-6.179-1.076-9.231C937.747,1604.856,937.725,1599.642,936.3,1595.359Z" transform="translate(-715.323 -995.082)" fill="#ededed"/>
            <path id="Trazado_115853" data-name="Trazado 115853" d="M965.892,900.766c-.934-5.781-1.337-11.531-2.77-17.246-2.806-11.179-7.9-22.081-16.636-29.853-3.229-2.873-7.649-4.262-10.8-6.933a27.54,27.54,0,0,1,.57,6.534,30.43,30.43,0,0,1-3.214,11.907,33.883,33.883,0,0,1-17.712,16.406c-1.512.59-3.007,1.266-4.539,1.8A23.541,23.541,0,0,1,902,884.565a44.464,44.464,0,0,1-8.876-1.492c-4.717-1.255-8.654-2.545-12.659-5.485a33.362,33.362,0,0,1-12.616-18.215,16.054,16.054,0,0,1-.23-7.86,20.118,20.118,0,0,0,.332-3.977c-.926.95-2.921,2.066-4.044,3.078-7.1,6.411-10.7,17.36-13.937,26.094-5.967,16.066-7.2,33.225-7.344,50.221a313.4,313.4,0,0,0,3.652,51.772,261.916,261.916,0,0,0,5.793,27.34c5.811,21.526,13.984,41.458,17.657,63.509a231.312,231.312,0,0,1,8.95,51.569,61.769,61.769,0,0,0,1.249,10.467c1.011,4.418.768,9.467,1.167,13.988.836,9.474,1.884,18.936,3.477,28.315.663,3.9.574,7.691,1.822,11.432,1.428,4.283,1.45,9.5,2.073,13.969.425,3.053.846,6.144,1.076,9.232h55.127c.13-14.274.316-28.65-.954-42.8a308.263,308.263,0,0,1-1.389-35.8c.265-9.818-.515-19.77-.182-29.659.368-11.06,2.746-22.061,3.2-33.169a142.472,142.472,0,0,1,3.518-24.4c2.01-9.292,1.884-18.864,4.424-28.132,2.568-9.359,5.291-18.662,7.147-28.246,1.69-8.718,2.73-17.511,4.515-26.185A163.075,163.075,0,0,0,965.892,900.766Z" transform="translate(-665.424 -585.047)" fill="#fffbf2"/>
          </g>
          <g id="Layer_2" data-name="Layer 2" transform="translate(55.4 29.474)">
            <g id="Grupo_82948" data-name="Grupo 82948" transform="translate(190.001 5.545)">
              <path id="Trazado_115854" data-name="Trazado 115854" d="M1037.334,230.665a.989.989,0,0,1-.7-1.684c7.2-7.294,10.513-16.885,12.807-25.305a.989.989,0,0,1,1.909.52c-4.208,15.446-9.089,21.9-13.308,26.175A.987.987,0,0,1,1037.334,230.665Z" transform="translate(-1036.345 -202.946)"/>
            </g>
            <g id="Grupo_82949" data-name="Grupo 82949" transform="translate(205.895 23.345)">
              <path id="Trazado_115855" data-name="Trazado 115855" d="M1082.476,263.8a.99.99,0,0,1-.327-1.923,42.365,42.365,0,0,0,14.027-8.13.989.989,0,1,1,1.306,1.487,44.341,44.341,0,0,1-14.679,8.51A.986.986,0,0,1,1082.476,263.8Z" transform="translate(-1081.486 -253.503)"/>
            </g>
            <g id="Grupo_82950" data-name="Grupo 82950" transform="translate(144.056)">
              <path id="Trazado_115856" data-name="Trazado 115856" d="M923.268,211.256a.99.99,0,0,1-.966-.781c-2.223-10.3-8-18.09-15.844-21.376a.989.989,0,1,1,.764-1.825c8.451,3.54,14.653,11.844,17.014,22.784a.99.99,0,0,1-.968,1.2Z" transform="translate(-905.85 -187.197)"/>
            </g>
            <g id="Grupo_82951" data-name="Grupo 82951" transform="translate(109.534 17.403)">
              <path id="Trazado_115857" data-name="Trazado 115857" d="M826.433,242.812a.984.984,0,0,1-.48-.125c-5.972-3.322-11.7-4.626-17.027-3.877a.989.989,0,0,1-.275-1.96c5.762-.809,11.908.572,18.264,4.108a.989.989,0,0,1-.482,1.854Z" transform="translate(-807.799 -236.626)"/>
            </g>
            <g id="Grupo_82952" data-name="Grupo 82952" transform="translate(174.929 96.85)">
              <path id="Trazado_115858" data-name="Trazado 115858" d="M1001.663,500.657a8.226,8.226,0,0,1-3.286-.75,14.9,14.9,0,0,1-4.539-2.874.989.989,0,1,1,1.377-1.42,13.018,13.018,0,0,0,3.954,2.482,5.684,5.684,0,0,0,3.159.533,8.2,8.2,0,0,0,2.164-.673c.937-.433,3.785-1.749,1.914-7.893-.618-2.029-1.347-4.065-2.052-6.035-.644-1.8-1.31-3.66-1.9-5.525a14.294,14.294,0,0,1-.517-3.14c-.042-.486-.081-.944-.147-1.411a42.285,42.285,0,0,1,.224-10.805.989.989,0,1,1,1.965.234,40.536,40.536,0,0,0-.229,10.3c.073.518.116,1.025.159,1.515a12.559,12.559,0,0,0,.434,2.718c.574,1.828,1.233,3.67,1.871,5.451.713,1.992,1.45,4.051,2.081,6.125,1.961,6.442-.536,9.137-2.975,10.265a10.221,10.221,0,0,1-2.685.831A6.213,6.213,0,0,1,1001.663,500.657Z" transform="translate(-993.537 -462.272)" fill="#ab684d"/>
            </g>
            <g id="Grupo_82953" data-name="Grupo 82953" transform="translate(80.813 120.498)">
              <path id="Trazado_115859" data-name="Trazado 115859" d="M741.081,550.218a.989.989,0,0,1-.885-.546,6.84,6.84,0,0,0-2.514-2.373,7.615,7.615,0,0,1-3.189-3.328,6.216,6.216,0,0,1,.194-4.411,10.764,10.764,0,0,0,.415-1.617,3.263,3.263,0,0,0-.316-1.6c-.1-.288-.214-.587-.3-.917a3.817,3.817,0,0,0-1.163-2.192c-1.576-1.292-2.986-1.93-3.966-1.8a1.931,1.931,0,0,0-1.328.9.989.989,0,1,1-1.617-1.141,3.851,3.851,0,0,1,2.679-1.717c1.578-.212,3.422.535,5.487,2.228a5.74,5.74,0,0,1,1.816,3.2c.069.251.159.5.255.761a5.018,5.018,0,0,1,.415,2.567,12.5,12.5,0,0,1-.483,1.918,4.411,4.411,0,0,0-.246,3.09,5.857,5.857,0,0,0,2.46,2.422,8.561,8.561,0,0,1,3.174,3.126.989.989,0,0,1-.884,1.433Z" transform="translate(-726.227 -529.439)" fill="#ab684d"/>
            </g>
            <g id="Grupo_82954" data-name="Grupo 82954" transform="translate(254.542 121.067)">
              <path id="Trazado_115860" data-name="Trazado 115860" d="M1220.642,552.444a.99.99,0,0,1-.884-1.433,8.811,8.811,0,0,1,3.266-3.215,6.074,6.074,0,0,0,2.552-2.515,4.645,4.645,0,0,0-.253-3.212,12.866,12.866,0,0,1-.5-1.975,5.144,5.144,0,0,1,.426-2.633c.1-.271.192-.528.264-.789a5.894,5.894,0,0,1,1.865-3.287c2.123-1.741,4.021-2.514,5.639-2.293a3.942,3.942,0,0,1,2.744,1.759.989.989,0,0,1-1.617,1.14,2.022,2.022,0,0,0-1.393-.939c-1.02-.137-2.484.523-4.119,1.863a3.966,3.966,0,0,0-1.211,2.279c-.093.34-.2.647-.314.944a3.4,3.4,0,0,0-.328,1.67,11.288,11.288,0,0,0,.43,1.674,6.392,6.392,0,0,1,.2,4.532,7.724,7.724,0,0,1-3.281,3.421,7.085,7.085,0,0,0-2.606,2.463A.989.989,0,0,1,1220.642,552.444Z" transform="translate(-1219.654 -531.056)" fill="#ab684d"/>
            </g>
            <g id="Grupo_82955" data-name="Grupo 82955" transform="translate(62.373 224.614)">
              <path id="Trazado_115861" data-name="Trazado 115861" d="M675.43,857.9a1.564,1.564,0,0,1-.548-.1.345.345,0,0,0-.117-.027.989.989,0,1,1,.155-1.972,2.2,2.2,0,0,1,.544.108,1.006,1.006,0,0,1,.288-.022c2.626.2,4.913-3.078,5.739-5.182a23.845,23.845,0,0,0,1.142-12.039c-.521-3.8-1.2-7.734-3.267-10.4q-.581-.751-1.168-1.52a.989.989,0,0,1,1.571-1.2q.585.765,1.163,1.512c2.364,3.056,3.105,7.28,3.662,11.346a25.792,25.792,0,0,1-1.26,13.031,12.9,12.9,0,0,1-2.8,4.288,6.473,6.473,0,0,1-4.77,2.152A1.767,1.767,0,0,1,675.43,857.9Z" transform="translate(-673.853 -825.151)" fill="#ab684d"/>
            </g>
            <g id="Grupo_82956" data-name="Grupo 82956" transform="translate(28.673 206.491)">
              <path id="Trazado_115862" data-name="Trazado 115862" d="M579.128,779.791a.989.989,0,0,1-.6-1.78,22.436,22.436,0,0,1,11.413-4.331.989.989,0,0,1,.171,1.971,20.429,20.429,0,0,0-10.395,3.941A.986.986,0,0,1,579.128,779.791Z" transform="translate(-578.138 -773.677)" fill="#ab684d"/>
            </g>
            <g id="Grupo_82957" data-name="Grupo 82957" transform="translate(32.496 229.837)">
              <path id="Trazado_115863" data-name="Trazado 115863" d="M606.306,882.548a4.605,4.605,0,0,1-3.5-1.323,2.52,2.52,0,0,0-.466-.25,2.162,2.162,0,0,1-1.52-1.7.99.99,0,0,1,1.952-.3,4.065,4.065,0,0,0,.4.2,3.28,3.28,0,0,1,1.08.694c1.484,1.589,5.669.146,7.5-1.073,5.107-3.408,8.8-11.867,5.575-20.833a14.059,14.059,0,0,0-1.866-3.155c-.285-.4-.579-.815-.851-1.228-4.3-6.551-8.547-10.312-12.625-11.18a30.661,30.661,0,0,0-11.8.335.989.989,0,0,1-.4-1.937,32.65,32.65,0,0,1,12.61-.333c4.67.994,9.207,4.928,13.867,12.029.25.382.522.764.809,1.168a15.462,15.462,0,0,1,2.115,3.632c2.659,7.4,1.341,18.023-6.338,23.148A13.3,13.3,0,0,1,606.306,882.548Z" transform="translate(-588.996 -839.986)" fill="#ab684d"/>
            </g>
            <g id="Grupo_82958" data-name="Grupo 82958" transform="translate(25.181 248.748)">
              <path id="Trazado_115864" data-name="Trazado 115864" d="M579.549,927.854a5.93,5.93,0,0,1-4.746-2.468,8.7,8.7,0,0,1-1.785-4.412,11.257,11.257,0,0,1,.066-1.85,5.07,5.07,0,0,0-.154-2.5,12.419,12.419,0,0,0-3.831-4.173l-.518-.419a.989.989,0,1,1,1.252-1.533l.51.413a14.1,14.1,0,0,1,4.382,4.88,6.67,6.67,0,0,1,.329,3.513,9.758,9.758,0,0,0-.063,1.525,6.758,6.758,0,0,0,1.383,3.355,3.986,3.986,0,0,0,5.754.841c3.63-2.42,5.1-7.485,5.256-11.418a19.393,19.393,0,0,0-.922-6.455c-.726-2.365-2.667-4.332-4.544-6.234l-.451-.458a19.975,19.975,0,0,0-7.23-4.845.989.989,0,1,1,.693-1.853,21.938,21.938,0,0,1,7.95,5.313l.447.454c1.949,1.976,4.159,4.215,5.027,7.043a21.36,21.36,0,0,1,1.008,7.116c-.234,5.725-2.528,10.579-6.136,12.984A6.629,6.629,0,0,1,579.549,927.854Z" transform="translate(-568.219 -893.698)" fill="#ab684d"/>
            </g>
            <g id="Grupo_82959" data-name="Grupo 82959" transform="translate(47.405 267.763)">
              <path id="Trazado_115865" data-name="Trazado 115865" d="M632.329,964.87a.99.99,0,0,1-.947-1.277,35.785,35.785,0,0,1,5.582-11.564c.431-.575.82-1.106,1.2-1.628.56-.764,1.09-1.485,1.72-2.31a.989.989,0,0,1,1.572,1.2c-.619.809-1.143,1.523-1.7,2.279-.387.527-.78,1.063-1.215,1.644a33.905,33.905,0,0,0-5.272,10.952A.991.991,0,0,1,632.329,964.87Z" transform="translate(-631.339 -947.703)" fill="#ab684d"/>
            </g>
            <g id="Grupo_82960" data-name="Grupo 82960" transform="translate(37.125 308.601)">
              <path id="Trazado_115866" data-name="Trazado 115866" d="M603.131,1280.423a1.006,1.006,0,0,1-.23-.027.99.99,0,0,1-.733-1.192c1.16-4.865,2.074-9.812,2.957-14.6.428-2.317.832-4.506,1.263-6.691,1.434-7.267,2.946-14.662,4.408-21.815,4.453-21.782,9.059-44.307,12.152-66.561a74.5,74.5,0,0,1,1.857-9.342,67.569,67.569,0,0,1,2.653-7.418c1.669-4.146,3.245-8.062,3.429-12.408a74.449,74.449,0,0,0-1.193-14.118c-.9-6-1.822-12.2-.808-18.718a76.821,76.821,0,0,1,3.53-13.1c2.678-7.948,4.99-14.812,1.842-24.56-.148-.457-.262-.92-.374-1.367-.325-1.311-.606-2.443-1.558-2.961a.99.99,0,0,1,.946-1.738c1.717.934,2.15,2.681,2.532,4.223.108.434.21.844.336,1.236,3.349,10.369.824,17.865-1.85,25.8a75.241,75.241,0,0,0-3.45,12.768c-.968,6.22-.064,12.271.81,18.121a75.951,75.951,0,0,1,1.213,14.495c-.2,4.685-1.913,8.944-3.57,13.062a66.082,66.082,0,0,0-2.579,7.2,72.546,72.546,0,0,0-1.807,9.094c-3.1,22.317-7.713,44.872-12.173,66.685-1.462,7.149-2.972,14.541-4.405,21.8-.429,2.174-.832,4.357-1.259,6.668-.888,4.809-1.806,9.781-2.978,14.7A.989.989,0,0,1,603.131,1280.423Z" transform="translate(-602.141 -1063.694)" fill="#2e5378"/>
            </g>
            <g id="Grupo_82961" data-name="Grupo 82961" transform="translate(10.823 345.075)">
              <path id="Trazado_115867" data-name="Trazado 115867" d="M552.947,1198.368a.986.986,0,0,1-.7-.291c-8.419-8.449-15.925-17.784-24.605-29.2a.989.989,0,1,1,1.575-1.2c8.632,11.354,16.09,20.632,24.431,29a.989.989,0,0,1-.7,1.688Z" transform="translate(-527.44 -1167.287)" fill="#2e5378"/>
            </g>
            <g id="Grupo_82962" data-name="Grupo 82962" transform="translate(4.559 393.985)">
              <path id="Trazado_115868" data-name="Trazado 115868" d="M525.412,1310.779a48.984,48.984,0,0,1-15.079-2.647.989.989,0,1,1,.607-1.883c8.368,2.7,15.36,3.239,22,1.695a.99.99,0,0,1,.448,1.928A35,35,0,0,1,525.412,1310.779Z" transform="translate(-509.648 -1306.201)" fill="#2e5378"/>
            </g>
            <g id="Grupo_82963" data-name="Grupo 82963" transform="translate(303.757 319.975)">
              <path id="Trazado_115869" data-name="Trazado 115869" d="M1372.683,1371.376h-.009a.989.989,0,0,1-.98-1c.062-6.8-.536-13.814-1.113-20.6-.5-5.893-1.021-11.988-1.1-17.906-.154-10.9-.706-21.988-1.239-32.71-.193-3.862-.391-7.855-.568-11.782-1.049-23.25-2.638-45.362-4.856-67.6-2.338-23.442-4.319-46.373-2.9-69.2,1.026-16.517,4.664-34.147,11.123-53.9a.99.99,0,0,1,1.881.615c-6.406,19.589-10.014,37.058-11.029,53.405-1.409,22.681.565,45.525,2.895,68.881,2.222,22.276,3.813,44.423,4.864,67.709.177,3.923.376,7.914.568,11.773.535,10.739,1.086,21.843,1.241,32.781.083,5.848.6,11.907,1.1,17.766.581,6.831,1.183,13.9,1.12,20.786A.989.989,0,0,1,1372.683,1371.376Z" transform="translate(-1359.436 -1095.997)" fill="#2e5378"/>
            </g>
            <g id="Grupo_82964" data-name="Grupo 82964" transform="translate(346.224 528.616)">
              <path id="Trazado_115870" data-name="Trazado 115870" d="M1481.04,1717.1a.989.989,0,0,1-.638-1.746c10.481-8.832,17.824-17.648,21.825-26.2a.989.989,0,1,1,1.792.838c-4.123,8.815-11.64,17.858-22.342,26.877A.987.987,0,0,1,1481.04,1717.1Z" transform="translate(-1480.051 -1688.584)" fill="#2e5378"/>
            </g>
            <g id="Grupo_82965" data-name="Grupo 82965" transform="translate(7.7 120.295)">
              <path id="Trazado_115871" data-name="Trazado 115871" d="M532.773,536.376a1.117,1.117,0,0,1-.416-.081c-.436-.175-.869-.379-1.287-.576a16.013,16.013,0,0,0-1.766-.748c-3.094-1.015-6.192-2.331-9.189-3.6l-.866-.368a1.113,1.113,0,1,1,.868-2.049l.867.368c2.954,1.255,6.009,2.552,9.013,3.538a17.784,17.784,0,0,1,2.019.848c.409.192.8.374,1.173.526a1.113,1.113,0,0,1-.416,2.145Z" transform="translate(-518.57 -528.862)" fill="#a19086"/>
            </g>
            <g id="Grupo_82966" data-name="Grupo 82966" transform="translate(7.238 115.588)">
              <path id="Trazado_115872" data-name="Trazado 115872" d="M533.516,522.49a2.176,2.176,0,0,1-.744-.163l-.092-.033c-.431-.144-.8-.277-1.119-.409l-.252-.1a10.923,10.923,0,0,0-1.772-.613c-2.94-.693-5.878-1.661-8.719-2.6-.932-.307-1.861-.612-2.785-.908a1.113,1.113,0,0,1,.677-2.12c.931.3,1.866.605,2.8.914,2.8.921,5.688,1.873,8.534,2.544a12.975,12.975,0,0,1,2.107.721l.247.1c.276.113.6.23.981.358l.1.033a1.118,1.118,0,0,1,1.115.747,1.143,1.143,0,0,1-.275,1.2A1.1,1.1,0,0,1,533.516,522.49Zm-1.026-.8h0Z" transform="translate(-517.258 -515.492)" fill="#a19086"/>
            </g>
            <g id="Grupo_82967" data-name="Grupo 82967" transform="translate(7.632 110.63)">
              <path id="Trazado_115873" data-name="Trazado 115873" d="M534.582,509a2.247,2.247,0,0,1-1.233-.473,1.855,1.855,0,0,0-.16-.1,26.764,26.764,0,0,0-5.177-1.788c-.677-.184-1.377-.374-2.069-.583-.486-.147-4.986-1.672-6.9-2.507a1.113,1.113,0,0,1,.89-2.04c1.8.785,6.2,2.279,6.651,2.416.663.2,1.347.386,2.009.566a28.869,28.869,0,0,1,5.6,1.952,3.711,3.711,0,0,1,.4.243l.114.076a1.113,1.113,0,0,1,.338,2.166A1.424,1.424,0,0,1,534.582,509Z" transform="translate(-518.376 -501.412)" fill="#a19086"/>
            </g>
            <g id="Grupo_82968" data-name="Grupo 82968" transform="translate(0 67.679)">
              <path id="Trazado_115874" data-name="Trazado 115874" d="M514.926,422.62h-.008a1.112,1.112,0,0,1-1.1-1.121,32.838,32.838,0,0,1,1.056-6.953c.293-1.3.57-2.521.758-3.749.15-.981.287-1.974.426-2.973a56.836,56.836,0,0,1,2.49-11.775q.153-.417.312-.811a15.031,15.031,0,0,1-2.249-.654,11.4,11.4,0,0,1-4.8-3.244c-.32.315-.659.6-.976.859-.189.157-.377.312-.554.47a8.932,8.932,0,0,1-2.926,1.915,15.019,15.019,0,0,1-2.249.654q.159.394.312.811a56.813,56.813,0,0,1,2.49,11.775c.138,1,.276,1.992.426,2.973.229,1.5.565,3.024.89,4.5a55.647,55.647,0,0,1,1.1,6.077,1.113,1.113,0,1,1-2.213.234,53.828,53.828,0,0,0-1.062-5.833c-.332-1.51-.676-3.071-.916-4.641-.152-.991-.291-1.995-.43-3a55.176,55.176,0,0,0-2.376-11.315q-.271-.742-.564-1.4c-1.819.072-4.044-.025-5.257-1.362a3.394,3.394,0,0,1-.738-2.952,2.6,2.6,0,0,1,1.593-2.248,3.068,3.068,0,0,1,3.016.829,12.336,12.336,0,0,1,2.725,3.432l.078,0a9.506,9.506,0,0,0,2.438-.629,6.939,6.939,0,0,0,2.181-1.475c.2-.176.4-.349.615-.524a9.585,9.585,0,0,0,1.072-.98,12.9,12.9,0,0,1-1.558-4.236c-.359-1.952-.131-4.59,1.7-5.6a1.849,1.849,0,0,1,1.854-.007c1.591.92,1.752,4.1,1.752,4.135a12.528,12.528,0,0,1-1.092,5.646,9.214,9.214,0,0,0,4.214,3.035,9.51,9.51,0,0,0,2.438.629l.078,0a12.343,12.343,0,0,1,2.724-3.431,3.069,3.069,0,0,1,3.017-.829,2.6,2.6,0,0,1,1.593,2.248,3.394,3.394,0,0,1-.739,2.952c-1.212,1.337-3.437,1.435-5.257,1.362q-.292.655-.563,1.4a55.164,55.164,0,0,0-2.375,11.315c-.14,1.009-.279,2.013-.431,3-.2,1.306-.5,2.626-.786,3.9a31.223,31.223,0,0,0-1,6.478A1.112,1.112,0,0,1,514.926,422.62Zm9.885-31.685a1.693,1.693,0,0,0-.776.436,9.452,9.452,0,0,0-1.618,1.831,3.635,3.635,0,0,0,2.387-.64c.077-.085.312-.343.189-1.106a.974.974,0,0,0-.18-.52Zm-25.7.013a1.469,1.469,0,0,0-.156.507c-.122.763.113,1.022.19,1.106a3.634,3.634,0,0,0,2.387.64,9.451,9.451,0,0,0-1.619-1.832A1.422,1.422,0,0,0,499.114,390.949Zm12.371-9.155a4.368,4.368,0,0,0-.377,3.074,10.99,10.99,0,0,0,.578,2.043,11.949,11.949,0,0,0,.309-3.063A6.151,6.151,0,0,0,511.485,381.794Z" transform="translate(-496.699 -379.422)" fill="#a84216"/>
            </g>
            <g id="Grupo_82969" data-name="Grupo 82969" transform="translate(117.878 402.339)">
              <path id="Trazado_115875" data-name="Trazado 115875" d="M848.838,1388.507a.99.99,0,0,1-.978-.845c-1.531-10.4-4.554-20.343-7.31-28.7-.955-2.895-2.107-5.872-3.221-8.752-2.4-6.2-4.884-12.619-5.82-19.152a.989.989,0,0,1,1.959-.281c.9,6.311,3.346,12.618,5.707,18.719,1.123,2.9,2.285,5.9,3.255,8.847,2.782,8.435,5.835,18.48,7.388,29.029a.991.991,0,0,1-.835,1.123A1.1,1.1,0,0,1,848.838,1388.507Z" transform="translate(-831.499 -1329.93)" fill="#2e5378"/>
            </g>
            <g id="Grupo_82970" data-name="Grupo 82970" transform="translate(319.964 293.93)">
              <path id="Trazado_115876" data-name="Trazado 115876" d="M1406.457,1042.167a.989.989,0,0,1-.915-1.363,70.446,70.446,0,0,1,6.094-10.995c1.493-2.349,3.036-4.778,4.324-7.253a.989.989,0,0,1,1.755.914c-1.326,2.55-2.894,5.016-4.41,7.4a69.026,69.026,0,0,0-5.931,10.682A.99.99,0,0,1,1406.457,1042.167Z" transform="translate(-1405.468 -1022.024)" fill="#2e5378"/>
            </g>
          </g>
        </g>
      </g>
    </g>
  </g>
</svg>
