<svg xmlns="http://www.w3.org/2000/svg" xmlns:xlink="http://www.w3.org/1999/xlink" width="190.388" height="239.011" viewBox="0 0 190.388 239.011">
  <defs>
    <clipPath id="clip-path">
      <path id="Trazado_180078" data-name="Trazado 180078" d="M79.351-92.975c1.6,0,21.062-2.713,26.774,7.055,4.448,7.606-5,27.6-1.536,30.808,7.143,6.62,1.536,15,1.536,15s4.538,7.587,5.081,14c.362,4.284-3.846,7.711-1.562,8.712A84.561,84.561,0,1,1,2.767,102.9c-.87-1.474-2.02-.523-3.608,0-2.374.775-5.508-6.791-7.434-8.991-5.3-6.056-5-6.464-5.276-17.139-.011-.43-10.017-16.148-10.017-16.713V37.018s7.5-11,15.294-18.238c1.6-1.482,29.9-23.739,31.81-25.248,1.755-1.387,3.746-2.829,5.8-4.187,2.019-1.334.438-5.525,2.7-6.745,5.21-2.8-5.686-10.439,0-17.854,2.868-3.74-19.985-8.877-13.686-15.5,2.294-2.412,13.353-9.341,25.377-12.11,6.517-1.5,15.755.571,17.911,0,3.6-.955-6.238-20.073-2.954-27.577C61.786-97.517,77.984-92.975,79.351-92.975Z" transform="translate(23.568 65.145)" fill="#6b8dfc"/>
    </clipPath>
    <clipPath id="clip-path-2">
      <rect id="Rectángulo_45440" data-name="Rectángulo 45440" width="177.379" height="244.551" fill="none"/>
    </clipPath>
    <clipPath id="clip-path-3">
      <rect id="Rectángulo_45439" data-name="Rectángulo 45439" width="177.379" height="244.552" fill="none"/>
    </clipPath>
    <clipPath id="clip-path-4">
      <rect id="Rectángulo_45437" data-name="Rectángulo 45437" width="11.698" height="33.206" fill="none"/>
    </clipPath>
    <clipPath id="clip-path-5">
      <rect id="Rectángulo_45438" data-name="Rectángulo 45438" width="6.237" height="2.501" fill="none"/>
    </clipPath>
  </defs>
  <g id="Grupo_174381" data-name="Grupo 174381" transform="translate(-1010.432 -2096.59)">
    <path id="Trazado_184293" data-name="Trazado 184293" d="M84.549,0A84.549,84.549,0,1,1,0,84.549,84.549,84.549,0,0,1,84.549,0Z" transform="translate(1025.138 2166.504)" fill="#a6bbff"/>
    <g id="Grupo_174380" data-name="Grupo 174380" transform="translate(1016.747 2168.656)">
      <g id="Grupo_174380-2" data-name="Grupo 174380" transform="translate(122.625 0)">
        <path id="Trazado_180079" data-name="Trazado 180079" d="M760.093,470.743l-.054.005a.635.635,0,0,1-.67-.6c-.338-5.9,1.551-12.147,5.943-19.672,1.155-1.978,2.406-3.941,3.615-5.839a87.434,87.434,0,0,0,6.669-11.767c6.319-14.482,4.287-31.141,1.151-46.987a.635.635,0,1,1,1.246-.246c3.176,16.048,5.225,32.938-1.233,47.741A88.438,88.438,0,0,1,770,445.322c-1.2,1.888-2.447,3.84-3.589,5.8-4.261,7.3-6.1,13.324-5.772,18.959a.635.635,0,0,1-.544.665" transform="translate(-759.331 -369.602)" fill="#3c3fa7"/>
        <path id="Trazado_180080" data-name="Trazado 180080" d="M825.091,306.081c-.66-1.1-1.662-2.217-2.946-2.189a2.691,2.691,0,0,0-2.213,1.539,5.582,5.582,0,0,0-.478,2.758c.08,2.228,4.269,14.7,7,12.9,1.644-1.085,1.085-5.973.932-7.619a17.444,17.444,0,0,0-2.293-7.388" transform="translate(-807.958 -303.891)" fill="#3c3fa7"/>
        <path id="Trazado_180081" data-name="Trazado 180081" d="M807.107,393.638a5.053,5.053,0,0,0-2.585-.381,2.386,2.386,0,0,0-1.941,1.582,2.424,2.424,0,0,0,.7,2.248,5.75,5.75,0,0,0,2.1,1.246c1.028.4,2.087.709,3.145,1.019l4.609,1.351a.766.766,0,0,0,.229.042.532.532,0,0,0,.445-.592c-.1-1.363-1.691-3.02-2.618-3.917a11.933,11.933,0,0,0-4.09-2.6" transform="translate(-794.262 -376.141)" fill="#3c3fa7"/>
        <path id="Trazado_180082" data-name="Trazado 180082" d="M866.142,383.831a4.247,4.247,0,0,1,2.636-1.8,1.786,1.786,0,0,1,.854.1,1.705,1.705,0,0,1,.792.7,2.845,2.845,0,0,1-.12,2.829,8.379,8.379,0,0,1-2.021,2.156l-3.617,3.042c-.4.336-1.157,1.287-1.565.919a3.571,3.571,0,0,1-.2-1.382c.038-2.255,1.874-4.884,3.24-6.565" transform="translate(-843.109 -367.091)" fill="#3c3fa7"/>
        <path id="Trazado_180083" data-name="Trazado 180083" d="M806.362,446.3a13.32,13.32,0,0,0-4.695-2.446,3,3,0,0,0-2.287.2,2.542,2.542,0,0,0-.478,3.379,7.39,7.39,0,0,0,2.9,2.361l10.187,5.733c.125-4.034-2.562-6.986-5.622-9.225" transform="translate(-791 -416.998)" fill="#3c3fa7"/>
        <path id="Trazado_180084" data-name="Trazado 180084" d="M871.675,434.8a9.506,9.506,0,0,1,3.512-3.014,4.146,4.146,0,0,1,2.415-.384,2.439,2.439,0,0,1,1.87,1.461c.438,1.194-.337,2.473-1.164,3.439a43.884,43.884,0,0,1-9.526,8.185.9.9,0,0,1-.4.173.591.591,0,0,1-.542-.354,1.32,1.32,0,0,1-.091-.673,9.277,9.277,0,0,1,.688-2.071c.232-.766.3-1.554.608-2.32a19.309,19.309,0,0,1,2.632-4.443" transform="translate(-847.022 -406.992)" fill="#3c3fa7"/>
        <path id="Trazado_180085" data-name="Trazado 180085" d="M823.643,512.219a2.254,2.254,0,0,0-1.757-.533,1.7,1.7,0,0,0-1.113,1.732,4.768,4.768,0,0,0,.732,2.079c1.625,2.978,4.074,8.681,7.025,10.41,2.794-4.15-1.392-11.25-4.887-13.688" transform="translate(-809.031 -471.943)" fill="#3c3fa7"/>
        <path id="Trazado_180086" data-name="Trazado 180086" d="M873.965,509.39c2.09-1,4.5-1.77,6.7-1.032a2.426,2.426,0,0,1,1.22.79,2.081,2.081,0,0,1-.153,2.384,5.11,5.11,0,0,1-2.051,1.479,28.454,28.454,0,0,1-5.936,1.916c-.824.182-5.1,1.444-5.626.838-.765-.879,1.091-3,1.577-3.495a14.817,14.817,0,0,1,4.267-2.88" transform="translate(-847.183 -469.045)" fill="#3c3fa7"/>
        <path id="Trazado_180087" data-name="Trazado 180087" d="M802.544,610.928a9.3,9.3,0,0,0-2.633-4.547,3.038,3.038,0,0,0-2.268-.939,2.5,2.5,0,0,0-1.978,2.046,5.906,5.906,0,0,0,.343,2.986,20.078,20.078,0,0,0,4.623,7.728c.37.384.954.774,1.384.459,1.913-1.405,1.005-5.958.528-7.733" transform="translate(-788.659 -547.804)" fill="#3c3fa7"/>
        <path id="Trazado_180088" data-name="Trazado 180088" d="M853.363,604.692a12.581,12.581,0,0,1,5.521-.683,2.5,2.5,0,0,1,2.041,1.284,1.993,1.993,0,0,1-.542,2.051,5.183,5.183,0,0,1-1.932,1.1,130.839,130.839,0,0,1-12.829,3.774c-.024-4.556,3.871-6.38,7.741-7.53" transform="translate(-829.13 -546.577)" fill="#3c3fa7"/>
      </g>
      <path id="Trazado_180089" data-name="Trazado 180089" d="M281.58,383.071a2.992,2.992,0,0,1,2.738.14,2.157,2.157,0,0,1,.742,1.887,4.057,4.057,0,0,1-.79,1.936c-1.991,2.849-5.647,4.3-8.192,6.6-1.783,1.611-1.667-1.186-1.4-2.478a11.026,11.026,0,0,1,2.183-4.747,10.23,10.23,0,0,1,4.723-3.34" transform="translate(-231.558 -352.111)" fill="#3c3fa7"/>
      <path id="Trazado_180111" data-name="Trazado 180111" d="M7.056,11.052a2.992,2.992,0,0,0,2.738-.14,2.157,2.157,0,0,0,.742-1.887,4.057,4.057,0,0,0-.79-1.936C7.755,4.239,4.1,2.786,1.554.487-.229-1.125-.113,1.673.151,2.965A11.026,11.026,0,0,0,2.333,7.712a10.23,10.23,0,0,0,4.723,3.34" transform="matrix(-0.875, -0.485, 0.485, -0.875, 161.022, 94.713)" fill="#3c3fa7"/>
      <path id="Trazado_180090" data-name="Trazado 180090" d="M261.1,385.094a.54.54,0,0,1-.491-.816c5.688-9.495,5.246-20.76,3.873-28.538-1.335-7.565-3.979-14.958-6.536-22.107-.734-2.052-1.493-4.174-2.21-6.269-2.986-8.725-5.934-19.037-5.162-29.37a.54.54,0,0,1,1.076.081c-.758,10.139,2.156,20.319,5.106,28.941.715,2.088,1.472,4.206,2.2,6.255,2.572,7.192,5.232,14.629,6.583,22.283,1.4,7.959,1.849,19.5-4.01,29.28a.539.539,0,0,1-.435.262" transform="translate(-211.394 -280.652)" fill="#3c3fa7"/>
      <path id="Trazado_180112" data-name="Trazado 180112" d="M10.65,0a.54.54,0,0,0-.491.816c5.688,9.495,5.246,20.76,3.873,28.538C12.7,36.92,10.053,44.313,7.5,51.463,6.762,53.514,6,55.636,5.286,57.731,2.3,66.456-.648,76.768.125,87.1A.54.54,0,0,0,1.2,87.021C.443,76.882,3.357,66.7,6.307,58.081c.715-2.088,1.472-4.206,2.2-6.255,2.572-7.192,5.232-14.629,6.583-22.283,1.4-7.959,1.849-19.5-4.01-29.28A.539.539,0,0,0,10.65,0" transform="matrix(-0.875, -0.485, 0.485, -0.875, 134.174, 151.212)" fill="#3c3fa7"/>
      <path id="Trazado_180091" data-name="Trazado 180091" d="M236.464,232.7a5.136,5.136,0,0,1,1.355-2.29,2.3,2.3,0,0,1,2.5-.438,3.019,3.019,0,0,1,1.3,1.936,14.83,14.83,0,0,1-.4,8.2,28.9,28.9,0,0,1-2,5.76c-1.131,2.025-2.029-.9-2.432-2.091a17.339,17.339,0,0,1-.316-11.073" transform="translate(-199.038 -223.926)" fill="#3c3fa7"/>
      <path id="Trazado_180113" data-name="Trazado 180113" d="M.766,13.859a5.135,5.135,0,0,0,1.355,2.29,2.3,2.3,0,0,0,2.5.438,3.019,3.019,0,0,0,1.3-1.936,14.83,14.83,0,0,0-.4-8.2,28.894,28.894,0,0,0-2-5.76C2.383-1.33,1.486,1.6,1.082,2.786A17.339,17.339,0,0,0,.766,13.859" transform="matrix(-0.875, -0.485, 0.485, -0.875, 175.933, 80.82)" fill="#3c3fa7"/>
      <path id="Trazado_180092" data-name="Trazado 180092" d="M264.451,328.684a2.76,2.76,0,0,1,2.708-.077,2.056,2.056,0,0,1,.457,2.479,4.81,4.81,0,0,1-1.909,1.9c-2.267,1.432-4.98,2.359-6.595,4.5-.207.275-.643.571-.821.277a.511.511,0,0,1-.051-.254c-.1-3.374,2.913-7.812,6.212-8.824" transform="translate(-217.917 -306.437)" fill="#3c3fa7"/>
      <path id="Trazado_180114" data-name="Trazado 180114" d="M6.214,9.2a2.76,2.76,0,0,0,2.708.077A2.056,2.056,0,0,0,9.379,6.8,4.81,4.81,0,0,0,7.469,4.9C5.2,3.467,2.489,2.539.875.4.667.124.232-.172.054.122A.511.511,0,0,0,0,.376C-.094,3.75,2.915,8.188,6.214,9.2" transform="matrix(-0.875, -0.485, 0.485, -0.875, 168.457, 86.755)" fill="#3c3fa7"/>
      <path id="Trazado_180093" data-name="Trazado 180093" d="M191.334,337.982a5.782,5.782,0,0,0-2.44-.351,2.8,2.8,0,0,0-2.08,1.2,2.284,2.284,0,0,0,1.04,3.183,4.6,4.6,0,0,0,1.844.191,16.71,16.71,0,0,1,8.221,1.418c.439-1.053-1.885-2.878-2.58-3.442a12.693,12.693,0,0,0-4.007-2.2" transform="translate(-157.848 -314.25)" fill="#3c3fa7"/>
      <path id="Trazado_180115" data-name="Trazado 180115" d="M4.814,5.643a5.782,5.782,0,0,1-2.44.35,2.8,2.8,0,0,1-2.08-1.2A2.284,2.284,0,0,1,1.335,1.61a4.6,4.6,0,0,1,1.844-.191A16.71,16.71,0,0,0,11.4,0c.439,1.053-1.885,2.878-2.58,3.442a12.693,12.693,0,0,1-4.007,2.2" transform="matrix(-0.875, -0.485, 0.485, -0.875, 179.65, 90.591)" fill="#3c3fa7"/>
      <path id="Trazado_180094" data-name="Trazado 180094" d="M197.646,404.523c-1.351-.076-2.89.164-3.669,1.27a1.392,1.392,0,0,0-.29.951c.077.611.688.992,1.248,1.25,3.542,1.635,7.662,1.978,10.9,4.154a.95.95,0,0,0,.562.226c1.959-.13-1.429-4.711-1.944-5.156a11.475,11.475,0,0,0-6.806-2.7" transform="translate(-163.844 -370.286)" fill="#3c3fa7"/>
      <path id="Trazado_180116" data-name="Trazado 180116" d="M3.967,7.853C2.616,7.929,1.077,7.689.3,6.583a1.392,1.392,0,0,1-.29-.951C.085,5.021.7,4.64,1.255,4.382,4.8,2.747,8.918,2.4,12.155.227A.95.95,0,0,1,12.717,0c1.959.13-1.429,4.711-1.944,5.156a11.475,11.475,0,0,1-6.806,2.7" transform="matrix(-0.875, -0.485, 0.485, -0.875, 172.469, 101.148)" fill="#3c3fa7"/>
      <path id="Trazado_180095" data-name="Trazado 180095" d="M306.113,441a6.149,6.149,0,0,1,2.374-.993,2.771,2.771,0,0,1,2.391.716,3.442,3.442,0,0,1,.581,3.036,13.075,13.075,0,0,1-3.586,6.17,32.142,32.142,0,0,1-6.193,5.168c-.481.308-1.115.6-1.589.285a1.44,1.44,0,0,1-.483-.792c-1.742-5.358,2.046-10.77,6.505-13.589" transform="translate(-252.205 -399.989)" fill="#3c3fa7"/>
      <path id="Trazado_180117" data-name="Trazado 180117" d="M6.938,14.519a6.149,6.149,0,0,0,2.374.993A2.771,2.771,0,0,0,11.7,14.8a3.442,3.442,0,0,0,.581-3.036A13.075,13.075,0,0,0,8.7,5.59,32.141,32.141,0,0,0,2.5.423C2.023.114,1.389-.182.915.138A1.44,1.44,0,0,0,.433.929C-1.309,6.287,2.479,11.7,6.938,14.519" transform="matrix(-0.875, -0.485, 0.485, -0.875, 150.966, 104.594)" fill="#3c3fa7"/>
      <path id="Trazado_180096" data-name="Trazado 180096" d="M204.2,483.461a14,14,0,0,0-8.385-1.586c-1.337.187-2.86.819-3.124,2.143a2.487,2.487,0,0,0,.387,1.761,5.059,5.059,0,0,0,3.5,2.083,30.394,30.394,0,0,0,4.188.2,19.769,19.769,0,0,1,9.655,2.949.382.382,0,0,0,.341.082.347.347,0,0,0,.159-.255c.645-2.761-4.691-6.3-6.721-7.375" transform="translate(-162.987 -434.986)" fill="#3c3fa7"/>
      <path id="Trazado_180118" data-name="Trazado 180118" d="M11.547,7.647A14,14,0,0,1,3.161,9.234C1.824,9.047.3,8.415.037,7.091A2.487,2.487,0,0,1,.424,5.33a5.059,5.059,0,0,1,3.5-2.083,30.387,30.387,0,0,1,4.188-.2A19.769,19.769,0,0,0,17.768.1a.382.382,0,0,1,.341-.082.347.347,0,0,1,.159.255c.645,2.761-4.691,6.3-6.721,7.375" transform="matrix(-0.875, -0.485, 0.485, -0.875, 165.811, 113.502)" fill="#3c3fa7"/>
      <path id="Trazado_180097" data-name="Trazado 180097" d="M330.393,543.23a10.647,10.647,0,0,1,4.1-4.525,2.8,2.8,0,0,1,2.5-.363,2.1,2.1,0,0,1,1.088,1.782,4.1,4.1,0,0,1-.544,2.1,16.06,16.06,0,0,1-2.1,2.894l-5.115,6.043a1.349,1.349,0,0,1-.517.434c-.548.205-1.1-.376-1.212-.95-.464-2.359.756-5.353,1.8-7.412" transform="translate(-276.758 -482.238)" fill="#3c3fa7"/>
      <path id="Trazado_180119" data-name="Trazado 180119" d="M1.9,8.4A10.647,10.647,0,0,0,6,12.928a2.8,2.8,0,0,0,2.5.363A2.1,2.1,0,0,0,9.59,11.509a4.1,4.1,0,0,0-.544-2.1,16.056,16.056,0,0,0-2.1-2.894L1.83.476A1.349,1.349,0,0,0,1.314.042C.766-.163.214.418.1.992-.363,3.351.858,6.345,1.9,8.4" transform="matrix(-0.875, -0.485, 0.485, -0.875, 140.08, 114.414)" fill="#3c3fa7"/>
      <path id="Trazado_180098" data-name="Trazado 180098" d="M219.483,569.915a6.668,6.668,0,0,0-3.809.242,4.065,4.065,0,0,0-1.561,5.8c1.237,1.731,3.61,2.15,5.737,2.235,4.693.188,9.761-.467,13.761,1.994-.29-.178-.678-1.9-.872-2.3a7.576,7.576,0,0,0-.758-1.349,15.269,15.269,0,0,0-3.522-3.019,22.278,22.278,0,0,0-8.976-3.609" transform="translate(-180.416 -508.692)" fill="#3c3fa7"/>
      <g id="Grupo_174382" data-name="Grupo 174382" transform="translate(0 46.518)">
        <path id="Trazado_180100" data-name="Trazado 180100" d="M7.056.26A2.992,2.992,0,0,1,9.794.4a2.157,2.157,0,0,1,.742,1.887,4.057,4.057,0,0,1-.79,1.936c-1.991,2.849-5.647,4.3-8.192,6.6C-.229,12.436-.113,9.638.151,8.346A11.026,11.026,0,0,1,2.333,3.6,10.231,10.231,0,0,1,7.056.26" transform="matrix(0.875, -0.485, 0.485, 0.875, 17.567, 21.753)" fill="#3c3fa7"/>
        <path id="Trazado_180101" data-name="Trazado 180101" d="M10.65,87.6a.54.54,0,0,1-.491-.816c5.688-9.495,5.246-20.76,3.873-28.538C12.7,50.681,10.053,43.288,7.5,36.138,6.762,34.086,6,31.965,5.286,29.87,2.3,21.145-.648,10.833.125.5A.54.54,0,0,1,1.2.58C.443,10.719,3.357,20.9,6.307,29.52c.715,2.088,1.472,4.206,2.2,6.255C11.084,42.967,13.744,50.4,15.1,58.058c1.4,7.959,1.849,19.5-4.01,29.28a.539.539,0,0,1-.435.262" transform="matrix(0.875, -0.485, 0.485, 0.875, 7.429, 11.528)" fill="#3c3fa7"/>
        <path id="Trazado_180102" data-name="Trazado 180102" d="M.766,2.931A5.136,5.136,0,0,1,2.121.641,2.3,2.3,0,0,1,4.617.2a3.019,3.019,0,0,1,1.3,1.936,14.83,14.83,0,0,1-.4,8.2,28.894,28.894,0,0,1-2,5.76C2.383,18.12,1.486,15.193,1.082,14A17.339,17.339,0,0,1,.766,2.931" transform="matrix(0.875, -0.485, 0.485, 0.875, 0, 3.069)" fill="#3c3fa7"/>
        <path id="Trazado_180103" data-name="Trazado 180103" d="M6.214.4A2.76,2.76,0,0,1,8.922.328a2.056,2.056,0,0,1,.457,2.479,4.81,4.81,0,0,1-1.909,1.9C5.2,6.138,2.489,7.065.875,9.205c-.207.275-.643.571-.821.277A.511.511,0,0,1,0,9.228C-.094,5.855,2.915,1.417,6.214.4" transform="matrix(0.875, -0.485, 0.485, 0.875, 10.96, 15.289)" fill="#3c3fa7"/>
        <path id="Trazado_180104" data-name="Trazado 180104" d="M4.814.375A5.782,5.782,0,0,0,2.374.024a2.8,2.8,0,0,0-2.08,1.2,2.284,2.284,0,0,0,1.04,3.183A4.6,4.6,0,0,0,3.179,4.6,16.71,16.71,0,0,1,11.4,6.018c.439-1.053-1.885-2.878-2.58-3.442A12.693,12.693,0,0,0,4.814.375" transform="matrix(0.875, -0.485, 0.485, 0.875, 1.506, 22.261)" fill="#3c3fa7"/>
        <path id="Trazado_180105" data-name="Trazado 180105" d="M3.967.013C2.616-.063,1.077.177.3,1.283a1.392,1.392,0,0,0-.29.951c.077.611.688.992,1.248,1.25C4.8,5.119,8.918,5.462,12.155,7.639a.95.95,0,0,0,.562.226c1.959-.13-1.429-4.711-1.944-5.156A11.475,11.475,0,0,0,3.967.013" transform="matrix(0.875, -0.485, 0.485, 0.875, 7.791, 31.202)" fill="#3c3fa7"/>
        <path id="Trazado_180106" data-name="Trazado 180106" d="M6.938,1.026A6.149,6.149,0,0,1,9.312.033,2.771,2.771,0,0,1,11.7.749a3.442,3.442,0,0,1,.581,3.036A13.074,13.074,0,0,1,8.7,9.954,32.141,32.141,0,0,1,2.5,15.122c-.481.308-1.115.6-1.589.285a1.44,1.44,0,0,1-.483-.792C-1.309,9.258,2.479,3.846,6.938,1.026" transform="matrix(0.875, -0.485, 0.485, 0.875, 25.571, 27.932)" fill="#3c3fa7"/>
        <path id="Trazado_180107" data-name="Trazado 180107" d="M11.547,1.7A14,14,0,0,0,3.161.118C1.824.3.3.937.037,2.261A2.487,2.487,0,0,0,.424,4.022,5.059,5.059,0,0,0,3.925,6.1a30.385,30.385,0,0,0,4.188.2,19.769,19.769,0,0,1,9.655,2.95.382.382,0,0,0,.341.082.347.347,0,0,0,.159-.255c.645-2.761-4.691-6.3-6.721-7.375" transform="matrix(0.875, -0.485, 0.485, 0.875, 13.728, 42.256)" fill="#3c3fa7"/>
        <path id="Trazado_180108" data-name="Trazado 180108" d="M1.9,5.058A10.647,10.647,0,0,1,6,.533,2.8,2.8,0,0,1,8.5.17,2.1,2.1,0,0,1,9.59,1.952a4.1,4.1,0,0,1-.544,2.1,16.058,16.058,0,0,1-2.1,2.894L1.83,12.985a1.349,1.349,0,0,1-.517.434c-.548.205-1.1-.376-1.212-.95C-.363,10.11.858,7.116,1.9,5.058" transform="matrix(0.875, -0.485, 0.485, 0.875, 37.467, 39.575)" fill="#3c3fa7"/>
        <path id="Trazado_180109" data-name="Trazado 180109" d="M6.02.16A6.668,6.668,0,0,0,2.211.4,4.065,4.065,0,0,0,.65,6.2c1.237,1.731,3.61,2.15,5.737,2.235,4.693.188,9.761-.467,13.761,1.994-.29-.179-.678-1.9-.872-2.3a7.574,7.574,0,0,0-.758-1.349A15.269,15.269,0,0,0,15,3.769,22.277,22.277,0,0,0,6.02.16" transform="matrix(0.875, -0.485, 0.485, 0.875, 23.614, 53.119)" fill="#3c3fa7"/>
      </g>
      <path id="Trazado_180120" data-name="Trazado 180120" d="M6.02,10.274a6.668,6.668,0,0,1-3.809-.242A4.065,4.065,0,0,1,.65,4.23C1.887,2.5,4.261,2.079,6.387,1.994,11.08,1.807,16.148,2.461,20.148,0c-.29.179-.678,1.9-.872,2.3a7.575,7.575,0,0,1-.758,1.349A15.269,15.269,0,0,1,15,6.665,22.278,22.278,0,0,1,6.02,10.274" transform="matrix(-0.875, -0.485, 0.485, -0.875, 155.401, 125.31)" fill="#3c3fa7"/>
      <path id="Trazado_180099" data-name="Trazado 180099" d="M342.668,624.48a9.888,9.888,0,0,1,2.46-3.56,7.17,7.17,0,0,1,1.948-1.317,1.182,1.182,0,0,1,.794-.125,1.042,1.042,0,0,1,.492.377,3.337,3.337,0,0,1,.371,3.111A9.026,9.026,0,0,1,347,625.717q-2.031,2.462-4.276,4.735a.56.56,0,0,1-.307.2c-.254.031-.409-.268-.476-.515a8.57,8.57,0,0,1,.723-5.652" transform="translate(-287.841 -550.313)" fill="#3c3fa7"/>
      <path id="Trazado_180110" data-name="Trazado 180110" d="M.947,5.032a9.888,9.888,0,0,1,2.46-3.56A7.17,7.17,0,0,1,5.355.154,1.182,1.182,0,0,1,6.149.029a1.042,1.042,0,0,1,.492.377,3.337,3.337,0,0,1,.371,3.111A9.026,9.026,0,0,1,5.283,6.268Q3.252,8.73,1.007,11a.56.56,0,0,1-.307.2c-.254.031-.409-.268-.476-.515A8.57,8.57,0,0,1,.947,5.032" transform="matrix(0.875, -0.485, 0.485, 0.875, 39.27, 95.391)" fill="#3c3fa7"/>
      <path id="Trazado_180121" data-name="Trazado 180121" d="M.947,6.169a9.888,9.888,0,0,0,2.46,3.56,7.171,7.171,0,0,0,1.948,1.317,1.182,1.182,0,0,0,.794.125,1.042,1.042,0,0,0,.492-.377,3.337,3.337,0,0,0,.371-3.111A9.025,9.025,0,0,0,5.283,4.933Q3.252,2.471,1.007.2A.56.56,0,0,0,.7,0C.445-.029.29.27.224.517A8.57,8.57,0,0,0,.947,6.169" transform="matrix(-0.875, -0.485, 0.485, -0.875, 132.896, 122.942)" fill="#3c3fa7"/>
    </g>
    <g id="Enmascarar_grupo_283" data-name="Enmascarar grupo 283" transform="translate(1010.432 2125.855)" clip-path="url(#clip-path)">
      <g id="Grupo_175404" data-name="Grupo 175404" transform="translate(3.213 -27.403)">
        <g id="Grupo_175412" data-name="Grupo 175412" clip-path="url(#clip-path-2)">
          <g id="Grupo_175411" data-name="Grupo 175411" transform="translate(0 0)">
            <g id="Grupo_175410" data-name="Grupo 175410" clip-path="url(#clip-path-3)">
              <path id="Trazado_184315" data-name="Trazado 184315" d="M410.167,1161.617s-24.692,27.127-24.692,72.366l101.486.075s4.649-50.754-17.8-69.29Z" transform="translate(-328.484 -989.876)"/>
              <path id="Trazado_184316" data-name="Trazado 184316" d="M485.168,1232.246h-.338l-101.855-.075v-.369a121.233,121.233,0,0,1,3.87-30.485,118.468,118.468,0,0,1,8.514-22.827,94.324,94.324,0,0,1,12.4-19.3l.118-.13.175.009,59.116,3.157.094.078c5.171,4.27,9.331,10.6,12.363,18.8a97.686,97.686,0,0,1,5.087,23.037,156.517,156.517,0,0,1,.482,27.768Zm-101.453-.814,100.775.074a157.21,157.21,0,0,0-.51-27.3,96.944,96.944,0,0,0-5.047-22.855c-2.968-8.03-7.02-14.222-12.045-18.406l-58.7-3.134a94.612,94.612,0,0,0-12.184,19.03,117.743,117.743,0,0,0-8.453,22.677,120.467,120.467,0,0,0-3.841,29.911" transform="translate(-326.354 -987.694)" fill="#fff"/>
              <path id="Trazado_184317" data-name="Trazado 184317" d="M612.371,437.85s-1.026,31.507,3.785,30.289-3.877,11.731-3.877,11.731L568.6,476.923V439.229Z" transform="translate(-484.531 -373.115)" fill="#ff1300"/>
              <path id="Trazado_184318" data-name="Trazado 184318" d="M853.7,1514.066s-.972,7.8,1.159,10.913,17.836,4.1,24.012,4.1c4.546,0,7.382-.024,7.382,3.2,0,3.536-9.866,2.056-14.952,2.056l-34.8-.378,1.38-19.964Z" transform="translate(-712.827 -1290.154)" fill="#f9b485"/>
              <rect id="Rectángulo_45436" data-name="Rectángulo 45436" width="13.592" height="25.106" transform="translate(99.667 81.66)" fill="#f9b485"/>
              <path id="Trazado_184319" data-name="Trazado 184319" d="M316.07,318.648l10.9-12.115s-.29-15.547.735-20.384,7.49-12.759,9.9-14.868c1.507-1.318,9.621-3.384,14.506,1.322,2.931,2.824,2.286,9.049,1.82,13.768-1.241,12.565-5.562,21.8-11.679,22.085-1.314.062-13.232,18.909-13.232,18.909Z" transform="translate(-269.34 -229.804)" fill="#f9b485"/>
              <path id="Trazado_184320" data-name="Trazado 184320" d="M674.128,566.279c4.961,3.53,11.068-.029,13.592-1.834v-4.929l-7.409.853-6.184.336Z" transform="translate(-574.461 -476.793)"/>
              <path id="Trazado_184321" data-name="Trazado 184321" d="M568.6,327.82c0-11.437,9.63-20.708,21.508-20.708s21.508,9.271,21.508,20.708-9.629,20.708-21.508,20.708S568.6,339.257,568.6,327.82" transform="translate(-484.531 -261.706)" fill="#f9b485"/>
              <path id="Trazado_184322" data-name="Trazado 184322" d="M710.435,474.041a.2.2,0,0,1-.008-.4,8.138,8.138,0,0,0,5.417-2.124,6.16,6.16,0,0,0,1.422-1.958.2.2,0,0,1,.373.145,6.418,6.418,0,0,1-1.5,2.089,8.523,8.523,0,0,1-5.691,2.249h-.009" transform="translate(-605.229 -400.027)"/>
              <path id="Trazado_184323" data-name="Trazado 184323" d="M697,413.141a.2.2,0,0,1-.17-.3l2-3.248a.2.2,0,0,1,.3-.049l3,2.487a.2.2,0,0,1-.255.308l-2.819-2.34-1.88,3.052a.2.2,0,0,1-.171.1" transform="translate(-593.785 -348.951)"/>
              <path id="Trazado_184324" data-name="Trazado 184324" d="M751.151,394.5s3.065-11.391,12.557-3.989c0,0-3.59,8.166-12.557,3.989" transform="translate(-640.096 -330.646)" fill="#fff"/>
              <path id="Trazado_184325" data-name="Trazado 184325" d="M874.46,1501.951s1.039,9.652,3.17,12.766,21.787,4.1,27.962,4.1c4.546,0,7.382-.024,7.382,3.2,0,3.536-9.866,2.056-14.952,2.056l-34.8-.378,1.38-19.965Z" transform="translate(-735.594 -1279.893)" fill="#f9b485"/>
              <path id="Trazado_184326" data-name="Trazado 184326" d="M841.664,1532.6l-.5,7.235,17.427.6c-.979-1.806-1.166-4.737-1.131-7.046Z" transform="translate(-716.801 -1306.007)" fill="#000300"/>
              <path id="Trazado_184327" data-name="Trazado 184327" d="M842.938,428.893s3.165-3.7,5.89.311c3.444,5.064-3.681,9.6-6.73,8.281s.84-8.592.84-8.592" transform="translate(-716.602 -364.158)" fill="#f9b485"/>
              <path id="Trazado_184328" data-name="Trazado 184328" d="M856.839,455.865a.2.2,0,0,1-.161-.319,4.664,4.664,0,0,1,2.826-1.586,9.2,9.2,0,0,1,1.805-.23h0a.2.2,0,0,1,0,.4c-.031,0-3.124.042-4.313,1.654a.2.2,0,0,1-.161.081" transform="translate(-729.988 -386.648)"/>
              <path id="Trazado_184329" data-name="Trazado 184329" d="M551.014,1220.7q-.849,0-1.706-.017a76.67,76.67,0,0,1-17.42-2.167,44.058,44.058,0,0,1-10.87-4.25c-5.307-3.025-7.124-5.958-7.2-6.081a.324.324,0,0,1,.1-.44.309.309,0,0,1,.431.1c.614,1.007,2.872,3.533,7.024,5.889a43.551,43.551,0,0,0,10.711,4.169,76.121,76.121,0,0,0,17.233,2.137,75.06,75.06,0,0,0,17.9-1.687,54.089,54.089,0,0,0,12.148-4.233,32.862,32.862,0,0,0,9.109-6.32.308.308,0,0,1,.442-.025.325.325,0,0,1,.024.452c-.117.133-2.943,3.3-9.264,6.45a54.652,54.652,0,0,1-12.3,4.294,74.438,74.438,0,0,1-16.368,1.725" transform="translate(-437.813 -1029.142)" fill="#fff"/>
              <path id="Trazado_184330" data-name="Trazado 184330" d="M423.43,1277.209q-.589,0-1.188-.033a.32.32,0,0,1,.036-.639,17.54,17.54,0,0,0,11.1-2.973,23.275,23.275,0,0,0,6.806-7.565,38.881,38.881,0,0,0,4.352-11.39.32.32,0,1,1,.63.113,39.578,39.578,0,0,1-4.421,11.587,23.922,23.922,0,0,1-7,7.778,17.972,17.972,0,0,1-10.319,3.122" transform="translate(-359.558 -1068.895)" fill="#fff"/>
              <path id="Trazado_184331" data-name="Trazado 184331" d="M930.3,1282.435a17.536,17.536,0,0,1-11.1-2.973,23.274,23.274,0,0,1-6.806-7.565,38.884,38.884,0,0,1-4.352-11.39.32.32,0,0,0-.63.113,39.576,39.576,0,0,0,4.421,11.587,23.921,23.921,0,0,0,7,7.778,20.79,20.79,0,0,0,11.179,3.122Z" transform="translate(-773.253 -1073.921)" fill="#fff"/>
              <path id="Trazado_184332" data-name="Trazado 184332" d="M730.53,1247.432a.32.32,0,0,1-.32-.32V1204.1a.32.32,0,0,1,.32-.32h8.635a.32.32,0,0,1,.32.32v27.916a.32.32,0,0,1-.64,0v-27.6h-8v42.7a.32.32,0,0,1-.32.32" transform="translate(-622.251 -1025.802)" fill="#fff"/>
              <path id="Trazado_184333" data-name="Trazado 184333" d="M862.321,464.483a.2.2,0,0,1-.156-.074l-1.734-2.148a.2.2,0,0,1,.311-.251l1.734,2.149a.2.2,0,0,1-.155.325" transform="translate(-733.181 -393.639)"/>
              <path id="Trazado_184334" data-name="Trazado 184334" d="M756.247,360.192s4.507-1.523,7.886.652c0,0-5.128-4.841-7.886-.652" transform="translate(-644.439 -305.484)" fill="#ff1300"/>
              <path id="Trazado_184335" data-name="Trazado 184335" d="M113.8,632.7l23.706-6.218a20.92,20.92,0,0,1,25.874,24.064L143.031,764.029l-20.408.9,5.426-52.514s-24.232,6.88-47.277-5.538L64.478,674.243,19.241,685.6a15.329,15.329,0,0,1-17.317-7.765h0a10.26,10.26,0,0,1,4.251-13.8L56.9,636.89a45.116,45.116,0,0,1,23.035-5.3l20.98.813,5.724,6.359Z" transform="translate(-0.643 -533.257)" fill="#3690d1"/>
              <path id="Trazado_184336" data-name="Trazado 184336" d="M679.145,712.909l-15.351-.4s2.347,5.328,7.856,5.508,7.5-5.111,7.5-5.111" transform="translate(-565.654 -607.168)" fill="#7dbcf5"/>
              <path id="Trazado_184337" data-name="Trazado 184337" d="M724.194,650.415l-7.264,9.34,7.618,10.382,10.462-19.309Z" transform="translate(-610.935 -554.253)" fill="#dceaef"/>
              <path id="Trazado_184338" data-name="Trazado 184338" d="M598.35,668.568l7.477-10.028-6.328-9.55-12.948,2.676Z" transform="translate(-499.831 -553.039)" fill="#dceaef"/>
              <path id="Trazado_184339" data-name="Trazado 184339" d="M348.5,272.617l-2.34,1.714-44.53,3.037a2.795,2.795,0,0,1-.381-5.576l44.531-3.037,2.3.989a1.453,1.453,0,0,0,.273,2.88q.077,0,.151-.007" transform="translate(-254.489 -229.02)" fill="#ff1300"/>
              <path id="Trazado_184340" data-name="Trazado 184340" d="M436.585,247.871l.049-1a4.127,4.127,0,0,1,5.232-4.6c3.233.942,8.007,2.274,11.081,2.86a2.945,2.945,0,0,1,2.363,3.285,3.14,3.14,0,0,1-3.275,2.719l-11.029-3.574Z" transform="translate(-372.037 -206.317)" fill="#f9b485"/>
              <path id="Trazado_184341" data-name="Trazado 184341" d="M431.473,292.791c3.877.244,4.847,4.166,5.043,6.962a2.931,2.931,0,0,0,5.855-.276,19.73,19.73,0,0,0-4.923-12.7c-2.92-3.275-6-3.913-8.29-3.763a6.725,6.725,0,0,0-4.89,2.64l-3.176,4.151Z" transform="translate(-358.836 -241.151)" fill="#f9b485"/>
              <path id="Trazado_184342" data-name="Trazado 184342" d="M435.843,338.155q-.1,0-.195-.006a3.211,3.211,0,0,1-2.94-3.226,10.95,10.95,0,0,0-.84-4.5,4.4,4.4,0,0,0-3.579-2.7.2.2,0,1,1,.051-.4,4.773,4.773,0,0,1,3.891,2.932,11.34,11.34,0,0,1,.877,4.67,2.81,2.81,0,0,0,2.565,2.829,2.646,2.646,0,0,0,1.96-.694,2.866,2.866,0,0,0,.936-2.045A20.171,20.171,0,0,0,434.5,321.9c-2.663-3.46-5.639-4.237-7.667-4.28a8.926,8.926,0,0,0-3.792.736.2.2,0,0,1-.178-.358,9.221,9.221,0,0,1,3.979-.778c2.115.045,5.216.85,7.975,4.436a20.567,20.567,0,0,1,4.153,13.364,3.262,3.262,0,0,1-1.067,2.328,3.047,3.047,0,0,1-2.059.8" transform="translate(-360.249 -270.321)"/>
              <path id="Trazado_184343" data-name="Trazado 184343" d="M438.295,301.6a3.177,3.177,0,0,1-3.13-2.977.2.2,0,1,1,.4-.028,2.776,2.776,0,0,0,2.732,2.605h0a2.68,2.68,0,0,0,1.933-.823,2.788,2.788,0,0,0,.788-2.039,19.527,19.527,0,0,0-4.872-12.576c-2.944-3.3-6.045-3.833-8.127-3.7a6.52,6.52,0,0,0-4.744,2.562l-3.176,4.151a.2.2,0,1,1-.317-.243l3.176-4.151a6.92,6.92,0,0,1,5.036-2.718c2.172-.141,5.4.407,8.452,3.829a19.922,19.922,0,0,1,4.973,12.831,3.185,3.185,0,0,1-.9,2.329,3.076,3.076,0,0,1-2.219.944Z" transform="translate(-357.683 -240.003)"/>
              <path id="Trazado_184344" data-name="Trazado 184344" d="M507.4,361.3a20.375,20.375,0,0,0-4.112-13.236Z" transform="translate(-428.875 -296.602)" fill="#f9b485"/>
              <path id="Trazado_184345" data-name="Trazado 184345" d="M435.843,338.155q-.1,0-.195-.006a3.211,3.211,0,0,1-2.94-3.226,10.95,10.95,0,0,0-.84-4.5,4.4,4.4,0,0,0-3.579-2.7.2.2,0,1,1,.051-.4,4.773,4.773,0,0,1,3.891,2.932,11.34,11.34,0,0,1,.877,4.67,2.81,2.81,0,0,0,2.565,2.829,2.646,2.646,0,0,0,1.96-.694,2.866,2.866,0,0,0,.936-2.045A20.171,20.171,0,0,0,434.5,321.9c-2.663-3.46-5.639-4.237-7.667-4.28a8.926,8.926,0,0,0-3.792.736.2.2,0,0,1-.178-.358,9.221,9.221,0,0,1,3.979-.778c2.115.045,5.216.85,7.975,4.436a20.567,20.567,0,0,1,4.153,13.364,3.262,3.262,0,0,1-1.067,2.328,3.047,3.047,0,0,1-2.059.8" transform="translate(-360.249 -270.321)"/>
              <path id="Trazado_184346" data-name="Trazado 184346" d="M405.3,369.135c3.671.457,4.358,4.179,4.376,6.8a2.792,2.792,0,0,0,5.583.088,18.25,18.25,0,0,0-3.916-12.161c-5-6.266-11.151-3.308-11.151-3.308Z" transform="translate(-341.026 -306.656)" fill="#f9b485"/>
              <path id="Trazado_184347" data-name="Trazado 184347" d="M857.249,943.166a.312.312,0,0,1-.047,0,.32.32,0,0,1-.27-.363l7.04-47.566a.32.32,0,1,1,.633.094l-7.039,47.566a.32.32,0,0,1-.316.273" transform="translate(-730.235 -762.643)"/>
              <path id="Trazado_184348" data-name="Trazado 184348" d="M411.323,377.773c-.062,0-.125,0-.187-.006a3.008,3.008,0,0,1-2.81-2.98,9.728,9.728,0,0,0-.8-4.129,4.162,4.162,0,0,0-3.4-2.477.2.2,0,1,1,.049-.4,4.54,4.54,0,0,1,3.713,2.7,10.119,10.119,0,0,1,.838,4.3,2.607,2.607,0,0,0,2.434,2.583,2.594,2.594,0,0,0,2.749-2.5,18.048,18.048,0,0,0-3.873-12.029,9.434,9.434,0,0,0-7.3-3.929,8.775,8.775,0,0,0-3.61.676.2.2,0,1,1-.173-.36,9.08,9.08,0,0,1,3.792-.715,9.82,9.82,0,0,1,7.6,4.079,18.445,18.445,0,0,1,3.96,12.292,2.994,2.994,0,0,1-2.986,2.892" transform="translate(-339.873 -305.504)"/>
              <path id="Trazado_184349" data-name="Trazado 184349" d="M877.395,896.867a.319.319,0,0,1-.246-.115l-3.977-4.78a.32.32,0,1,1,.491-.409l3.978,4.78a.32.32,0,0,1-.246.524" transform="translate(-744.013 -759.649)"/>
              <path id="Trazado_184350" data-name="Trazado 184350" d="M921.313,700.7a.315.315,0,0,1-.134-.03.32.32,0,0,1-.156-.424,47.751,47.751,0,0,1,5.527-8.607,46.727,46.727,0,0,1,6.989-7.132,36.132,36.132,0,0,1,9.9-5.815.32.32,0,0,1,.228.6A35.474,35.474,0,0,0,933.952,685a46.064,46.064,0,0,0-6.89,7.027,47.14,47.14,0,0,0-5.459,8.491.319.319,0,0,1-.29.186" transform="translate(-784.828 -578.333)"/>
              <path id="Trazado_184351" data-name="Trazado 184351" d="M409.661,740.757a.32.32,0,0,1-.317-.28l-1.84-14.5a.32.32,0,1,1,.635-.081l1.84,14.5a.32.32,0,0,1-.277.358l-.041,0" transform="translate(-347.254 -618.336)"/>
              <path id="Trazado_184352" data-name="Trazado 184352" d="M748.442,1243.256a2.838,2.838,0,1,1,2.279-2.782,2.571,2.571,0,0,1-2.279,2.782m0-4.925a2.22,2.22,0,1,0,1.639,2.143,1.945,1.945,0,0,0-1.639-2.143" transform="translate(-635.846 -1054.703)" fill="#fff"/>
              <path id="Trazado_184353" data-name="Trazado 184353" d="M333.03,593.68c.553-.867,1.409-2.2,2.422-3.763l-13.716-6.484-1.746,1.941Z" transform="translate(-272.681 -497.174)"/>
              <path id="Trazado_184354" data-name="Trazado 184354" d="M62.7,592.711,45.743,581.87,3.184,627.219A11.725,11.725,0,0,0,8.829,646.6l9.89-.222Z" transform="translate(0 -495.842)" fill="#3690d1"/>
              <path id="Trazado_184355" data-name="Trazado 184355" d="M604.615,394.5s-3.065-11.391-12.557-3.989c0,0,3.59,8.166,12.557,3.989" transform="translate(-504.524 -330.646)" fill="#fff"/>
              <path id="Trazado_184356" data-name="Trazado 184356" d="M623.858,357.776s-4.443-1.7-7.906.337c0,0,5.317-4.633,7.906-.337" transform="translate(-524.886 -303.324)" fill="#ff1300"/>
              <path id="Trazado_184357" data-name="Trazado 184357" d="M756.644,392.454a4.831,4.831,0,0,0,4.552,3.215c.051,0,.1,0,.154,0a7.866,7.866,0,0,0,1.283-.213,4.834,4.834,0,0,0,2.918-6.706c-4.97-2.266-7.685,1.251-8.907,3.708" transform="translate(-644.777 -330.649)"/>
              <path id="Trazado_184358" data-name="Trazado 184358" d="M609.033,395.655a4.83,4.83,0,0,0,4.4-3.971c-1.456-2.473-4.33-5.279-9.278-2.539a4.832,4.832,0,0,0,1.1,5.1,7.821,7.821,0,0,0,3.775,1.406" transform="translate(-514.572 -330.65)"/>
              <path id="Trazado_184359" data-name="Trazado 184359" d="M615.053,323.447a21.341,21.341,0,0,0-21.026-16.335,21.658,21.658,0,0,0-18.65,10.387l-1.7,3.6q-.27.756-.48,1.538c8.643-11.044,28.514-13.091,28.514-13.091,9.72,3.866,13.513,15.379,13.513,15.379Z" transform="translate(-488.455 -261.706)" fill="#ff1300"/>
              <path id="Trazado_184360" data-name="Trazado 184360" d="M605.848,271.346a2.769,2.769,0,0,0-.623-1.577l-2.352-1.014a2.783,2.783,0,0,0,.383,5.552h.016l2.386-1.748a2.771,2.771,0,0,0,.19-1.212" transform="translate(-511.537 -229.02)" fill="#ffa88a"/>
              <path id="Trazado_184361" data-name="Trazado 184361" d="M900.23,1598.454H880.622l4.008-9.008,15.6,2.506a3.265,3.265,0,0,1,0,6.5" transform="translate(-750.425 -1354.452)" fill="#f9b485"/>
              <path id="Trazado_184362" data-name="Trazado 184362" d="M629.142,276.589l-1.134.83-1.182.866q-.074.007-.151.007a1.455,1.455,0,0,1-.273-2.884l1.5.646Z" transform="translate(-532.784 -234.689)" fill="#ff1300"/>
              <path id="Trazado_184363" data-name="Trazado 184363" d="M325.214,292.844c-.367.027-.744.035-1.15.077a2.712,2.712,0,0,1-2.8-2.8,2.836,2.836,0,0,1,2.8-2.8c.28-.009.542-.025.8-.054A3.086,3.086,0,0,0,323.036,290a3.043,3.043,0,0,0,2.178,2.844" transform="translate(-273.762 -244.787)"/>
              <g id="Grupo_175406" data-name="Grupo 175406" transform="translate(72.023 38.18)" style="mix-blend-mode: overlay;isolation: isolate">
                <g id="Grupo_175405" data-name="Grupo 175405">
                  <g id="Grupo_175404-2" data-name="Grupo 175404" clip-path="url(#clip-path-4)">
                    <path id="Trazado_184364" data-name="Trazado 184364" d="M539.775,380.219c-1.166,0-2.115-1.257-2.115-2.8s.949-2.8,2.115-2.8,2.115,1.257,2.115,2.8-.949,2.8-2.115,2.8m0-5.2c-.946,0-1.715,1.077-1.715,2.4s.769,2.4,1.715,2.4,1.715-1.077,1.715-2.4-.769-2.4-1.715-2.4" transform="translate(-530.192 -357.411)"/>
                    <path id="Trazado_184365" data-name="Trazado 184365" d="M488.7,455.6c-.626,0-1.155-.895-1.155-1.954s.529-1.954,1.155-1.954a.859.859,0,0,1,.633.331q-.017-.275-.043-.56a1.131,1.131,0,0,0-.591-.17c-.872,0-1.554,1.034-1.554,2.354a2.285,2.285,0,0,0,1.249,2.31,2.82,2.82,0,0,0,.346-.357l-.04,0" transform="translate(-487.146 -422.753)"/>
                    <path id="Trazado_184366" data-name="Trazado 184366" d="M511.906,424.281a1.849,1.849,0,0,1,1.715-1.954,1.538,1.538,0,0,1,.774.211q-.009-.225-.024-.457a1.916,1.916,0,0,0-.751-.154,2.247,2.247,0,0,0-2.115,2.354,2.309,2.309,0,0,0,1.7,2.308,2.99,2.99,0,0,0,.388-.355,1.853,1.853,0,0,1-1.688-1.953" transform="translate(-507.905 -397.727)"/>
                    <path id="Trazado_184367" data-name="Trazado 184367" d="M529.3,259.311a3.845,3.845,0,0,1-.48,1.281c-.691,1.31-1.023,1.221-2.479.584a1.781,1.781,0,0,1-.92-1.148,1.743,1.743,0,0,1,.156-1.455,1.426,1.426,0,0,1,.191-.231l-.44-.105c-.03.038-.058.076-.085.116a2.14,2.14,0,0,0-.205,1.788,2.182,2.182,0,0,0,1.143,1.4,4.331,4.331,0,0,0,1.558.485c.538,0,.953-.334,1.435-1.249a5,5,0,0,0,.479-1.193,2.928,2.928,0,0,0-.353-.275" transform="translate(-519.346 -258.237)"/>
                  </g>
                </g>
              </g>
              <path id="Trazado_184368" data-name="Trazado 184368" d="M205.137,727.27a.32.32,0,0,1-.247-.522l27.206-33.2a.32.32,0,1,1,.495.405l-27.206,33.2a.319.319,0,0,1-.247.117" transform="translate(-174.536 -590.911)"/>
              <path id="Trazado_184369" data-name="Trazado 184369" d="M219.282,907.567a.32.32,0,0,1-.3-.211l-1.563-4.308a.32.32,0,0,1,.6-.218l1.563,4.308a.32.32,0,0,1-.3.429" transform="translate(-185.257 -769.17)"/>
              <path id="Trazado_184370" data-name="Trazado 184370" d="M948.611,1600.879a.28.28,0,1,1,0-.56,3.045,3.045,0,0,0,2.635-3.151,2.786,2.786,0,0,0-2.544-2.971.269.269,0,0,1-.046,0l-11.193-1.885a.28.28,0,0,1,.093-.552l11.171,1.881a3.346,3.346,0,0,1,3.079,3.531,3.574,3.574,0,0,1-3.195,3.711" transform="translate(-798.664 -1356.418)" fill="#000300"/>
              <path id="Trazado_184371" data-name="Trazado 184371" d="M1127.035,1619.941a.28.28,0,0,1-.1-.54c.8-.321,1.668-1.1,1.668-1.8a2.308,2.308,0,0,0-1.763-2.537,19.677,19.677,0,0,0-5.239-.387h-.1a.28.28,0,1,1,0-.559h.1a19.935,19.935,0,0,1,5.408.413,2.858,2.858,0,0,1,2.153,3.071c0,.979-1.041,1.923-2.02,2.315a.28.28,0,0,1-.1.02" transform="translate(-955.449 -1375.48)" fill="#000300"/>
              <g id="Grupo_175409" data-name="Grupo 175409" transform="translate(144.95 236.648)" style="mix-blend-mode: overlay;isolation: isolate">
                <g id="Grupo_175408" data-name="Grupo 175408">
                  <g id="Grupo_175407" data-name="Grupo 175407" clip-path="url(#clip-path-5)">
                    <path id="Trazado_184372" data-name="Trazado 184372" d="M981.986,1603.131a1.511,1.511,0,0,1-.884-.293,1.483,1.483,0,0,1-.661-1.486,1.027,1.027,0,0,1,.992-.7,17.681,17.681,0,0,1,5.014.854.28.28,0,0,1-.107.546,6.174,6.174,0,0,0-3.461.8,1.584,1.584,0,0,1-.893.288m-.143-1.941c-.127,0-.247,0-.361.015-.286.025-.454.124-.5.294a.961.961,0,0,0,.446.884.94.94,0,0,0,1.137,0,5.334,5.334,0,0,1,2.054-.787,13.47,13.47,0,0,0-2.775-.4" transform="translate(-980.407 -1600.631)" fill="#000300"/>
                  </g>
                </g>
              </g>
              <path id="Trazado_184373" data-name="Trazado 184373" d="M847.092,1106.957l-4.887,39.915,17.273.88,4.642-44.949Z" transform="translate(-717.688 -939.757)" fill="#3790d1"/>
              <path id="Trazado_184374" data-name="Trazado 184374" d="M571.88,41.762a.424.424,0,0,1-.14-.824,78.763,78.763,0,0,0,8.785-3.873c8.012-4.113,12.247-8,14.389-10.545a16.138,16.138,0,0,0,3.649-9.058,13.949,13.949,0,0,0-1.913-8.62,8.512,8.512,0,0,0-4.093-3.43,9.807,9.807,0,0,0-6.217-.088c-1.588.443-3.919,1.739-6.005,5.4a21.221,21.221,0,0,0-1.851,4.314.424.424,0,0,1-.833-.1c0-.088-.366-8.783-4.74-12.464a7.118,7.118,0,0,0-5.78-1.546,10.266,10.266,0,0,0-7.535,5.413,15.1,15.1,0,0,0-.188,13.454c3.971,8.759,7.05,12.208,7.08,12.242a.424.424,0,1,1-.629.569c-.129-.142-3.2-3.582-7.224-12.461a15.945,15.945,0,0,1,.218-14.215A11.1,11.1,0,0,1,567.014.091a7.932,7.932,0,0,1,6.443,1.738c1.967,1.656,3.413,4.366,4.3,8.055a29.468,29.468,0,0,1,.562,3.069,22.328,22.328,0,0,1,1.269-2.631c1.766-3.108,4.023-5.119,6.525-5.816a10.631,10.631,0,0,1,6.748.112,9.355,9.355,0,0,1,4.5,3.764,14.8,14.8,0,0,1,2.045,9.147,16.994,16.994,0,0,1-3.846,9.537c-2.193,2.6-6.517,6.579-14.661,10.759a79.626,79.626,0,0,1-8.881,3.913.424.424,0,0,1-.14.024" transform="translate(-474.712 0.003)" fill="#ff1300"/>
            </g>
          </g>
        </g>
      </g>
    </g>
  </g>
</svg>
