<svg id="Grupo_175648" data-name="Grupo 175648" xmlns="http://www.w3.org/2000/svg" xmlns:xlink="http://www.w3.org/1999/xlink" width="102.492" height="161.35" viewBox="0 0 102.492 161.35">
  <defs>
    <clipPath id="clip-path">
      <rect id="Rectángulo_45688" data-name="Rectángulo 45688" width="102.492" height="161.35" fill="none"/>
    </clipPath>
  </defs>
  <g id="Grupo_175637" data-name="Grupo 175637" clip-path="url(#clip-path)">
    <path id="Trazado_185875" data-name="Trazado 185875" d="M28.892,135.178c-4.261-4.535-9.43-7.917-14.63-11.2-2.262-1.428-2.584-2.427-.6-4.285,1.825-1.708,4.676-3.588,4.775-5.511.1-1.886-2.766-3.877-4.214-5.905-1.234-1.729-2.329-3.559-3.434-5.375-1-1.648-.349-2.4,1.426-2.781,17.764-3.809,33.858-11.39,48.733-21.7.4-.275.748-.617,1.15-.886,1.522-1.017,2.646-3.206,4.357-3.146,1.751.062,2.042,2.569,3.036,3.95.9,1.255,1.686,1.1,2.558.217,2.114-2.139,3.529-1.438,5.352.667,6.551,7.566,14.379,13.808,21.811,20.459,2.662,2.382,2.641,2.407-.249,4.583l-13.253,9.979c1.751,1.265,3.285,2.359,4.8,3.473a85.124,85.124,0,0,1,15.114,14.389c1.212,1.459,2.137,2.776-.641,3.472-1.641.411-.925,1.223-.383,2.1,2.852,4.593,2.873,4.732-2.331,6.047-2.339.591-2.86,1.285-1.84,3.6.609,1.38,2.422,3.5-.809,4.664-.862.311.2,1.544.445,2.29.831,2.567.531,4.077-2.408,5.291a349.273,349.273,0,0,0-58.917,31.261c-3.814,2.512-4.969,2.262-6.951-1.751-3.214-6.509-6.365-13.049-9.527-19.584-.883-1.825-1.646-3.642.873-4.914,1.015-.513.475-1.293.152-1.987-.612-1.317-1.263-2.618-1.829-3.955-.428-1.014-.751-2.267.35-2.9,2.284-1.321,1.321-2.755.425-4.282-.2-.333-.361-.685-.536-1.031-1.649-3.246-1.648-3.244,1.84-4.671.338-.138.661-.314,1.362-.652-1.732-1.434-3.23-2.748-4.807-3.958-1.459-1.12-1.459-1.973.3-2.65,2.854-1.1,5.291-3.253,8.534-3.358,1.065,1.728-.208,2.457-1.4,3.152-1.138.662-2.543.849-3.7,1.947,7.091,6.014,12.052,13.491,16.716,21.191.968,1.6,1.969,1.57,3.276.472,2.521-2.117,5.185-4.06,7.685-6.2,7.431-6.361,16.3-9.96,25.308-13.32,7.711-2.876,15.454-5.656,23.3-8.152,2.776-.884,2.8-1.072.854-3.083a98.229,98.229,0,0,0-14.541-12.881c-1.8-1.241-3.137-1.259-4.9.1-9.51,7.324-18.895,14.795-27.764,22.9-1.57,1.434-3.339,2.645-4.8,4.209a3.946,3.946,0,0,1-5.489.662,76.619,76.619,0,0,1-14.588-10.939" transform="translate(-4.316 -31.106)"/>
    <path id="Trazado_185876" data-name="Trazado 185876" d="M20.528,40.519A113.068,113.068,0,0,1,1.96,38.861C.069,38.523-.468,37.877.411,35.947c4.331-9.5,3.929-19.163.662-28.867C.715,6.017-.173,4.867.859,3.842c.982-.975,1.993.115,2.925.411,12.616,4.011,25.2,3.353,37.752-.24A14.323,14.323,0,0,0,47.338.8c1.516-1.4,2.291-.877,2.876.819a31.449,31.449,0,0,0,5.825,10.628c4.2,4.813,9.254,7.571,15.875,6.436,2.386-.409,2.206.847,1.476,2.346-1.907,3.914-5.146,6.506-8.857,8.517A91.338,91.338,0,0,1,33.482,39.571a121.547,121.547,0,0,1-12.953.947" transform="translate(0 0)"/>
    <path id="Trazado_185877" data-name="Trazado 185877" d="M67.984,79.483c.636-.065.762.465,1,.844C73.747,87.763,80.262,93.6,86.639,99.538c1.424,1.325,1.322,1.817-.212,2.87-14.9,10.216-30.1,19.839-47.556,25.211-.933.287-1.816,1.14-2.9.07-6.7-6.585-13.895-12.7-19.242-20.54-1.787-2.621-1.721-2.534,1.463-3.416C35.7,98.879,52.1,91.675,66.631,80.57c.461-.353.906-.727,1.353-1.087" transform="translate(-6.501 -33.233)" fill="#fff"/>
    <path id="Trazado_185878" data-name="Trazado 185878" d="M37.485,165.126c3.922,2.116,7.069,5.3,10.754,7.757,6.391,4.258,6.333,4.3,11.943-.77,9.78-8.847,20.064-17.084,30.513-25.119.78-.6,1.425-1.485,2.75-.621a82.787,82.787,0,0,1,19.06,17.087c-6.931,2.411-13.53,4.885-20.242,7.006C77.281,175.2,63.664,182.3,52.045,193c-.93.858-1.723,1.812-2.817-.08-4.907-8.484-10.333-16.588-18.355-23.013,1.959-.909,3.594-1.728,5.279-2.429,1.138-.473,1.793-1.1,1.38-2.405l-.046.05" transform="translate(-12.909 -61.054)" fill="#fff"/>
    <path id="Trazado_185879" data-name="Trazado 185879" d="M78.722,120.671c-.367-1.913-1.9-2.459-3.1-3.358-1.38-1.032-1.555-1.565.066-2.584,4.753-2.988,9.413-6.122,14.086-9.235,3.191-2.126,3.21-2.556.466-5.067a144.244,144.244,0,0,1-13.491-13.61c-.531-.635-1.756-1.247-.326-2.268.984-.7,1.677-1.366,2.851-.031,6.349,7.224,13.712,13.393,20.98,19.64,1.8,1.542,1.306,2.091-.273,3.271-15.593,11.654-31.06,23.47-45.61,36.431-5.09,4.534-5.1,4.527-10.674.607-8.238-5.8-15.618-12.731-24.12-18.178-.24-.154-.675-.433-.644-.521.834-2.35,3-3.6,4.53-5.383,1-1.164,1.5.134,2.025.628,3.513,3.335,7.029,6.669,10.437,10.11a3.163,3.163,0,0,0,3.852.822c10.918-4,21.79-8.1,31.575-14.539,1.342-.883,2.107-.638,3.2.332a41.875,41.875,0,0,0,4.172,2.932" transform="translate(-7.915 -35.019)" fill="#fff"/>
    <path id="Trazado_185880" data-name="Trazado 185880" d="M73.329,200.564c.571-1.8-2.833-2.254-1.127-4.11,1.911-2.08,3.2-.32,4.377,1.1,1.184-1.3-1.92-2.338-.031-3.24,1.944-.928,3.99-2.736,6.112-.514,1.38-.642-1.485-1.609.439-2.2,2.138-.659,4.293-2.572,5.91.914,1.111-1.555-.875-1.785-.326-3.158,6.671-2.311,13.666-4.857,20.748-7.131,2.959-.95,2.262,2.7,4.061,3.538-12.257,3.429-23.139,9.348-34.009,15.254-10.775,5.854-22.257,10.441-32.46,17.751-4.192-6.337-8.084-13.111-11.768-20.009a15.926,15.926,0,0,1-1.337-2.569c-.325-1.034-2.106-2.031-.662-3.15,1.622-1.256,3.09-.99,4.58.861A114.449,114.449,0,0,1,48.662,210.04c1.318,2.368,2.408,2.519,4.324.731,1.765-1.645,3.885-2.909,5.646-4.557,1.479-1.385,2.459-1.513,3.491.375.338.618.7,1.4,1.761,1.487.553-1.941-4.342-3.5-.4-5.71,2.859-1.6,2.39,2.452,4.758,2.142-1.332-2.014-3.586-3.875.241-5.98,3.186-1.752,2.949,1.909,4.846,2.035" transform="translate(-13.673 -76.129)" fill="#fff"/>
    <path id="Trazado_185881" data-name="Trazado 185881" d="M96.242,215.25c.362-.826.454-.934.429-.993-1.475-3.464-1.483-3.484,2.432-4.78,1.468-.486,3.015-.747,4.456-1.295,2.313-.879,3.268.2,4.047,2.226.938,2.439-.78,2.721-2.286,3.363a364.489,364.489,0,0,0-58.052,31.036c-2.108,1.392-2.979,1.215-4.041-1.076-2.888-6.233-6.03-12.348-9-18.545-.394-.824-1.566-2.077-.134-2.724,1.264-.571,1.319,1.06,1.691,1.808q3.941,7.931,7.761,15.922c1.622,3.395,2.581,3.616,5.208,1a141.663,141.663,0,0,1,41.208-28.236c3-1.38,4.855-1.085,6.277,2.295" transform="translate(-13.968 -86.921)" fill="#fff"/>
    <path id="Trazado_185882" data-name="Trazado 185882" d="M46.039,236.045c-4.278-8.908-8.341-17.354-12.384-25.811-.358-.75-1.037-1.733.009-2.309,1.284-.708,1.279.79,1.626,1.369,3.182,5.311,6.264,10.681,9.428,16,1.662,2.8,2.606,2.948,4.909.8a34.138,34.138,0,0,1,8.272-5.316c14.454-7.218,28.559-15.128,43.236-21.906,1.228-.567,2.582-.9,3.742-1.57,2.222-1.289,2.564.309,3.13,1.8.465,1.221.186,1.678-1.172,1.826-9.343,1.018-17.577,5.2-25.767,9.361a136.963,136.963,0,0,0-35.03,25.756" transform="translate(-13.843 -82.305)" fill="#fff"/>
    <path id="Trazado_185883" data-name="Trazado 185883" d="M5.263,9.091c15.6,3.46,30.586,3.849,45.209-3.334,3.957,9.684,9.746,17.607,22.081,17.839-1.279,2.923-3.68,4.531-6.141,5.9C51.559,37.725,35.555,41.168,18.649,40.721A87.442,87.442,0,0,1,6.229,39.46c-.839-.144-1.832-.076-1.254-1.534,3.773-9.507,3.269-19.1.288-28.835" transform="translate(-2.008 -2.407)" fill="#fff"/>
    <path id="Trazado_185884" data-name="Trazado 185884" d="M48.649,142.521a51.261,51.261,0,0,1-15.042-16.539,180.662,180.662,0,0,0,15.042,16.539" transform="translate(-14.053 -52.679)"/>
    <path id="Trazado_185885" data-name="Trazado 185885" d="M64.626,111.847a199.489,199.489,0,0,0,15.061,14.5,47.641,47.641,0,0,1-15.061-14.5" transform="translate(-27.023 -46.768)"/>
    <path id="Trazado_185886" data-name="Trazado 185886" d="M91.146,122.016A49.825,49.825,0,0,1,76.3,107.431c4.713,5.11,9.716,9.914,14.85,14.585" transform="translate(-31.903 -44.922)"/>
    <path id="Trazado_185887" data-name="Trazado 185887" d="M58.3,136.94a34.725,34.725,0,0,1-15.388-16.087A65.068,65.068,0,0,0,58.3,136.94" transform="translate(-17.941 -50.534)"/>
    <path id="Trazado_185888" data-name="Trazado 185888" d="M84.555,101.357c5.175,4.838,10.195,9.847,15.253,14.823a69.883,69.883,0,0,1-15.253-14.823" transform="translate(-35.356 -42.382)"/>
    <path id="Trazado_185889" data-name="Trazado 185889" d="M93.671,97.663a178.022,178.022,0,0,0,13.839,13.962A41.332,41.332,0,0,1,93.671,97.663" transform="translate(-39.168 -40.837)"/>
    <path id="Trazado_185890" data-name="Trazado 185890" d="M51.661,117.574c5.237,4.933,10.52,9.826,16.178,14.3a53.55,53.55,0,0,1-16.178-14.3" transform="translate(-21.602 -49.163)"/>
    <path id="Trazado_185891" data-name="Trazado 185891" d="M46.592,184.795a79.12,79.12,0,0,1,15.7,16.873c-5.2-5.654-10.539-11.18-15.7-16.873" transform="translate(-19.482 -77.271)"/>
    <path id="Trazado_185892" data-name="Trazado 185892" d="M135.677,167.611l-10.889-9.783.7-.8,10.888,9.769-.694.815" transform="translate(-52.18 -65.661)"/>
    <path id="Trazado_185893" data-name="Trazado 185893" d="M116.894,162.754a92.957,92.957,0,0,1,9.387,8.135l-.562.669-9.478-8.083.653-.722" transform="translate(-48.606 -68.055)"/>
    <path id="Trazado_185894" data-name="Trazado 185894" d="M109.135,169.846l7.177,7.9a79.7,79.7,0,0,1-7.657-7.392l.48-.513" transform="translate(-45.434 -71.02)"/>
    <path id="Trazado_185895" data-name="Trazado 185895" d="M95.613,179.559l6.259,6.835-.541.522a25.8,25.8,0,0,1-6.343-6.754l.625-.6" transform="translate(-39.719 -75.082)"/>
    <path id="Trazado_185896" data-name="Trazado 185896" d="M90.374,184.693l6.122,6.454-.823.764-6.148-6.428.85-.79" transform="translate(-37.434 -77.229)"/>
    <path id="Trazado_185897" data-name="Trazado 185897" d="M102.381,174.571a83.443,83.443,0,0,1,7.068,7.463,17.839,17.839,0,0,1-7.068-7.463" transform="translate(-42.81 -72.996)"/>
    <path id="Trazado_185898" data-name="Trazado 185898" d="M132.107,154.022a15.715,15.715,0,0,1,6.546,4.941c-2.73-.935-4.507-3.139-6.546-4.941" transform="translate(-55.24 -64.404)"/>
    <path id="Trazado_185899" data-name="Trazado 185899" d="M81.251,191.894l4.645,5.051-.8.737-4.588-5.054.739-.734" transform="translate(-33.666 -80.24)"/>
    <path id="Trazado_185900" data-name="Trazado 185900" d="M74.382,200.02a8.937,8.937,0,0,1,3.833,4.625,9.735,9.735,0,0,1-3.833-4.625" transform="translate(-31.103 -83.638)"/>
    <path id="Trazado_185901" data-name="Trazado 185901" d="M74.94,173.361a20.223,20.223,0,0,1-8.644-7.373c3,2.318,5.873,4.789,8.644,7.373" transform="translate(-27.721 -69.407)"/>
    <path id="Trazado_185902" data-name="Trazado 185902" d="M75.208,161.42l6.733,5.192-.563.784a45.388,45.388,0,0,1-6.714-5.225l.545-.751" transform="translate(-31.22 -67.497)"/>
    <path id="Trazado_185903" data-name="Trazado 185903" d="M84.48,157.594a43.039,43.039,0,0,1,5.955,5.249l-.655.717L83.9,158.212l.582-.618" transform="translate(-35.082 -65.897)"/>
    <path id="Trazado_185904" data-name="Trazado 185904" d="M93.522,153.524a23.183,23.183,0,0,1,5.536,4.015l-.567.759-5.485-4.169.516-.6" transform="translate(-38.89 -64.195)"/>
    <path id="Trazado_185905" data-name="Trazado 185905" d="M103.795,145.589l5.568,3.66a5.945,5.945,0,0,1-5.568-3.66" transform="translate(-43.401 -60.877)"/>
    <path id="Trazado_185906" data-name="Trazado 185906" d="M128.55,137.692a9.152,9.152,0,0,1-4.978-3.19,7.5,7.5,0,0,1,4.978,3.19" transform="translate(-51.671 -56.241)"/>
    <path id="Trazado_185907" data-name="Trazado 185907" d="M130.255,130.444c1.9-.4,2.812.595,3.254,2.235l-3.254-2.235" transform="translate(-54.466 -54.508)"/>
    <path id="Trazado_185908" data-name="Trazado 185908" d="M130.786,221.936l-2.4-2.667c1.686-.146,2.451.784,2.4,2.667" transform="translate(-53.685 -91.68)"/>
    <path id="Trazado_185909" data-name="Trazado 185909" d="M22.13,44.412a64.316,64.316,0,0,1-1.98-21.377c.77,7.1,1.3,14.229,1.98,21.377" transform="translate(-8.366 -9.632)"/>
    <path id="Trazado_185910" data-name="Trazado 185910" d="M33.839,44.791a57.957,57.957,0,0,1-3.325-21.5c1.094,7.174,2.126,14.356,3.325,21.5" transform="translate(-12.734 -9.739)"/>
    <path id="Trazado_185911" data-name="Trazado 185911" d="M59.028,42.56a63.932,63.932,0,0,1-5.653-20.451c1.951,6.8,3.725,13.646,5.653,20.451" transform="translate(-22.319 -9.245)"/>
    <path id="Trazado_185912" data-name="Trazado 185912" d="M45.587,44.314a57.562,57.562,0,0,1-4.978-20.455c1.62,6.832,3.239,13.661,4.978,20.455" transform="translate(-16.98 -9.977)"/>
    <path id="Trazado_185913" data-name="Trazado 185913" d="M71.5,39.329A40.87,40.87,0,0,1,63.708,20.7,147.245,147.245,0,0,0,71.5,39.329" transform="translate(-26.639 -8.655)"/>
    <path id="Trazado_185914" data-name="Trazado 185914" d="M74.006,17.248A37.281,37.281,0,0,0,85.271,34.375C80.65,33.41,73.9,22.973,74.006,17.248" transform="translate(-30.945 -7.212)"/>
  </g>
</svg>
