<svg xmlns="http://www.w3.org/2000/svg" width="1328" height="1225" viewBox="0 0 1328 1225">
  <g id="Grupo_175350" data-name="Grupo 175350" transform="translate(-136 -1451.266)">
    <path id="Trazado_184292" data-name="Trazado 184292" d="M22,0H1306a22,22,0,0,1,22,22V1203a22,22,0,0,1-22,22H22a22,22,0,0,1-22-22V22A22,22,0,0,1,22,0Z" transform="translate(136 1451.266)" fill="#6b8dfc"/>
    <path id="Rectángulo_45301" data-name="Rectángulo 45301" d="M0,0H1328a0,0,0,0,1,0,0V694a398,398,0,0,1-398,398H398A398,398,0,0,1,0,694V0A0,0,0,0,1,0,0Z" transform="translate(136 1451.266)" fill="#f0f4ff"/>
  </g>
</svg>
