<svg xmlns="http://www.w3.org/2000/svg" width="661" height="535.399" viewBox="0 0 661 535.399">
  <g id="Grupo_175667" data-name="Grupo 175667" transform="translate(-469.333 -618.5)">
    <g id="Trazado_185915" data-name="Trazado 185915" transform="translate(537.333 642.899)" fill="none">
      <path d="M249.5,0C387.3,0,499,111.7,499,249.5S387.3,499,249.5,499,0,387.3,0,249.5,111.7,0,249.5,0Z" stroke="none"/>
      <path d="M 249.5 13 C 119.0934753417969 13 13 119.0934753417969 13 249.5 C 13 379.9065551757812 119.0934753417969 486 249.5 486 C 379.9065551757812 486 486 379.9065551757812 486 249.5 C 486 119.0934753417969 379.9065551757812 13 249.5 13 M 249.5 0 C 387.2950744628906 0 499 111.7049255371094 499 249.5 C 499 387.2950744628906 387.2950744628906 499 249.5 499 C 111.7049255371094 499 0 387.2950744628906 0 249.5 C 0 111.7049255371094 111.7049255371094 0 249.5 0 Z" stroke="none" fill="#3c3fa7"/>
    </g>
    <path id="Trazado_185916" data-name="Trazado 185916" d="M11,0H125a11,11,0,0,1,11,11V44a11,11,0,0,1-11,11H11A11,11,0,0,1,0,44V11A11,11,0,0,1,11,0Z" transform="translate(907.333 694.899)" fill="#6b8dfc"/>
    <path id="Trazado_185917" data-name="Trazado 185917" d="M11,0h91a11,11,0,0,1,11,11V44a11,11,0,0,1-11,11H11A11,11,0,0,1,0,44V11A11,11,0,0,1,11,0Z" transform="translate(970.333 783.899)" fill="#6385f5"/>
    <path id="Trazado_185918" data-name="Trazado 185918" d="M11,0H165a11,11,0,0,1,11,11V55a11,11,0,0,1-11,11H11A11,11,0,0,1,0,55V11A11,11,0,0,1,11,0Z" transform="translate(954.333 885.899)" fill="#a6bbff"/>
    <path id="Trazado_185919" data-name="Trazado 185919" d="M11,0H85A11,11,0,0,1,96,11V44A11,11,0,0,1,85,55H11A11,11,0,0,1,0,44V11A11,11,0,0,1,11,0Z" transform="translate(947.333 996.899)" fill="#a6bbff"/>
    <path id="Trazado_185920" data-name="Trazado 185920" d="M20.148,12.992,19.445,17H17.156L19.133,5.625l3.984.008a3.986,3.986,0,0,1,2.9,1.023,3.174,3.174,0,0,1,.922,2.672A3.592,3.592,0,0,1,25.543,12,5.075,5.075,0,0,1,22.3,13Zm.32-1.9,1.906.016a2.41,2.41,0,0,0,1.531-.477,1.918,1.918,0,0,0,.727-1.289,1.646,1.646,0,0,0-.262-1.3,1.418,1.418,0,0,0-1.121-.516l-2.156-.008Zm11.648,1.742H30.258L29.531,17H27.242L29.219,5.625l3.766.008a4.289,4.289,0,0,1,2.91.891A2.817,2.817,0,0,1,36.8,9a3.574,3.574,0,0,1-2.5,3.258l1.6,4.617V17H33.461Zm-1.531-1.9,1.7.016a2.386,2.386,0,0,0,1.5-.488,1.933,1.933,0,0,0,.707-1.285,1.473,1.473,0,0,0-.242-1.187,1.442,1.442,0,0,0-1.117-.461L31.18,7.523ZM44.734,12.07H40.375l-.531,3.047h5.125L44.641,17H37.227L39.2,5.625h7.4l-.336,1.9h-5.1l-.477,2.711h4.375Zm7.555,1.891q.164-.93-.914-1.422l-1.508-.6q-2.625-1.172-2.492-3.227A2.964,2.964,0,0,1,48,7.023a3.758,3.758,0,0,1,1.6-1.152,5.67,5.67,0,0,1,2.227-.4,3.857,3.857,0,0,1,2.664.98,3.267,3.267,0,0,1,1,2.543H53.211a1.628,1.628,0,0,0-.34-1.2A1.531,1.531,0,0,0,51.7,7.344a2.37,2.37,0,0,0-1.359.355,1.458,1.458,0,0,0-.687,1.02q-.148.852,1.141,1.352l1.031.391.594.273q2.3,1.141,2.156,3.2a3.09,3.09,0,0,1-.645,1.738A3.633,3.633,0,0,1,52.363,16.8a5.565,5.565,0,0,1-2.176.367,4.873,4.873,0,0,1-2.156-.508,3.349,3.349,0,0,1-1.437-1.367,3.54,3.54,0,0,1-.43-1.875l2.289.008q-.109,1.852,1.82,1.883a2.392,2.392,0,0,0,1.375-.367A1.43,1.43,0,0,0,52.289,13.961ZM63.156,12.07H58.8l-.531,3.047h5.125L63.063,17H55.648L57.625,5.625h7.4l-.336,1.9h-5.1l-.477,2.711h4.375ZM73.445,17H71.227L68.063,9.414,66.742,17H64.453L66.43,5.625h2.211l3.172,7.6,1.32-7.6h2.281ZM85.453,7.523H82.078L80.438,17H78.148l1.641-9.477H76.453l.336-1.9h9ZM11.238,37.2a4.254,4.254,0,0,1-.8,2.09,4.375,4.375,0,0,1-1.75,1.4,5.329,5.329,0,0,1-2.328.465,3.936,3.936,0,0,1-1.961-.52A3.443,3.443,0,0,1,3.078,39.2a5.312,5.312,0,0,1-.543-2.168,10.634,10.634,0,0,1,.2-2.391A7.578,7.578,0,0,1,3.641,32.1a5.666,5.666,0,0,1,1.551-1.758,4.679,4.679,0,0,1,2.891-.875,3.839,3.839,0,0,1,2.8,1.09A4.384,4.384,0,0,1,12.02,33.5l-2.281-.008a2.391,2.391,0,0,0-.43-1.578,1.752,1.752,0,0,0-1.336-.531,2.319,2.319,0,0,0-1.926.836,5.027,5.027,0,0,0-1.012,2.555,14.155,14.155,0,0,0-.219,2.445,2.434,2.434,0,0,0,.461,1.52,1.543,1.543,0,0,0,1.18.512,2.356,2.356,0,0,0,1.676-.5,2.625,2.625,0,0,0,.832-1.535Zm5.531,3.953a4.008,4.008,0,0,1-2-.535,3.612,3.612,0,0,1-1.367-1.477,5.468,5.468,0,0,1-.582-2.215A8.9,8.9,0,0,1,13.1,34.2a7.3,7.3,0,0,1,1.156-2.555,5.256,5.256,0,0,1,1.871-1.648,4.844,4.844,0,0,1,2.324-.523,3.966,3.966,0,0,1,2.008.543A3.587,3.587,0,0,1,21.809,31.5a5.532,5.532,0,0,1,.563,2.207,9.188,9.188,0,0,1-.3,2.828,7.177,7.177,0,0,1-1.164,2.516,5.216,5.216,0,0,1-1.848,1.594A4.83,4.83,0,0,1,16.77,41.156ZM20.012,35l.063-.742a3.626,3.626,0,0,0-.371-2.109,1.567,1.567,0,0,0-1.363-.75,2.473,2.473,0,0,0-2.27,1.266,7.455,7.455,0,0,0-.949,3.672,3.762,3.762,0,0,0,.367,2.129,1.563,1.563,0,0,0,1.383.777,2.345,2.345,0,0,0,2.031-.957,5.79,5.79,0,0,0,1.055-2.863Zm11.977,6H29.77l-3.164-7.586L25.285,41H23l1.977-11.375h2.211l3.172,7.6,1.32-7.6h2.281ZM44,31.523H40.621L38.98,41H36.691l1.641-9.477H35l.336-1.9h9ZM46.152,41H43.863l1.969-11.375h2.289Zm11.156,0H55.09l-3.164-7.586L50.605,41H48.316l1.977-11.375H52.5l3.172,7.6,1.32-7.6h2.281ZM69.73,29.625l-1.281,7.5A4.571,4.571,0,0,1,66.887,40.1a4.7,4.7,0,0,1-3.219,1.063,4.335,4.335,0,0,1-2.09-.527,3.077,3.077,0,0,1-1.309-1.422,3.855,3.855,0,0,1-.289-2.082l1.273-7.508h2.289L62.27,37.141a3.339,3.339,0,0,0-.008.82,1.385,1.385,0,0,0,1.508,1.313,2.154,2.154,0,0,0,1.586-.531,2.721,2.721,0,0,0,.8-1.609l1.281-7.508Zm4.492,11.531a4.008,4.008,0,0,1-2-.535,3.612,3.612,0,0,1-1.367-1.477,5.468,5.468,0,0,1-.582-2.215,8.9,8.9,0,0,1,.273-2.734,7.3,7.3,0,0,1,1.156-2.555,5.256,5.256,0,0,1,1.871-1.648,4.844,4.844,0,0,1,2.324-.523,3.966,3.966,0,0,1,2.008.543A3.587,3.587,0,0,1,79.262,31.5a5.532,5.532,0,0,1,.563,2.207,9.188,9.188,0,0,1-.3,2.828,7.177,7.177,0,0,1-1.164,2.516,5.216,5.216,0,0,1-1.848,1.594A4.83,4.83,0,0,1,74.223,41.156ZM77.465,35l.063-.742a3.626,3.626,0,0,0-.371-2.109,1.567,1.567,0,0,0-1.363-.75,2.473,2.473,0,0,0-2.27,1.266,7.455,7.455,0,0,0-.949,3.672,3.762,3.762,0,0,0,.367,2.129,1.563,1.563,0,0,0,1.383.777,2.345,2.345,0,0,0,2.031-.957,5.79,5.79,0,0,0,1.055-2.863Zm13.359-5.375-1.281,7.5A4.571,4.571,0,0,1,87.98,40.1a4.7,4.7,0,0,1-3.219,1.063,4.335,4.335,0,0,1-2.09-.527,3.077,3.077,0,0,1-1.309-1.422,3.855,3.855,0,0,1-.289-2.082l1.273-7.508h2.289l-1.273,7.516a3.339,3.339,0,0,0-.008.82,1.385,1.385,0,0,0,1.508,1.313,2.154,2.154,0,0,0,1.586-.531,2.721,2.721,0,0,0,.8-1.609l1.281-7.508ZM97,37.961q.164-.93-.914-1.422l-1.508-.6q-2.625-1.172-2.492-3.227a2.964,2.964,0,0,1,.625-1.687,3.758,3.758,0,0,1,1.6-1.152,5.67,5.67,0,0,1,2.227-.4,3.857,3.857,0,0,1,2.664.98,3.267,3.267,0,0,1,1,2.543H97.926a1.628,1.628,0,0,0-.34-1.2,1.531,1.531,0,0,0-1.176-.445,2.37,2.37,0,0,0-1.359.355,1.458,1.458,0,0,0-.687,1.02q-.148.852,1.141,1.352l1.031.391.594.273q2.3,1.141,2.156,3.2a3.09,3.09,0,0,1-.645,1.738A3.633,3.633,0,0,1,97.078,40.8a5.565,5.565,0,0,1-2.176.367,4.873,4.873,0,0,1-2.156-.508,3.349,3.349,0,0,1-1.437-1.367,3.54,3.54,0,0,1-.43-1.875l2.289.008q-.109,1.852,1.82,1.883a2.392,2.392,0,0,0,1.375-.367A1.43,1.43,0,0,0,97,37.961Z" transform="translate(924.333 700.899)" fill="#12263f"/>
    <path id="Trazado_185921" data-name="Trazado 185921" d="M8.648,12.992,7.945,17H5.656L7.633,5.625l3.984.008a3.986,3.986,0,0,1,2.9,1.023,3.174,3.174,0,0,1,.922,2.672A3.592,3.592,0,0,1,14.043,12,5.075,5.075,0,0,1,10.8,13Zm.32-1.9,1.906.016a2.41,2.41,0,0,0,1.531-.477,1.918,1.918,0,0,0,.727-1.289,1.646,1.646,0,0,0-.262-1.3,1.418,1.418,0,0,0-1.121-.516L9.594,7.523Zm11.648,1.742H18.758L18.031,17H15.742L17.719,5.625l3.766.008a4.289,4.289,0,0,1,2.91.891A2.817,2.817,0,0,1,25.3,9a3.574,3.574,0,0,1-2.5,3.258l1.6,4.617V17H21.961Zm-1.531-1.9,1.7.016a2.386,2.386,0,0,0,1.5-.488,1.933,1.933,0,0,0,.707-1.285,1.473,1.473,0,0,0-.242-1.187,1.442,1.442,0,0,0-1.117-.461L19.68,7.523ZM33.234,12.07H28.875l-.531,3.047h5.125L33.141,17H25.727L27.7,5.625h7.4l-.336,1.9h-5.1l-.477,2.711h4.375Zm7.555,1.891q.164-.93-.914-1.422l-1.508-.6q-2.625-1.172-2.492-3.227A2.964,2.964,0,0,1,36.5,7.023a3.758,3.758,0,0,1,1.6-1.152,5.67,5.67,0,0,1,2.227-.4,3.857,3.857,0,0,1,2.664.98,3.267,3.267,0,0,1,1,2.543H41.711a1.628,1.628,0,0,0-.34-1.2A1.531,1.531,0,0,0,40.2,7.344a2.37,2.37,0,0,0-1.359.355,1.458,1.458,0,0,0-.687,1.02Q38,9.57,39.289,10.07l1.031.391.594.273q2.3,1.141,2.156,3.2a3.09,3.09,0,0,1-.645,1.738A3.633,3.633,0,0,1,40.863,16.8a5.565,5.565,0,0,1-2.176.367,4.873,4.873,0,0,1-2.156-.508,3.349,3.349,0,0,1-1.437-1.367,3.54,3.54,0,0,1-.43-1.875l2.289.008q-.109,1.852,1.82,1.883a2.392,2.392,0,0,0,1.375-.367A1.43,1.43,0,0,0,40.789,13.961ZM51.656,12.07H47.3l-.531,3.047h5.125L51.563,17H44.148L46.125,5.625h7.4l-.336,1.9h-5.1l-.477,2.711h4.375ZM61.945,17H59.727L56.563,9.414,55.242,17H52.953L54.93,5.625h2.211l3.172,7.6,1.32-7.6h2.281ZM73.953,7.523H70.578L68.938,17H66.648l1.641-9.477H64.953l.336-1.9h9ZM9.684,36.992,8.98,41H6.691L8.668,29.625l3.984.008a3.986,3.986,0,0,1,2.9,1.023,3.174,3.174,0,0,1,.922,2.672A3.592,3.592,0,0,1,15.078,36a5.075,5.075,0,0,1-3.238,1Zm.32-1.9,1.906.016a2.41,2.41,0,0,0,1.531-.477,1.918,1.918,0,0,0,.727-1.289,1.646,1.646,0,0,0-.262-1.3,1.418,1.418,0,0,0-1.121-.516l-2.156-.008Zm14.281.977H19.926l-.531,3.047H24.52L24.191,41H16.777l1.977-11.375h7.4l-.336,1.9h-5.1l-.477,2.711h4.375Zm6.172.766H28.6L27.871,41H25.582l1.977-11.375,3.766.008a4.289,4.289,0,0,1,2.91.891,2.817,2.817,0,0,1,.9,2.477,3.574,3.574,0,0,1-2.5,3.258l1.6,4.617V41H31.8Zm-1.531-1.9,1.7.016a2.386,2.386,0,0,0,1.5-.488,1.933,1.933,0,0,0,.707-1.285,1.473,1.473,0,0,0-.242-1.187,1.442,1.442,0,0,0-1.117-.461l-1.953-.008Zm14.1,1.414H38.668L37.855,41H35.566l1.977-11.375h7.2l-.336,1.9H39.5l-.516,2.938h4.375Zm8.625-.281H47.293l-.531,3.047h5.125L51.559,41H44.145l1.977-11.375h7.4l-.336,1.9h-5.1l-.477,2.711H51.98ZM62.223,37.2a4.254,4.254,0,0,1-.8,2.09,4.375,4.375,0,0,1-1.75,1.4,5.329,5.329,0,0,1-2.328.465,3.936,3.936,0,0,1-1.961-.52A3.443,3.443,0,0,1,54.063,39.2a5.312,5.312,0,0,1-.543-2.168,10.634,10.634,0,0,1,.2-2.391,7.578,7.578,0,0,1,.906-2.539,5.666,5.666,0,0,1,1.551-1.758,4.679,4.679,0,0,1,2.891-.875,3.839,3.839,0,0,1,2.8,1.09A4.384,4.384,0,0,1,63,33.5l-2.281-.008a2.391,2.391,0,0,0-.43-1.578,1.752,1.752,0,0,0-1.336-.531,2.319,2.319,0,0,0-1.926.836,5.027,5.027,0,0,0-1.012,2.555,14.155,14.155,0,0,0-.219,2.445,2.434,2.434,0,0,0,.461,1.52,1.543,1.543,0,0,0,1.18.512,2.356,2.356,0,0,0,1.676-.5,2.625,2.625,0,0,0,.832-1.535Zm10.7-5.68H69.543L67.9,41H65.613l1.641-9.477H63.918l.336-1.9h9Z" transform="translate(987.333 789.899)" fill="#12263f"/>
    <path id="Trazado_185922" data-name="Trazado 185922" d="M5.438,12.992,4.734,17H2.445L4.422,5.625l3.984.008a3.986,3.986,0,0,1,2.9,1.023,3.174,3.174,0,0,1,.922,2.672A3.592,3.592,0,0,1,10.832,12a5.075,5.075,0,0,1-3.238,1Zm.32-1.9,1.906.016A2.41,2.41,0,0,0,9.2,10.633a1.918,1.918,0,0,0,.727-1.289,1.646,1.646,0,0,0-.262-1.3,1.418,1.418,0,0,0-1.121-.516L6.383,7.523Zm11.648,1.742H15.547L14.82,17H12.531L14.508,5.625l3.766.008a4.289,4.289,0,0,1,2.91.891A2.817,2.817,0,0,1,22.086,9a3.574,3.574,0,0,1-2.5,3.258l1.6,4.617V17H18.75Zm-1.531-1.9,1.7.016a2.386,2.386,0,0,0,1.5-.488,1.933,1.933,0,0,0,.707-1.285,1.473,1.473,0,0,0-.242-1.187,1.442,1.442,0,0,0-1.117-.461l-1.953-.008ZM30.023,12.07H25.664l-.531,3.047h5.125L29.93,17H22.516L24.492,5.625h7.4l-.336,1.9h-5.1l-.477,2.711h4.375Zm7.555,1.891q.164-.93-.914-1.422l-1.508-.6q-2.625-1.172-2.492-3.227a2.964,2.964,0,0,1,.625-1.687,3.758,3.758,0,0,1,1.6-1.152,5.67,5.67,0,0,1,2.227-.4,3.857,3.857,0,0,1,2.664.98,3.267,3.267,0,0,1,1,2.543H38.5a1.628,1.628,0,0,0-.34-1.2,1.531,1.531,0,0,0-1.176-.445,2.37,2.37,0,0,0-1.359.355,1.458,1.458,0,0,0-.687,1.02q-.148.852,1.141,1.352l1.031.391.594.273q2.3,1.141,2.156,3.2a3.09,3.09,0,0,1-.645,1.738A3.633,3.633,0,0,1,37.652,16.8a5.565,5.565,0,0,1-2.176.367,4.873,4.873,0,0,1-2.156-.508,3.349,3.349,0,0,1-1.437-1.367,3.54,3.54,0,0,1-.43-1.875l2.289.008q-.109,1.852,1.82,1.883a2.392,2.392,0,0,0,1.375-.367A1.43,1.43,0,0,0,37.578,13.961ZM48.445,12.07H44.086l-.531,3.047H48.68L48.352,17H40.938L42.914,5.625h7.4l-.336,1.9h-5.1L44.4,10.234h4.375ZM58.734,17H56.516L53.352,9.414,52.031,17H49.742L51.719,5.625H53.93l3.172,7.6,1.32-7.6H60.7ZM70.742,7.523H67.367L65.727,17H63.438l1.641-9.477H61.742l.336-1.9h9Zm6.188,5.469L76.227,17H73.938L75.914,5.625l3.984.008a3.986,3.986,0,0,1,2.9,1.023,3.174,3.174,0,0,1,.922,2.672A3.592,3.592,0,0,1,82.324,12a5.075,5.075,0,0,1-3.238,1Zm.32-1.9,1.906.016a2.41,2.41,0,0,0,1.531-.477,1.918,1.918,0,0,0,.727-1.289,1.646,1.646,0,0,0-.262-1.3,1.418,1.418,0,0,0-1.121-.516l-2.156-.008Zm14.281.977H87.172l-.531,3.047h5.125L91.438,17H84.023L86,5.625h7.4l-.336,1.9h-5.1l-.477,2.711h4.375Zm6.172.766H95.844L95.117,17H92.828L94.8,5.625l3.766.008a4.289,4.289,0,0,1,2.91.891,2.817,2.817,0,0,1,.9,2.477,3.574,3.574,0,0,1-2.5,3.258l1.6,4.617V17H99.047Zm-1.531-1.9,1.7.016a2.386,2.386,0,0,0,1.5-.488,1.933,1.933,0,0,0,.707-1.285,1.473,1.473,0,0,0-.242-1.187,1.442,1.442,0,0,0-1.117-.461l-1.953-.008Zm14.1,1.414h-4.359L105.1,17h-2.289l1.977-11.375h7.2l-.336,1.9H106.75l-.516,2.938h4.375Zm8.625-.281h-4.359l-.531,3.047h5.125L118.8,17h-7.414l1.977-11.375h7.4l-.336,1.9h-5.1l-.477,2.711h4.375Zm10.57,1.133a4.254,4.254,0,0,1-.8,2.09,4.375,4.375,0,0,1-1.75,1.4,5.329,5.329,0,0,1-2.328.465,3.936,3.936,0,0,1-1.961-.52,3.443,3.443,0,0,1-1.316-1.437,5.312,5.312,0,0,1-.543-2.168,10.634,10.634,0,0,1,.2-2.391,7.578,7.578,0,0,1,.906-2.539,5.666,5.666,0,0,1,1.551-1.758,4.679,4.679,0,0,1,2.891-.875,3.839,3.839,0,0,1,2.8,1.09A4.384,4.384,0,0,1,130.25,9.5l-2.281-.008a2.391,2.391,0,0,0-.43-1.578,1.753,1.753,0,0,0-1.336-.531,2.319,2.319,0,0,0-1.926.836,5.027,5.027,0,0,0-1.012,2.555,14.155,14.155,0,0,0-.219,2.445,2.434,2.434,0,0,0,.461,1.52,1.543,1.543,0,0,0,1.18.512,2.356,2.356,0,0,0,1.676-.5,2.625,2.625,0,0,0,.832-1.535Zm10.7-5.68h-3.375L135.148,17h-2.289L134.5,7.523h-3.336l.336-1.9h9ZM31.238,37.2a4.254,4.254,0,0,1-.8,2.09,4.375,4.375,0,0,1-1.75,1.4,5.329,5.329,0,0,1-2.328.465,3.936,3.936,0,0,1-1.961-.52A3.443,3.443,0,0,1,23.078,39.2a5.312,5.312,0,0,1-.543-2.168,10.634,10.634,0,0,1,.2-2.391,7.578,7.578,0,0,1,.906-2.539,5.666,5.666,0,0,1,1.551-1.758,4.679,4.679,0,0,1,2.891-.875,3.839,3.839,0,0,1,2.8,1.09A4.384,4.384,0,0,1,32.02,33.5l-2.281-.008a2.391,2.391,0,0,0-.43-1.578,1.752,1.752,0,0,0-1.336-.531,2.319,2.319,0,0,0-1.926.836,5.027,5.027,0,0,0-1.012,2.555,14.155,14.155,0,0,0-.219,2.445,2.434,2.434,0,0,0,.461,1.52,1.543,1.543,0,0,0,1.18.512,2.356,2.356,0,0,0,1.676-.5,2.625,2.625,0,0,0,.832-1.535Zm5.531,3.953a4.008,4.008,0,0,1-2-.535,3.612,3.612,0,0,1-1.367-1.477,5.468,5.468,0,0,1-.582-2.215A8.9,8.9,0,0,1,33.1,34.2a7.3,7.3,0,0,1,1.156-2.555,5.256,5.256,0,0,1,1.871-1.648,4.844,4.844,0,0,1,2.324-.523,3.966,3.966,0,0,1,2.008.543A3.587,3.587,0,0,1,41.809,31.5a5.532,5.532,0,0,1,.563,2.207,9.188,9.188,0,0,1-.3,2.828,7.177,7.177,0,0,1-1.164,2.516,5.216,5.216,0,0,1-1.848,1.594A4.83,4.83,0,0,1,36.77,41.156ZM40.012,35l.063-.742a3.626,3.626,0,0,0-.371-2.109,1.567,1.567,0,0,0-1.363-.75,2.473,2.473,0,0,0-2.27,1.266,7.455,7.455,0,0,0-.949,3.672,3.762,3.762,0,0,0,.367,2.129,1.563,1.563,0,0,0,1.383.777,2.345,2.345,0,0,0,2.031-.957,5.79,5.79,0,0,0,1.055-2.863Zm11.977,6H49.77l-3.164-7.586L45.285,41H43l1.977-11.375h2.211l3.172,7.6,1.32-7.6h2.281ZM64,31.523H60.621L58.98,41H56.691l1.641-9.477H55l.336-1.9h9ZM66.152,41H63.863l1.969-11.375h2.289Zm11.156,0H75.09l-3.164-7.586L70.605,41H68.316l1.977-11.375H72.5l3.172,7.6,1.32-7.6h2.281ZM89.73,29.625l-1.281,7.5A4.571,4.571,0,0,1,86.887,40.1a4.7,4.7,0,0,1-3.219,1.063,4.335,4.335,0,0,1-2.09-.527,3.077,3.077,0,0,1-1.309-1.422,3.855,3.855,0,0,1-.289-2.082l1.273-7.508h2.289L82.27,37.141a3.339,3.339,0,0,0-.008.82,1.385,1.385,0,0,0,1.508,1.313,2.154,2.154,0,0,0,1.586-.531,2.721,2.721,0,0,0,.8-1.609l1.281-7.508Zm4.492,11.531a4.008,4.008,0,0,1-2-.535,3.612,3.612,0,0,1-1.367-1.477,5.468,5.468,0,0,1-.582-2.215,8.9,8.9,0,0,1,.273-2.734,7.3,7.3,0,0,1,1.156-2.555,5.256,5.256,0,0,1,1.871-1.648,4.844,4.844,0,0,1,2.324-.523,3.966,3.966,0,0,1,2.008.543A3.587,3.587,0,0,1,99.262,31.5a5.532,5.532,0,0,1,.563,2.207,9.188,9.188,0,0,1-.3,2.828,7.177,7.177,0,0,1-1.164,2.516,5.216,5.216,0,0,1-1.848,1.594A4.83,4.83,0,0,1,94.223,41.156ZM97.465,35l.063-.742a3.626,3.626,0,0,0-.371-2.109,1.567,1.567,0,0,0-1.363-.75,2.473,2.473,0,0,0-2.27,1.266,7.455,7.455,0,0,0-.949,3.672,3.762,3.762,0,0,0,.367,2.129,1.563,1.563,0,0,0,1.383.777,2.345,2.345,0,0,0,2.031-.957,5.79,5.79,0,0,0,1.055-2.863Zm13.359-5.375-1.281,7.5A4.571,4.571,0,0,1,107.98,40.1a4.7,4.7,0,0,1-3.219,1.063,4.335,4.335,0,0,1-2.09-.527,3.077,3.077,0,0,1-1.309-1.422,3.855,3.855,0,0,1-.289-2.082l1.273-7.508h2.289l-1.273,7.516a3.339,3.339,0,0,0-.008.82,1.385,1.385,0,0,0,1.508,1.313,2.154,2.154,0,0,0,1.586-.531,2.721,2.721,0,0,0,.8-1.609l1.281-7.508ZM117,37.961q.164-.93-.914-1.422l-1.508-.6q-2.625-1.172-2.492-3.227a2.964,2.964,0,0,1,.625-1.687,3.758,3.758,0,0,1,1.6-1.152,5.67,5.67,0,0,1,2.227-.4,3.857,3.857,0,0,1,2.664.98,3.267,3.267,0,0,1,1,2.543h-2.281a1.628,1.628,0,0,0-.34-1.2,1.531,1.531,0,0,0-1.176-.445,2.37,2.37,0,0,0-1.359.355,1.458,1.458,0,0,0-.687,1.02q-.148.852,1.141,1.352l1.031.391.594.273q2.3,1.141,2.156,3.2a3.09,3.09,0,0,1-.645,1.738,3.633,3.633,0,0,1-1.562,1.121,5.565,5.565,0,0,1-2.176.367,4.873,4.873,0,0,1-2.156-.508,3.349,3.349,0,0,1-1.437-1.367,3.54,3.54,0,0,1-.43-1.875l2.289.008q-.109,1.852,1.82,1.883a2.392,2.392,0,0,0,1.375-.367A1.43,1.43,0,0,0,117,37.961Z" transform="translate(971.333 897.899)" fill="#12263f"/>
    <path id="Trazado_185923" data-name="Trazado 185923" d="M14.9,12.992,14.2,17H11.906L13.883,5.625l3.984.008a3.986,3.986,0,0,1,2.9,1.023,3.174,3.174,0,0,1,.922,2.672A3.592,3.592,0,0,1,20.293,12a5.075,5.075,0,0,1-3.238,1Zm.32-1.9,1.906.016a2.41,2.41,0,0,0,1.531-.477,1.918,1.918,0,0,0,.727-1.289,1.646,1.646,0,0,0-.262-1.3A1.418,1.418,0,0,0,18,7.531l-2.156-.008Zm12.07,3.563H23.32L22.148,17H19.625L25.7,5.625H27.82L29.984,17H27.648Zm-3.031-1.9H27l-.641-4.234Zm13.125,1.2q.164-.93-.914-1.422l-1.508-.6q-2.625-1.172-2.492-3.227a2.964,2.964,0,0,1,.625-1.687,3.758,3.758,0,0,1,1.6-1.152,5.67,5.67,0,0,1,2.227-.4,3.857,3.857,0,0,1,2.664.98,3.267,3.267,0,0,1,1,2.543H38.3a1.628,1.628,0,0,0-.34-1.2,1.531,1.531,0,0,0-1.176-.445A2.37,2.37,0,0,0,35.43,7.7a1.458,1.458,0,0,0-.687,1.02q-.148.852,1.141,1.352l1.031.391.594.273q2.3,1.141,2.156,3.2a3.09,3.09,0,0,1-.645,1.738A3.633,3.633,0,0,1,37.457,16.8a5.565,5.565,0,0,1-2.176.367,4.873,4.873,0,0,1-2.156-.508,3.349,3.349,0,0,1-1.437-1.367,3.54,3.54,0,0,1-.43-1.875l2.289.008q-.109,1.852,1.82,1.883a2.392,2.392,0,0,0,1.375-.367A1.43,1.43,0,0,0,37.383,13.961ZM50.7,7.523H47.328L45.688,17H43.4l1.641-9.477H41.7l.336-1.9h9ZM9.789,37.961q.164-.93-.914-1.422l-1.508-.6q-2.625-1.172-2.492-3.227A2.964,2.964,0,0,1,5.5,31.023a3.758,3.758,0,0,1,1.6-1.152,5.67,5.67,0,0,1,2.227-.4,3.857,3.857,0,0,1,2.664.98,3.267,3.267,0,0,1,1,2.543H10.711a1.628,1.628,0,0,0-.34-1.2A1.531,1.531,0,0,0,9.2,31.344a2.37,2.37,0,0,0-1.359.355,1.458,1.458,0,0,0-.687,1.02Q7,33.57,8.289,34.07l1.031.391.594.273q2.3,1.141,2.156,3.2a3.09,3.09,0,0,1-.645,1.738A3.633,3.633,0,0,1,9.863,40.8a5.565,5.565,0,0,1-2.176.367,4.873,4.873,0,0,1-2.156-.508,3.349,3.349,0,0,1-1.437-1.367,3.54,3.54,0,0,1-.43-1.875l2.289.008q-.109,1.852,1.82,1.883a2.391,2.391,0,0,0,1.375-.367A1.43,1.43,0,0,0,9.789,37.961ZM15.586,41H13.3l1.969-11.375h2.289Zm7.078-11.375,1.4,8.227L28.3,29.625h3.047L29.375,41h-2.3l.563-3.242L28.75,32.7,24.391,41H22.82L21.3,32.406l-.734,5.6L20.039,41H17.75l1.977-11.375Zm11.75,7.367L33.711,41H31.422L33.4,29.625l3.984.008a3.986,3.986,0,0,1,2.9,1.023,3.174,3.174,0,0,1,.922,2.672A3.592,3.592,0,0,1,39.809,36a5.075,5.075,0,0,1-3.238,1Zm.32-1.9,1.906.016a2.41,2.41,0,0,0,1.531-.477,1.918,1.918,0,0,0,.727-1.289,1.646,1.646,0,0,0-.262-1.3,1.418,1.418,0,0,0-1.121-.516l-2.156-.008Zm9.391,4.023h4.828L48.625,41H41.508l1.977-11.375h2.289ZM57.5,36.07H53.141l-.531,3.047h5.125L57.406,41H49.992l1.977-11.375h7.4l-.336,1.9h-5.1l-.477,2.711h4.375Z" transform="translate(964.333 1002.899)" fill="#12263f"/>
    <path id="Trazado_185924" data-name="Trazado 185924" d="M11,0H126a11,11,0,0,1,11,11V44a11,11,0,0,1-11,11H11A11,11,0,0,1,0,44V11A11,11,0,0,1,11,0Z" transform="translate(521.333 700.899)" fill="#d6def4"/>
    <path id="Trazado_185925" data-name="Trazado 185925" d="M11,0H278a11,11,0,0,1,11,11V78a11,11,0,0,1-11,11H11A11,11,0,0,1,0,78V11A11,11,0,0,1,11,0Z" transform="translate(641.333 844.899)" fill="#3c3fa7"/>
    <path id="Trazado_185926" data-name="Trazado 185926" d="M11,0H126a11,11,0,0,1,11,11V44a11,11,0,0,1-11,11H11A11,11,0,0,1,0,44V11A11,11,0,0,1,11,0Z" transform="translate(483.333 789.899)" fill="#d6def4"/>
    <path id="Trazado_185927" data-name="Trazado 185927" d="M11,0H126a11,11,0,0,1,11,11V64a11,11,0,0,1-11,11H11A11,11,0,0,1,0,64V11A11,11,0,0,1,11,0Z" transform="translate(469.333 885.899)" fill="#e1e8ff"/>
    <path id="Trazado_185928" data-name="Trazado 185928" d="M11,0H136a11,11,0,0,1,11,11V44a11,11,0,0,1-11,11H11A11,11,0,0,1,0,44V11A11,11,0,0,1,11,0Z" transform="translate(511.333 1002.899)" fill="#e1e8ff"/>
    <path id="Trazado_185929" data-name="Trazado 185929" d="M8.844,12.352H4.484L3.672,17H1.383L3.359,5.625h7.2l-.336,1.9H5.32L4.8,10.461H9.18ZM20.336,5.625l-1.281,7.5A4.571,4.571,0,0,1,17.492,16.1a4.7,4.7,0,0,1-3.219,1.063,4.335,4.335,0,0,1-2.09-.527,3.077,3.077,0,0,1-1.309-1.422,3.855,3.855,0,0,1-.289-2.082l1.273-7.508h2.289l-1.273,7.516a3.339,3.339,0,0,0-.008.82,1.385,1.385,0,0,0,1.508,1.313,2.154,2.154,0,0,0,1.586-.531,2.721,2.721,0,0,0,.8-1.609l1.281-7.508Zm9.883,1.9H26.844L25.2,17H22.914l1.641-9.477H21.219l.336-1.9h9Zm10.094-1.9-1.281,7.5A4.571,4.571,0,0,1,37.469,16.1a4.7,4.7,0,0,1-3.219,1.063,4.335,4.335,0,0,1-2.09-.527,3.077,3.077,0,0,1-1.309-1.422,3.855,3.855,0,0,1-.289-2.082l1.273-7.508h2.289l-1.273,7.516a3.339,3.339,0,0,0-.008.82,1.385,1.385,0,0,0,1.508,1.313,2.154,2.154,0,0,0,1.586-.531,2.721,2.721,0,0,0,.8-1.609l1.281-7.508Zm4.8,7.211H43.25L42.523,17H40.234L42.211,5.625l3.766.008a4.289,4.289,0,0,1,2.91.891A2.817,2.817,0,0,1,49.789,9a3.574,3.574,0,0,1-2.5,3.258l1.6,4.617V17H46.453Zm-1.531-1.9,1.7.016a2.386,2.386,0,0,0,1.5-.488,1.933,1.933,0,0,0,.707-1.285,1.473,1.473,0,0,0-.242-1.187,1.442,1.442,0,0,0-1.117-.461l-1.953-.008ZM57.727,12.07H53.367l-.531,3.047h5.125L57.633,17H50.219L52.2,5.625h7.4l-.336,1.9h-5.1l-.477,2.711h4.375ZM72.141,13.7l2.742-8.07h2.336L72.992,17h-2.3l-.6-7.578L67.109,17H64.8L64.133,5.625h2.234l.227,8.031,3.063-8.031H71.6ZM79.055,17H76.766L78.734,5.625h2.289ZM91.18,7.523H87.8L86.164,17H83.875l1.641-9.477H82.18l.336-1.9h9ZM99.9,17H97.609l.844-4.875H94.039L93.188,17H90.9L92.875,5.625h2.289l-.8,4.609h4.422l.8-4.609h2.289ZM32.316,28.734l1.047.641a10.708,10.708,0,0,0-.641,1.074,4.383,4.383,0,0,0-.406,1.184l-.2,1.18h-1.75l.156-1.031A4.779,4.779,0,0,1,32.316,28.734Zm2.594,0,1.047.641a10.708,10.708,0,0,0-.641,1.074,4.383,4.383,0,0,0-.406,1.184l-.2,1.18h-1.75l.156-1.031A4.779,4.779,0,0,1,34.91,28.734Zm5.359,8.3H35.988l.313-1.82H40.59ZM43.98,41H41.691L43.66,29.625h2.289Zm11.156,0H52.918l-3.164-7.586L48.434,41H46.145l1.977-11.375h2.211l3.172,7.6,1.32-7.6h2.281ZM66.3,39.563a3.837,3.837,0,0,1-1.785,1.191,7.523,7.523,0,0,1-2.652.395,4.114,4.114,0,0,1-2.047-.512,3.572,3.572,0,0,1-1.391-1.449,5.128,5.128,0,0,1-.578-2.156,9.841,9.841,0,0,1,.238-2.645,7.438,7.438,0,0,1,1.086-2.664,5.076,5.076,0,0,1,1.848-1.711,4.868,4.868,0,0,1,2.391-.543,3.954,3.954,0,0,1,2.789,1,4.165,4.165,0,0,1,1.148,2.785l-2.2-.008a2.331,2.331,0,0,0-.508-1.406,1.731,1.731,0,0,0-1.258-.484,2.467,2.467,0,0,0-2.277,1.27,7.9,7.9,0,0,0-.949,3.816,3.355,3.355,0,0,0,.41,2.07,1.7,1.7,0,0,0,1.488.75,3.171,3.171,0,0,0,1.984-.555l.383-1.961H62.34l.3-1.727h4.344Zm3.7-6.43-1.117-.656a6.183,6.183,0,0,0,1.008-2.031L70.152,29H71.91l-.18,1.156A4.806,4.806,0,0,1,70,33.133Zm2.625,0-1.117-.656a6.183,6.183,0,0,0,1.008-2.031L72.777,29h1.758l-.18,1.156A4.806,4.806,0,0,1,72.629,33.133Z" transform="translate(538.333 706.899)" fill="#12263f"/>
    <path id="Trazado_185930" data-name="Trazado 185930" d="M8.844,12.352H4.484L3.672,17H1.383L3.359,5.625h7.2l-.336,1.9H5.32L4.8,10.461H9.18ZM20.336,5.625l-1.281,7.5A4.571,4.571,0,0,1,17.492,16.1a4.7,4.7,0,0,1-3.219,1.063,4.335,4.335,0,0,1-2.09-.527,3.077,3.077,0,0,1-1.309-1.422,3.855,3.855,0,0,1-.289-2.082l1.273-7.508h2.289l-1.273,7.516a3.339,3.339,0,0,0-.008.82,1.385,1.385,0,0,0,1.508,1.313,2.154,2.154,0,0,0,1.586-.531,2.721,2.721,0,0,0,.8-1.609l1.281-7.508Zm9.883,1.9H26.844L25.2,17H22.914l1.641-9.477H21.219l.336-1.9h9Zm10.094-1.9-1.281,7.5A4.571,4.571,0,0,1,37.469,16.1a4.7,4.7,0,0,1-3.219,1.063,4.335,4.335,0,0,1-2.09-.527,3.077,3.077,0,0,1-1.309-1.422,3.855,3.855,0,0,1-.289-2.082l1.273-7.508h2.289l-1.273,7.516a3.339,3.339,0,0,0-.008.82,1.385,1.385,0,0,0,1.508,1.313,2.154,2.154,0,0,0,1.586-.531,2.721,2.721,0,0,0,.8-1.609l1.281-7.508Zm4.8,7.211H43.25L42.523,17H40.234L42.211,5.625l3.766.008a4.289,4.289,0,0,1,2.91.891A2.817,2.817,0,0,1,49.789,9a3.574,3.574,0,0,1-2.5,3.258l1.6,4.617V17H46.453Zm-1.531-1.9,1.7.016a2.386,2.386,0,0,0,1.5-.488,1.933,1.933,0,0,0,.707-1.285,1.473,1.473,0,0,0-.242-1.187,1.442,1.442,0,0,0-1.117-.461l-1.953-.008ZM57.727,12.07H53.367l-.531,3.047h5.125L57.633,17H50.219L52.2,5.625h7.4l-.336,1.9h-5.1l-.477,2.711h4.375ZM72.141,13.7l2.742-8.07h2.336L72.992,17h-2.3l-.6-7.578L67.109,17H64.8L64.133,5.625h2.234l.227,8.031,3.063-8.031H71.6ZM79.055,17H76.766L78.734,5.625h2.289ZM91.18,7.523H87.8L86.164,17H83.875l1.641-9.477H82.18l.336-1.9h9ZM99.9,17H97.609l.844-4.875H94.039L93.188,17H90.9L92.875,5.625h2.289l-.8,4.609h4.422l.8-4.609h2.289ZM12.773,28.734l1.047.641a10.708,10.708,0,0,0-.641,1.074,4.383,4.383,0,0,0-.406,1.184l-.2,1.18H10.82l.156-1.031A4.779,4.779,0,0,1,12.773,28.734Zm2.594,0,1.047.641a10.707,10.707,0,0,0-.641,1.074,4.383,4.383,0,0,0-.406,1.184l-.2,1.18h-1.75l.156-1.031A4.779,4.779,0,0,1,15.367,28.734Zm9.656,10.828a3.837,3.837,0,0,1-1.785,1.191,7.523,7.523,0,0,1-2.652.395,4.114,4.114,0,0,1-2.047-.512,3.572,3.572,0,0,1-1.391-1.449,5.128,5.128,0,0,1-.578-2.156,9.841,9.841,0,0,1,.238-2.645,7.438,7.438,0,0,1,1.086-2.664,5.076,5.076,0,0,1,1.848-1.711,4.868,4.868,0,0,1,2.391-.543,3.954,3.954,0,0,1,2.789,1,4.165,4.165,0,0,1,1.148,2.785l-2.2-.008a2.331,2.331,0,0,0-.508-1.406,1.731,1.731,0,0,0-1.258-.484,2.467,2.467,0,0,0-2.277,1.27,7.9,7.9,0,0,0-.949,3.816,3.355,3.355,0,0,0,.41,2.07,1.7,1.7,0,0,0,1.488.75,3.171,3.171,0,0,0,1.984-.555l.383-1.961H21.063l.3-1.727h4.344Zm6.1,1.594a4.008,4.008,0,0,1-2-.535,3.612,3.612,0,0,1-1.367-1.477,5.468,5.468,0,0,1-.582-2.215,8.9,8.9,0,0,1,.273-2.734,7.3,7.3,0,0,1,1.156-2.555,5.256,5.256,0,0,1,1.871-1.648,4.844,4.844,0,0,1,2.324-.523,3.966,3.966,0,0,1,2.008.543A3.587,3.587,0,0,1,36.164,31.5a5.532,5.532,0,0,1,.563,2.207,9.188,9.188,0,0,1-.3,2.828,7.177,7.177,0,0,1-1.164,2.516,5.216,5.216,0,0,1-1.848,1.594A4.83,4.83,0,0,1,31.125,41.156ZM34.367,35l.063-.742a3.626,3.626,0,0,0-.371-2.109A1.567,1.567,0,0,0,32.7,31.4a2.473,2.473,0,0,0-2.27,1.266,7.455,7.455,0,0,0-.949,3.672,3.762,3.762,0,0,0,.367,2.129,1.563,1.563,0,0,0,1.383.777,2.345,2.345,0,0,0,2.031-.957,5.79,5.79,0,0,0,1.055-2.863Zm5.422,6H37.5l1.969-11.375h2.289Zm11.156,0H48.727l-3.164-7.586L44.242,41H41.953L43.93,29.625h2.211l3.172,7.6,1.32-7.6h2.281Zm11.164-1.437a3.837,3.837,0,0,1-1.785,1.191,7.523,7.523,0,0,1-2.652.395,4.114,4.114,0,0,1-2.047-.512,3.572,3.572,0,0,1-1.391-1.449,5.128,5.128,0,0,1-.578-2.156,9.841,9.841,0,0,1,.238-2.645,7.438,7.438,0,0,1,1.086-2.664,5.076,5.076,0,0,1,1.848-1.711,4.868,4.868,0,0,1,2.391-.543,3.954,3.954,0,0,1,2.789,1,4.165,4.165,0,0,1,1.148,2.785l-2.2-.008a2.331,2.331,0,0,0-.508-1.406,1.731,1.731,0,0,0-1.258-.484,2.467,2.467,0,0,0-2.277,1.27,7.9,7.9,0,0,0-.949,3.816,3.355,3.355,0,0,0,.41,2.07,1.7,1.7,0,0,0,1.488.75,3.171,3.171,0,0,0,1.984-.555l.383-1.961H58.148l.3-1.727H62.8Zm14.969-8.039H73.7L72.063,41H69.773l1.641-9.477H68.078l.336-1.9h9Zm4.07,9.633a4.008,4.008,0,0,1-2-.535,3.612,3.612,0,0,1-1.367-1.477A5.468,5.468,0,0,1,77.2,36.93a8.9,8.9,0,0,1,.273-2.734,7.3,7.3,0,0,1,1.156-2.555A5.256,5.256,0,0,1,80.5,29.992a4.844,4.844,0,0,1,2.324-.523,3.966,3.966,0,0,1,2.008.543A3.587,3.587,0,0,1,86.188,31.5a5.532,5.532,0,0,1,.563,2.207,9.188,9.188,0,0,1-.3,2.828,7.177,7.177,0,0,1-1.164,2.516,5.216,5.216,0,0,1-1.848,1.594A4.83,4.83,0,0,1,81.148,41.156ZM84.391,35l.063-.742a3.626,3.626,0,0,0-.371-2.109,1.567,1.567,0,0,0-1.363-.75,2.473,2.473,0,0,0-2.27,1.266,7.455,7.455,0,0,0-.949,3.672,3.762,3.762,0,0,0,.367,2.129,1.563,1.563,0,0,0,1.383.777,2.345,2.345,0,0,0,2.031-.957,5.79,5.79,0,0,0,1.055-2.863Zm5.156-1.867-1.117-.656a6.183,6.183,0,0,0,1.008-2.031L89.7,29h1.758l-.18,1.156A4.806,4.806,0,0,1,89.547,33.133Zm2.625,0-1.117-.656a6.183,6.183,0,0,0,1.008-2.031L92.32,29h1.758l-.18,1.156A4.806,4.806,0,0,1,92.172,33.133Z" transform="translate(500.333 795.899)" fill="#12263f"/>
    <path id="Trazado_185931" data-name="Trazado 185931" d="M8.844,12.352H4.484L3.672,17H1.383L3.359,5.625h7.2l-.336,1.9H5.32L4.8,10.461H9.18ZM20.336,5.625l-1.281,7.5A4.571,4.571,0,0,1,17.492,16.1a4.7,4.7,0,0,1-3.219,1.063,4.335,4.335,0,0,1-2.09-.527,3.077,3.077,0,0,1-1.309-1.422,3.855,3.855,0,0,1-.289-2.082l1.273-7.508h2.289l-1.273,7.516a3.339,3.339,0,0,0-.008.82,1.385,1.385,0,0,0,1.508,1.313,2.154,2.154,0,0,0,1.586-.531,2.721,2.721,0,0,0,.8-1.609l1.281-7.508Zm9.883,1.9H26.844L25.2,17H22.914l1.641-9.477H21.219l.336-1.9h9Zm10.094-1.9-1.281,7.5A4.571,4.571,0,0,1,37.469,16.1a4.7,4.7,0,0,1-3.219,1.063,4.335,4.335,0,0,1-2.09-.527,3.077,3.077,0,0,1-1.309-1.422,3.855,3.855,0,0,1-.289-2.082l1.273-7.508h2.289l-1.273,7.516a3.339,3.339,0,0,0-.008.82,1.385,1.385,0,0,0,1.508,1.313,2.154,2.154,0,0,0,1.586-.531,2.721,2.721,0,0,0,.8-1.609l1.281-7.508Zm4.8,7.211H43.25L42.523,17H40.234L42.211,5.625l3.766.008a4.289,4.289,0,0,1,2.91.891A2.817,2.817,0,0,1,49.789,9a3.574,3.574,0,0,1-2.5,3.258l1.6,4.617V17H46.453Zm-1.531-1.9,1.7.016a2.386,2.386,0,0,0,1.5-.488,1.933,1.933,0,0,0,.707-1.285,1.473,1.473,0,0,0-.242-1.187,1.442,1.442,0,0,0-1.117-.461l-1.953-.008ZM57.727,12.07H53.367l-.531,3.047h5.125L57.633,17H50.219L52.2,5.625h7.4l-.336,1.9h-5.1l-.477,2.711h4.375ZM72.141,13.7l2.742-8.07h2.336L72.992,17h-2.3l-.6-7.578L67.109,17H64.8L64.133,5.625h2.234l.227,8.031,3.063-8.031H71.6ZM79.055,17H76.766L78.734,5.625h2.289ZM91.18,7.523H87.8L86.164,17H83.875l1.641-9.477H82.18l.336-1.9h9ZM99.9,17H97.609l.844-4.875H94.039L93.188,17H90.9L92.875,5.625h2.289l-.8,4.609h4.422l.8-4.609h2.289ZM32.023,28.734l1.047.641a10.708,10.708,0,0,0-.641,1.074,4.383,4.383,0,0,0-.406,1.184l-.2,1.18H30.07l.156-1.031A4.779,4.779,0,0,1,32.023,28.734Zm2.594,0,1.047.641a10.708,10.708,0,0,0-.641,1.074,4.383,4.383,0,0,0-.406,1.184l-.2,1.18h-1.75l.156-1.031A4.779,4.779,0,0,1,34.617,28.734ZM44.328,37.7l2.742-8.07h2.336L45.18,41h-2.3l-.6-7.578L39.3,41h-2.3L36.32,29.625h2.234l.227,8.031,3.063-8.031h1.945ZM51.242,41H48.953l1.969-11.375h2.289Zm4.781-1.883h4.828L60.523,41H53.406l1.977-11.375h2.289Zm8.484,0h4.828L69.008,41H61.891l1.977-11.375h2.289ZM70.3,33.133l-1.117-.656a6.183,6.183,0,0,0,1.008-2.031L70.445,29H72.2l-.18,1.156A4.806,4.806,0,0,1,70.3,33.133Zm2.625,0L71.8,32.477a6.183,6.183,0,0,0,1.008-2.031L73.07,29h1.758l-.18,1.156A4.806,4.806,0,0,1,72.922,33.133Z" transform="translate(486.333 901.899)" fill="#12263f"/>
    <path id="Trazado_185932" data-name="Trazado 185932" d="M5.688,12.992,4.984,17H2.7L4.672,5.625l3.984.008a3.986,3.986,0,0,1,2.9,1.023,3.174,3.174,0,0,1,.922,2.672A3.592,3.592,0,0,1,11.082,12a5.075,5.075,0,0,1-3.238,1Zm.32-1.9,1.906.016a2.41,2.41,0,0,0,1.531-.477,1.918,1.918,0,0,0,.727-1.289,1.646,1.646,0,0,0-.262-1.3,1.418,1.418,0,0,0-1.121-.516L6.633,7.523Zm12.07,3.563H14.109L12.938,17H10.414L16.492,5.625h2.117L20.773,17H18.438Zm-3.031-1.9h2.742l-.641-4.234Zm13.125,1.2q.164-.93-.914-1.422l-1.508-.6q-2.625-1.172-2.492-3.227a2.964,2.964,0,0,1,.625-1.687,3.758,3.758,0,0,1,1.6-1.152,5.67,5.67,0,0,1,2.227-.4,3.857,3.857,0,0,1,2.664.98,3.267,3.267,0,0,1,1,2.543H29.094a1.628,1.628,0,0,0-.34-1.2,1.531,1.531,0,0,0-1.176-.445,2.37,2.37,0,0,0-1.359.355,1.458,1.458,0,0,0-.687,1.02q-.148.852,1.141,1.352l1.031.391.594.273q2.3,1.141,2.156,3.2a3.09,3.09,0,0,1-.645,1.738A3.633,3.633,0,0,1,28.246,16.8a5.565,5.565,0,0,1-2.176.367,4.873,4.873,0,0,1-2.156-.508,3.349,3.349,0,0,1-1.437-1.367,3.54,3.54,0,0,1-.43-1.875l2.289.008q-.109,1.852,1.82,1.883a2.392,2.392,0,0,0,1.375-.367A1.43,1.43,0,0,0,28.172,13.961Zm13.32-6.437H38.117L36.477,17H34.188l1.641-9.477H32.492l.336-1.9h9Zm6.188,5.469L46.977,17H44.688L46.664,5.625l3.984.008a3.986,3.986,0,0,1,2.9,1.023,3.174,3.174,0,0,1,.922,2.672A3.592,3.592,0,0,1,53.074,12a5.075,5.075,0,0,1-3.238,1Zm.32-1.9,1.906.016a2.41,2.41,0,0,0,1.531-.477,1.918,1.918,0,0,0,.727-1.289,1.646,1.646,0,0,0-.262-1.3,1.418,1.418,0,0,0-1.121-.516l-2.156-.008Zm14.281.977H57.922l-.531,3.047h5.125L62.188,17H54.773L56.75,5.625h7.4l-.336,1.9h-5.1l-.477,2.711h4.375Zm6.172.766H66.594L65.867,17H63.578L65.555,5.625l3.766.008a4.289,4.289,0,0,1,2.91.891A2.817,2.817,0,0,1,73.133,9a3.574,3.574,0,0,1-2.5,3.258l1.6,4.617V17H69.8Zm-1.531-1.9,1.7.016a2.386,2.386,0,0,0,1.5-.488,1.933,1.933,0,0,0,.707-1.285,1.473,1.473,0,0,0-.242-1.187,1.442,1.442,0,0,0-1.117-.461l-1.953-.008Zm14.1,1.414H76.664L75.852,17H73.563L75.539,5.625h7.2l-.336,1.9H77.5l-.516,2.938h4.375Zm8.625-.281H85.289l-.531,3.047h5.125L89.555,17H82.141L84.117,5.625h7.4l-.336,1.9h-5.1L85.6,10.234h4.375Zm10.57,1.133a4.254,4.254,0,0,1-.8,2.09,4.375,4.375,0,0,1-1.75,1.4,5.329,5.329,0,0,1-2.328.465,3.936,3.936,0,0,1-1.961-.52A3.443,3.443,0,0,1,92.059,15.2a5.312,5.312,0,0,1-.543-2.168,10.634,10.634,0,0,1,.2-2.391A7.578,7.578,0,0,1,92.621,8.1a5.666,5.666,0,0,1,1.551-1.758,4.679,4.679,0,0,1,2.891-.875,3.839,3.839,0,0,1,2.8,1.09A4.384,4.384,0,0,1,101,9.5l-2.281-.008a2.391,2.391,0,0,0-.43-1.578,1.753,1.753,0,0,0-1.336-.531,2.319,2.319,0,0,0-1.926.836,5.027,5.027,0,0,0-1.012,2.555,14.155,14.155,0,0,0-.219,2.445,2.434,2.434,0,0,0,.461,1.52,1.543,1.543,0,0,0,1.18.512,2.356,2.356,0,0,0,1.676-.5,2.625,2.625,0,0,0,.832-1.535Zm10.7-5.68h-3.375L105.9,17h-2.289l1.641-9.477h-3.336l.336-1.9h9ZM16.738,37.2a4.254,4.254,0,0,1-.8,2.09,4.375,4.375,0,0,1-1.75,1.4,5.329,5.329,0,0,1-2.328.465,3.936,3.936,0,0,1-1.961-.52A3.443,3.443,0,0,1,8.578,39.2a5.312,5.312,0,0,1-.543-2.168,10.634,10.634,0,0,1,.2-2.391A7.578,7.578,0,0,1,9.141,32.1a5.666,5.666,0,0,1,1.551-1.758,4.679,4.679,0,0,1,2.891-.875,3.839,3.839,0,0,1,2.8,1.09A4.384,4.384,0,0,1,17.52,33.5l-2.281-.008a2.391,2.391,0,0,0-.43-1.578,1.752,1.752,0,0,0-1.336-.531,2.319,2.319,0,0,0-1.926.836,5.027,5.027,0,0,0-1.012,2.555,14.155,14.155,0,0,0-.219,2.445,2.434,2.434,0,0,0,.461,1.52,1.543,1.543,0,0,0,1.18.512,2.356,2.356,0,0,0,1.676-.5,2.625,2.625,0,0,0,.832-1.535Zm5.531,3.953a4.008,4.008,0,0,1-2-.535,3.612,3.612,0,0,1-1.367-1.477,5.468,5.468,0,0,1-.582-2.215A8.9,8.9,0,0,1,18.6,34.2a7.3,7.3,0,0,1,1.156-2.555,5.256,5.256,0,0,1,1.871-1.648,4.844,4.844,0,0,1,2.324-.523,3.966,3.966,0,0,1,2.008.543A3.587,3.587,0,0,1,27.309,31.5a5.532,5.532,0,0,1,.563,2.207,9.188,9.188,0,0,1-.3,2.828,7.177,7.177,0,0,1-1.164,2.516,5.216,5.216,0,0,1-1.848,1.594A4.83,4.83,0,0,1,22.27,41.156ZM25.512,35l.063-.742a3.626,3.626,0,0,0-.371-2.109,1.567,1.567,0,0,0-1.363-.75,2.473,2.473,0,0,0-2.27,1.266,7.455,7.455,0,0,0-.949,3.672,3.762,3.762,0,0,0,.367,2.129,1.563,1.563,0,0,0,1.383.777,2.345,2.345,0,0,0,2.031-.957,5.79,5.79,0,0,0,1.055-2.863Zm11.977,6H35.27l-3.164-7.586L30.785,41H28.5l1.977-11.375h2.211l3.172,7.6,1.32-7.6h2.281ZM49.5,31.523H46.121L44.48,41H42.191l1.641-9.477H40.5l.336-1.9h9ZM51.652,41H49.363l1.969-11.375h2.289Zm11.156,0H60.59l-3.164-7.586L56.105,41H53.816l1.977-11.375H58l3.172,7.6,1.32-7.6h2.281ZM75.23,29.625l-1.281,7.5A4.571,4.571,0,0,1,72.387,40.1a4.7,4.7,0,0,1-3.219,1.063,4.335,4.335,0,0,1-2.09-.527,3.077,3.077,0,0,1-1.309-1.422,3.855,3.855,0,0,1-.289-2.082l1.273-7.508h2.289L67.77,37.141a3.339,3.339,0,0,0-.008.82,1.385,1.385,0,0,0,1.508,1.313,2.154,2.154,0,0,0,1.586-.531,2.721,2.721,0,0,0,.8-1.609l1.281-7.508Zm4.492,11.531a4.008,4.008,0,0,1-2-.535,3.612,3.612,0,0,1-1.367-1.477,5.468,5.468,0,0,1-.582-2.215,8.9,8.9,0,0,1,.273-2.734,7.3,7.3,0,0,1,1.156-2.555,5.256,5.256,0,0,1,1.871-1.648,4.844,4.844,0,0,1,2.324-.523,3.966,3.966,0,0,1,2.008.543A3.587,3.587,0,0,1,84.762,31.5a5.532,5.532,0,0,1,.563,2.207,9.188,9.188,0,0,1-.3,2.828,7.177,7.177,0,0,1-1.164,2.516,5.216,5.216,0,0,1-1.848,1.594A4.83,4.83,0,0,1,79.723,41.156ZM82.965,35l.063-.742a3.626,3.626,0,0,0-.371-2.109,1.567,1.567,0,0,0-1.363-.75,2.473,2.473,0,0,0-2.27,1.266,7.455,7.455,0,0,0-.949,3.672,3.762,3.762,0,0,0,.367,2.129,1.563,1.563,0,0,0,1.383.777,2.345,2.345,0,0,0,2.031-.957,5.79,5.79,0,0,0,1.055-2.863Zm13.359-5.375-1.281,7.5A4.571,4.571,0,0,1,93.48,40.1a4.7,4.7,0,0,1-3.219,1.063,4.335,4.335,0,0,1-2.09-.527,3.077,3.077,0,0,1-1.309-1.422,3.855,3.855,0,0,1-.289-2.082l1.273-7.508h2.289l-1.273,7.516a3.339,3.339,0,0,0-.008.82,1.385,1.385,0,0,0,1.508,1.313,2.154,2.154,0,0,0,1.586-.531,2.721,2.721,0,0,0,.8-1.609l1.281-7.508Zm6.18,8.336q.164-.93-.914-1.422l-1.508-.6q-2.625-1.172-2.492-3.227a2.964,2.964,0,0,1,.625-1.687,3.758,3.758,0,0,1,1.6-1.152,5.67,5.67,0,0,1,2.227-.4,3.857,3.857,0,0,1,2.664.98,3.267,3.267,0,0,1,1,2.543h-2.281a1.628,1.628,0,0,0-.34-1.2,1.531,1.531,0,0,0-1.176-.445,2.37,2.37,0,0,0-1.359.355,1.458,1.458,0,0,0-.687,1.02q-.148.852,1.141,1.352l1.031.391.594.273q2.3,1.141,2.156,3.2a3.09,3.09,0,0,1-.645,1.738,3.633,3.633,0,0,1-1.562,1.121,5.565,5.565,0,0,1-2.176.367,4.873,4.873,0,0,1-2.156-.508,3.349,3.349,0,0,1-1.437-1.367,3.54,3.54,0,0,1-.43-1.875l2.289.008q-.109,1.852,1.82,1.883a2.392,2.392,0,0,0,1.375-.367A1.43,1.43,0,0,0,102.5,37.961Z" transform="translate(528.333 1008.899)" fill="#12263f"/>
    <path id="Trazado_185933" data-name="Trazado 185933" d="M11,0H125a11,11,0,0,1,11,11V44a11,11,0,0,1-11,11H11A11,11,0,0,1,0,44V11A11,11,0,0,1,11,0Z" transform="translate(820.333 1084.899)" fill="#c4d1ff"/>
    <path id="Trazado_185934" data-name="Trazado 185934" d="M11,0h89a11,11,0,0,1,11,11V44a11,11,0,0,1-11,11H11A11,11,0,0,1,0,44V11A11,11,0,0,1,11,0Z" transform="translate(658.333 1098.899)" fill="#c4d1ff"/>
    <path id="Trazado_185935" data-name="Trazado 185935" d="M5.527,12.992,4.824,17H2.535L4.512,5.625,8.5,5.633a3.986,3.986,0,0,1,2.9,1.023,3.174,3.174,0,0,1,.922,2.672A3.592,3.592,0,0,1,10.922,12a5.075,5.075,0,0,1-3.238,1Zm.32-1.9,1.906.016a2.41,2.41,0,0,0,1.531-.477,1.918,1.918,0,0,0,.727-1.289,1.646,1.646,0,0,0-.262-1.3,1.418,1.418,0,0,0-1.121-.516L6.473,7.523Zm12.07,3.563H13.949L12.777,17H10.254L16.332,5.625h2.117L20.613,17H18.277Zm-3.031-1.9h2.742l-.641-4.234Zm13.125,1.2q.164-.93-.914-1.422l-1.508-.6Q22.965,10.766,23.1,8.711a2.964,2.964,0,0,1,.625-1.687,3.758,3.758,0,0,1,1.6-1.152,5.67,5.67,0,0,1,2.227-.4,3.857,3.857,0,0,1,2.664.98,3.267,3.267,0,0,1,1,2.543H28.934a1.628,1.628,0,0,0-.34-1.2,1.531,1.531,0,0,0-1.176-.445,2.37,2.37,0,0,0-1.359.355,1.458,1.458,0,0,0-.687,1.02q-.148.852,1.141,1.352l1.031.391.594.273q2.3,1.141,2.156,3.2a3.09,3.09,0,0,1-.645,1.738A3.633,3.633,0,0,1,28.086,16.8a5.565,5.565,0,0,1-2.176.367,4.873,4.873,0,0,1-2.156-.508,3.349,3.349,0,0,1-1.437-1.367,3.54,3.54,0,0,1-.43-1.875l2.289.008Q24.066,15.273,26,15.3a2.392,2.392,0,0,0,1.375-.367A1.43,1.43,0,0,0,28.012,13.961Zm13.32-6.437H37.957L36.316,17H34.027l1.641-9.477H32.332l.336-1.9h9Zm9.453,6.438q.164-.93-.914-1.422l-1.508-.6q-2.625-1.172-2.492-3.227A2.964,2.964,0,0,1,46.5,7.023a3.758,3.758,0,0,1,1.6-1.152,5.67,5.67,0,0,1,2.227-.4,3.857,3.857,0,0,1,2.664.98,3.267,3.267,0,0,1,1,2.543H51.707a1.628,1.628,0,0,0-.34-1.2,1.531,1.531,0,0,0-1.176-.445,2.37,2.37,0,0,0-1.359.355,1.458,1.458,0,0,0-.687,1.02Q48,9.57,49.285,10.07l1.031.391.594.273q2.3,1.141,2.156,3.2a3.09,3.09,0,0,1-.645,1.738A3.633,3.633,0,0,1,50.859,16.8a5.565,5.565,0,0,1-2.176.367,4.873,4.873,0,0,1-2.156-.508,3.349,3.349,0,0,1-1.437-1.367,3.54,3.54,0,0,1-.43-1.875l2.289.008q-.109,1.852,1.82,1.883a2.392,2.392,0,0,0,1.375-.367A1.43,1.43,0,0,0,50.785,13.961ZM56.582,17H54.293L56.262,5.625h2.289ZM63.66,5.625l1.4,8.227L69.3,5.625h3.047L70.371,17h-2.3l.563-3.242L69.746,8.7,65.387,17h-1.57L62.293,8.406l-.734,5.6L61.035,17H58.746L60.723,5.625Zm11.75,7.367L74.707,17H72.418L74.395,5.625l3.984.008a3.986,3.986,0,0,1,2.9,1.023A3.174,3.174,0,0,1,82.2,9.328,3.592,3.592,0,0,1,80.8,12a5.075,5.075,0,0,1-3.238,1Zm.32-1.9,1.906.016a2.41,2.41,0,0,0,1.531-.477,1.918,1.918,0,0,0,.727-1.289,1.646,1.646,0,0,0-.262-1.3,1.418,1.418,0,0,0-1.121-.516l-2.156-.008Zm9.391,4.023h4.828L89.621,17H82.5L84.48,5.625H86.77ZM98.5,12.07H94.137l-.531,3.047H98.73L98.4,17H90.988L92.965,5.625h7.4l-.336,1.9h-5.1l-.477,2.711h4.375ZM11.238,37.2a4.254,4.254,0,0,1-.8,2.09,4.375,4.375,0,0,1-1.75,1.4,5.329,5.329,0,0,1-2.328.465,3.936,3.936,0,0,1-1.961-.52A3.443,3.443,0,0,1,3.078,39.2a5.312,5.312,0,0,1-.543-2.168,10.634,10.634,0,0,1,.2-2.391A7.578,7.578,0,0,1,3.641,32.1a5.666,5.666,0,0,1,1.551-1.758,4.679,4.679,0,0,1,2.891-.875,3.839,3.839,0,0,1,2.8,1.09A4.384,4.384,0,0,1,12.02,33.5l-2.281-.008a2.391,2.391,0,0,0-.43-1.578,1.752,1.752,0,0,0-1.336-.531,2.319,2.319,0,0,0-1.926.836,5.027,5.027,0,0,0-1.012,2.555,14.155,14.155,0,0,0-.219,2.445,2.434,2.434,0,0,0,.461,1.52,1.543,1.543,0,0,0,1.18.512,2.356,2.356,0,0,0,1.676-.5,2.625,2.625,0,0,0,.832-1.535Zm5.531,3.953a4.008,4.008,0,0,1-2-.535,3.612,3.612,0,0,1-1.367-1.477,5.468,5.468,0,0,1-.582-2.215A8.9,8.9,0,0,1,13.1,34.2a7.3,7.3,0,0,1,1.156-2.555,5.256,5.256,0,0,1,1.871-1.648,4.844,4.844,0,0,1,2.324-.523,3.966,3.966,0,0,1,2.008.543A3.587,3.587,0,0,1,21.809,31.5a5.532,5.532,0,0,1,.563,2.207,9.188,9.188,0,0,1-.3,2.828,7.177,7.177,0,0,1-1.164,2.516,5.216,5.216,0,0,1-1.848,1.594A4.83,4.83,0,0,1,16.77,41.156ZM20.012,35l.063-.742a3.626,3.626,0,0,0-.371-2.109,1.567,1.567,0,0,0-1.363-.75,2.473,2.473,0,0,0-2.27,1.266,7.455,7.455,0,0,0-.949,3.672,3.762,3.762,0,0,0,.367,2.129,1.563,1.563,0,0,0,1.383.777,2.345,2.345,0,0,0,2.031-.957,5.79,5.79,0,0,0,1.055-2.863Zm11.977,6H29.77l-3.164-7.586L25.285,41H23l1.977-11.375h2.211l3.172,7.6,1.32-7.6h2.281ZM44,31.523H40.621L38.98,41H36.691l1.641-9.477H35l.336-1.9h9ZM46.152,41H43.863l1.969-11.375h2.289Zm11.156,0H55.09l-3.164-7.586L50.605,41H48.316l1.977-11.375H52.5l3.172,7.6,1.32-7.6h2.281ZM69.73,29.625l-1.281,7.5A4.571,4.571,0,0,1,66.887,40.1a4.7,4.7,0,0,1-3.219,1.063,4.335,4.335,0,0,1-2.09-.527,3.077,3.077,0,0,1-1.309-1.422,3.855,3.855,0,0,1-.289-2.082l1.273-7.508h2.289L62.27,37.141a3.339,3.339,0,0,0-.008.82,1.385,1.385,0,0,0,1.508,1.313,2.154,2.154,0,0,0,1.586-.531,2.721,2.721,0,0,0,.8-1.609l1.281-7.508Zm4.492,11.531a4.008,4.008,0,0,1-2-.535,3.612,3.612,0,0,1-1.367-1.477,5.468,5.468,0,0,1-.582-2.215,8.9,8.9,0,0,1,.273-2.734,7.3,7.3,0,0,1,1.156-2.555,5.256,5.256,0,0,1,1.871-1.648,4.844,4.844,0,0,1,2.324-.523,3.966,3.966,0,0,1,2.008.543A3.587,3.587,0,0,1,79.262,31.5a5.532,5.532,0,0,1,.563,2.207,9.188,9.188,0,0,1-.3,2.828,7.177,7.177,0,0,1-1.164,2.516,5.216,5.216,0,0,1-1.848,1.594A4.83,4.83,0,0,1,74.223,41.156ZM77.465,35l.063-.742a3.626,3.626,0,0,0-.371-2.109,1.567,1.567,0,0,0-1.363-.75,2.473,2.473,0,0,0-2.27,1.266,7.455,7.455,0,0,0-.949,3.672,3.762,3.762,0,0,0,.367,2.129,1.563,1.563,0,0,0,1.383.777,2.345,2.345,0,0,0,2.031-.957,5.79,5.79,0,0,0,1.055-2.863Zm13.359-5.375-1.281,7.5A4.571,4.571,0,0,1,87.98,40.1a4.7,4.7,0,0,1-3.219,1.063,4.335,4.335,0,0,1-2.09-.527,3.077,3.077,0,0,1-1.309-1.422,3.855,3.855,0,0,1-.289-2.082l1.273-7.508h2.289l-1.273,7.516a3.339,3.339,0,0,0-.008.82,1.385,1.385,0,0,0,1.508,1.313,2.154,2.154,0,0,0,1.586-.531,2.721,2.721,0,0,0,.8-1.609l1.281-7.508ZM97,37.961q.164-.93-.914-1.422l-1.508-.6q-2.625-1.172-2.492-3.227a2.964,2.964,0,0,1,.625-1.687,3.758,3.758,0,0,1,1.6-1.152,5.67,5.67,0,0,1,2.227-.4,3.857,3.857,0,0,1,2.664.98,3.267,3.267,0,0,1,1,2.543H97.926a1.628,1.628,0,0,0-.34-1.2,1.531,1.531,0,0,0-1.176-.445,2.37,2.37,0,0,0-1.359.355,1.458,1.458,0,0,0-.687,1.02q-.148.852,1.141,1.352l1.031.391.594.273q2.3,1.141,2.156,3.2a3.09,3.09,0,0,1-.645,1.738A3.633,3.633,0,0,1,97.078,40.8a5.565,5.565,0,0,1-2.176.367,4.873,4.873,0,0,1-2.156-.508,3.349,3.349,0,0,1-1.437-1.367,3.54,3.54,0,0,1-.43-1.875l2.289.008q-.109,1.852,1.82,1.883a2.392,2.392,0,0,0,1.375-.367A1.43,1.43,0,0,0,97,37.961Z" transform="translate(837.333 1090.899)" fill="#12263f"/>
    <path id="Trazado_185936" data-name="Trazado 185936" d="M22.4,12.992,21.7,17H19.406L21.383,5.625l3.984.008a3.986,3.986,0,0,1,2.9,1.023,3.174,3.174,0,0,1,.922,2.672A3.592,3.592,0,0,1,27.793,12a5.075,5.075,0,0,1-3.238,1Zm.32-1.9,1.906.016a2.41,2.41,0,0,0,1.531-.477,1.918,1.918,0,0,0,.727-1.289,1.646,1.646,0,0,0-.262-1.3A1.418,1.418,0,0,0,25.5,7.531l-2.156-.008Zm12.07,3.563H30.82L29.648,17H27.125L33.2,5.625H35.32L37.484,17H35.148Zm-3.031-1.9H34.5l-.641-4.234Zm13.125,1.2q.164-.93-.914-1.422l-1.508-.6q-2.625-1.172-2.492-3.227a2.964,2.964,0,0,1,.625-1.687,3.758,3.758,0,0,1,1.6-1.152,5.67,5.67,0,0,1,2.227-.4,3.857,3.857,0,0,1,2.664.98,3.267,3.267,0,0,1,1,2.543H45.8a1.628,1.628,0,0,0-.34-1.2,1.531,1.531,0,0,0-1.176-.445A2.37,2.37,0,0,0,42.93,7.7a1.458,1.458,0,0,0-.687,1.02q-.148.852,1.141,1.352l1.031.391.594.273q2.3,1.141,2.156,3.2a3.09,3.09,0,0,1-.645,1.738A3.633,3.633,0,0,1,44.957,16.8a5.565,5.565,0,0,1-2.176.367,4.873,4.873,0,0,1-2.156-.508,3.349,3.349,0,0,1-1.437-1.367,3.54,3.54,0,0,1-.43-1.875l2.289.008q-.109,1.852,1.82,1.883a2.392,2.392,0,0,0,1.375-.367A1.43,1.43,0,0,0,44.883,13.961ZM58.2,7.523H54.828L53.188,17H50.9l1.641-9.477H49.2l.336-1.9h9ZM8.684,36.992,7.98,41H5.691L7.668,29.625l3.984.008a3.986,3.986,0,0,1,2.9,1.023,3.174,3.174,0,0,1,.922,2.672A3.592,3.592,0,0,1,14.078,36a5.075,5.075,0,0,1-3.238,1Zm.32-1.9,1.906.016a2.41,2.41,0,0,0,1.531-.477,1.918,1.918,0,0,0,.727-1.289,1.646,1.646,0,0,0-.262-1.3,1.418,1.418,0,0,0-1.121-.516l-2.156-.008Zm14.281.977H18.926l-.531,3.047H23.52L23.191,41H15.777l1.977-11.375h7.4l-.336,1.9h-5.1l-.477,2.711h4.375Zm6.172.766H27.6L26.871,41H24.582l1.977-11.375,3.766.008a4.289,4.289,0,0,1,2.91.891,2.817,2.817,0,0,1,.9,2.477,3.574,3.574,0,0,1-2.5,3.258l1.6,4.617V41H30.8Zm-1.531-1.9,1.7.016a2.386,2.386,0,0,0,1.5-.488,1.933,1.933,0,0,0,.707-1.285,1.473,1.473,0,0,0-.242-1.187,1.442,1.442,0,0,0-1.117-.461l-1.953-.008Zm14.1,1.414H37.668L36.855,41H34.566l1.977-11.375h7.2l-.336,1.9H38.5l-.516,2.938h4.375Zm8.625-.281H46.293l-.531,3.047h5.125L50.559,41H43.145l1.977-11.375h7.4l-.336,1.9h-5.1l-.477,2.711H50.98ZM61.223,37.2a4.254,4.254,0,0,1-.8,2.09,4.375,4.375,0,0,1-1.75,1.4,5.329,5.329,0,0,1-2.328.465,3.936,3.936,0,0,1-1.961-.52A3.443,3.443,0,0,1,53.063,39.2a5.312,5.312,0,0,1-.543-2.168,10.634,10.634,0,0,1,.2-2.391,7.578,7.578,0,0,1,.906-2.539,5.666,5.666,0,0,1,1.551-1.758,4.679,4.679,0,0,1,2.891-.875,3.839,3.839,0,0,1,2.8,1.09A4.384,4.384,0,0,1,62,33.5l-2.281-.008a2.391,2.391,0,0,0-.43-1.578,1.752,1.752,0,0,0-1.336-.531,2.319,2.319,0,0,0-1.926.836,5.027,5.027,0,0,0-1.012,2.555,14.155,14.155,0,0,0-.219,2.445,2.434,2.434,0,0,0,.461,1.52,1.543,1.543,0,0,0,1.18.512,2.356,2.356,0,0,0,1.676-.5,2.625,2.625,0,0,0,.832-1.535Zm10.7-5.68H68.543L66.9,41H64.613l1.641-9.477H62.918l.336-1.9h9Z" transform="translate(675.333 1104.899)" fill="#12263f"/>
    <path id="Trazado_185937" data-name="Trazado 185937" d="M11,0h97a11,11,0,0,1,11,11V44a11,11,0,0,1-11,11H11A11,11,0,0,1,0,44V11A11,11,0,0,1,11,0Z" transform="translate(727.333 627.899)" fill="#6b8dfc"/>
    <path id="Trazado_185938" data-name="Trazado 185938" d="M11.648,12.992,10.945,17H8.656L10.633,5.625l3.984.008a3.986,3.986,0,0,1,2.9,1.023,3.174,3.174,0,0,1,.922,2.672A3.592,3.592,0,0,1,17.043,12,5.075,5.075,0,0,1,13.8,13Zm.32-1.9,1.906.016a2.41,2.41,0,0,0,1.531-.477,1.918,1.918,0,0,0,.727-1.289,1.646,1.646,0,0,0-.262-1.3,1.418,1.418,0,0,0-1.121-.516l-2.156-.008Zm11.648,1.742H21.758L21.031,17H18.742L20.719,5.625l3.766.008a4.289,4.289,0,0,1,2.91.891A2.817,2.817,0,0,1,28.3,9a3.574,3.574,0,0,1-2.5,3.258l1.6,4.617V17H24.961Zm-1.531-1.9,1.7.016a2.386,2.386,0,0,0,1.5-.488,1.933,1.933,0,0,0,.707-1.285,1.473,1.473,0,0,0-.242-1.187,1.442,1.442,0,0,0-1.117-.461L22.68,7.523ZM36.234,12.07H31.875l-.531,3.047h5.125L36.141,17H28.727L30.7,5.625h7.4l-.336,1.9h-5.1l-.477,2.711h4.375Zm7.555,1.891q.164-.93-.914-1.422l-1.508-.6q-2.625-1.172-2.492-3.227A2.964,2.964,0,0,1,39.5,7.023a3.758,3.758,0,0,1,1.6-1.152,5.67,5.67,0,0,1,2.227-.4,3.857,3.857,0,0,1,2.664.98,3.267,3.267,0,0,1,1,2.543H44.711a1.628,1.628,0,0,0-.34-1.2A1.531,1.531,0,0,0,43.2,7.344a2.37,2.37,0,0,0-1.359.355,1.458,1.458,0,0,0-.687,1.02Q41,9.57,42.289,10.07l1.031.391.594.273q2.3,1.141,2.156,3.2a3.09,3.09,0,0,1-.645,1.738A3.633,3.633,0,0,1,43.863,16.8a5.565,5.565,0,0,1-2.176.367,4.873,4.873,0,0,1-2.156-.508,3.349,3.349,0,0,1-1.437-1.367,3.54,3.54,0,0,1-.43-1.875l2.289.008q-.109,1.852,1.82,1.883a2.392,2.392,0,0,0,1.375-.367A1.43,1.43,0,0,0,43.789,13.961ZM54.656,12.07H50.3l-.531,3.047h5.125L54.563,17H47.148L49.125,5.625h7.4l-.336,1.9h-5.1l-.477,2.711h4.375ZM64.945,17H62.727L59.563,9.414,58.242,17H55.953L57.93,5.625h2.211l3.172,7.6,1.32-7.6h2.281ZM76.953,7.523H73.578L71.938,17H69.648l1.641-9.477H67.953l.336-1.9h9ZM21.289,37.961q.164-.93-.914-1.422l-1.508-.6q-2.625-1.172-2.492-3.227A2.964,2.964,0,0,1,17,31.023a3.758,3.758,0,0,1,1.6-1.152,5.67,5.67,0,0,1,2.227-.4,3.857,3.857,0,0,1,2.664.98,3.267,3.267,0,0,1,1,2.543H22.211a1.628,1.628,0,0,0-.34-1.2,1.531,1.531,0,0,0-1.176-.445,2.37,2.37,0,0,0-1.359.355,1.458,1.458,0,0,0-.687,1.02q-.148.852,1.141,1.352l1.031.391.594.273q2.3,1.141,2.156,3.2a3.09,3.09,0,0,1-.645,1.738A3.633,3.633,0,0,1,21.363,40.8a5.565,5.565,0,0,1-2.176.367,4.873,4.873,0,0,1-2.156-.508,3.349,3.349,0,0,1-1.437-1.367,3.54,3.54,0,0,1-.43-1.875l2.289.008q-.109,1.852,1.82,1.883a2.392,2.392,0,0,0,1.375-.367A1.43,1.43,0,0,0,21.289,37.961ZM27.086,41H24.8l1.969-11.375h2.289Zm7.078-11.375,1.4,8.227L39.8,29.625h3.047L40.875,41h-2.3l.563-3.242L40.25,32.7,35.891,41H34.32L32.8,32.406l-.734,5.6L31.539,41H29.25l1.977-11.375Zm11.75,7.367L45.211,41H42.922L44.9,29.625l3.984.008a3.986,3.986,0,0,1,2.9,1.023,3.174,3.174,0,0,1,.922,2.672A3.592,3.592,0,0,1,51.309,36a5.075,5.075,0,0,1-3.238,1Zm.32-1.9,1.906.016a2.41,2.41,0,0,0,1.531-.477,1.918,1.918,0,0,0,.727-1.289,1.646,1.646,0,0,0-.262-1.3,1.418,1.418,0,0,0-1.121-.516l-2.156-.008Zm9.391,4.023h4.828L60.125,41H53.008l1.977-11.375h2.289ZM69,36.07H64.641l-.531,3.047h5.125L68.906,41H61.492l1.977-11.375h7.4l-.336,1.9h-5.1l-.477,2.711h4.375Z" transform="translate(744.333 633.899)" fill="#12263f"/>
    <path id="Trazado_185939" data-name="Trazado 185939" d="M34,0,68,71.76H0Z" transform="translate(737.036 618.5) rotate(77)" fill="#3c3fa7"/>
    <path id="Trazado_185940" data-name="Trazado 185940" d="M-122.832-10.661h-3.8L-128.474,0h-2.575l1.846-10.661h-3.753l.378-2.136h10.125ZM-118.252.176a4.509,4.509,0,0,1-2.246-.6,4.064,4.064,0,0,1-1.538-1.661,6.152,6.152,0,0,1-.655-2.492,10.016,10.016,0,0,1,.308-3.076,8.209,8.209,0,0,1,1.3-2.874,5.913,5.913,0,0,1,2.1-1.854,5.449,5.449,0,0,1,2.615-.589,4.462,4.462,0,0,1,2.259.611,4.035,4.035,0,0,1,1.521,1.679,6.223,6.223,0,0,1,.633,2.483,10.337,10.337,0,0,1-.334,3.182,8.074,8.074,0,0,1-1.31,2.83A5.868,5.868,0,0,1-115.673-.4,5.434,5.434,0,0,1-118.252.176ZM-114.6-6.75l.07-.835a4.079,4.079,0,0,0-.417-2.373,1.763,1.763,0,0,0-1.534-.844,2.782,2.782,0,0,0-2.553,1.424,8.387,8.387,0,0,0-1.068,4.131,4.232,4.232,0,0,0,.413,2.4,1.758,1.758,0,0,0,1.556.875,2.638,2.638,0,0,0,2.285-1.077,6.514,6.514,0,0,0,1.187-3.221Zm7.8,6.75,2.224-12.8,3.99.009a5.293,5.293,0,0,1,3.34.905A2.8,2.8,0,0,1-96.245-9.36a3.223,3.223,0,0,1-2.241,2.839,2.15,2.15,0,0,1,1.187.989,2.959,2.959,0,0,1,.36,1.709,3.7,3.7,0,0,1-1.419,2.817A5.629,5.629,0,0,1-101.9,0Zm3.551-5.572-.606,3.454,2.03.009a2.618,2.618,0,0,0,1.591-.47,1.866,1.866,0,0,0,.765-1.27,1.577,1.577,0,0,0-.215-1.235,1.427,1.427,0,0,0-1.138-.479Zm.316-1.863,1.749.018a2.785,2.785,0,0,0,1.6-.457A1.772,1.772,0,0,0-98.855-9.1q.22-1.547-1.626-1.556l-1.9-.009Zm15.812,1.89h-4.9l-.6,3.428h5.766L-87.236,0h-8.341l2.224-12.8h8.323l-.378,2.136h-5.739l-.536,3.05h4.922Zm13.421,2.909h-4.465L-79.493,0h-2.839l6.838-12.8h2.382L-70.677,0h-2.628Zm-3.41-2.136h3.085l-.721-4.764ZM-69.394,0l2.224-12.8,3.99.009a5.293,5.293,0,0,1,3.34.905A2.8,2.8,0,0,1-58.83-9.36a3.223,3.223,0,0,1-2.241,2.839,2.15,2.15,0,0,1,1.187.989,2.959,2.959,0,0,1,.36,1.709,3.7,3.7,0,0,1-1.419,2.817A5.629,5.629,0,0,1-64.481,0Zm3.551-5.572-.606,3.454,2.03.009a2.618,2.618,0,0,0,1.591-.47,1.866,1.866,0,0,0,.765-1.27,1.577,1.577,0,0,0-.215-1.235,1.427,1.427,0,0,0-1.138-.479Zm.316-1.863,1.749.018a2.785,2.785,0,0,0,1.6-.457A1.772,1.772,0,0,0-61.44-9.1q.22-1.547-1.626-1.556l-1.9-.009Zm10.31,5.317h5.432L-50.155,0h-8.007l2.224-12.8h2.575ZM-40.17-5.546h-4.9l-.6,3.428h5.766L-40.276,0h-8.341l2.224-12.8h8.323l-.378,2.136h-5.739l-.536,3.05H-39.8Zm16.576-5.115h-3.8L-29.237,0h-2.575l1.846-10.661h-3.753l.378-2.136h10.125ZM-19.015.176a4.509,4.509,0,0,1-2.246-.6A4.064,4.064,0,0,1-22.8-2.087a6.152,6.152,0,0,1-.655-2.492,10.016,10.016,0,0,1,.308-3.076,8.209,8.209,0,0,1,1.3-2.874,5.913,5.913,0,0,1,2.1-1.854,5.449,5.449,0,0,1,2.615-.589,4.462,4.462,0,0,1,2.259.611,4.035,4.035,0,0,1,1.521,1.679A6.223,6.223,0,0,1-12.713-8.2a10.337,10.337,0,0,1-.334,3.182,8.074,8.074,0,0,1-1.31,2.83A5.868,5.868,0,0,1-16.436-.4,5.434,5.434,0,0,1-19.015.176Zm3.647-6.926.07-.835a4.079,4.079,0,0,0-.417-2.373,1.763,1.763,0,0,0-1.534-.844A2.782,2.782,0,0,0-19.8-9.378,8.387,8.387,0,0,0-20.87-5.247a4.232,4.232,0,0,0,.413,2.4,1.758,1.758,0,0,0,1.556.875,2.638,2.638,0,0,0,2.285-1.077,6.514,6.514,0,0,0,1.187-3.221ZM3.107-10.661H-.69L-2.536,0H-5.111l1.846-10.661H-7.018L-6.64-12.8H3.485ZM9.259-2.637H4.794L3.476,0H.637L7.475-12.8H9.857L12.292,0H9.664ZM5.849-4.772H8.934L8.213-9.536Zm10.67,2.654h5.432L21.582,0H13.575L15.8-12.8h2.575ZM28-5.106,26.31-3.542,25.695,0H23.12l2.224-12.8h2.575l-.984,5.643,1.31-1.477,3.85-4.166h3.357L29.922-6.979,33.218,0H30.283Zm18.255,2.47H41.788L40.469,0H37.63l6.838-12.8H46.85L49.285,0H46.657Zm-3.41-2.136h3.085l-.721-4.764ZM50.568,0l2.224-12.8,3.99.009a5.293,5.293,0,0,1,3.34.905A2.8,2.8,0,0,1,61.132-9.36a3.223,3.223,0,0,1-2.241,2.839,2.15,2.15,0,0,1,1.187.989,2.959,2.959,0,0,1,.36,1.709,3.7,3.7,0,0,1-1.419,2.817A5.629,5.629,0,0,1,55.481,0Zm3.551-5.572-.606,3.454,2.03.009a2.618,2.618,0,0,0,1.591-.47A1.866,1.866,0,0,0,57.9-3.85a1.577,1.577,0,0,0-.215-1.235,1.427,1.427,0,0,0-1.138-.479Zm.316-1.863,1.749.018a2.785,2.785,0,0,0,1.6-.457A1.772,1.772,0,0,0,58.522-9.1q.22-1.547-1.626-1.556L55-10.661ZM66.942.176a4.509,4.509,0,0,1-2.246-.6,4.064,4.064,0,0,1-1.538-1.661A6.152,6.152,0,0,1,62.5-4.579a10.016,10.016,0,0,1,.308-3.076,8.209,8.209,0,0,1,1.3-2.874,5.913,5.913,0,0,1,2.1-1.854,5.449,5.449,0,0,1,2.615-.589,4.462,4.462,0,0,1,2.259.611,4.035,4.035,0,0,1,1.521,1.679A6.223,6.223,0,0,1,73.244-8.2a10.337,10.337,0,0,1-.334,3.182,8.074,8.074,0,0,1-1.31,2.83A5.868,5.868,0,0,1,69.521-.4,5.434,5.434,0,0,1,66.942.176ZM70.589-6.75l.07-.835a4.079,4.079,0,0,0-.417-2.373,1.763,1.763,0,0,0-1.534-.844,2.782,2.782,0,0,0-2.553,1.424,8.387,8.387,0,0,0-1.068,4.131,4.232,4.232,0,0,0,.413,2.4,1.758,1.758,0,0,0,1.556.875,2.638,2.638,0,0,0,2.285-1.077,6.514,6.514,0,0,0,1.187-3.221ZM85.619-12.8,84.177-4.359a5.142,5.142,0,0,1-1.758,3.349A5.284,5.284,0,0,1,78.8.185a4.877,4.877,0,0,1-2.351-.593,3.462,3.462,0,0,1-1.472-1.6,4.337,4.337,0,0,1-.325-2.342L76.083-12.8h2.575L77.225-4.342a3.757,3.757,0,0,0-.009.923,1.558,1.558,0,0,0,1.7,1.477,2.423,2.423,0,0,0,1.784-.6,3.061,3.061,0,0,0,.9-1.811L83.035-12.8Zm11.118,2.136h-3.8L91.094,0H88.519l1.846-10.661H86.612L86.99-12.8H97.115ZM105.86-12.8l1.573,9.255,4.772-9.255h3.428L113.41,0h-2.584l.633-3.647,1.248-5.7L107.8,0h-1.767l-1.714-9.668-.826,6.3L102.907,0h-2.575l2.224-12.8Zm18.3,7.251h-4.9l-.6,3.428h5.766L124.053,0h-8.341l2.224-12.8h8.323l-.378,2.136h-5.739l-.536,3.05h4.922Zm1.547,8.754L124.4,2.5l.642-1.028A5.512,5.512,0,0,0,125.758-.3l.325-1.863h2.092L127.92-.545A5.819,5.819,0,0,1,125.706,3.208Zm-203.084,5,1.573,9.255L-71.033,8.2h3.428L-69.829,21h-2.584l.633-3.647,1.248-5.7L-75.437,21H-77.2l-1.714-9.668-.826,6.3L-80.332,21h-2.575l2.224-12.8Zm15.293,5.748L-58.509,8.2h2.953l-5.59,8.3-.773,4.5h-2.619l.835-4.79-2.654-8,2.716-.009ZM-44.956,8.2h2.575l-1.5,8.859a4.945,4.945,0,0,1-.809,2.171,4.331,4.331,0,0,1-1.67,1.468,4.707,4.707,0,0,1-2.241.483A3.777,3.777,0,0,1-51.4,20.112a3.876,3.876,0,0,1-.932-2.9l2.593.009q-.132,1.811,1.274,1.837a1.683,1.683,0,0,0,1.3-.51,2.653,2.653,0,0,0,.694-1.485Zm7.734,12.973a4.509,4.509,0,0,1-2.246-.6,4.064,4.064,0,0,1-1.538-1.661,6.152,6.152,0,0,1-.655-2.492,10.016,10.016,0,0,1,.308-3.076,8.209,8.209,0,0,1,1.3-2.874,5.913,5.913,0,0,1,2.1-1.854,5.449,5.449,0,0,1,2.615-.589,4.462,4.462,0,0,1,2.259.611,4.035,4.035,0,0,1,1.521,1.679A6.223,6.223,0,0,1-30.92,12.8a10.337,10.337,0,0,1-.334,3.182,8.074,8.074,0,0,1-1.31,2.83A5.868,5.868,0,0,1-34.642,20.6,5.434,5.434,0,0,1-37.222,21.176Zm3.647-6.926.07-.835a4.079,4.079,0,0,0-.417-2.373,1.763,1.763,0,0,0-1.534-.844,2.782,2.782,0,0,0-2.553,1.424,8.387,8.387,0,0,0-1.068,4.131,4.232,4.232,0,0,0,.413,2.4,1.758,1.758,0,0,0,1.556.875,2.638,2.638,0,0,0,2.285-1.077,6.514,6.514,0,0,0,1.187-3.221ZM-30.217,21l2.224-12.8,3.99.009a5.293,5.293,0,0,1,3.34.905,2.8,2.8,0,0,1,1.011,2.522,3.223,3.223,0,0,1-2.241,2.839,2.15,2.15,0,0,1,1.187.989,2.959,2.959,0,0,1,.36,1.709,3.7,3.7,0,0,1-1.419,2.817A5.629,5.629,0,0,1-25.3,21Zm3.551-5.572-.606,3.454,2.03.009a2.618,2.618,0,0,0,1.591-.47,1.866,1.866,0,0,0,.765-1.27,1.577,1.577,0,0,0-.215-1.235,1.427,1.427,0,0,0-1.138-.479Zm.316-1.863,1.749.018a2.785,2.785,0,0,0,1.6-.457,1.772,1.772,0,0,0,.743-1.222q.22-1.547-1.626-1.556l-1.9-.009ZM-18.9,24.208l-1.31-.712.642-1.028a5.512,5.512,0,0,0,.721-1.767l.325-1.863h2.092l-.255,1.617A5.819,5.819,0,0,1-18.9,24.208Zm14.229-16,1.573,9.255L1.679,8.2H5.106L2.883,21H.3l.633-3.647,1.248-5.7L-2.725,21H-4.491l-1.714-9.668-.826,6.3L-7.62,21H-10.2L-7.972,8.2Zm15.293,5.748L14.2,8.2h2.953l-5.59,8.3L10.793,21H8.174l.835-4.79-2.654-8L9.07,8.2ZM28.9,15.771h-4.9L23.08,21H20.5L22.729,8.2h8.1l-.378,2.136h-5.52l-.58,3.3h4.922Zm7.093,2.593H31.526L30.208,21H27.369L34.207,8.2h2.382L39.023,21H36.4Zm-3.41-2.136h3.085l-.721-4.764ZM45.835,8.2l1.573,9.255L52.181,8.2h3.428L53.385,21H50.8l.633-3.647,1.248-5.7L47.777,21H46.011L44.3,11.332l-.826,6.3L42.882,21H40.307L42.53,8.2ZM58.43,21H55.854L58.069,8.2h2.575Zm5.379-2.118H69.24L68.871,21H60.864L63.088,8.2h2.575ZM73.4,13.951,76.975,8.2h2.953l-5.59,8.3L73.564,21H70.945l.835-4.79-2.654-8L71.842,8.2ZM-62.235,39.363H-66.7L-68.019,42h-2.839l6.838-12.8h2.382L-59.2,42h-2.628Zm-3.41-2.136h3.085l-.721-4.764ZM-47.8,42h-2.5l-3.56-8.534L-55.345,42H-57.92L-55.7,29.2h2.487l3.568,8.552,1.485-8.552h2.566Zm2.3,0,2.224-12.8,3.674.009a5.032,5.032,0,0,1,2.325.584A4.393,4.393,0,0,1-35.6,31.4a5.493,5.493,0,0,1,.773,2.355,7.775,7.775,0,0,1-.018,1.564l-.062.466a7.309,7.309,0,0,1-2.21,4.513A6.253,6.253,0,0,1-41.546,42Zm4.43-10.661-1.485,8.543,1.072.009a3.518,3.518,0,0,0,2.852-1.3A6.723,6.723,0,0,0-37.4,34.661l.018-.281a3.544,3.544,0,0,0-.554-2.224,2.114,2.114,0,0,0-1.731-.809Zm18.483,7.242q.185-1.046-1.028-1.6l-1.7-.677q-2.953-1.318-2.8-3.63a3.334,3.334,0,0,1,.7-1.9,4.227,4.227,0,0,1,1.8-1.3,6.379,6.379,0,0,1,2.5-.453,4.34,4.34,0,0,1,3,1.1,3.676,3.676,0,0,1,1.125,2.861h-2.566a1.831,1.831,0,0,0-.382-1.354,1.722,1.722,0,0,0-1.323-.5,2.667,2.667,0,0,0-1.529.4,1.641,1.641,0,0,0-.773,1.147q-.167.958,1.283,1.521l1.16.439.668.308q2.593,1.283,2.426,3.6a3.477,3.477,0,0,1-.725,1.956A4.088,4.088,0,0,1-22.5,41.771a6.261,6.261,0,0,1-2.448.413,5.483,5.483,0,0,1-2.426-.571A3.767,3.767,0,0,1-29,40.075a3.983,3.983,0,0,1-.483-2.109l2.575.009q-.123,2.083,2.048,2.118a2.69,2.69,0,0,0,1.547-.413A1.608,1.608,0,0,0-22.588,38.581Zm8.921,3.595a4.509,4.509,0,0,1-2.246-.6,4.064,4.064,0,0,1-1.538-1.661,6.152,6.152,0,0,1-.655-2.492,10.016,10.016,0,0,1,.308-3.076,8.209,8.209,0,0,1,1.3-2.874,5.913,5.913,0,0,1,2.1-1.854,5.449,5.449,0,0,1,2.615-.589,4.462,4.462,0,0,1,2.259.611A4.035,4.035,0,0,1-8,31.317,6.223,6.223,0,0,1-7.365,33.8,10.337,10.337,0,0,1-7.7,36.981a8.074,8.074,0,0,1-1.31,2.83A5.868,5.868,0,0,1-11.087,41.6,5.434,5.434,0,0,1-13.667,42.176Zm3.647-6.926.07-.835a4.079,4.079,0,0,0-.417-2.373A1.763,1.763,0,0,0-11.9,31.2a2.782,2.782,0,0,0-2.553,1.424,8.387,8.387,0,0,0-1.068,4.131,4.232,4.232,0,0,0,.413,2.4,1.758,1.758,0,0,0,1.556.875,2.638,2.638,0,0,0,2.285-1.077,6.514,6.514,0,0,0,1.187-3.221Zm13.79,2.479a4.786,4.786,0,0,1-.905,2.351A4.922,4.922,0,0,1,.9,41.653a6,6,0,0,1-2.619.523,4.428,4.428,0,0,1-2.206-.584A3.874,3.874,0,0,1-5.41,39.974a5.976,5.976,0,0,1-.611-2.439A11.963,11.963,0,0,1-5.8,34.846a8.526,8.526,0,0,1,1.02-2.856,6.374,6.374,0,0,1,1.745-1.978A5.264,5.264,0,0,1,.22,29.027a4.318,4.318,0,0,1,3.151,1.226,4.932,4.932,0,0,1,1.279,3.309l-2.566-.009A2.69,2.69,0,0,0,1.6,31.778a1.972,1.972,0,0,0-1.5-.6,2.608,2.608,0,0,0-2.167.94A5.656,5.656,0,0,0-3.208,35a15.925,15.925,0,0,0-.246,2.751,2.738,2.738,0,0,0,.519,1.709,1.736,1.736,0,0,0,1.327.576,2.65,2.65,0,0,0,1.885-.558,2.953,2.953,0,0,0,.936-1.727ZM7.594,42H5.019L7.233,29.2H9.809Zm9.958-2.637H13.087L11.769,42H8.93l6.838-12.8h2.382L20.584,42H17.956Zm-3.41-2.136h3.085l-.721-4.764Zm10.67,2.654h5.432L29.874,42H21.867l2.224-12.8h2.575Zm13.983,0h5.432L43.857,42H35.851l2.224-12.8h2.575ZM48.138,42H45.563l2.215-12.8h2.575Zm10.828-5.229h-4.9L53.147,42H50.572L52.8,29.2h8.1l-.378,2.136H55l-.58,3.3h4.922Zm9.7-.316h-4.9l-.6,3.428h5.766L68.563,42H60.223l2.224-12.8H70.77l-.378,2.136H64.652l-.536,3.05h4.922Z" transform="translate(786.333 874.899)" fill="#fff"/>
  </g>
</svg>
