<svg xmlns="http://www.w3.org/2000/svg" xmlns:xlink="http://www.w3.org/1999/xlink" width="190" height="161" viewBox="0 0 190 161">
  <defs>
    <clipPath id="clip-path">
      <rect id="Rect치ngulo_45656" data-name="Rect치ngulo 45656" width="190" height="161" rx="14" fill="#e1e8ff"/>
    </clipPath>
    <clipPath id="clip-path-2">
      <rect id="Rect치ngulo_45655" data-name="Rect치ngulo 45655" width="98.27" height="334.663" fill="none"/>
    </clipPath>
  </defs>
  <g id="Enmascarar_grupo_312" data-name="Enmascarar grupo 312" clip-path="url(#clip-path)">
    <g id="Grupo_175569" data-name="Grupo 175569" transform="translate(-90.449 -53.842)">
      <path id="Trazado_185816" data-name="Trazado 185816" d="M189.906,100.022c-1.445,24.534-18.6,47.959-41.827,49.412-26.681,2.243-51.171-13.811-77.748-13.981-13.552-1.275-26.262,4.419-39.469,6.257C1.032,142.912-3.513,104.452,2.05,79.661,25.512-37.21,191.53-21.309,189.906,100.022Z" transform="matrix(-0.914, 0.407, -0.407, -0.914, 396.898, 191.438)" fill="#c4d1ff"/>
      <path id="Trazado_185819" data-name="Trazado 185819" d="M189.906,100.022c-1.445,24.534-18.6,47.959-41.827,49.412-26.681,2.243-51.171-13.811-77.748-13.981-13.552-1.275-26.262,4.419-39.469,6.257C1.032,142.912-3.513,104.452,2.05,79.661,25.512-37.21,191.53-21.309,189.906,100.022Z" transform="matrix(0.07, -0.998, 0.998, 0.07, 0, 258.246)" fill="#c4d1ff"/>
      <path id="Trazado_185818" data-name="Trazado 185818" d="M.014,122.957c1.718,30.16,22.113,58.956,49.735,60.742,31.725,2.757,60.845-16.978,92.447-17.187,16.114-1.567,31.227,5.432,46.931,7.692C224.6,175.681,230,128.4,223.384,97.927,195.487-45.742-1.918-26.195.014,122.957Z" transform="matrix(0.995, -0.105, 0.105, 0.995, 71.176, 10.293)" fill="#a6bbff" opacity="0.388" style="mix-blend-mode: multiply;isolation: isolate"/>
    </g>
    <g id="Grupo_175516" data-name="Grupo 175516" transform="translate(45.73 3)">
      <g id="Grupo_175515" data-name="Grupo 175515" clip-path="url(#clip-path-2)">
        <path id="Trazado_185350" data-name="Trazado 185350" d="M35.884,50.436c.882.981,1.92,2.037,3.239,2.066s2.505-1.77,1.509-2.634a2.758,2.758,0,1,0,5.389-1.11c1.891-.756,3.89-1.727,4.8-3.551s-.1-4.616-2.135-4.658a4.087,4.087,0,0,0-1.015-6.487c2.085-.789,2.023-4.417-.089-5.134a3.522,3.522,0,0,0-.02-6.995,4.457,4.457,0,0,0,2.987-4.768A4.458,4.458,0,0,0,46.273,13.5a3.9,3.9,0,0,0,1.815-4.842A3.9,3.9,0,0,0,43.345,6.6,4.485,4.485,0,0,0,41.988.907C40.17-.225,37.31.753,36.851,2.846a3.623,3.623,0,0,0-7.162.7C28.051,1.487,24,2.874,23.965,5.5a2.358,2.358,0,0,0-4.7.35,2.477,2.477,0,0,0-2.1,3.573c-.745-.539-1.857.236-1.99,1.146a4.083,4.083,0,0,0,.827,2.572,1.848,1.848,0,0,0-.817,2.907c.886.829,2.7-.209,2.271-1.341-.72-.091-.856,1.149-.262,1.567a4.3,4.3,0,0,0,2.112.38c1.233.124,2.415.831,3.638.632s1.978-2.209.793-2.571a4.179,4.179,0,0,0,7.768,2.69c.195,2.9,4.429,4.509,6.5,2.467-1.311-.211-2.176,1.629-1.576,2.814a4.621,4.621,0,0,0,3.283,2.018,2.794,2.794,0,0,0-.233,5.549,2.283,2.283,0,0,0-.881,3.685c-2.188-.2-3.411,3.361-1.565,4.551a2.5,2.5,0,0,0-1.135,4.238c-2.639,2.042-1.572,7.071,1.668,7.865Z" transform="translate(32.364)"/>
        <path id="Trazado_185351" data-name="Trazado 185351" d="M27.732,299.166q-.333,5.075-1.05,10.113a.613.613,0,0,1-.518.638A18.873,18.873,0,0,1,16.734,311q.094-7.149.688-14.278Z" transform="translate(53.804)" fill="#cd8451"/>
        <path id="Trazado_185352" data-name="Trazado 185352" d="M65.785,304.837q-.7,4.752-1.741,9.445a.554.554,0,0,1-.759.536l-8.272-1.108a128.391,128.391,0,0,0,.15-14.01Z" transform="translate(-22.528)" fill="#cd8451"/>
        <path id="Trazado_185353" data-name="Trazado 185353" d="M77.4,331.546a2.4,2.4,0,0,1-2.362,2.53c-3.551.062-9.46.081-13.011.057a10.155,10.155,0,0,1-4.716-.8c-1.424-.753-2.484-2.456-1.961-3.98.467-1.36,1.922-2.056,3.105-2.875,5.1-3.535,8.373-10.577,8.824-16.769l10.356,2.716s-.613,12.085-.235,19.121" transform="translate(-34.577)" fill="#6a9899"/>
        <path id="Trazado_185354" data-name="Trazado 185354" d="M77.739,332.4c-2.238,1.145-4.95.464-7.309-.4s-4.832-1.919-7.3-1.439a12.562,12.562,0,0,1-2.3.451c-1.288.007-2.444-.774-3.708-1.027-.588-.118-1.363-.009-1.533.566a1.183,1.183,0,0,0,.059.7,5.039,5.039,0,0,0,3.8,3.017,19.073,19.073,0,0,0,5.055.125,44.445,44.445,0,0,1,5.571.1,18.476,18.476,0,0,0,4.228.081,4.907,4.907,0,0,0,3.534-2.085Z" transform="translate(-35.127)" fill="#446b6b"/>
        <path id="Trazado_185355" data-name="Trazado 185355" d="M3.366,308.158q-1.173,7.077-2.345,14.154c-.288,1.738-.527,3.694.523,5.109,1.186,1.6,3.461,1.79,5.45,1.842l21.061.547c.674.018,1.472-.026,1.836-.6.626-.979-.692-2.024-1.768-2.466a80.291,80.291,0,0,1-12.283-6.333,6.129,6.129,0,0,1-2.474-2.344,6.381,6.381,0,0,1-.316-3.181q.339-4.747.677-9.494c-3.5-3.021-10.361,2.761-10.361,2.761" transform="translate(67.442)" fill="#6a9899"/>
        <path id="Trazado_185356" data-name="Trazado 185356" d="M30.938,328.689c-.618-1.54-2.728-1.62-4.383-1.493a76.11,76.11,0,0,1-24.211-2.047c-.837-.209-1.989-.28-2.288.528a1.656,1.656,0,0,0,.534,1.548,10.535,10.535,0,0,0,5.715,3.387,20.951,20.951,0,0,0,4.757.281l17.35-.3a3.494,3.494,0,0,0,1.963-.425,1.208,1.208,0,0,0,.33-1.752Z" transform="translate(67.308)" fill="#446b6b"/>
        <path id="Trazado_185357" data-name="Trazado 185357" d="M20.09,322.333c-.067-.492-.655-.636-1.071-.694a4.724,4.724,0,0,0-1.814.129,12.893,12.893,0,0,0-3.371,1.591c-.264.159-.48-.234-.238-.407a10.305,10.305,0,0,0,1.644-1.472,5.394,5.394,0,0,0,1.137-1.645c.168-.457.259-1.148-.339-1.318a2.7,2.7,0,0,0-1.048.02,7.749,7.749,0,0,0-3.373,1.324c-.252.175-.478-.23-.238-.407q.829-.611,1.6-1.3a8.43,8.43,0,0,0,1.4-1.428c.259-.382.443-1.023.01-1.368a.958.958,0,0,0-.9-.007c-.323.111-.641.243-.953.381a16.559,16.559,0,0,0-2.061,1.091c-.225.139-.486-.189-.285-.37,1.23-1.115,2.469-2.219,3.69-3.344.093-.085.246-.2.243-.34s-.145-.227-.246-.284a1.945,1.945,0,0,0-1.041-.173,6.105,6.105,0,0,0-2.178.71.236.236,0,0,1-.238-.407,14.3,14.3,0,0,0,2.818-2.059,5.008,5.008,0,0,0,1-1.374c.069-.148.094-.257-.059-.342a1.551,1.551,0,0,0-.424-.122,5.724,5.724,0,0,0-.993-.122,6.137,6.137,0,0,0-2.239.34c-.287.1-.41-.356-.125-.455a6.5,6.5,0,0,1,2.258-.359,6.6,6.6,0,0,1,1.155.127,1.35,1.35,0,0,1,.827.365c.247.306.086.672-.08.973a5.765,5.765,0,0,1-.545.8,8.127,8.127,0,0,1-1.441,1.363,22.22,22.22,0,0,1-1.917,1.268l-.238-.407a8.027,8.027,0,0,1,1.939-.714,2.5,2.5,0,0,1,1.873.254.77.77,0,0,1,.36.667,1.116,1.116,0,0,1-.465.7l-1.7,1.541-1.9,1.724-.286-.37a16.475,16.475,0,0,1,2.128-1.12,10.573,10.573,0,0,1,1.1-.432,1.414,1.414,0,0,1,1.066.023,1.3,1.3,0,0,1,.528,1.53,4.423,4.423,0,0,1-1.363,1.725,22.341,22.341,0,0,1-2.068,1.718l-.238-.407a8.2,8.2,0,0,1,2.3-1.11,7.984,7.984,0,0,1,1.221-.266,3.506,3.506,0,0,1,1.2-.03,1.2,1.2,0,0,1,.84,1.511,4.275,4.275,0,0,1-1.043,1.875,10.745,10.745,0,0,1-2.065,1.925l-.238-.407a12.156,12.156,0,0,1,3.82-1.714,4.837,4.837,0,0,1,1.987-.007,1.339,1.339,0,0,1,1.141.977.244.244,0,0,1-.164.29.238.238,0,0,1-.29-.165" transform="translate(67.614)" fill="#446b6b"/>
        <path id="Trazado_185358" data-name="Trazado 185358" d="M74.216,317.757a8.147,8.147,0,0,0-3.984-2.344c-.282-.069-.826-.268-1.087-.061-.226.178-.118.565-.041.79a7.45,7.45,0,0,0,1.146,1.982,9.247,9.247,0,0,0,1.9,1.866c-.1.123-.19.247-.286.37a11.062,11.062,0,0,0-2.809-1.892,3.33,3.33,0,0,0-1.019-.375c-.783-.079-.509.884-.3,1.285a6.837,6.837,0,0,0,1.222,1.658,6.952,6.952,0,0,0,1.906,1.349c-.1.123-.191.246-.286.37a7.585,7.585,0,0,0-4.167-2.07c-.265-.04-.851-.181-1,.136-.128.269.112.648.267.855a9.131,9.131,0,0,0,1.665,1.645,10.549,10.549,0,0,0,2.3,1.375l-.285.37a7.936,7.936,0,0,0-4.051-2.094,4.2,4.2,0,0,0-1.11-.111c-.146.013-.317.058-.365.216a.633.633,0,0,0,.11.456,4.13,4.13,0,0,0,.756.861,10.294,10.294,0,0,0,.9.778,10.458,10.458,0,0,0,2.343,1.347c-.076.131-.152.263-.229.394a8.4,8.4,0,0,0-4.3-1.719,4.042,4.042,0,0,0-1.076-.025c-.083.015-.27.05-.3.149-.041.137.2.373.28.47a11.693,11.693,0,0,0,3.72,3.131c.267.143.029.55-.238.407a12.24,12.24,0,0,1-3.972-3.407c-.23-.3-.407-.7-.066-1a1.457,1.457,0,0,1,1.022-.235,8.8,8.8,0,0,1,2.6.458,9.034,9.034,0,0,1,2.664,1.437c.181.142-.017.482-.23.395a10.938,10.938,0,0,1-2.4-1.355,11.079,11.079,0,0,1-1.028-.869,4.6,4.6,0,0,1-.854-.979.936.936,0,0,1,.005-1.109,1.3,1.3,0,0,1,1.132-.253,8.4,8.4,0,0,1,2.531.657,8.312,8.312,0,0,1,2.488,1.666c.206.2-.055.472-.286.371a11.025,11.025,0,0,1-3.34-2.287,6.635,6.635,0,0,1-.862-.995,1.394,1.394,0,0,1-.268-1.069.863.863,0,0,1,.885-.592,5.526,5.526,0,0,1,1.315.185,7.923,7.923,0,0,1,1.281.419,8.057,8.057,0,0,1,2.495,1.657c.2.2-.053.483-.286.371a7.312,7.312,0,0,1-3.34-3.258c-.277-.557-.466-1.457.214-1.813a1.383,1.383,0,0,1,1.15.061,11.348,11.348,0,0,1,1.152.535,11.638,11.638,0,0,1,2.394,1.71c.193.177-.067.53-.286.37a9.877,9.877,0,0,1-1.933-1.86,8.107,8.107,0,0,1-1.328-2.27,1.328,1.328,0,0,1,0-1.044.931.931,0,0,1,1-.4,7.817,7.817,0,0,1,2.523.816,8.535,8.535,0,0,1,2.378,1.788c.207.221-.125.555-.333.333" transform="translate(-37.916)" fill="#446b6b"/>
        <path id="Trazado_185359" data-name="Trazado 185359" d="M24.244,319.132a3.555,3.555,0,0,1,2.517,1.889,14.377,14.377,0,0,1,1.487,3.555,17.279,17.279,0,0,1,.486,2.273c.043.3-.412.425-.455.125a17.035,17.035,0,0,0-.951-3.663,8.458,8.458,0,0,0-1.649-2.936,2.409,2.409,0,0,0-1.435-.771c-.3-.033-.3-.505,0-.472" transform="translate(45.514)" fill="#446b6b"/>
        <path id="Trazado_185360" data-name="Trazado 185360" d="M61.128,324.415a7.37,7.37,0,0,1-1.392,1.574,13.461,13.461,0,0,0-1.41,1.533,12.759,12.759,0,0,0-2.542,5.936c-.042.276-.447.187-.463-.063,0-.05-.006-.1-.01-.149-.019-.3.452-.3.472,0l.009.149-.463-.063a13.211,13.211,0,0,1,3.769-7.384,9.15,9.15,0,0,0,1.623-1.771.236.236,0,0,1,.407.238" transform="translate(-18.203)" fill="#446b6b"/>
        <path id="Trazado_185361" data-name="Trazado 185361" d="M69.575,151.874c16.034,46.89,18.025,101.494,9.263,150.269-7.5,1.852-25.026,1.89-25.783,1.26-.866-.72-4.78-85.2-7.132-112.9-5.665,30.63-8.107,83.48-6.828,114.6l-26.784,1.173c-4.124-14.432-7.64-27.146-8.816-42.109A118.772,118.772,0,0,1,3.733,239.4c1.663-12.643,9.295-69.013,11.705-86.451,15,3.068,38.877.766,54.085-1.034Z" transform="translate(11.315)" fill="#56480d"/>
        <path id="Trazado_185362" data-name="Trazado 185362" d="M88.168,60.346c-5.779-.423-13.459.851-17.768,4.724s-7.492,8.815-10.62,13.693l-13.148,20.5c1.913,3.731,6.456,5.641,10.626,5.208s7.926-2.867,10.774-5.944a52.432,52.432,0,0,0,6.945-10.446Z" transform="translate(-36.53)" fill="#d9c7c2"/>
        <path id="Trazado_185363" data-name="Trazado 185363" d="M55.042,101.048a9.171,9.171,0,0,0,15.839,6.242C72.8,105.27,83.494,67.578,87.8,59.135c2.369-4.647,7.182-6.046,5.887-11.1-.51-1.992-1.68-3.805-1.923-5.846-.579-4.878,4.028-10.5.76-14.167a33.8,33.8,0,0,0-3.792,11.027,40.4,40.4,0,0,0,2.984-9.828,1.442,1.442,0,0,0-2.674-.936C87.087,31.678,85.286,36,85.024,38.641a7.714,7.714,0,0,0-.11-7.15.538.538,0,0,0-1.007.215c-.662,7.7-28.881,66.334-28.865,69.342" transform="translate(-50.672)" fill="#cd8451"/>
        <path id="Trazado_185364" data-name="Trazado 185364" d="M62.466,38a30.369,30.369,0,0,0,.948,5.846,10.712,10.712,0,0,1,.165,2.914,9.771,9.771,0,0,1-.71,2.744,15.592,15.592,0,0,1-1.547,2.807c-.169.25-.578.014-.407-.238a11.942,11.942,0,0,0,2.174-5.144,17.3,17.3,0,0,0-.712-5.693A14.068,14.068,0,0,1,62,38a.236.236,0,0,1,.471,0" transform="translate(-26.223)" fill="#cc9c87"/>
        <path id="Trazado_185365" data-name="Trazado 185365" d="M46.893,50.844l.025.011a7.307,7.307,0,0,0,9.675-3.635l5.613-12.367a7.309,7.309,0,0,0-3.635-9.676l-.026-.011A7.308,7.308,0,0,0,48.87,28.8L43.258,41.169a7.308,7.308,0,0,0,3.635,9.675" transform="translate(-7.194)" fill="#6a9899"/>
        <path id="Trazado_185366" data-name="Trazado 185366" d="M20.894,39.942c-1.738,10.36,10.521,9.927,10.521,9.927,1.075.53-.329,4.142-.651,6.5s-1.268,4.641-1.2,7.021l14.726,2.993A151.961,151.961,0,0,0,46.632,45.5c2.447,2.3,7.047,1.932,8.7-.992s-.99-7.354-4.317-6.882c1.593-5.454,1.479-16.585,1.836-22.256a1.735,1.735,0,0,0-.263-1.285,1.758,1.758,0,0,0-1.288-.409c-8.977-.363-13.868-3.4-22.845-3.762,0,0-6.254,22.223-7.564,30.029" transform="translate(21.702)" fill="#cd8451"/>
        <path id="Trazado_185367" data-name="Trazado 185367" d="M53.2,60.328,61.586,65a4.373,4.373,0,0,1,1.913,1.62,4.367,4.367,0,0,1,.3,2.148c-.557,19.349,11.24,103.545,10.73,104.3-.632.934-64.994-6.991-64.9-8.014.965-10.483,1.914-46.6-.315-56.886-.687-3.174,7.276-21.45,7.907-24.636.672-3.395,2.925-6.233,5.148-8.886,4.458-5.321-20.591,1.38,14.355-15.816L37.847,55.9a9.714,9.714,0,0,0,14.924,2.139Z" transform="translate(14.451)" fill="#a8938e"/>
        <path id="Trazado_185368" data-name="Trazado 185368" d="M36.457,49.87l8.7,2.116-8.408.823Z" transform="translate(16.659)" fill="#7f4e33"/>
        <path id="Trazado_185369" data-name="Trazado 185369" d="M27.361,39.865a5.65,5.65,0,0,0-3.087,3.242.484.484,0,0,1-.58.33.475.475,0,0,1-.329-.58,6.611,6.611,0,0,1,3.745-3.9.474.474,0,0,1,.58.329.483.483,0,0,1-.329.58" transform="translate(47.219)" fill="#7f4e33"/>
        <path id="Trazado_185370" data-name="Trazado 185370" d="M25.714,42.859l-1.281-.833a.5.5,0,0,1-.217-.282.472.472,0,0,1,.693-.533l1.281.834a.5.5,0,0,1,.217.282.472.472,0,0,1-.693.532" transform="translate(47.647)" fill="#7f4e33"/>
        <path id="Trazado_185371" data-name="Trazado 185371" d="M37.6,34.444a1.447,1.447,0,1,0-1.01-1.546,1.318,1.318,0,0,0,1.01,1.546" transform="translate(22.741)"/>
        <path id="Trazado_185372" data-name="Trazado 185372" d="M50.161,33.06a1.447,1.447,0,1,0-1.01-1.546,1.317,1.317,0,0,0,1.01,1.546" transform="translate(-2.373)"/>
        <path id="Trazado_185373" data-name="Trazado 185373" d="M43.508,46.549a1.346,1.346,0,0,0,1.881-.594,1.686,1.686,0,0,0-.6-1.985,2.273,2.273,0,0,0-2.113-.2.038.038,0,0,0-.022.045Z" transform="translate(10.102)" fill="#fff"/>
        <path id="Trazado_185374" data-name="Trazado 185374" d="M43.743,46.142c.039.026.079.047.12.07.07.04-.08-.021.029.011.039.012.076.023.115.032a.284.284,0,0,0,.067.012c-.045.009-.08-.006-.006,0,.04,0,.079,0,.12,0l.068,0c.062,0,.014.017-.022,0,.058.023.211-.055.268-.074-.089.029-.007,0,.032-.016s.072-.039.107-.06.137-.1.047-.028c.036-.03.072-.06.1-.093s.063-.068.094-.1c-.061.07-.005,0,.018-.032s.04-.071.059-.107c.038-.071,0-.006,0,.01.01-.03.021-.06.031-.091s.024-.085.033-.129c.005-.025.009-.05.013-.075-.016.1,0,.035,0,.012,0-.044,0-.089,0-.133s-.017-.195,0-.084a1.769,1.769,0,0,0-.067-.281c-.01-.032-.052-.137-.014-.05-.024-.054-.05-.106-.078-.157s-.046-.078-.071-.116c-.014-.022-.03-.043-.044-.064.01.014.059.07,0,0a1.969,1.969,0,0,0-.219-.219c-.006-.006-.058-.043-.013-.011s-.025-.016-.037-.024q-.063-.042-.129-.078a1.7,1.7,0,0,0-.154-.077c.009,0,.064.022.014.007s-.068-.024-.1-.035c-.061-.02-.124-.036-.187-.05l-.063-.013s-.125-.019-.065-.012-.032,0-.045,0l-.109-.007q-.087,0-.174,0c-.065,0-.13.009-.195.015s.068-.016-.005,0c-.035.009-.071.013-.107.021a2.566,2.566,0,0,0-.375.112l.208-.121-.019.018.138-.334c.008-.107-.031-.127-.013-.08.006.018.011.036.016.054.021.065.041.13.061.195q.1.33.2.658.228.737.458,1.474l.1.338a.477.477,0,0,1-.33.58.482.482,0,0,1-.58-.33q-.408-1.317-.818-2.635c-.011-.033-.024-.067-.032-.1a.517.517,0,0,1,.294-.6,2.419,2.419,0,0,1,.389-.126,2.781,2.781,0,0,1,1.635.089,2.264,2.264,0,0,1,1.2,1.047,2.149,2.149,0,0,1,.2,1.518,1.824,1.824,0,0,1-2.651,1.092.471.471,0,1,1,.476-.814" transform="translate(10.105)" fill="#a46e4a"/>
        <path id="Trazado_185375" data-name="Trazado 185375" d="M32.547,26.08a.4.4,0,0,0-.325.61,1.273,1.273,0,0,0,.388.4,3.121,3.121,0,0,0,1.112.383l3.253.679a.491.491,0,0,0-.214-.352,7.794,7.794,0,0,0-3.2-1.7,1.691,1.691,0,0,0-1.012-.025" transform="translate(29.132)"/>
        <path id="Trazado_185376" data-name="Trazado 185376" d="M50.629,24.544a.4.4,0,0,1,.437.535,1.278,1.278,0,0,1-.3.47,3.138,3.138,0,0,1-1.017.592l-3.06,1.3a.491.491,0,0,1,.142-.386,7.786,7.786,0,0,1,2.812-2.286,1.686,1.686,0,0,1,.988-.221" transform="translate(0.499)"/>
        <path id="Trazado_185377" data-name="Trazado 185377" d="M95.717,82.956l-15.97-2.981a4.1,4.1,0,0,0-2.513.066,3.3,3.3,0,0,0-1.189,1.185c-4.093,5.892-10.219,11.59-12.015,18.3-.972,3.629-1.932,14.142.865,16.911a13.1,13.1,0,0,0,4.926,2.686c4.463,1.584,13.442-2.953,17.542-5.233,2.711-1.506,4.306-4.142,5.628-6.709a77.249,77.249,0,0,0,5.279-13.03Z" transform="translate(-63.049)" fill="#a8938e"/>
        <path id="Trazado_185378" data-name="Trazado 185378" d="M74.87,77.18c-.359,3.139-.718,6.283-1.285,9.393A48.157,48.157,0,0,1,71.1,95.578a42.66,42.66,0,0,1-2.227,4.779c-.29.533-1.1.058-.814-.475a41.227,41.227,0,0,0,3.434-8.41,65.766,65.766,0,0,0,1.8-9.119c.234-1.721.43-3.447.627-5.173a.485.485,0,0,1,.472-.471.474.474,0,0,1,.471.471" transform="translate(-44.603)" fill="#a8938e"/>
        <path id="Trazado_185379" data-name="Trazado 185379" d="M82.067,82.022a36.97,36.97,0,0,1-10.133-1.748q-1.395-.45-2.751-1.01a.487.487,0,0,1-.33-.58.475.475,0,0,1,.58-.33,36.075,36.075,0,0,0,9.783,2.524q1.42.158,2.851.2c.605.019.608.962,0,.943" transform="translate(-53.088)" fill="#a8938e"/>
        <path id="Trazado_185380" data-name="Trazado 185380" d="M79.261,76.607a.533.533,0,0,0-.056-.061l-.033-.03c-.052-.047.089.063.045.035a1.075,1.075,0,0,0-.148-.083c.036.016.075.031.113.047a1.014,1.014,0,0,0-.228-.062l.125.017a1.084,1.084,0,0,0-.273,0l.126-.016a1.054,1.054,0,0,0-.248.065l.113-.047a1.05,1.05,0,0,0-.13.065c-.021.013-.039.028-.061.04.132-.082.061-.047.027-.016-.018.016-.034.033-.051.05-.073.08.059-.087.018-.025a.821.821,0,0,0-.073.129l.047-.113a.822.822,0,0,0-.053.188c.005-.042.011-.083.015-.125a1,1,0,0,0,0,.232c-.005-.042-.011-.083-.016-.125a1.061,1.061,0,0,0,.062.227l-.048-.113a1.126,1.126,0,0,0,.082.158c.013.02.077.107.021.034s.011.01.027.027.037.037.057.055.068.055,0,0-.023-.018-.008-.008a1,1,0,0,0,.16.089l-.112-.047a.887.887,0,0,0,.188.051l-.125-.017a.764.764,0,0,0,.2,0l-.125.017a.854.854,0,0,0,.186-.051l-.113.047a.86.86,0,0,0,.147-.078c.005,0,.032-.03.039-.029s-.093.079-.049.037c.021-.02.043-.039.064-.06s.034-.04.053-.059c.033-.034-.075.1-.032.04l.023-.032A1.318,1.318,0,0,0,79.3,76.9c-.015.037-.031.075-.047.112a.993.993,0,0,0,.069-.245c-.006.042-.011.084-.018.126a.8.8,0,0,0,0-.213c.006.041.01.083.017.125a.776.776,0,0,0-.05-.189c.016.037.033.075.049.113l-.016-.037a.509.509,0,0,1-.048-.363.472.472,0,0,1,.862-.113,1.342,1.342,0,0,1,.1.86,1.45,1.45,0,0,1-.355.669,1.3,1.3,0,0,1-.641.391,1.26,1.26,0,0,1-.852-.1,1.445,1.445,0,0,1-.782-1.245,1.17,1.17,0,0,1,.214-.711,1.394,1.394,0,0,1,.658-.489,1.367,1.367,0,0,1,1.47.341.509.509,0,0,1,.137.334.471.471,0,0,1-.805.333" transform="translate(-59.564)" fill="#a8938e"/>
        <path id="Trazado_185381" data-name="Trazado 185381" d="M71.558,91.084a11.88,11.88,0,0,1-.656,5.482.484.484,0,0,1-.58.329.475.475,0,0,1-.329-.58,11.248,11.248,0,0,0,.622-5.231.474.474,0,0,1,.472-.471.482.482,0,0,1,.471.471" transform="translate(-43.338)" fill="#a8938e"/>
        <path id="Trazado_185382" data-name="Trazado 185382" d="M65.407,71.116A58.659,58.659,0,0,0,62.949,81.54c-.271,1.748-.5,3.5-.722,5.257s-.459,3.5-.53,5.264a15.778,15.778,0,0,0,.675,5.695.472.472,0,0,1-.91.251c-1.14-3.4-.705-7.032-.267-10.509.455-3.607.912-7.22,1.679-10.776A48.848,48.848,0,0,1,64.5,70.865a.483.483,0,0,1,.58-.329.476.476,0,0,1,.329.58" transform="translate(-27.893)" fill="#a8938e"/>
        <path id="Trazado_185383" data-name="Trazado 185383" d="M47.825,67.869a4.234,4.234,0,0,1-3.263-.152.474.474,0,0,1-.169-.645.483.483,0,0,1,.645-.169,3.5,3.5,0,0,0,1.226.282q.174,0,.348-.006c.058,0,.115-.009.173-.015s.066-.007.022,0l.074-.012a3.7,3.7,0,0,0,.693-.19.473.473,0,0,1,.58.329.485.485,0,0,1-.329.58" transform="translate(5.772)" fill="#a8938e"/>
        <path id="Trazado_185384" data-name="Trazado 185384" d="M41.707,71.3c-.23.448,8.432,32.355,13.681,47.479L86.8,114.414Q79.625,87.673,71.916,61.066S41.969,70.791,41.707,71.3" transform="translate(-30.235)" fill="#ddd"/>
        <path id="Trazado_185385" data-name="Trazado 185385" d="M39.481,72.872c-.227.425,7.524,30.306,12.288,44.451l30-4.6Q75.352,87.679,68.427,62.768s-28.688,9.621-28.946,10.1" transform="translate(-22.977)" fill="#fff"/>
        <path id="Trazado_185386" data-name="Trazado 185386" d="M75.609,69.628a1.175,1.175,0,0,1,.807,1.167,1.528,1.528,0,0,1-.844,1.376,3.724,3.724,0,0,1-2.018.315,7.444,7.444,0,0,1-2.358-.508c-.529-.22-1.2-.759-.939-1.41a1.06,1.06,0,0,1,1.523-.351,1.716,1.716,0,0,1,.771,1.371,1.822,1.822,0,0,1-.694,1.527,2.893,2.893,0,0,1-2.025.6,7.444,7.444,0,0,1-2.59-.846l.355-.2c.03,1.25-1.518,1.581-2.474,1.681a13.96,13.96,0,0,1-4.65-.305c.1-.076.2-.152.3-.227A2.523,2.523,0,0,1,59.387,76a6.277,6.277,0,0,1-3.167.522.236.236,0,0,1,0-.472,6.076,6.076,0,0,0,2.827-.4A2.087,2.087,0,0,0,60.3,73.811a.238.238,0,0,1,.3-.228,13.57,13.57,0,0,0,4.151.323,4.813,4.813,0,0,0,1.616-.318,1.061,1.061,0,0,0,.76-.926.239.239,0,0,1,.355-.2,4.705,4.705,0,0,0,3.4.66,1.8,1.8,0,0,0,1.093-.887,1.371,1.371,0,0,0-.034-1.159.886.886,0,0,0-.969-.541.339.339,0,0,0-.277.443,1.076,1.076,0,0,0,.528.5,5.5,5.5,0,0,0,1.787.488,5.183,5.183,0,0,0,1.757,0,1.367,1.367,0,0,0,1.153-.9.788.788,0,0,0-.434-.981.236.236,0,0,1,.125-.455" transform="translate(-34.138)" fill="#d3d3d1"/>
        <path id="Trazado_185387" data-name="Trazado 185387" d="M74.888,75.93c-.175,1.018-1.3,1.39-2.207,1.394a7.83,7.83,0,0,1-1.729-.3,2.951,2.951,0,0,0-1.968.036,6.159,6.159,0,0,0-.8.559,2.643,2.643,0,0,1-.878.414,11.515,11.515,0,0,1-2,.208,27.019,27.019,0,0,0-8.826,2.277c-.275.123-.515-.283-.238-.407a27.656,27.656,0,0,1,8.058-2.24c.694-.083,1.39-.122,2.086-.174a3.966,3.966,0,0,0,.95-.165,2.757,2.757,0,0,0,.819-.48,3.294,3.294,0,0,1,.792-.491,2.5,2.5,0,0,1,.922-.159,9.118,9.118,0,0,1,1.943.341c.865.194,2.419.206,2.615-.938.052-.3.506-.172.455.125" transform="translate(-32.747)" fill="#d3d3d1"/>
        <path id="Trazado_185388" data-name="Trazado 185388" d="M74.118,81.49a3.022,3.022,0,0,1-2.658,1.836,6.682,6.682,0,0,1-2.134-.21,9.386,9.386,0,0,0-1.505-.271,2.489,2.489,0,0,0-1.314.185,1.063,1.063,0,0,0-.437.414c-.14.244-.16.535-.293.784a1.336,1.336,0,0,1-1.367.55c-.686-.059-1.373-.222-2.051-.34l-5.085-.886.3-.227A3.157,3.157,0,0,1,53.1,86.556c-.277-.123-.038-.53.237-.407A2.688,2.688,0,0,0,57.1,83.325c-.019-.166.166-.251.3-.227l4.315.751,2.157.375c.417.073,1.12.252,1.438-.139a3.518,3.518,0,0,0,.3-.777,1.444,1.444,0,0,1,.381-.5,2.15,2.15,0,0,1,1.206-.437,15.079,15.079,0,0,1,3.169.457c1.229.15,2.821-.144,3.3-1.467.1-.284.558-.161.455.125" transform="translate(-28.844)" fill="#d3d3d1"/>
        <path id="Trazado_185389" data-name="Trazado 185389" d="M72.037,89.055a2.943,2.943,0,0,1-1.919,2.251,2.785,2.785,0,0,1-2.843-.672,2.822,2.822,0,0,1-.828-1.518.24.24,0,0,1,.227-.3c1.435.019,1.881,1.952,1.205,2.983a2.973,2.973,0,0,1-2.1,1.165,8.334,8.334,0,0,1-2.806-.164A13.314,13.314,0,0,1,59.6,91.633l.322-.322c.529.78-.185,1.729-.941,2-1.082.394-2.2-.342-3.292-.241a1.3,1.3,0,0,0-1.131.684c-.126.276-.532.037-.407-.238a1.636,1.636,0,0,1,1.188-.866,4.173,4.173,0,0,1,1.814.12,2.547,2.547,0,0,0,1.945-.039c.377-.248.708-.756.417-1.185-.142-.209.128-.42.323-.323a12.816,12.816,0,0,0,2.634.979,10.043,10.043,0,0,0,2.574.348,3.319,3.319,0,0,0,2.09-.63,1.62,1.62,0,0,0,.572-1.506,1.168,1.168,0,0,0-1.032-1.128l.228-.3a2.364,2.364,0,0,0,4.68-.06c.047-.3.5-.172.455.125" transform="translate(-27.896)" fill="#d3d3d1"/>
        <path id="Trazado_185390" data-name="Trazado 185390" d="M69.739,97.6c.826.472.247,1.58-.335,1.978a4.985,4.985,0,0,1-2.624.669,10.378,10.378,0,0,0-2.707.287,4.787,4.787,0,0,0-1.238.726,2.334,2.334,0,0,1-1.56.272,6.987,6.987,0,0,0-3.645.874c-.265.147-.5-.26-.238-.409a7.573,7.573,0,0,1,2.99-.914,6.8,6.8,0,0,1,.755-.026c.282,0,.566.047.847.028.5-.032.826-.435,1.233-.679,1.524-.918,3.392-.375,5.036-.825a2.274,2.274,0,0,0,1.166-.638c.189-.229.429-.737.082-.935a.236.236,0,0,1,.238-.408" transform="translate(-29.156)" fill="#d3d3d1"/>
        <path id="Trazado_185391" data-name="Trazado 185391" d="M65.245,106.474a1.405,1.405,0,0,1,.467,2.167,2.087,2.087,0,0,1-2.86,0,5.144,5.144,0,0,1-1.229-1.62.237.237,0,0,1,.37-.286A8.985,8.985,0,0,1,63.2,108.1c.3.415.776.993.537,1.535a1.066,1.066,0,0,1-1.048.517,3.8,3.8,0,0,1-1.462-.421,6.019,6.019,0,0,1-1.607-1.1l.394-.1q-.24,1.184-.479,2.367c-.06.3-.515.172-.455-.125l.48-2.367a.238.238,0,0,1,.394-.1,5.6,5.6,0,0,0,1.511,1.021,2.661,2.661,0,0,0,1.47.341c.157-.028.342-.093.388-.264.077-.285-.241-.646-.39-.865a8.389,8.389,0,0,0-1.277-1.462l.37-.285c.518.956,1.34,2.137,2.6,1.94a1.041,1.041,0,0,0,.92-.833.856.856,0,0,0-.426-.962c-.28-.109-.158-.565.125-.455" transform="translate(-26.839)" fill="#d3d3d1"/>
        <path id="Trazado_185392" data-name="Trazado 185392" d="M53.632,104.429c-3.278-3.323-8.977-4.778-10.014-9.329a26.341,26.341,0,0,1-.144-4.561,10.411,10.411,0,0,0-4.832-8.059,1.689,1.689,0,0,0-2.505,1.978q.6,1.686,1.246,3.353-3.912-3.27-7.558-6.842a1.336,1.336,0,0,0-2.273.932,3.68,3.68,0,0,0,1.771,3.262,2.761,2.761,0,0,0-4-1.963,2.76,2.76,0,0,0,.021,4.457c-.375-1.789-3.148-2.325-4.3-.907a3,3,0,0,0,1.412,4.46c-.584-1.1-2.492-.135-2.478,1.106s1.075,2.185,2.047,2.958l6.585,5.233a14.409,14.409,0,0,0,3.689,2.362c1.117.427,2.324.569,3.463.935,3.537,1.137,6,4.242,8.455,7.032a80.619,80.619,0,0,0,10.049,9.616,3.324,3.324,0,0,0,2.157.98,3.376,3.376,0,0,0,1.738-.845l5.068-3.83Z" transform="translate(15.069)" fill="#cd8451"/>
        <path id="Trazado_185393" data-name="Trazado 185393" d="M13.361,61.7C17,61.448,35.639,69.489,37.5,72.622s2.506,6.817,3.117,10.41c2.18,12.823-1.121,49.354-3.653,53.575-3.773,6.286-10.256,8.673-13.514,6.286C16.776,138,8.858,118.948,3.389,113.533a4.347,4.347,0,0,1-.66-5.35L7.162,100.9a4.337,4.337,0,0,1,6.308-1.218,76.242,76.242,0,0,0,8.249,5.125c-1.338-13.271-4.234-5.791-4.562-34.719Z" transform="translate(54.846)" fill="#a8938e"/>
        <path id="Trazado_185394" data-name="Trazado 185394" d="M52.466,83.846q1.564,2.113,3.13,4.225c.211.285-.267.56-.476.278l-3.129-4.225c-.211-.285.266-.56.475-.278" transform="translate(-9.317)" fill="#a46e4a"/>
        <path id="Trazado_185395" data-name="Trazado 185395" d="M54.96,86.571,58.1,90.193c.231.266-.156.657-.389.389q-1.572-1.811-3.143-3.622c-.232-.266.156-.657.389-.389" transform="translate(-14.404)" fill="#a46e4a"/>
        <path id="Trazado_185396" data-name="Trazado 185396" d="M57.723,90.228l3.389,3.017c.265.236-.125.625-.39.39l-3.388-3.018c-.265-.236.125-.624.389-.389" transform="translate(-20.176)" fill="#a46e4a"/>
        <path id="Trazado_185397" data-name="Trazado 185397" d="M58.262,86.831q-3.863,4.216-7.724,8.434c-.24.261-.629-.129-.389-.39l7.724-8.433c.239-.262.628.128.389.389" transform="translate(-10.14)" fill="#a46e4a"/>
        <path id="Trazado_185398" data-name="Trazado 185398" d="M49.419,28.82a16.914,16.914,0,0,0-7.888,7.615l-.282-.693L46.434,37.2a.472.472,0,0,1-.25.909L41,36.651a.477.477,0,0,1-.281-.692,17.991,17.991,0,0,1,6.026-6.714,17.345,17.345,0,0,1,2.2-1.239.484.484,0,0,1,.645.169.475.475,0,0,1-.169.645" transform="translate(7.963)" fill="#7f4e33"/>
        <path id="Trazado_185399" data-name="Trazado 185399" d="M11.939,99.525a16.628,16.628,0,0,1,2.931,1.914q1.338,1.012,2.629,2.084,2.538,2.11,4.874,4.449A72.767,72.767,0,0,1,30.8,118.1a71.423,71.423,0,0,1,3.874,6.293c.291.533-.523,1.009-.814.476a71.072,71.072,0,0,0-7.246-10.791,71.924,71.924,0,0,0-9.125-9.334q-1.36-1.159-2.78-2.249a18.022,18.022,0,0,0-3.246-2.154.476.476,0,0,1-.169-.645.483.483,0,0,1,.645-.169" transform="translate(52.301)" fill="#56480d"/>
        <path id="Trazado_185400" data-name="Trazado 185400" d="M15.705,122.624a21.9,21.9,0,0,0-6.648-5.077.471.471,0,1,1,.476-.814,22.6,22.6,0,0,1,6.839,5.224.483.483,0,0,1,0,.667.477.477,0,0,1-.667,0" transform="translate(72.937)" fill="#56480d"/>
        <path id="Trazado_185401" data-name="Trazado 185401" d="M40.294,61.124q-.332,1.6-.664,3.205a.472.472,0,0,1-.909-.251q.331-1.6.664-3.205a.472.472,0,1,1,.909.251" transform="translate(19.255)" fill="#56480d"/>
        <path id="Trazado_185402" data-name="Trazado 185402" d="M47.805,62.236a12.576,12.576,0,0,1-7.118,2.682,12.374,12.374,0,0,1-10.158-4.572.487.487,0,0,1,0-.667.477.477,0,0,1,.667,0,11.6,11.6,0,0,0,5.533,3.793,11.46,11.46,0,0,0,10.409-1.9.487.487,0,0,1,.667,0,.475.475,0,0,1,0,.667" transform="translate(19.931)" fill="#56480d"/>
        <path id="Trazado_185403" data-name="Trazado 185403" d="M42.193,65.616q-1.377,6.936-2.346,13.944-.27,1.953-.5,3.909a.487.487,0,0,1-.472.472.474.474,0,0,1-.471-.472q.859-7.1,2.133-14.145.358-1.983.752-3.959a.476.476,0,0,1,.58-.329.481.481,0,0,1,.329.58" transform="translate(17.669)" fill="#56480d"/>
        <path id="Trazado_185404" data-name="Trazado 185404" d="M22.711,73.143a13.423,13.423,0,0,0-5.012,4,26.053,26.053,0,0,0-3.334,5.732,72.331,72.331,0,0,0-2.663,7.2Q10.409,94.1,9.459,98.219t-1.551,8.339q-.07.491-.135.981a.487.487,0,0,1-.471.471c-.229,0-.505-.217-.471-.471q.563-4.289,1.482-8.518.917-4.181,2.188-8.272c.8-2.572,1.681-5.13,2.73-7.612a29.031,29.031,0,0,1,3.285-5.989A15.036,15.036,0,0,1,21.477,72.7c.249-.132.5-.253.758-.367a.486.486,0,0,1,.645.169.475.475,0,0,1-.169.645" transform="translate(68.502)" fill="#56480d"/>
        <path id="Trazado_185405" data-name="Trazado 185405" d="M35.527,104.811q1.512-6.8,2.446-13.709.26-1.92.471-3.847.173.228.346.455L27.274,84.649l-3.258-.866.58-.329a32.187,32.187,0,0,0-1.23,6.43.484.484,0,0,1-.471.471.475.475,0,0,1-.472-.471A33.5,33.5,0,0,1,23.687,83.2a.479.479,0,0,1,.58-.329l11.516,3.061,3.257.866a.473.473,0,0,1,.346.454q-.772,7.005-2.135,13.928-.384,1.944-.815,3.879a.472.472,0,1,1-.909-.251" transform="translate(36.46)" fill="#56480d"/>
        <path id="Trazado_185406" data-name="Trazado 185406" d="M82.886,101.979a7.748,7.748,0,0,1-3.322,3.111.483.483,0,0,1-.645-.169.475.475,0,0,1,.169-.645,7.331,7.331,0,0,0,.926-.533,5.984,5.984,0,0,0,.778-.625,6.486,6.486,0,0,0,1.28-1.615.471.471,0,0,1,.814.476" transform="translate(-63.536)" fill="#56480d"/>
        <path id="Trazado_185407" data-name="Trazado 185407" d="M38.79,141.874A124.085,124.085,0,0,1,32.042,131.1c-2.138-3.782-4.148-7.636-6.123-11.5-1.077-2.109-2.144-4.224-3.218-6.335a.482.482,0,0,1,.169-.644.476.476,0,0,1,.645.169c1.926,3.786,3.831,7.583,5.809,11.343,2.021,3.841,4.113,7.647,6.385,11.347,1.236,2.015,2.527,4,3.9,5.924a.475.475,0,0,1-.169.645.482.482,0,0,1-.645-.169" transform="translate(35.955)" fill="#56480d"/>
        <path id="Trazado_185408" data-name="Trazado 185408" d="M38.664,102.9l-5.724,8.77-1.623,2.487a.482.482,0,0,1-.645.169.476.476,0,0,1-.169-.645q2.861-4.384,5.724-8.77l1.623-2.487a.482.482,0,0,1,.645-.169.476.476,0,0,1,.169.645" transform="translate(29.103)" fill="#56480d"/>
        <path id="Trazado_185409" data-name="Trazado 185409" d="M38.786,109.715a2.268,2.268,0,0,1-1.348,1.187l-.125.017a.366.366,0,0,1-.182-.041.461.461,0,0,1-.225-.193,1.349,1.349,0,0,1,.868-1.888,1.093,1.093,0,0,1,.667.023.517.517,0,0,1,.282.217.472.472,0,0,1-.17.645.459.459,0,0,1-.363.047.717.717,0,0,0-.159-.042l.125.017a.706.706,0,0,0-.172,0l.125-.017a.809.809,0,0,0-.192.055l.113-.048a.971.971,0,0,0-.2.119l.1-.074a1.14,1.14,0,0,0-.176.178l.074-.1a.99.99,0,0,0-.132.227c.015-.038.031-.076.047-.113a.929.929,0,0,0-.057.208c.006-.042.012-.084.017-.125a.763.763,0,0,0,0,.185c-.006-.042-.011-.084-.017-.125a.7.7,0,0,0,.041.155c-.015-.038-.031-.075-.047-.113a.709.709,0,0,0,.044.087l-.533-.216c.045-.016.089-.032.132-.05l-.112.047a1.842,1.842,0,0,0,.394-.233l-.1.074a1.9,1.9,0,0,0,.323-.324c-.024.032-.049.063-.074.095a1.8,1.8,0,0,0,.217-.363.472.472,0,0,1,.862.113c.005.042.011.083.016.125a.464.464,0,0,1-.064.238" transform="translate(22.667)" fill="#56480d"/>
        <path id="Trazado_185410" data-name="Trazado 185410" d="M21,142.949a19.426,19.426,0,0,1-7.638.1.475.475,0,0,1-.329-.58.482.482,0,0,1,.579-.33,18.2,18.2,0,0,0,7.137-.1.484.484,0,0,1,.58.33.475.475,0,0,1-.329.579" transform="translate(63.898)" fill="#56480d"/>
        <path id="Trazado_185411" data-name="Trazado 185411" d="M47.039,118.108q-.745,9.789-1.06,19.606-.312,9.764-.195,19.533.064,5.481.266,10.96c.022.607-.921.606-.943,0q-.358-9.812-.285-19.631.073-9.768.576-19.527.281-5.473.7-10.941a.483.483,0,0,1,.472-.471.475.475,0,0,1,.471.471" transform="translate(6.421)" fill="#56480d"/>
        <path id="Trazado_185412" data-name="Trazado 185412" d="M47.838,153.792l-3.555-.456a.486.486,0,0,1-.471-.471.473.473,0,0,1,.471-.471l3.555.455a.486.486,0,0,1,.471.471.474.474,0,0,1-.471.472" transform="translate(6.149)" fill="#56480d"/>
        <path id="Trazado_185413" data-name="Trazado 185413" d="M46.726,133.6l-4.178-1.265c-.58-.176-.333-1.086.25-.909l4.179,1.265a.472.472,0,0,1-.251.909" transform="translate(8.746)" fill="#56480d"/>
        <path id="Trazado_185414" data-name="Trazado 185414" d="M75.222,162.944a39.6,39.6,0,0,1-5.443,7.37,46.781,46.781,0,0,1-7.133,6.343,34.933,34.933,0,0,1-4.233,2.629.482.482,0,0,1-.645-.17.477.477,0,0,1,.17-.645,38.2,38.2,0,0,0,7.353-5.1,45.753,45.753,0,0,0,6.386-6.768,35.288,35.288,0,0,0,2.731-4.13.472.472,0,0,1,.814.476" transform="translate(-34.723)" fill="#a8938e"/>
        <path id="Trazado_185415" data-name="Trazado 185415" d="M10.685,168.634a20.915,20.915,0,0,0,3.708,5.8,21.347,21.347,0,0,0,5.376,4.306,20.068,20.068,0,0,0,3.518,1.565.483.483,0,0,1,.329.58.476.476,0,0,1-.58.33,21.654,21.654,0,0,1-6.316-3.363,22.493,22.493,0,0,1-4.934-5.23,20.9,20.9,0,0,1-1.915-3.513.488.488,0,0,1,.169-.646.475.475,0,0,1,.645.169" transform="translate(64.82)" fill="#a8938e"/>
        <path id="Trazado_185416" data-name="Trazado 185416" d="M16.084,180.394q1.013,10.719,1.464,21.48t.334,21.526q-.114,10.766-.792,21.515t-1.918,21.444q-1.234,10.65-3.021,21.228-.224,1.32-.456,2.639c-.1.6-1.013.343-.909-.251q1.86-10.595,3.165-21.276,1.294-10.634,2.033-21.325.742-10.741.922-21.51.179-10.711-.2-21.421t-1.319-21.382q-.117-1.334-.244-2.667c-.057-.6.886-.6.943,0" transform="translate(69.587)" fill="#a8938e"/>
        <path id="Trazado_185417" data-name="Trazado 185417" d="M34.959,293.346l-11.049-.618c-3.594-.2-7.2-.442-10.8-.315a38.734,38.734,0,0,0-5.923.63.483.483,0,0,1-.58-.33.475.475,0,0,1,.33-.579,49.084,49.084,0,0,1,10.829-.654c3.643.117,7.283.369,10.922.572l6.269.351a.482.482,0,0,1,.471.472.475.475,0,0,1-.471.471" transform="translate(56.246)" fill="#a8938e"/>
        <path id="Trazado_185418" data-name="Trazado 185418" d="M78.013,175.7c-1.491,6.912-2.563,13.914-3.4,20.934-.849,7.093-1.4,14.206-1.795,21.337q-.675,12.085-1.349,24.171c-.445,7.967-.942,15.941-.885,23.925a162.493,162.493,0,0,0,1.933,23.908q.233,1.483.491,2.961c.1.594-.805.848-.909.251a164.782,164.782,0,0,1-2.4-23.767c-.223-8.088.207-16.173.658-24.247q.676-12.141,1.355-24.282c.408-7.3.87-14.585,1.68-21.853.79-7.082,1.8-14.149,3.2-21.137q.246-1.227.511-2.452c.128-.592,1.037-.342.909.251" transform="translate(-49.392)" fill="#a8938e"/>
        <path id="Trazado_185419" data-name="Trazado 185419" d="M77.681,295.631q-5.8.054-11.591-.267t-11.549-1.02q-3.258-.395-6.5-.907a.475.475,0,0,1-.329-.58.483.483,0,0,1,.58-.329q5.684.9,11.418,1.423,5.715.525,11.457.68,3.257.088,6.515.057a.472.472,0,0,1,0,.943" transform="translate(-27.563)" fill="#a8938e"/>
        <path id="Trazado_185420" data-name="Trazado 185420" d="M43,40.16a2.135,2.135,0,0,1,2.751.01c.82.582,1.385,1.457,2.153,2.106a2.4,2.4,0,0,0,2.765.48,3.476,3.476,0,0,1-3.337.7,7.557,7.557,0,0,1-3.006-1.862,3.258,3.258,0,0,0-1.863-1.1c-1.1-.06-1.859,1.025-2.793,1.6a3.368,3.368,0,0,1-4-.439c1.4.062,2.362-1.348,3.6-2a3.633,3.633,0,0,1,3.916.422Z" transform="translate(11.923)"/>
        <path id="Trazado_185421" data-name="Trazado 185421" d="M44.8,37.883c-1.693.388-3.236-1.436-3.243-3.173s1.013-3.291,2.015-4.71c-1.763.245-3.2-1.7-3.139-3.476s1.131-3.342,2.16-4.794a3.056,3.056,0,0,1-1.541-5.779,2.7,2.7,0,0,1-3.381-2.669,4.059,4.059,0,0,1-6.439-.312,3.851,3.851,0,0,1-5.821-1.733,1.81,1.81,0,0,1-3.55.429,2.6,2.6,0,0,1-2.455,2.86c-1.111-2.666.64-5.835,3.14-7.283s5.518-1.6,8.406-1.675a34.957,34.957,0,0,1,10.113.774A11.688,11.688,0,0,1,48.02,11c1.733,2.742,1.74,6.234,1.231,9.438s-1.477,6.357-1.5,9.6Z" transform="translate(29.665)"/>
      </g>
    </g>
  </g>
</svg>
