<svg xmlns="http://www.w3.org/2000/svg" xmlns:xlink="http://www.w3.org/1999/xlink" width="190" height="161" viewBox="0 0 190 161">
  <defs>
    <clipPath id="clip-path">
      <rect id="Rectángulo_45654" data-name="Rectángulo 45654" width="190" height="161" rx="14" transform="translate(6557 -6730)" fill="#e1e8ff"/>
    </clipPath>
    <clipPath id="clip-path-2">
      <rect id="Rectángulo_45653" data-name="Rectángulo 45653" width="110.06" height="314.844" fill="none"/>
    </clipPath>
    <clipPath id="clip-path-4">
      <rect id="Rectángulo_45651" data-name="Rectángulo 45651" width="14.025" height="7.663" transform="translate(50.202 58.912)" fill="none"/>
    </clipPath>
  </defs>
  <g id="Enmascarar_grupo_311" data-name="Enmascarar grupo 311" transform="translate(-6557 6730)" clip-path="url(#clip-path)">
    <g id="Grupo_175568" data-name="Grupo 175568" transform="translate(6475.551 -6775.342)">
      <path id="Trazado_185816" data-name="Trazado 185816" d="M189.906,100.022c-1.445,24.534-18.6,47.959-41.827,49.412-26.681,2.243-51.171-13.811-77.748-13.981-13.552-1.275-26.262,4.419-39.469,6.257C1.032,142.912-3.513,104.452,2.05,79.661,25.512-37.21,191.53-21.309,189.906,100.022Z" transform="matrix(-0.914, 0.407, -0.407, -0.914, 427.449, 156.47)" fill="#c4d1ff"/>
      <path id="Trazado_185819" data-name="Trazado 185819" d="M189.906,100.022c-1.445,24.534-18.6,47.959-41.827,49.412-26.681,2.243-51.171-13.811-77.748-13.981-13.552-1.275-26.262,4.419-39.469,6.257C1.032,142.912-3.513,104.452,2.05,79.661,25.512-37.21,191.53-21.309,189.906,100.022Z" transform="matrix(0.07, -0.998, 0.998, 0.07, 0, 258.246)" fill="#c4d1ff"/>
      <path id="Trazado_185818" data-name="Trazado 185818" d="M.011,96.394c1.347,23.644,17.336,46.22,38.991,47.62,24.872,2.161,47.7-13.31,72.476-13.474,12.633-1.229,24.481,4.258,36.792,6.03,27.806,1.158,32.043-35.907,26.857-59.8C153.256-35.86-1.5-20.536.011,96.394Z" transform="matrix(0.995, -0.105, 0.105, 0.995, 73.478, 18.505)" fill="#a6bbff" opacity="0.388" style="mix-blend-mode: multiply;isolation: isolate"/>
    </g>
    <g id="Grupo_175514" data-name="Grupo 175514" transform="translate(6597 -6722)">
      <g id="Grupo_175513" data-name="Grupo 175513" clip-path="url(#clip-path-2)">
        <g id="Grupo_175512" data-name="Grupo 175512">
          <g id="Grupo_175511" data-name="Grupo 175511" clip-path="url(#clip-path-2)">
            <path id="Trazado_185266" data-name="Trazado 185266" d="M52.325,60.642a5.726,5.726,0,0,1-6.186.463,4.241,4.241,0,0,1-1.94-5.176c-2.476-.185-3.523-2.812-3.992-4.953q-.494-2.247-.986-4.492a4.544,4.544,0,0,1-.054-2.609,2.048,2.048,0,0,1,2.3-1.265,7.419,7.419,0,0,1-1.737-3.826A2.847,2.847,0,0,1,42.4,35.868c-.78-1.719-1.477-3.572-1.087-5.39a4.23,4.23,0,0,1,4.336-3.3c-1.626-2.243-3.309-4.659-3.256-7.318s2.69-5.44,5.66-4.914a11.827,11.827,0,0,1,2.524-7.665c1.17-1.51,4.079-2.664,5-1.027.4-1.972.9-4.1,2.617-5.422s5.043-1.079,5.649.852c1.456-1.863,5.077-1.508,6.58.327s1.163,4.458-.149,6.4a4.7,4.7,0,0,1,4.539,1.872,3.542,3.542,0,0,1-.485,4.381,4.864,4.864,0,0,1,1.328,7.753,4.171,4.171,0,0,1,4.834,1.571,3.212,3.212,0,0,1-1.468,4.337,3.407,3.407,0,0,1,.489,5.153,4.183,4.183,0,0,1,1.366,6.881,2.859,2.859,0,0,1-.581,4.754c1.587,1.9.563,5.022-1.933,5.892,1.845.375,1.2,2.825.133,4.2-2.052,2.658-8.855,6.648-12.4,7.429-.283-.622-2.817-.224-3.1-.846Z"/>
            <path id="Trazado_185267" data-name="Trazado 185267" d="M36.092,283.1q.333,5.074,1.05,10.113a.61.61,0,0,0,.518.638,18.871,18.871,0,0,0,9.43,1.084Q47,287.788,46.4,280.659Z" fill="#cd8451"/>
            <path id="Trazado_185268" data-name="Trazado 185268" d="M66.357,284.216q.7,4.752,1.741,9.445a.555.555,0,0,0,.759.536l8.272-1.108a128.393,128.393,0,0,1-.15-14.01Z" fill="#cd8451"/>
            <path id="Trazado_185269" data-name="Trazado 185269" d="M66.793,310.926a2.4,2.4,0,0,0,2.362,2.53c3.55.062,9.46.081,13.01.057a10.157,10.157,0,0,0,4.717-.8c1.424-.753,2.484-2.456,1.96-3.979-.466-1.361-1.921-2.056-3.1-2.876-5.1-3.534-8.373-10.577-8.825-16.769L66.558,291.8s.613,12.085.235,19.121" fill="#6a9899"/>
            <path id="Trazado_185270" data-name="Trazado 185270" d="M67,311.778c2.238,1.145,4.95.464,7.309-.4s4.832-1.919,7.3-1.439a12.562,12.562,0,0,0,2.3.451c1.288.007,2.444-.774,3.708-1.028.588-.117,1.363-.008,1.533.567a1.183,1.183,0,0,1-.059.7,5.039,5.039,0,0,1-3.8,3.017,19.073,19.073,0,0,1-5.055.125,44.445,44.445,0,0,0-5.571.1,18.476,18.476,0,0,1-4.228.081A4.907,4.907,0,0,1,66.9,311.86Z" fill="#446b6b"/>
            <path id="Trazado_185271" data-name="Trazado 185271" d="M46.82,292.1q1.172,7.077,2.345,14.154c.287,1.738.527,3.694-.523,5.109-1.186,1.6-3.461,1.79-5.45,1.842l-21.061.547c-.674.018-1.472-.026-1.836-.6-.626-.979.692-2.024,1.767-2.466a80.255,80.255,0,0,0,12.284-6.333,6.133,6.133,0,0,0,2.474-2.343,6.386,6.386,0,0,0,.316-3.182q-.339-4.748-.677-9.495c3.5-3.02,10.361,2.762,10.361,2.762" fill="#6a9899"/>
            <path id="Trazado_185272" data-name="Trazado 185272" d="M19.383,312.625c.618-1.54,2.728-1.62,4.383-1.493a76.118,76.118,0,0,0,24.212-2.047c.836-.209,1.988-.28,2.287.528a1.656,1.656,0,0,1-.534,1.548,10.535,10.535,0,0,1-5.715,3.387,20.955,20.955,0,0,1-4.757.281l-17.35-.3a3.494,3.494,0,0,1-1.963-.425,1.208,1.208,0,0,1-.33-1.752Z" fill="#446b6b"/>
            <path id="Trazado_185273" data-name="Trazado 185273" d="M29.925,306.27c.067-.492.655-.636,1.071-.694a4.705,4.705,0,0,1,1.814.13,12.86,12.86,0,0,1,3.371,1.59c.264.159.48-.234.238-.407a10.3,10.3,0,0,1-1.644-1.471,5.419,5.419,0,0,1-1.138-1.646c-.167-.457-.258-1.148.34-1.318a2.7,2.7,0,0,1,1.048.02,7.679,7.679,0,0,1,1.122.242A7.786,7.786,0,0,1,38.4,303.8c.252.175.478-.23.238-.407q-.83-.61-1.6-1.3a8.358,8.358,0,0,1-1.4-1.428c-.259-.382-.443-1.023-.01-1.368a.955.955,0,0,1,.9-.006c.323.11.64.242.953.38a16.563,16.563,0,0,1,2.061,1.091c.225.14.486-.189.285-.37-1.23-1.115-2.47-2.219-3.69-3.344-.093-.085-.246-.2-.243-.34s.145-.227.246-.284a1.955,1.955,0,0,1,1.041-.173,6.107,6.107,0,0,1,2.178.711.236.236,0,0,0,.238-.407,14.311,14.311,0,0,1-2.818-2.059,5.052,5.052,0,0,1-1-1.375c-.068-.148-.093-.257.059-.342a1.568,1.568,0,0,1,.425-.122,5.709,5.709,0,0,1,.992-.122,6.139,6.139,0,0,1,2.24.34c.287.1.41-.356.125-.455a6.521,6.521,0,0,0-2.258-.359,6.594,6.594,0,0,0-1.155.127,1.35,1.35,0,0,0-.827.365c-.247.306-.086.672.08.973a5.708,5.708,0,0,0,.545.8,8.127,8.127,0,0,0,1.441,1.363,22.453,22.453,0,0,0,1.917,1.269l.238-.407a8,8,0,0,0-1.939-.715,2.5,2.5,0,0,0-1.873.254.771.771,0,0,0-.36.667,1.112,1.112,0,0,0,.465.7L37.6,299l1.9,1.724.286-.37a16.467,16.467,0,0,0-2.128-1.12,10.566,10.566,0,0,0-1.1-.432,1.414,1.414,0,0,0-1.066.023,1.3,1.3,0,0,0-.528,1.53,4.423,4.423,0,0,0,1.363,1.725A22.21,22.21,0,0,0,38.4,303.8l.238-.407a8.187,8.187,0,0,0-2.3-1.11,7.929,7.929,0,0,0-1.221-.266,3.5,3.5,0,0,0-1.2-.03,1.2,1.2,0,0,0-.841,1.511,4.277,4.277,0,0,0,1.044,1.875,10.716,10.716,0,0,0,2.065,1.925l.238-.407a12.167,12.167,0,0,0-3.82-1.714,4.837,4.837,0,0,0-1.987-.007,1.341,1.341,0,0,0-1.142.977.245.245,0,0,0,.165.29.238.238,0,0,0,.29-.165" fill="#446b6b"/>
            <path id="Trazado_185274" data-name="Trazado 185274" d="M73.314,297.136a8.147,8.147,0,0,1,3.984-2.344c.282-.069.826-.268,1.087-.061.226.178.119.565.041.79A7.435,7.435,0,0,1,77.28,297.5a9.222,9.222,0,0,1-1.9,1.866c.095.123.19.247.286.37a11.062,11.062,0,0,1,2.809-1.892,3.34,3.34,0,0,1,1.019-.375c.783-.079.509.884.3,1.285a6.862,6.862,0,0,1-1.222,1.659,6.97,6.97,0,0,1-1.906,1.348c.1.123.191.246.286.37a7.585,7.585,0,0,1,4.167-2.07c.265-.04.851-.181,1,.136.128.269-.112.648-.267.855A9.194,9.194,0,0,1,80.19,302.7a10.576,10.576,0,0,1-2.3,1.374l.286.37a7.929,7.929,0,0,1,4.05-2.094,4.2,4.2,0,0,1,1.11-.111c.146.013.317.058.365.216a.633.633,0,0,1-.11.456,4.13,4.13,0,0,1-.756.861,10.3,10.3,0,0,1-.9.778,10.458,10.458,0,0,1-2.343,1.347l.229.394a8.4,8.4,0,0,1,4.3-1.719,4.034,4.034,0,0,1,1.075-.025c.083.015.27.05.3.149.041.137-.2.373-.279.47a11.713,11.713,0,0,1-3.721,3.131c-.267.143-.029.551.238.407A12.24,12.24,0,0,0,85.7,305.3c.23-.3.407-.7.066-1a1.457,1.457,0,0,0-1.022-.235,8.8,8.8,0,0,0-2.6.458,9,9,0,0,0-2.663,1.438c-.182.141.016.481.229.394a10.938,10.938,0,0,0,2.4-1.355,11.079,11.079,0,0,0,1.028-.869,4.6,4.6,0,0,0,.854-.979.934.934,0,0,0-.005-1.109,1.306,1.306,0,0,0-1.132-.253,8.411,8.411,0,0,0-2.531.657,8.3,8.3,0,0,0-2.488,1.667c-.2.2.055.471.286.37a10.985,10.985,0,0,0,3.34-2.287,6.634,6.634,0,0,0,.862-.995,1.394,1.394,0,0,0,.268-1.069.862.862,0,0,0-.884-.592,5.527,5.527,0,0,0-1.316.185,7.923,7.923,0,0,0-1.281.419,8.052,8.052,0,0,0-2.494,1.657c-.2.2.052.483.285.371a7.308,7.308,0,0,0,3.34-3.258c.278-.557.466-1.456-.214-1.813a1.383,1.383,0,0,0-1.15.061,11.343,11.343,0,0,0-1.152.535,11.639,11.639,0,0,0-2.394,1.71c-.193.177.067.53.286.37a9.877,9.877,0,0,0,1.933-1.86,8.083,8.083,0,0,0,1.328-2.27,1.328,1.328,0,0,0,0-1.044.932.932,0,0,0-1-.4,7.816,7.816,0,0,0-2.523.816,8.568,8.568,0,0,0-2.378,1.788c-.207.221.125.555.333.333" fill="#446b6b"/>
            <path id="Trazado_185275" data-name="Trazado 185275" d="M47.87,303.069a3.554,3.554,0,0,0-2.517,1.888,14.4,14.4,0,0,0-1.487,3.556,17.119,17.119,0,0,0-.486,2.273c-.043.3.412.425.455.125a17.058,17.058,0,0,1,.951-3.664,8.462,8.462,0,0,1,1.649-2.935,2.415,2.415,0,0,1,1.435-.772c.3-.033.3-.5,0-.471" fill="#446b6b"/>
            <path id="Trazado_185276" data-name="Trazado 185276" d="M66.689,303.794a7.4,7.4,0,0,0,1.392,1.574,13.464,13.464,0,0,1,1.41,1.533,12.759,12.759,0,0,1,2.542,5.936c.042.276.447.186.463-.063,0-.05.006-.1.01-.149.019-.3-.452-.3-.472,0l-.009.149.463-.063a13.216,13.216,0,0,0-3.768-7.384,9.124,9.124,0,0,1-1.624-1.771.236.236,0,0,0-.407.238" fill="#446b6b"/>
            <path id="Trazado_185277" data-name="Trazado 185277" d="M106.376,172.288a19.411,19.411,0,0,0,3.428-6.838c.659-3.08-.077-6.268-.811-9.331q-4-16.722-8.012-33.446c-.423-1.768-1.039-3.775-2.707-4.5a5.545,5.545,0,0,0-4,.305,38.928,38.928,0,0,0-12.492,7.341l-5.392,8.394q2.82,19.467,5.641,38.936c.357,2.474-16.71,6.248-15.668,8.52S69.305,188.2,71.7,188.9c2.306.67,22.206-3.468,24.243-4.74s8.772-9.5,10.429-11.873" fill="#56480d"/>
            <path id="Trazado_185278" data-name="Trazado 185278" d="M23.385,186.413c8.093-3.322,24.3.532,32.606,3.274,4.977,1.642,17.513.587,22.628,1.728s-.5-24.371,3.645-27.574q-2.232-8.96-5.239-17.7c-2.109-6.131-4.479-1.2-10.034-4.539-5.3-3.187-11.825-2.683-17.757-.943s-12.062-6.82-18-5.115Z" fill="#346060"/>
            <path id="Trazado_185279" data-name="Trazado 185279" d="M71.6,135.161A58.572,58.572,0,0,1,77.893,152.7c1.3,6.94,1.325,14.045,1.477,21.1.825,38.327-.432,64.411-.432,112.654-7.9,4.218-7.857,1.415-16.028,1.257C58.039,254.24,53.419,184.385,52.853,173c-5.574,35.864-2.674,77.184-3.929,113.457-10.685-4.4-6.757,2.672-17.6.315-3.457-79.515-16.185-86.586,4.086-149.6a61.786,61.786,0,0,0,32.153-.811Z" fill="#9a8728"/>
            <path id="Trazado_185280" data-name="Trazado 185280" d="M49.664,145.1q-.345,4.653-.44,9.321c-.058,2.865-.14,5.869.972,8.57a8.512,8.512,0,0,0,2.441,3.415.239.239,0,0,0,.4-.166q-.036-4.171.017-8.342t.2-8.338q.081-2.349.19-4.7c.014-.3-.458-.3-.472,0q-.194,4.167-.3,8.336t-.118,8.34q-.009,2.351.012,4.7l.4-.167a9.849,9.849,0,0,1-3.179-6.807,36.781,36.781,0,0,1-.1-4.417q.041-2.295.142-4.587.114-2.583.306-5.162c.023-.3-.449-.3-.471,0" fill="#56480d"/>
            <path id="Trazado_185281" data-name="Trazado 185281" d="M52.5,167v5.3a.236.236,0,0,0,.472,0V167a.236.236,0,0,0-.472,0" fill="#56480d"/>
            <path id="Trazado_185282" data-name="Trazado 185282" d="M34.658,88.446c-2.106,5.545-3.045,12.4-3.517,19.179a125.461,125.461,0,0,0,.006,18.9c.959,11.661-8.592,38.464-7.842,38.808,9.293,4.266,55.759,1.745,56.1,1.1.288-.544,2.7-1.938,2.829-2.672,1.947-11.328-6.251-23.555-4.3-34.883A208.278,208.278,0,0,0,81.08,105c.453-8.175-.054-16.772-2.229-23.875a14.157,14.157,0,0,0-2.084-4.55,7.194,7.194,0,0,0-2.18-1.73c-8.239-4.757-18.439-7.2-28.5-2.416,0,0-7.973,6.907-11.433,16.016" fill="#fff"/>
            <path id="Trazado_185283" data-name="Trazado 185283" d="M50.286,57.638c.438,2.948-.109,13.091-.109,13.091s-3.457.315-2.829.472c2.829,4.871,4.045,6.688,8.643,7.071,7.686.641,11.567-4.426,13.671-7.7-2.875-.957-5.5-2.227-5.854-3.63a4.32,4.32,0,0,1-.026-1.488q.362-3.714.725-7.427a52.14,52.14,0,0,0-9.068-.329Z" fill="#cd8451"/>
            <g id="Grupo_175510" data-name="Grupo 175510" opacity="0.3">
              <g id="Grupo_175509" data-name="Grupo 175509">
                <g id="Grupo_175508" data-name="Grupo 175508" clip-path="url(#clip-path-4)">
                  <path id="Trazado_185284" data-name="Trazado 185284" d="M50.2,58.912l2.673,2.2c1.795,1.48,3.993,3.056,6.239,2.449a7.352,7.352,0,0,0,2.043-1.048l3.07-2.006q-1.339,1.77-2.7,3.527a7.436,7.436,0,0,1-2.066,2.046c-1.9,1.085-4.438.26-5.96-1.316a14.8,14.8,0,0,1-2.963-5.8Z" fill="#5b3421"/>
                </g>
              </g>
            </g>
            <path id="Trazado_185285" data-name="Trazado 185285" d="M72.608,34c-.161,2.7-1.17,7.9-1.331,10.6A35.724,35.724,0,0,1,70.3,52.06,18.156,18.156,0,0,1,58.443,64.308a4.253,4.253,0,0,1-1.863.254,4.837,4.837,0,0,1-2.266-1.276,21.272,21.272,0,0,1-5.256-5.6A30.644,30.644,0,0,1,45.91,46.044c-.033-3.177.457-9.758.68-12.927L58.033,22.8l5.029,2.671Z" fill="#cd8451"/>
            <path id="Trazado_185286" data-name="Trazado 185286" d="M69.2,47.508a2.541,2.541,0,0,1,3.269-1.184,3.41,3.41,0,0,1,1.9,3.124,5.269,5.269,0,0,1-1.5,3.472,3.928,3.928,0,0,1-3.563,1.451Z" fill="#cd8451"/>
            <path id="Trazado_185287" data-name="Trazado 185287" d="M47.491,44.864a2.547,2.547,0,0,0-2.915.051,4.071,4.071,0,0,0-1.553,2.613A6.077,6.077,0,0,0,47.9,54.4Z" fill="#cd8451"/>
            <path id="Trazado_185288" data-name="Trazado 185288" d="M44.4,47.035a7.4,7.4,0,0,1,1.455,3.626.485.485,0,0,0,.471.471.475.475,0,0,0,.472-.471,8.3,8.3,0,0,0-1.584-4.1.486.486,0,0,0-.645-.169.475.475,0,0,0-.169.645" fill="#7f4e33"/>
            <path id="Trazado_185289" data-name="Trazado 185289" d="M44.435,49.331l1.131.234a.5.5,0,0,0,.363-.047.471.471,0,0,0,.169-.645.468.468,0,0,0-.282-.217l-1.13-.234a.506.506,0,0,0-.364.047.484.484,0,0,0-.216.282.474.474,0,0,0,.047.363.468.468,0,0,0,.282.217" fill="#7f4e33"/>
            <path id="Trazado_185290" data-name="Trazado 185290" d="M70.5,52.126a10.253,10.253,0,0,1,1.13-1.227c.2-.184.406-.359.619-.527.108-.085-.04.029.023-.018l.086-.064c.057-.043.115-.085.173-.126.116-.083.234-.163.354-.241a.471.471,0,1,0-.476-.814,10.675,10.675,0,0,0-2.576,2.35.485.485,0,0,0,0,.667.477.477,0,0,0,.667,0" fill="#7f4e33"/>
            <path id="Trazado_185291" data-name="Trazado 185291" d="M71.414,50.985c.016.017.03.035.045.053-.025-.032-.049-.064-.074-.095a1,1,0,0,1,.126.214l-.048-.112a1.017,1.017,0,0,1,.069.254l-.017-.126a.988.988,0,0,1,0,.249c.005-.041.011-.083.017-.125a1.26,1.26,0,0,1-.028.136.489.489,0,0,0,.047.363.471.471,0,0,0,.645.169.494.494,0,0,0,.217-.282,1.44,1.44,0,0,0-.333-1.365.472.472,0,0,0-.805.334.514.514,0,0,0,.138.333" fill="#7f4e33"/>
            <path id="Trazado_185292" data-name="Trazado 185292" d="M68.4,70.1c7.238-.894,19.08,6.17,23.882,11.661s7.532,12.47,9.655,19.448c1.909,6.274,3.412,12.771,3.151,19.324s-2.443,13.222-7.056,17.884a14.511,14.511,0,0,1-4.085,2.995c-4.629,2.171-11.01-.749-13.6-5.155A177.967,177.967,0,0,1,84.4,162.724a2.112,2.112,0,0,1-.151,1.205c-.248.437.024,25.621-.451,25.788l-5.038,1.77c-1.463-4.05-3.665-33.133-4.33-37.387-.4-2.527-.521-5.089-.883-7.62-1.419-9.931-6.425-19.261-6.541-29.292a60.919,60.919,0,0,1,.756-8.824Q69.43,95.951,71.1,83.54c.465-3.452-4.042-10.225-2.7-13.439" fill="#6a9899"/>
            <path id="Trazado_185293" data-name="Trazado 185293" d="M49.076,70.572c2.232,7.153-7.975,17.616-7.632,25.1.249,5.442,2.183,10.75,2,16.195a42.046,42.046,0,0,1-1.378,8.231q-1.7,7.192-3.4,14.383c-1.531,6.473-3.084,13.009-6.024,18.975-1.434,2.909-6.554,31.186-9.185,33.083-.7-2.332,2.294-45.171.551-51.137-3.732,2.291-7.716,4.658-12.094,4.658A11.927,11.927,0,0,1,.311,125.379a23.463,23.463,0,0,1,2.674-6q7.59-13.413,15.868-26.422c2.835-4.456,5.765-8.917,9.584-12.565S40.831,71.679,46.09,71.2Z" fill="#6a9899"/>
            <path id="Trazado_185294" data-name="Trazado 185294" d="M16.115,87.929c5.286-2.6,11.865-5.056,17.09-7.771,0,0-3.74-.319-3.772-.314a139.5,139.5,0,0,0-15.871,5.814l.6.933Z" fill="#adc4c4"/>
            <path id="Trazado_185295" data-name="Trazado 185295" d="M24.112,113.25c-3.463-8.831-7.381-18.651-10.55-27.592.553-.166,1.707.6,2.258.428q8.774-2.7,17.345-6.015l12.795,30.85a116.449,116.449,0,0,1-18.635,10.266l-4.023-9.3Z" fill="#9a8728"/>
            <path id="Trazado_185296" data-name="Trazado 185296" d="M16.243,86.46q1.161,3.585,2.324,7.171c.093.287.549.164.454-.126Q17.86,89.92,16.7,86.335c-.095-.288-.55-.165-.455.125" fill="#56480d"/>
            <path id="Trazado_185297" data-name="Trazado 185297" d="M15.017,85.5,25.823,81.56l3.088-1.126c.07-.025.04-.139-.032-.113L18.073,84.259l-3.087,1.125c-.071.026-.041.14.031.114" fill="#709998"/>
            <path id="Trazado_185298" data-name="Trazado 185298" d="M15.64,85.754c4.016-1.4,8.027-2.813,11.956-4.443a15.722,15.722,0,0,1,3.247-1.064c.074-.013.043-.127-.031-.114a14.405,14.405,0,0,0-2.91.925c-.96.393-1.918.791-2.884,1.169-1.983.777-3.985,1.506-5.993,2.217q-1.707.6-3.416,1.2c-.071.025-.041.139.031.114" fill="#709998"/>
            <path id="Trazado_185299" data-name="Trazado 185299" d="M21.613,83.893a66.415,66.415,0,0,0,7.171-2.538q.97-.407,1.927-.845c.069-.032.009-.133-.059-.1a66.232,66.232,0,0,1-7.038,2.746q-1.011.329-2.032.625a.059.059,0,0,0,.031.114" fill="#709998"/>
            <path id="Trazado_185300" data-name="Trazado 185300" d="M13.655,97.922c4.422-2.171,9.926-4.23,14.3-6.5,0,0-3.129-.266-3.155-.263a116.652,116.652,0,0,0-13.278,4.864l.5.78Z" fill="#adc4c4"/>
            <path id="Trazado_185301" data-name="Trazado 185301" d="M20.345,119.1c-2.9-7.388-6.175-15.6-8.826-23.082.463-.14,1.428.5,1.889.357q7.341-2.262,14.511-5.031,5.35,12.9,10.7,25.808a97.528,97.528,0,0,1-15.589,8.588l-3.366-7.783Z" fill="#ffb9a0"/>
            <path id="Trazado_185302" data-name="Trazado 185302" d="M13.838,96.672c.261.8.561,1.593.852,2.385q.75,2.049,1.514,4.091.879,2.362,1.76,4.725.786,2.11,1.567,4.225c.324.882.655,1.764.956,2.654.019.055.037.11.055.166.047.143.274.082.227-.063-.261-.8-.561-1.593-.852-2.385q-.75-2.049-1.514-4.091-.879-2.362-1.76-4.725-.786-2.11-1.567-4.225c-.324-.882-.654-1.764-.956-2.654l-.055-.166c-.046-.143-.274-.082-.227.063" fill="#c8682c"/>
            <path id="Trazado_185303" data-name="Trazado 185303" d="M12.739,95.9l9.048-3.3,2.575-.938c.07-.026.04-.14-.031-.114l-9.049,3.3-2.574.938c-.071.026-.041.14.031.114" fill="#709998"/>
            <path id="Trazado_185304" data-name="Trazado 185304" d="M13.26,96.111c3.36-1.17,6.715-2.353,10-3.717a13.294,13.294,0,0,1,2.715-.889c.075-.013.043-.127-.031-.114a12.206,12.206,0,0,0-2.443.777c-.809.331-1.616.667-2.43.986-1.66.649-3.335,1.257-5.014,1.853q-1.414.5-2.831.99c-.072.026-.041.14.031.114" fill="#709998"/>
            <path id="Trazado_185305" data-name="Trazado 185305" d="M18.257,94.555a55.86,55.86,0,0,0,7.613-2.831c.069-.032.009-.133-.06-.1a55.562,55.562,0,0,1-7.584,2.819.059.059,0,0,0,.031.114" fill="#709998"/>
            <path id="Trazado_185306" data-name="Trazado 185306" d="M79.012,71.594a44.016,44.016,0,0,0-8.787,23.3c-.726,8.4,1.753,17.268,5.723,24.709,1.474-5.025-2.113-10.486-2.536-15.706a26.8,26.8,0,0,1,.957-8.492,69.027,69.027,0,0,1,9.155-21.17,26.543,26.543,0,0,0-4.557-2.61Z" fill="#56480d"/>
            <path id="Trazado_185307" data-name="Trazado 185307" d="M94.4,127.342a12.557,12.557,0,0,1-1.5,4.211l-3.639,7.317a2.252,2.252,0,0,1-.245.4c-.826,1.036-1.918.391-2.722-.217L80.1,134.367a10.333,10.333,0,0,1-2.966-2.958,10.353,10.353,0,0,1-.978-4.36q-.69-9.208-1.382-18.42a10.162,10.162,0,0,0-.707-3.568,10.139,10.139,0,0,0-2.33-2.869c-2.588-2.49-5.632-6.284-8.4-9.305a1.1,1.1,0,0,1,.915-1.838,1.608,1.608,0,1,1,2.367-2.168,1.906,1.906,0,1,1,2.891-2.471l.055-1.417a1.1,1.1,0,0,1,1.8-.811,73.73,73.73,0,0,1,6.791,6.662A4.406,4.406,0,0,0,76.734,87.7l.785-2.357c1.946,1.582,3.683,2.819,4.4,5.186.324,1.068.835,13.374.991,14.478,1.13,8.04,11.846,18.871,11.49,22.334" fill="#cd8451"/>
            <path id="Trazado_185308" data-name="Trazado 185308" d="M69.365,86.071A5.5,5.5,0,0,1,71,88.6c.087.289.543.166.454-.126A5.944,5.944,0,0,0,69.7,85.738c-.227-.2-.562.133-.332.333" fill="#7f4e33"/>
            <path id="Trazado_185309" data-name="Trazado 185309" d="M66.013,88.695a7.493,7.493,0,0,1,1.88,2.132.235.235,0,0,0,.406-.238,7.768,7.768,0,0,0-1.953-2.226.242.242,0,0,0-.333,0,.236.236,0,0,0,0,.332" fill="#7f4e33"/>
            <path id="Trazado_185310" data-name="Trazado 185310" d="M64.117,91.076l1.676,1.694a.236.236,0,0,0,.333-.333q-.837-.847-1.676-1.694c-.213-.216-.547.117-.333.333" fill="#7f4e33"/>
            <path id="Trazado_185311" data-name="Trazado 185311" d="M66.072,94.463a35.646,35.646,0,0,1,6.451-6c.244-.176.009-.585-.237-.407a36.038,36.038,0,0,0-6.547,6.07c-.194.23.138.566.333.333" fill="#7f4e33"/>
            <path id="Trazado_185312" data-name="Trazado 185312" d="M5.285,124.225a12.571,12.571,0,0,0-.1,4.468q.4,4.067.793,8.134a2.175,2.175,0,0,0,.087.459c.4,1.263,1.652,1.049,2.62.767q3.729-1.083,7.456-2.17a10.3,10.3,0,0,0,3.826-1.707,10.3,10.3,0,0,0,2.467-3.724q3.928-8.358,7.856-16.72a10.144,10.144,0,0,1,1.932-3.08,10.12,10.12,0,0,1,3.2-1.851c3.307-1.4,7.5-3.865,11.17-5.7a1.1,1.1,0,0,0-.2-2.044,1.608,1.608,0,1,0-1.438-2.87A1.906,1.906,0,1,0,43.13,94.85l.453-1.343a1.1,1.1,0,0,0-1.388-1.4c-2.825.929-5.126,4.763-8.295,4.521a11.456,11.456,0,0,0,3.6-3.42,1.019,1.019,0,0,0-1.16-1.537,12.442,12.442,0,0,0-6.144,3.91,22.089,22.089,0,0,0-1.725,2.868c-3.92,7.108-22.286,22.412-23.188,25.774" fill="#cd8451"/>
            <path id="Trazado_185313" data-name="Trazado 185313" d="M40.83,97.578a32.079,32.079,0,0,0,3.108-3.308c.19-.233-.142-.568-.334-.333A32.172,32.172,0,0,1,40.5,97.245c-.224.206.11.539.333.333" fill="#7f4e33"/>
            <path id="Trazado_185314" data-name="Trazado 185314" d="M42.872,99.753l3.045-2.733c.227-.2-.108-.536-.333-.334L42.539,99.42c-.227.2.108.535.333.333" fill="#7f4e33"/>
            <path id="Trazado_185315" data-name="Trazado 185315" d="M44.135,102.857a18.5,18.5,0,0,1,2.827-2.581.244.244,0,0,0,.085-.323.238.238,0,0,0-.323-.085,19.12,19.12,0,0,0-2.922,2.656c-.2.225.131.56.333.333" fill="#7f4e33"/>
            <path id="Trazado_185316" data-name="Trazado 185316" d="M39.252,97.1a22.658,22.658,0,0,1,4.467,6.315c.131.274.537.035.407-.238a23.015,23.015,0,0,0-4.541-6.41.236.236,0,0,0-.333.333" fill="#7f4e33"/>
            <path id="Trazado_185317" data-name="Trazado 185317" d="M24.607,126.526a24.12,24.12,0,0,0-.162,8.552c.048.3.5.173.455-.125a23.444,23.444,0,0,1,.162-8.3c.059-.3-.4-.422-.455-.125" fill="#346060"/>
            <path id="Trazado_185318" data-name="Trazado 185318" d="M88.11,112.643a16.823,16.823,0,0,1,5.99,7.117,21.884,21.884,0,0,1,1.807,10.371,30.517,30.517,0,0,1-1.057,6.33.236.236,0,0,0,.454.125,28.053,28.053,0,0,0,.84-11.574,19.719,19.719,0,0,0-3.848-9.129,16.2,16.2,0,0,0-3.948-3.647c-.255-.166-.492.242-.238.407" fill="#346060"/>
            <path id="Trazado_185319" data-name="Trazado 185319" d="M43.291,72.893a33.8,33.8,0,0,1-1.528,11.055c-.321,1.021-.689,2.028-1.106,3.014a.246.246,0,0,0,.085.323.238.238,0,0,0,.323-.085A34.356,34.356,0,0,0,43.7,76.128q.108-1.615.06-3.235a.236.236,0,0,0-.471,0" fill="#346060"/>
            <path id="Trazado_185320" data-name="Trazado 185320" d="M44.344,74.863a5.944,5.944,0,0,1-.294,3.924c-.121.275.285.515.407.238a6.462,6.462,0,0,0,.342-4.287.236.236,0,0,0-.455.125" fill="#346060"/>
            <path id="Trazado_185321" data-name="Trazado 185321" d="M72.6,71.926a22.453,22.453,0,0,0,.806,7.048.236.236,0,0,0,.454-.126,22.038,22.038,0,0,1-.789-6.922c.014-.3-.457-.3-.471,0" fill="#346060"/>
            <path id="Trazado_185322" data-name="Trazado 185322" d="M74.316,72.9q.148,1.441.3,2.883a.242.242,0,0,0,.235.236.238.238,0,0,0,.236-.236q-.148-1.441-.3-2.883a.242.242,0,0,0-.235-.236.238.238,0,0,0-.236.236" fill="#346060"/>
            <path id="Trazado_185323" data-name="Trazado 185323" d="M52.943,47.085a1.46,1.46,0,1,1,1.322-1.311,1.329,1.329,0,0,1-1.322,1.311"/>
            <path id="Trazado_185324" data-name="Trazado 185324" d="M65.621,48.37a1.459,1.459,0,1,1,1.322-1.31,1.329,1.329,0,0,1-1.322,1.31"/>
            <path id="Trazado_185325" data-name="Trazado 185325" d="M52.558,38.511a.405.405,0,0,1,.387.58,1.3,1.3,0,0,1-.35.442,3.166,3.166,0,0,1-1.079.494l-3.2,1a.5.5,0,0,1,.18-.374,7.859,7.859,0,0,1,3.047-2.018,1.7,1.7,0,0,1,1.014-.125"/>
            <path id="Trazado_185326" data-name="Trazado 185326" d="M66.408,37.2a.4.4,0,0,0-.386.58,1.286,1.286,0,0,0,.349.442,3.171,3.171,0,0,0,1.08.494l3.2,1a.5.5,0,0,0-.18-.374,7.87,7.87,0,0,0-3.048-2.018,1.7,1.7,0,0,0-1.014-.125"/>
            <path id="Trazado_185327" data-name="Trazado 185327" d="M85.188,104.888a11.625,11.625,0,0,1,4.531-4.452,10.967,10.967,0,0,1,1.661-.741c.284-.1.161-.556-.126-.455a12.043,12.043,0,0,0-6.473,5.41.236.236,0,0,0,.407.238" fill="#346060"/>
            <path id="Trazado_185328" data-name="Trazado 185328" d="M85.513,105.954a16.292,16.292,0,0,1,8.468-4.591c.3-.06.171-.515-.125-.455a16.883,16.883,0,0,0-7.024,3.237,16.176,16.176,0,0,0-1.652,1.477c-.213.217.12.55.333.332" fill="#346060"/>
            <path id="Trazado_185329" data-name="Trazado 185329" d="M68.659,119.788a10.982,10.982,0,0,1,3.449-.712c.3-.012.3-.483,0-.471a11.351,11.351,0,0,0-3.574.728c-.281.107-.159.563.125.455" fill="#346060"/>
            <path id="Trazado_185330" data-name="Trazado 185330" d="M74.126,143.727a14.233,14.233,0,0,1,3.836-1.109.237.237,0,0,0,.165-.29.242.242,0,0,0-.29-.165,14.723,14.723,0,0,0-3.95,1.157c-.276.124-.036.531.239.407" fill="#346060"/>
            <path id="Trazado_185331" data-name="Trazado 185331" d="M77.383,165.321a4.882,4.882,0,0,1,3.393-.966c.3.028.3-.443,0-.471a5.283,5.283,0,0,0-3.631,1.03c-.239.18,0,.59.238.407" fill="#346060"/>
            <path id="Trazado_185332" data-name="Trazado 185332" d="M37.562,120.135a58.871,58.871,0,0,1-1.678,10.679c-.859,3.511-1.952,6.959-3.108,10.381-1.161,3.438-2.389,6.854-3.523,10.3a105.447,105.447,0,0,0-2.926,10.371,54.06,54.06,0,0,0-1.321,10.56c-.008.452-.009.9,0,1.353a.236.236,0,0,0,.471,0,50.877,50.877,0,0,1,1.078-10.692,95.669,95.669,0,0,1,2.8-10.387c1.113-3.453,2.335-6.869,3.508-10.3s2.292-6.864,3.2-10.366a63.125,63.125,0,0,0,1.877-10.549q.056-.673.093-1.35c.018-.3-.454-.3-.471,0" fill="#346060"/>
            <path id="Trazado_185333" data-name="Trazado 185333" d="M93.885,115.376a34.746,34.746,0,0,1,3.687,10.371q.284,1.536.425,3.093c.028.3.5.3.472,0A35.331,35.331,0,0,0,95.694,118q-.634-1.462-1.4-2.86c-.146-.266-.553-.028-.407.238" fill="#346060"/>
            <path id="Trazado_185334" data-name="Trazado 185334" d="M7.773,115.845a15.124,15.124,0,0,0-4.009,5.574,15.958,15.958,0,0,0-1.257,6.737,14.761,14.761,0,0,0,.648,3.851c.09.287.545.164.455-.127a14.652,14.652,0,0,1-.455-6.635A15.58,15.58,0,0,1,5.6,119.007a14.313,14.313,0,0,1,2.508-2.829c.23-.2-.1-.53-.333-.333" fill="#346060"/>
            <path id="Trazado_185335" data-name="Trazado 185335" d="M32.835,281.781c1.8,1.365,4.257.819,6.142-.034,1.116-.505,2.176-1.133,3.314-1.59a8.359,8.359,0,0,1,3.449-.63,8.08,8.08,0,0,1,3.73,1.074.236.236,0,0,0,.238-.407,8.568,8.568,0,0,0-6.724-.783c-2.262.691-4.182,2.281-6.551,2.653a4.366,4.366,0,0,1-3.36-.69c-.241-.184-.477.226-.238.407" fill="#56480d"/>
            <path id="Trazado_185336" data-name="Trazado 185336" d="M64.145,282.776a7.322,7.322,0,0,1,3.754-.256c1.18.231,2.3.69,3.448,1.02a7.871,7.871,0,0,0,3.307.312,6.93,6.93,0,0,0,2.794-1.065,6.772,6.772,0,0,0,2.289-2.489c.141-.269-.266-.507-.407-.238a6.494,6.494,0,0,1-4.63,3.311c-2.317.395-4.4-.844-6.608-1.292a7.825,7.825,0,0,0-4.072.242c-.286.1-.163.553.125.455" fill="#56480d"/>
            <path id="Trazado_185337" data-name="Trazado 185337" d="M57.54,56.738A3.642,3.642,0,0,0,61.251,54.9a.471.471,0,1,0-.814-.476,2.885,2.885,0,0,1-.243.387c.03-.04.007-.008-.01.012s-.049.059-.074.087c-.051.057-.1.112-.158.165s-.1.094-.152.139c0,0-.113.092-.047.041l-.074.054a3.182,3.182,0,0,1-.39.239c-.061.032-.123.061-.186.089-.045.02.042-.014-.036.014-.036.012-.071.026-.107.039a3.213,3.213,0,0,1-.42.113l-.112.019c-.053.009.055,0-.033.005s-.152.013-.228.015-.137,0-.206,0c-.038,0-.076,0-.114-.007-.019,0-.15-.017-.056,0a.486.486,0,0,0-.58.329.474.474,0,0,0,.329.58" fill="#7f4e33"/>
            <path id="Trazado_185338" data-name="Trazado 185338" d="M59.011,41.56a10.4,10.4,0,0,0-3.663,8.45,9.841,9.841,0,0,0,.493,2.635.481.481,0,0,0,.694.282,12.907,12.907,0,0,1,3.987-1.466.476.476,0,0,0,.33-.579.483.483,0,0,0-.581-.33,13.749,13.749,0,0,0-4.213,1.56q.347.143.692.281A9.491,9.491,0,0,1,58,44.03a8.882,8.882,0,0,1,1.677-1.8.477.477,0,0,0,0-.668.483.483,0,0,0-.667,0" fill="#7f4e33"/>
            <path id="Trazado_185339" data-name="Trazado 185339" d="M48.2,111.972q2.972,3.66,5.57,7.6,2.571,3.9,4.752,8.044,1.236,2.351,2.341,4.767c.126.275.532.036.407-.238q-1.966-4.3-4.35-8.389t-5.159-7.917q-1.555-2.146-3.228-4.2c-.191-.236-.523.1-.333.333" fill="#6a9899"/>
            <path id="Trazado_185340" data-name="Trazado 185340" d="M48.48,117.78l6.251,7.753q.886,1.1,1.772,2.2c.19.236.522-.1.333-.333q-3.125-3.877-6.251-7.753-.885-1.1-1.772-2.2c-.19-.237-.522.1-.333.333" fill="#6a9899"/>
            <path id="Trazado_185341" data-name="Trazado 185341" d="M94.162,177.481a32.51,32.51,0,0,1-2.42-7.17c-.282-1.23-.521-2.469-.747-3.71-.238-1.314-.482-2.632-.612-3.962a14.229,14.229,0,0,1,.095-3.975,11.325,11.325,0,0,1,1.07-3.091,19.532,19.532,0,0,1,4.052-5.124c.81-.77,1.656-1.5,2.515-2.213a4.2,4.2,0,0,1,1.485-.91,1.982,1.982,0,0,1,1.285.074,4.41,4.41,0,0,1,1.935,1.956,29.472,29.472,0,0,1,1.491,3.2q.825,1.876,1.649,3.754c.544,1.238,1.138,2.466,1.612,3.732a6.718,6.718,0,0,1,.456,1.865,4.45,4.45,0,0,1-.237,1.754,11.368,11.368,0,0,1-1.839,3.08,43.6,43.6,0,0,1-10.166,9.705q-.719.492-1.457.954c-.256.161-.02.569.238.407a44.021,44.021,0,0,0,10.87-9.644,24.824,24.824,0,0,0,2.155-2.975,5.657,5.657,0,0,0,.884-3.531,13.738,13.738,0,0,0-1.308-3.762l-1.712-3.9c-.555-1.264-1.1-2.536-1.667-3.794a8.064,8.064,0,0,0-1.654-2.517,2.8,2.8,0,0,0-2.534-.851,3.94,3.94,0,0,0-1.563.854c-.446.356-.881.73-1.313,1.1a26.5,26.5,0,0,0-4.671,5.007,13.68,13.68,0,0,0-1.541,2.96,11.625,11.625,0,0,0-.687,3.64,21.909,21.909,0,0,0,.333,4.114c.208,1.319.45,2.634.709,3.944a41.12,41.12,0,0,0,2.114,7.532q.355.876.773,1.725c.134.272.541.033.407-.238" fill="#6a9899"/>
            <path id="Trazado_185342" data-name="Trazado 185342" d="M90.707,158.756l4.2,1.453a3.791,3.791,0,0,0,1.965.3,2.638,2.638,0,0,0,1.339-.771,8.845,8.845,0,0,0,1.723-3.152,19.991,19.991,0,0,0,1.04-3.952,20.2,20.2,0,0,0,.193-4.57c-.021-.3-.493-.3-.471,0a19.792,19.792,0,0,1-.955,7.658,19.046,19.046,0,0,1-.714,1.833,7.881,7.881,0,0,1-.8,1.44,2.769,2.769,0,0,1-1.116.951,2.531,2.531,0,0,1-1.8-.093c-1.5-.5-2.984-1.032-4.476-1.549-.287-.1-.41.356-.125.455" fill="#6a9899"/>
            <path id="Trazado_185343" data-name="Trazado 185343" d="M94.749,176.818c1.555-1.955,3.169-3.864,4.878-5.686a62.811,62.811,0,0,1,5.363-5.109q1.632-1.372,3.369-2.611c.245-.175.01-.584-.238-.407a56.176,56.176,0,0,0-5.82,4.779,71.717,71.717,0,0,0-5.144,5.389q-1.407,1.624-2.741,3.312c-.187.235.144.57.333.333" fill="#6a9899"/>
            <path id="Trazado_185344" data-name="Trazado 185344" d="M70.251,218.374a69.865,69.865,0,0,1-.22,9.275q-.118,1.311-.287,2.615c-.039.3.433.3.471,0a69.756,69.756,0,0,0,.571-9.26q-.008-1.315-.064-2.63c-.013-.3-.484-.3-.471,0" fill="#56480d"/>
            <path id="Trazado_185345" data-name="Trazado 185345" d="M73.623,216.777q-.276,4.869-.551,9.738-.08,1.388-.157,2.776c-.017.3.454.3.471,0q.276-4.869.551-9.737.08-1.389.157-2.777c.018-.3-.454-.3-.471,0" fill="#56480d"/>
            <path id="Trazado_185346" data-name="Trazado 185346" d="M40.392,214.519q-.576,6-1.153,11.992l-.33,3.426c-.029.3.443.3.472,0q.576-6,1.153-11.992.165-1.713.329-3.426c.03-.3-.442-.3-.471,0" fill="#56480d"/>
            <path id="Trazado_185347" data-name="Trazado 185347" d="M42.312,217.662q-.781,4.734-1.1,9.53-.09,1.368-.141,2.737c-.011.3.46.3.472,0,.119-3.167.39-6.33.82-9.47q.183-1.34.4-2.672c.049-.3-.406-.424-.455-.125" fill="#56480d"/>
            <path id="Trazado_185348" data-name="Trazado 185348" d="M54.01,62.8a6.928,6.928,0,0,1,1.835-1.446,2.35,2.35,0,0,1,2.247.026c.37.242.635.617,1,.871.216.15.478.273.582.515a1,1,0,0,1,.025.534,13.182,13.182,0,0,1-.84,3.1c-.164.4-.44.862-.876.862l-.572-1.616a12.692,12.692,0,0,0-1.231,3.178,3.144,3.144,0,0,1-.625-2.09q-.217.358-.433.719a8.287,8.287,0,0,1-1.088-4.76Z"/>
            <path id="Trazado_185349" data-name="Trazado 185349" d="M44.066,37.875a2.791,2.791,0,0,0,3.419-1.553,5.321,5.321,0,0,0-.1-4.049,3.237,3.237,0,0,0,4.466-2.793,3.222,3.222,0,0,0,5.583-2.993,3.155,3.155,0,0,0,5.858.467,2.9,2.9,0,0,0,3.871,4.176,2,2,0,0,0,.08,2.971,3.2,3.2,0,0,0,3.217.367,2.107,2.107,0,0,0,1.071,3A2.854,2.854,0,0,0,74.74,36.3a4.5,4.5,0,0,0,.52-3.534,4.6,4.6,0,0,1-.229-1.453,5.668,5.668,0,0,1,.407-1.271c.953-2.727-1.083-5.649-3.5-7.226a3.54,3.54,0,0,1-1.148-.972,4.522,4.522,0,0,1-.424-1.689,5.287,5.287,0,0,0-3.651-4.075,10.382,10.382,0,0,0-3.744-.149l-7.861.644Z"/>
          </g>
        </g>
      </g>
    </g>
  </g>
</svg>
