<svg xmlns="http://www.w3.org/2000/svg" xmlns:xlink="http://www.w3.org/1999/xlink" width="190" height="166" viewBox="0 0 190 166">
  <defs>
    <clipPath id="clip-path">
      <rect id="Rectángulo_45650" data-name="Rectángulo 45650" width="190" height="166" rx="14" fill="#e1e8ff"/>
    </clipPath>
    <clipPath id="clip-path-2">
      <rect id="Rectángulo_45663" data-name="Rectángulo 45663" width="125.083" height="234.083" fill="none"/>
    </clipPath>
  </defs>
  <g id="Grupo_175536" data-name="Grupo 175536" transform="translate(-1125 -5040)">
    <rect id="Rectángulo_45325" data-name="Rectángulo 45325" width="190" height="166" rx="14" transform="translate(1125 5040)" fill="#e1e8ff"/>
    <g id="Enmascarar_grupo_310" data-name="Enmascarar grupo 310" transform="translate(1125 5040)" clip-path="url(#clip-path)">
      <g id="Grupo_175537" data-name="Grupo 175537" transform="translate(32.459)">
        <g id="Grupo_175564" data-name="Grupo 175564" transform="translate(-4074.405 7516)">
          <path id="Trazado_185816" data-name="Trazado 185816" d="M189.906,49.627C188.46,25.093,171.308,1.668,148.078.215,121.4-2.028,96.907,14.026,70.33,14.2,56.778,15.47,44.068,9.777,30.861,7.939,1.032,6.737-3.513,45.2,2.05,69.988,25.512,186.859,191.53,170.958,189.906,49.627Z" transform="matrix(-0.914, -0.407, 0.407, -0.914, 4337.549, -7324.521)" fill="#c4d1ff"/>
          <path id="Trazado_185819" data-name="Trazado 185819" d="M189.906,49.627C188.46,25.093,171.308,1.668,148.078.215,121.4-2.028,96.907,14.026,70.33,14.2,56.778,15.47,44.068,9.777,30.861,7.939,1.032,6.737-3.513,45.2,2.05,69.988,25.512,186.859,191.53,170.958,189.906,49.627Z" transform="matrix(0.07, 0.998, -0.998, 0.07, 4120.252, -7573.447)" fill="#c4d1ff"/>
          <path id="Trazado_185818" data-name="Trazado 185818" d="M.011,47.827C1.358,24.183,17.347,1.607,39,.207c24.872-2.161,47.7,13.31,72.476,13.474,12.633,1.229,24.481-4.258,36.792-6.03,27.806-1.158,32.043,35.907,26.857,59.8C153.256,180.081-1.5,164.757.011,47.827Z" transform="matrix(0.995, 0.105, -0.105, 0.995, 4059.521, -7466.699)" fill="#a6bbff" opacity="0.388" style="mix-blend-mode: multiply;isolation: isolate"/>
        </g>
        <g id="Grupo_175537-2" data-name="Grupo 175537" clip-path="url(#clip-path-2)">
          <path id="Trazado_185551" data-name="Trazado 185551" d="M13.695,35.726a6.91,6.91,0,0,1,4.288-12.148,10.32,10.32,0,0,1,3.6-11.22c7.155,1.53,14.056.787,21.217,1.682,4.626.578,6.854,1.978,10.768,4.252,7.556,4.385,12,9.378,14.247,17.893,1.737,6.594,5.744,10.656,10.551,12.629a2.6,2.6,0,0,1,.574.788A10.856,10.856,0,0,1,67.816,64.75c-1.633,3.632-6.729,4.79-10.087,2.915a3.76,3.76,0,0,1-.414,3.881c-1.464,1.735-4.184,1.94-6.27,1.044a13.88,13.88,0,0,1-5.078-4.433l-.823-2.035c-1.939,2.422-6.673,1.011-6.975-2.077-3.389,2.479-7.748-1.245-11.837-2.2-1.973-.461-4.079-.24-6.006-.871S16.641,58.3,17.391,56.42a5.989,5.989,0,0,1-4.762-10.163,7.64,7.64,0,0,1,1.066-10.532" transform="translate(26.381 8.957)"/>
          <path id="Trazado_185552" data-name="Trazado 185552" d="M82.463,72.7c4.481,10.77,9.055,22.2,7.427,33.746-.8,5.692-3.082,11.061-4.4,16.657-2.227,9.469-1.647,19.344-1.094,29.056.181,3.179.305,6.584-1.363,9.3-2.391,3.891-7.5,4.943-12.053,5.364a118.493,118.493,0,0,1-56.593-8.736c.636-15.77-.633-31.556-.5-47.34s1.742-31.83,7.834-46.391a19.729,19.729,0,0,1,3.148-5.525,22.577,22.577,0,0,1,6.473-4.566c5.4-2.925,11.351-5.947,17.4-4.854a24.989,24.989,0,0,1,8.122,3.5,140.663,140.663,0,0,1,21.8,15.977Z" transform="translate(10.914 35.649)" fill="#534763"/>
          <path id="Trazado_185553" data-name="Trazado 185553" d="M25.542,154.25c.5-.926,1.88.05,2.66-.562a2.176,2.176,0,0,0,.545-1.563,285.674,285.674,0,0,0-.366-48.024,2.086,2.086,0,0,0-.257-.981,1.526,1.526,0,0,0-1.147-.519c-2.675-.347-5.471-.68-7.991.419q.466,24.369.93,48.737Z" transform="translate(62.752 74.126)" fill="#fff"/>
          <path id="Trazado_185554" data-name="Trazado 185554" d="M74.533,156.963l35.688,1.126q.047-26.975-.709-53.944-42.306-2.608-84.584-5.725-2.874,24.731-4.414,49.592a2.109,2.109,0,0,0,.238,1.4,2.137,2.137,0,0,0,1.49.642l56.324,8.067Z" transform="translate(-20.498 71.338)" fill="#d7d4cc"/>
          <path id="Trazado_185555" data-name="Trazado 185555" d="M47,75.607c2.448,17.678-8.638,34.122-12.633,51.517-2.07,9.01-2.232,18.4-4.614,27.335-1.706,6.4-4.541,12.533-5.4,19.1a6.042,6.042,0,0,0,.507,4.057c.75,1.171,2.62,1.687,3.548.649a2.659,2.659,0,0,0,4.55-.2c-.3,1.756,2.858,2.6,3.476.93l1.29,1.825a10.559,10.559,0,0,0,6.682-4.033.738.738,0,0,0-.281-1.1l-3.6.728a91.106,91.106,0,0,1,.392-17.4c1.6-12.062,9.343-22.573,11.411-34.564.659-3.815.73-7.725,1.58-11.5a56.923,56.923,0,0,1,3.036-8.831q4.745-11.676,9.488-23.352a67.494,67.494,0,0,0-13.74-7.282Z" transform="translate(16.844 53.26)" fill="#cd8451"/>
          <path id="Trazado_185556" data-name="Trazado 185556" d="M58.313,81.95c-2.116,18.906-4.234,37.932-2.975,56.914.5,7.463,1.482,15.172-.9,22.262-.945,2.815-2.43,5.618-2.1,8.569a7.2,7.2,0,0,0,12.443,4.069c-.117,1.62,2.563,2.04,3.572.769s.778-3.093.493-4.69q-.673-3.77-1.344-7.537a13.4,13.4,0,0,0,5.428,5.014,1.583,1.583,0,0,0,2.08-2.208,62.683,62.683,0,0,0-5.212-7.622,12.728,12.728,0,0,1-2.822-4.671,11.271,11.271,0,0,1,.1-4.376c1.521-9.7,3.619-19.361,3.695-29.175.04-5.25-2.382-11.775-2.329-17.026.086-8.509,1.614-17.129,3.251-25.479-4.928-1.487-8.145-.516-13.271-.045Z" transform="translate(-40.342 55.065)" fill="#cd8451"/>
          <path id="Trazado_185557" data-name="Trazado 185557" d="M33.847,49.711c8.16.145,15.282,5.266,21.791,10.19,3.836,2.9,7.784,5.945,10.044,10.192,2.456,4.614,2.615,10.1,2.192,15.31-1.482,18.275-9.3,35.354-17,51.995q-7.418,16.038-14.837,32.075a6.217,6.217,0,0,1-2.33,3.091,5.716,5.716,0,0,1-3.351.366,34.888,34.888,0,0,1-11.308-3.239,3.883,3.883,0,0,1-1.808-1.407,4.1,4.1,0,0,1-.323-2.173c.664-18.2,9.185-35.045,13.673-52.7,2.235-8.788-1.83-18.858-.633-27.847,1.564-11.743.081-24.02,4.008-35.2Z" transform="translate(27.86 36.032)" fill="#534763"/>
          <path id="Trazado_185558" data-name="Trazado 185558" d="M79.808,51.816C73.814,54.357,67.662,57,63.048,61.594a38.7,38.7,0,0,0-7.9,12.581C46.9,93.64,46.8,115.455,47.1,136.589q.2,14.15.58,28.294a18.3,18.3,0,0,0,15.667-.716c4.072-17.093,8.16-34.291,9.247-51.829.462-7.448.379-14.916.673-22.371a221.446,221.446,0,0,1,4.742-37.632Z" transform="translate(-35.827 37.558)" fill="#534763"/>
          <path id="Trazado_185559" data-name="Trazado 185559" d="M22.208,131.65a1.084,1.084,0,1,0,1.083-1.085,1.084,1.084,0,0,0-1.083,1.085" transform="translate(62.402 94.637)" fill="#ba7863"/>
          <path id="Trazado_185560" data-name="Trazado 185560" d="M27,131.571a1.084,1.084,0,1,0,1.085-1.085A1.085,1.085,0,0,0,27,131.571" transform="translate(49.341 94.58)" fill="#ba7863"/>
          <path id="Trazado_185561" data-name="Trazado 185561" d="M33.129,131.571a1.084,1.084,0,1,0,1.083-1.085,1.084,1.084,0,0,0-1.083,1.085" transform="translate(32.644 94.58)" fill="#ba7863"/>
          <path id="Trazado_185562" data-name="Trazado 185562" d="M50.572,130.471a1.084,1.084,0,1,0,1.085-1.085,1.085,1.085,0,0,0-1.085,1.085" transform="translate(-14.885 93.782)" fill="#ba7863"/>
          <path id="Trazado_185563" data-name="Trazado 185563" d="M66.758,127.642a1.084,1.084,0,1,0,1.085-1.083,1.085,1.085,0,0,0-1.085,1.083" transform="translate(-58.989 91.733)" fill="#ba7863"/>
          <path id="Trazado_185564" data-name="Trazado 185564" d="M69.9,127.014a1.084,1.084,0,1,0,1.083-1.085,1.083,1.083,0,0,0-1.083,1.085" transform="translate(-67.554 91.277)" fill="#ba7863"/>
          <path id="Trazado_185565" data-name="Trazado 185565" d="M21.517,131.717c-.254,1.338-.564,3.12.688,4.081a1.225,1.225,0,0,0,1.471.117.97.97,0,0,0,.421-1.2.407.407,0,0,1,.7-.41,1.884,1.884,0,0,1-1.645,2.625c-1.409.085-2.439-1.325-2.625-2.584a8.5,8.5,0,0,1,.205-2.844c.1-.514.88-.3.783.216" transform="translate(64.771 95.103)" fill="#5f9a9b"/>
          <path id="Trazado_185566" data-name="Trazado 185566" d="M26.3,131.852a3.992,3.992,0,0,0-.093,3.432,2.34,2.34,0,0,0,2.392,1.232,1.64,1.64,0,0,0,1.216-.754l-.041.314q-.111-.548-.223-1.1c-.1-.511.68-.73.785-.216.052.254.1.507.154.761a.888.888,0,0,1-.041.761,2.341,2.341,0,0,1-.73.69,2.952,2.952,0,0,1-1.977.326,3.029,3.029,0,0,1-1.764-.928,3.792,3.792,0,0,1-.909-2.23,5.37,5.37,0,0,1,.53-2.7.41.41,0,0,1,.555-.145.414.414,0,0,1,.147.555" transform="translate(51.312 95.129)" fill="#5f9a9b"/>
          <path id="Trazado_185567" data-name="Trazado 185567" d="M31.694,131.867a2.275,2.275,0,0,0,3.839,2.4.408.408,0,0,1,.574,0,.414.414,0,0,1,0,.574,3.2,3.2,0,0,1-3.172,1.011,3.026,3.026,0,0,1-2.216-2.442,3.137,3.137,0,0,1,.273-1.956c.233-.469.935-.057.7.411" transform="translate(35.959 95.133)" fill="#5f9a9b"/>
          <path id="Trazado_185568" data-name="Trazado 185568" d="M51.314,130.613A3.213,3.213,0,0,0,50.709,132a1.944,1.944,0,0,0,.195,1.316,1.259,1.259,0,0,0,.178.243c.035.035.069.067.107.1-.059-.05.059.04.078.05.036.022.072.041.11.06.069.035.017.009,0,0,.022.009.045.017.069.024a1.537,1.537,0,0,0,.279.069c-.085-.014.047,0,.074,0,.048,0,.1,0,.147,0s.1-.005.147-.01c-.081.007.043-.007.072-.014a1.969,1.969,0,0,0,.279-.078c.017-.007.033-.014.05-.019.059-.024-.055.026,0,0s.095-.047.14-.074.088-.055.131-.085-.047.041,0,0c.021-.019.043-.036.064-.055s.06-.066.09-.1c.052-.053.007-.009,0,.005a.846.846,0,0,0,.053-.083c.016-.028.059-.129.029-.048a1.193,1.193,0,0,0,.041-.14c0-.014.014-.083.007-.028s0-.034,0-.047c0-.028-.014-.186,0-.1a.418.418,0,0,1,.285-.5.409.409,0,0,1,.5.285,1.47,1.47,0,0,1-.5,1.4,2.258,2.258,0,0,1-1.454.509,1.869,1.869,0,0,1-1.423-.614,2.584,2.584,0,0,1-.578-1.878,4.021,4.021,0,0,1,.869-2.149.406.406,0,0,1,.574,0,.417.417,0,0,1,0,.574" transform="translate(-14.77 94.169)" fill="#5f9a9b"/>
          <path id="Trazado_185569" data-name="Trazado 185569" d="M66.979,127.619a3.808,3.808,0,0,0-.209,3.029,1.561,1.561,0,0,0,.355.505,1.163,1.163,0,0,0,.11.1c.036.029.01.007,0,0,.022.017.047.033.071.048a2.379,2.379,0,0,0,.259.147.426.426,0,0,0,.079.033c.047.017.095.035.141.048a2.082,2.082,0,0,0,.29.067l.017,0a.4.4,0,0,0,.064.005c.048,0,.1.007.145.007s.083,0,.124,0c.017,0,.164-.017.1-.007a1.78,1.78,0,0,0,.31-.078s.062-.024.024-.009.05-.024.059-.028a1.3,1.3,0,0,0,.135-.078c.017-.01.033-.022.048-.033.055-.04-.064.06.024-.022.033-.029.066-.062.1-.095.007-.007.059-.069.031-.036s.024-.033.028-.04a1.849,1.849,0,0,0,.09-.162.407.407,0,1,1,.7.41,2.085,2.085,0,0,1-2.58.854,2.447,2.447,0,0,1-1.225-.892,3.214,3.214,0,0,1-.536-1.842,5.578,5.578,0,0,1,.464-2.147.419.419,0,0,1,.5-.285.41.41,0,0,1,.285.5" transform="translate(-58.411 92.128)" fill="#5f9a9b"/>
          <path id="Trazado_185570" data-name="Trazado 185570" d="M71.184,127.394a2.441,2.441,0,0,0-1.5,2.572,2.185,2.185,0,0,0,2.235,1.809,2.23,2.23,0,0,0,1.623-.623.407.407,0,0,1,.574.576,3.251,3.251,0,0,1-3.991.328,3.006,3.006,0,0,1-.914-3.877,3.049,3.049,0,0,1,1.758-1.57c.5-.167.709.619.216.785" transform="translate(-67.94 91.752)" fill="#5f9a9b"/>
          <path id="Trazado_185571" data-name="Trazado 185571" d="M34.808,70.567a49.208,49.208,0,0,1-4.293,21.685c-.768,1.727-1.589,3.429-2.284,5.185a34.01,34.01,0,0,0-1.564,5.3,37.97,37.97,0,0,1-1.416,5.431,35.385,35.385,0,0,1-2.423,4.871,56.222,56.222,0,0,0-2.8,5.533,46.9,46.9,0,0,0-2.07,5.9.406.406,0,0,1-.783-.216,48.136,48.136,0,0,1,4.172-10.235c.868-1.578,1.806-3.122,2.568-4.757a24.8,24.8,0,0,0,1.652-5.259,47.294,47.294,0,0,1,1.4-5.5c.605-1.73,1.364-3.4,2.123-5.068.766-1.682,1.516-3.369,2.141-5.111a47.857,47.857,0,0,0,1.559-5.294A47.773,47.773,0,0,0,34,70.567c-.019-.524.793-.523.812,0" transform="translate(60.659 50.864)" fill="#3a3143"/>
          <path id="Trazado_185572" data-name="Trazado 185572" d="M39.687,117.869q-1.012,2.605-2.025,5.211a.419.419,0,0,1-.5.283.408.408,0,0,1-.283-.5q1.012-2.6,2.023-5.209a.42.42,0,0,1,.5-.285.41.41,0,0,1,.285.5" transform="translate(21.801 85.062)" fill="#446b6b"/>
          <path id="Trazado_185573" data-name="Trazado 185573" d="M40.952,117.629a23.56,23.56,0,0,1-1.8,5.257c-.226.471-.926.059-.7-.412a22.7,22.7,0,0,0,1.721-5.061c.11-.512.9-.295.783.216" transform="translate(17.88 84.892)" fill="#446b6b"/>
          <path id="Trazado_185574" data-name="Trazado 185574" d="M42.35,117.131a22.357,22.357,0,0,1-1.792,5.528c-.224.473-.926.06-.7-.411a21.531,21.531,0,0,0,1.709-5.333c.095-.514.88-.3.785.216" transform="translate(14.055 84.53)" fill="#446b6b"/>
          <path id="Trazado_185575" data-name="Trazado 185575" d="M43.772,116.783a28.155,28.155,0,0,1-1.716,5.5.411.411,0,0,1-.557.147.419.419,0,0,1-.145-.557,27.265,27.265,0,0,0,1.633-5.3c.1-.514.888-.3.785.216" transform="translate(10.055 84.278)" fill="#446b6b"/>
          <path id="Trazado_185576" data-name="Trazado 185576" d="M45.149,116.051q-.719,2.908-1.44,5.816a.407.407,0,0,1-.785-.216q.722-2.908,1.44-5.816a.407.407,0,0,1,.785.216" transform="translate(5.908 83.75)" fill="#446b6b"/>
          <path id="Trazado_185577" data-name="Trazado 185577" d="M46.136,115.1q-.406,3.115-.811,6.23a.421.421,0,0,1-.407.407.409.409,0,0,1-.407-.407l.812-6.23a.42.42,0,0,1,.405-.407.41.41,0,0,1,.407.407" transform="translate(2.175 83.133)" fill="#446b6b"/>
          <path id="Trazado_185578" data-name="Trazado 185578" d="M38.573,118.683l-1.909,4.341a.408.408,0,0,1-.555.147.417.417,0,0,1-.147-.557l1.909-4.341a.407.407,0,0,1,.555-.145.415.415,0,0,1,.147.555" transform="translate(24.516 85.583)" fill="#446b6b"/>
          <path id="Trazado_185579" data-name="Trazado 185579" d="M58.5,114.5q-.132,2.595-.262,5.188c-.026.521-.84.523-.814,0l.264-5.188c.026-.521.838-.524.812,0" transform="translate(-32.467 82.709)" fill="#446b6b"/>
          <path id="Trazado_185580" data-name="Trazado 185580" d="M59.769,114.733a20.2,20.2,0,0,1-.185,5.09.411.411,0,0,1-.5.285.417.417,0,0,1-.285-.5,19.378,19.378,0,0,0,.157-4.874c-.048-.521.764-.517.812,0" transform="translate(-36.175 82.879)" fill="#446b6b"/>
          <path id="Trazado_185581" data-name="Trazado 185581" d="M61.208,114.748a19.822,19.822,0,0,1-.135,5.514.409.409,0,0,1-.5.285.417.417,0,0,1-.285-.5,19.2,19.2,0,0,0,.107-5.3.409.409,0,0,1,.405-.407.416.416,0,0,1,.405.407" transform="translate(-40.234 82.877)" fill="#446b6b"/>
          <path id="Trazado_185582" data-name="Trazado 185582" d="M62.486,114.636a18.052,18.052,0,0,1,.364,4.892c-.034.519-.847.523-.814,0a17.23,17.23,0,0,0-.335-4.676c-.107-.511.676-.728.785-.216" transform="translate(-44.21 82.879)" fill="#446b6b"/>
          <path id="Trazado_185583" data-name="Trazado 185583" d="M64.009,114.279a19.629,19.629,0,0,1,.157,5.514.419.419,0,0,1-.407.405.41.41,0,0,1-.407-.405,18.874,18.874,0,0,0-.126-5.3c-.088-.512.7-.731.783-.216" transform="translate(-48.249 82.619)" fill="#446b6b"/>
          <path id="Trazado_185584" data-name="Trazado 185584" d="M65.5,114.16a16.939,16.939,0,0,1-.005,5.394.408.408,0,0,1-.5.285.417.417,0,0,1-.285-.5,15.7,15.7,0,0,0,0-4.962.421.421,0,0,1,.285-.5.412.412,0,0,1,.5.285" transform="translate(-52.24 82.531)" fill="#446b6b"/>
          <path id="Trazado_185585" data-name="Trazado 185585" d="M73.25,27.314c-1.223,6.7-8.424,23.535-8.4,23.58,2.246-.31,3.084,1.37,3.955,3.524a9.971,9.971,0,0,1-.155,6.915,9.336,9.336,0,0,1-4.117,5.326,4.792,4.792,0,0,1-6.021-1.052,158,158,0,0,1-3.838,19.518,4.807,4.807,0,0,1-4.624,3.534c-3.926-.055-8.876-1.006-11.08-2.784a4.013,4.013,0,0,1-1.342-1.644,4.962,4.962,0,0,1-.059-2.441,74.771,74.771,0,0,1,2.059-9.557c-5.733-1.192-19.7-5.011-19.213-11.137.526-6.587,13.514-39.059,15.432-45.166,0,0,27.754,7.943,37.4,11.384" transform="translate(16.644 11.546)" fill="#cd8451"/>
          <path id="Trazado_185586" data-name="Trazado 185586" d="M34.626,48.616,45.57,51.508,33.541,53.224Z" transform="translate(21.66 35.238)" fill="#7f4e33"/>
          <path id="Trazado_185587" data-name="Trazado 185587" d="M30.525,40.282a9.345,9.345,0,0,0-1.461.835l-.152.109c-.028.021-.185.138-.074.053-.119.091-.235.186-.348.285q-.31.269-.6.564t-.55.614c-.005.009-.157.2-.059.071l-.112.15c-.081.11-.16.222-.236.336-.152.229-.295.464-.426.7-.072.133-.141.266-.207.4-.033.067-.064.135-.095.2-.014.029-.1.229-.036.081a.838.838,0,0,1-1,.567.822.822,0,0,1-.569-1,10.213,10.213,0,0,1,5.1-5.376.832.832,0,0,1,1.113.291.823.823,0,0,1-.291,1.113" transform="translate(51.813 28.111)" fill="#7f4e33"/>
          <path id="Trazado_185588" data-name="Trazado 185588" d="M28.358,43.1a3.313,3.313,0,0,0-.309-.293c-.048-.041-.14-.076.028.019a.9.9,0,0,1-.083-.059c-.053-.038-.11-.074-.167-.11-.122-.074-.248-.135-.378-.2-.09-.045.171.064.033.014l-.093-.036c-.071-.024-.143-.047-.216-.067s-.129-.036-.195-.05a.9.9,0,0,1-.221-.043c.022.016.185.021.067.01l-.1-.01c-.076-.005-.15-.01-.226-.01-.141,0-.285.022-.424.021.033,0,.179-.029.067-.009-.033.005-.067.01-.1.017-.083.016-.164.036-.245.059a.814.814,0,0,1-.433-1.57,4.239,4.239,0,0,1,4.143,1.164.814.814,0,0,1-1.15,1.15" transform="translate(52.607 29.458)" fill="#7f4e33"/>
          <path id="Trazado_185589" data-name="Trazado 185589" d="M32.308,40.263a2.437,2.437,0,0,0,2.77-2,2.437,2.437,0,0,0-1.449-3.093,2.437,2.437,0,0,0-2.77,2,2.437,2.437,0,0,0,1.449,3.093" transform="translate(36.85 25.452)"/>
          <path id="Trazado_185590" data-name="Trazado 185590" d="M42.909,36.647a2.437,2.437,0,0,0,2.77-2,2.437,2.437,0,0,0-1.449-3.093,2.437,2.437,0,0,0-2.77,2,2.437,2.437,0,0,0,1.449,3.093" transform="translate(7.964 22.831)"/>
          <path id="Trazado_185591" data-name="Trazado 185591" d="M43,42.471a4.61,4.61,0,0,1-6.159,1.989.82.82,0,0,1-.292-1.113.832.832,0,0,1,1.113-.291c.057.031.116.059.172.088.138.069-.078-.019.014.005.114.029.223.078.336.107s.207.048.312.067c.209.038-.174-.01.038,0,.053,0,.107.007.16.01.117.005.235.005.354,0l.16-.012c.1-.007.116-.014.007,0a4.161,4.161,0,0,0,.692-.166l.152-.055c.081-.029.114-.05.014,0,.109-.05.214-.1.317-.16s.2-.119.3-.186c.019-.012.166-.117.074-.05s.05-.041.067-.055c.09-.078.176-.157.257-.241.038-.038.074-.078.109-.117.019-.022.152-.191.035-.035a3.323,3.323,0,0,0,.362-.607.817.817,0,0,1,1.113-.291A.835.835,0,0,1,43,42.471" transform="translate(19.141 29.899)" fill="#7f4e33"/>
          <path id="Trazado_185592" data-name="Trazado 185592" d="M47.585,26.155a3.2,3.2,0,0,0-.309,1.625l-8.051-.214a7.524,7.524,0,0,1,7.72-1.925Z" transform="translate(9.841 18.317)"/>
          <path id="Trazado_185593" data-name="Trazado 185593" d="M27.383,28.445a3.211,3.211,0,0,1-.683,1.506q3.35,2.233,6.7,4.462a7.526,7.526,0,0,0-5.2-6.02Z" transform="translate(45.625 20.58)"/>
          <path id="Trazado_185594" data-name="Trazado 185594" d="M56.3,70.376a21.321,21.321,0,0,0-2.108,3.5c-.843,1.659-1.6,3.363-2.311,5.081-1.768,4.241-3.338,8.567-4.886,12.893s-3.049,8.659-4.642,12.964c-2.058,5.566-4.131,11.129-5.966,16.774A140.914,140.914,0,0,0,31.812,138.9c-.14.731-.269,1.464-.393,2.2-.086.516-.869.3-.783-.216a131.09,131.09,0,0,1,4.324-17.507c1.8-5.754,3.879-11.418,5.975-17.072,1.628-4.393,3.186-8.812,4.759-13.226s3.151-8.809,4.911-13.141c.747-1.842,1.525-3.672,2.387-5.464a29.553,29.553,0,0,1,2.191-3.938c.171-.252.352-.5.54-.733.323-.412.9.167.574.574" transform="translate(15.862 50.491)" fill="#3a3143"/>
          <path id="Trazado_185595" data-name="Trazado 185595" d="M55.82,63.58c-1,3.062-2.006,6.125-2.913,9.217q-.771,2.616-1.5,5.245a20.681,20.681,0,0,0-.983,6.287c.083,2.134.6,4.222.816,6.342a60.565,60.565,0,0,1,.2,6.549q-.034,6.621-.062,13.241l-.072,14.865a.406.406,0,0,1-.812,0q.065-13.309.128-26.619c.01-2.234.053-4.472-.085-6.7-.136-2.149-.593-4.247-.828-6.382a17.911,17.911,0,0,1,.516-6.284c.467-1.9,1.03-3.779,1.571-5.657,1-3.465,2.113-6.892,3.236-10.318.162-.5.949-.283.783.216" transform="translate(-16.355 45.724)" fill="#446b6b"/>
          <path id="Trazado_185596" data-name="Trazado 185596" d="M42.255,132.133V136.7a.406.406,0,0,1-.812,0v-4.567a.406.406,0,0,1,.812,0" transform="translate(11.345 95.489)" fill="#7f4e33"/>
          <path id="Trazado_185597" data-name="Trazado 185597" d="M44.367,132.008a9.858,9.858,0,0,1,.285,4.393.41.41,0,0,1-.5.285.416.416,0,0,1-.283-.5,8.929,8.929,0,0,0-.286-3.962.407.407,0,0,1,.785-.216" transform="translate(5.167 95.476)" fill="#7f4e33"/>
          <path id="Trazado_185598" data-name="Trazado 185598" d="M46.779,131.781a7.773,7.773,0,0,1,.342,3.965.409.409,0,0,1-.5.283.417.417,0,0,1-.285-.5A6.924,6.924,0,0,0,45.994,132a.412.412,0,0,1,.285-.5.416.416,0,0,1,.5.285" transform="translate(-1.452 95.301)" fill="#7f4e33"/>
          <path id="Trazado_185599" data-name="Trazado 185599" d="M59.187,130.207a18.068,18.068,0,0,0,.692,4.5.407.407,0,0,1-.785.216,18.977,18.977,0,0,1-.719-4.716.406.406,0,0,1,.812,0" transform="translate(-35.498 94.093)" fill="#7f4e33"/>
          <path id="Trazado_185600" data-name="Trazado 185600" d="M61.952,130.7q.264,2.693.53,5.387a.41.41,0,0,1-.407.407.417.417,0,0,1-.407-.407L61.14,130.7a.409.409,0,0,1,.405-.407.416.416,0,0,1,.407.407" transform="translate(-42.853 94.438)" fill="#7f4e33"/>
          <path id="Trazado_185601" data-name="Trazado 185601" d="M64.072,130.349q.5,2.054,1.011,4.108c.126.507-.659.724-.783.216q-.507-2.054-1.012-4.109c-.124-.507.659-.724.785-.216" transform="translate(-49.151 94.27)" fill="#7f4e33"/>
          <path id="Trazado_185602" data-name="Trazado 185602" d="M69.438,131.046a52.79,52.79,0,0,1-11.32-.89c-.512-.1-.295-.88.216-.783a51.891,51.891,0,0,0,11.1.861.406.406,0,0,1,0,.812" transform="translate(-44.489 93.767)" fill="#7f4e33"/>
          <path id="Trazado_185603" data-name="Trazado 185603" d="M50.924,133.712l-10.385-1.632c-.516-.081-.3-.864.216-.783l10.385,1.63c.516.081.3.866-.216.785" transform="translate(4.234 95.164)" fill="#7f4e33"/>
          <path id="Trazado_185604" data-name="Trazado 185604" d="M47.611,31.63a30.043,30.043,0,0,0-8.672,8.184A30.976,30.976,0,0,0,37.1,42.767q-.145-.556-.292-1.113a26.777,26.777,0,0,0,5.166,2.089.814.814,0,0,1-.433,1.568,28.834,28.834,0,0,1-5.554-2.253.827.827,0,0,1-.291-1.113,31.6,31.6,0,0,1,8.083-9.6,32.944,32.944,0,0,1,3.008-2.125c.892-.555,1.709.85.821,1.4" transform="translate(15.69 21.816)" fill="#7f4e33"/>
          <path id="Trazado_185605" data-name="Trazado 185605" d="M20.351,12.537a17.057,17.057,0,0,0,8.866,1.471,21.752,21.752,0,0,0,4.214.436,19.941,19.941,0,0,0,8.735-1.885,59.042,59.042,0,0,1,16.258,4.6,19.9,19.9,0,0,1,6.472,4.372c2.3,2.641.638-.395,1.858,2.941-.94-2.573.043,3.26-.105.885A22.718,22.718,0,0,0,69.917,35.8L59.1,52.6c-1.687.65-3.662-.5-4.457-2.125a8.3,8.3,0,0,1-.3-5.316,22.031,22.031,0,0,1,4.526-9.483,6.878,6.878,0,0,1-8.973-9.971c-2.506,4.29-9.937,4.115-12.238-.29a4.929,4.929,0,0,1-9.638,1.333c.721,3.068-2.956,5.8-6.042,5.154-3.619-.761-5.9-4.681-5.9-8.379s1.768-7.158,3.762-10.273a7.51,7.51,0,0,1,.519-.714" transform="translate(27.447 9.087)"/>
          <path id="Trazado_185606" data-name="Trazado 185606" d="M35.532,18.833c3.626,2.41,4.562,8.427,1.021,11.372a3.709,3.709,0,0,1-3.312.892,2.691,2.691,0,0,1-2.082-2.347,2.4,2.4,0,0,1,1.8-2.387,1.089,1.089,0,0,1,1.407.683,7.508,7.508,0,0,1,.421,1.709,8.461,8.461,0,0,1-2.627,7.312c-.693.631-1.728-.4-1.031-1.031a7.02,7.02,0,0,0,1.766-7.763c.171.169.34.34.511.509-.578-.09-.909.771-.714,1.2a1.565,1.565,0,0,0,1.564.759c1.394-.14,2.4-1.637,2.789-2.86A6.1,6.1,0,0,0,34.8,20.092c-.778-.517-.048-1.78.736-1.259" transform="translate(33.016 13.561)"/>
          <path id="Trazado_185607" data-name="Trazado 185607" d="M54.75,0,78.792,49.823,60.7,46.1,13.513,12.043,0,3.562Z" transform="translate(46.29 0)" fill="#3a3143"/>
          <path id="Trazado_185608" data-name="Trazado 185608" d="M72.085,62.149S55.237,41.221,41.439,34.322,10.49,18.975,10.49,18.975L37.989,5,41.78,6.9A104.691,104.691,0,0,1,71.571,29.179l1.69,1.815Z" transform="translate(33.728 3.624)" fill="#595167"/>
          <path id="Trazado_185609" data-name="Trazado 185609" d="M10.489,8.237s23.606,7.006,40.861,39.83l.783-17.074S37.558,13.624,16.861,5Z" transform="translate(54.858 3.624)" fill="#54415c"/>
          <path id="Trazado_185610" data-name="Trazado 185610" d="M4.552,80.923C-5.8,69.345,11.458,44.207,19.227,24.732S8.464,11.278,8.464,11.278" transform="translate(101.656 7.538)" fill="none" stroke="#fab74c" stroke-miterlimit="10" stroke-width="0.5"/>
          <path id="Trazado_185611" data-name="Trazado 185611" d="M11.134,59.263s-7.708-7.807-5.9-9.593,12.755,4.46,12.755,4.46L11.613,52.3l2.975,4.712-3.455-2.475Z" transform="translate(98.531 35.769)" fill="#fab74c"/>
          <path id="Trazado_185612" data-name="Trazado 185612" d="M41.3,130.345s18.973,15.523,20.7-3.45c.5-5.54-2.849-22.607-1.725-36.221,1.7-20.634,8.174-38.765,10.289-39.756,3.51-1.64,15.675-2.3,15.675-2.3S75.652,49.1,77.447,67.3s-2.194,71.963-12,76.844-25.558-.857-25.558-.857Z" transform="translate(-29.948 35.238)" fill="#f9b64b"/>
          <path id="Trazado_185613" data-name="Trazado 185613" d="M35.61,51.536s-12.672,58.318-12.519,64.917-1.666,22.609,2.692,27.54,11.958,16.952,14.2,15.254,7.582-5.88,7.582-5.88S32.491,139.307,33.9,130.317,53.7,63.1,45.372,58.578s-9.763-7.042-9.763-7.042" transform="translate(38.125 37.355)" fill="#f9b64b"/>
        </g>
      </g>
    </g>
  </g>
</svg>
