<svg xmlns="http://www.w3.org/2000/svg" xmlns:xlink="http://www.w3.org/1999/xlink" width="505" height="381.021" viewBox="0 0 505 381.021">
  <defs>
    <clipPath id="clip-path">
      <rect id="Rectángulo_45678" data-name="Rectángulo 45678" width="405.785" height="353.962" fill="none"/>
    </clipPath>
    <clipPath id="clip-path-3">
      <rect id="Rectángulo_45676" data-name="Rectángulo 45676" width="40.775" height="18.6" fill="none"/>
    </clipPath>
  </defs>
  <g id="Grupo_175495" data-name="Grupo 175495" transform="translate(-180 -4851.334)">
    <rect id="Rectángulo_45646" data-name="Rectángulo 45646" width="505" height="299" rx="17" transform="translate(180 4908)" fill="#f0f4ff"/>
    <g id="Grupo_170552" data-name="Grupo 170552" transform="translate(233 4851.334)">
      <path id="Trazado_162003" data-name="Trazado 162003" d="M105.7,336.859c27.018-10.811,55.037-25.4,65.919-49.792,12.076-27.073-.564-57.392-.261-86.494.241-23.054,8.689-45.318,15.335-67.611s11.528-45.98,4.67-68.223c-4.591-14.89-14.342-28.363-26.93-39.054C142.261,6.861,110.322-3.326,79.976.979S22.061,24.9,13.19,50.925C.621,87.793,25.173,127.15,19.955,165.38c-2.041,14.959-8.576,29.105-13.007,43.655A159.441,159.441,0,0,0,0,256.53c.166,24.54,7.2,50.723,27.9,67.065C48.785,340.08,79.86,347.2,105.7,336.859Z" transform="matrix(0.719, 0.695, -0.695, 0.719, 249.128, 0)" fill="#c4d1ff"/>
    </g>
    <g id="Grupo_175578" data-name="Grupo 175578" transform="translate(233 4873.416)">
      <g id="Grupo_175577" data-name="Grupo 175577" clip-path="url(#clip-path)">
        <g id="Grupo_175576" data-name="Grupo 175576">
          <g id="Grupo_175575" data-name="Grupo 175575" clip-path="url(#clip-path)">
            <path id="Trazado_185820" data-name="Trazado 185820" d="M93.48,273.073c28.348,10.855,60.217,19.718,86.288,9.878,28.937-10.922,41.546-41.094,63.059-61.527,17.043-16.187,39.716-26.186,61.048-37.442S346.224,159.273,357.3,138.8c7.416-13.709,9.891-29.951,8.187-46.164C362.48,64.078,345.766,34.955,319.658,17.2S258.346-5.537,232.6,6.84c-36.472,17.533-46.679,62.281-78.586,85.819-12.484,9.211-27.774,14.764-41.767,22.046a166.929,166.929,0,0,0-39.992,28.924c-17.821,17.52-31.647,40.913-27.938,66.7,3.746,26.012,22.049,52.366,49.162,62.748" transform="translate(-37.521 39.028)" fill="#c4d1ff"/>
            <path id="Trazado_185821" data-name="Trazado 185821" d="M105.775,195.016,93.31,319.322H18.853C27.035,297.7,50,237.309,57.137,221.865c8.728-18.91,25.7-20.365,25.7-20.365,5.708-2.717,14.029-4.837,22.941-6.484" transform="translate(0.986 10.195)" fill="#c8682c"/>
            <path id="Trazado_185822" data-name="Trazado 185822" d="M300.3,319.283h-95.77v-123.5a173.461,173.461,0,0,1,18.819,5.273s18.03,5.253,28.213,22.708c7.818,13.4,36.052,69.982,48.738,95.518" transform="translate(10.692 10.235)" fill="#c8682c"/>
            <path id="Trazado_185823" data-name="Trazado 185823" d="M237.662,319.587H79.656V201.764c5.708-2.717,14.031-4.84,22.94-6.484,21.334-3.95,45.992-5.156,45.992-5.156a238.177,238.177,0,0,1,62.466,5.959,173.465,173.465,0,0,1,18.819,5.273l4.464,67.71,1.2,18.374Z" transform="translate(4.164 9.93)" fill="#c8682c"/>
            <path id="Trazado_185824" data-name="Trazado 185824" d="M353.765,218.509l-.154,6.96-2.1,92.776H306.377c5.071-15.109,24.208-72.553,29.209-94.536.931-4.08,1.376-6.935,1.146-8.072Z" transform="translate(16.016 11.273)" fill="#cd8451"/>
            <path id="Trazado_185825" data-name="Trazado 185825" d="M393.321,314.738H1.236a1.547,1.547,0,0,1,0-3.031H393.32a1.547,1.547,0,0,1,0,3.031Z" transform="translate(0 16.295)" fill="#6a2810"/>
            <path id="Trazado_185826" data-name="Trazado 185826" d="M63.094,294.692c16.66.366,29.372,19.613,12.392,42.614a3.157,3.157,0,0,1-5.668-1.639,18.091,18.091,0,0,1,.305-5.041s-4.3,4.882-7.03-.2c0,0-1.757,4.3-6.64.586,0,0-1.95,5.468-7.615,2.148s-11.132-21.869-5.469-31.051,19.725-7.421,19.725-7.421" transform="translate(2.142 15.398)" fill="#cd8451"/>
            <path id="Trazado_185827" data-name="Trazado 185827" d="M56.014,331.427a1.221,1.221,0,0,1-1.032-.567c-5.2-8.192-5.64-19.094-5.656-19.552a1.22,1.22,0,0,1,2.438-.115v.029c0,.106.445,10.71,5.279,18.334a1.221,1.221,0,0,1-1.03,1.874Z" transform="translate(2.579 16.207)" fill="#7f4e33"/>
            <path id="Trazado_185828" data-name="Trazado 185828" d="M62.116,330.985a1.222,1.222,0,0,1-1.2-.982,71.7,71.7,0,0,1-.852-21.695,1.22,1.22,0,0,1,2.417.339,70.578,70.578,0,0,0,.83,20.879,1.222,1.222,0,0,1-.959,1.436,1.16,1.16,0,0,1-.241.022" transform="translate(3.116 16.063)" fill="#7f4e33"/>
            <path id="Trazado_185829" data-name="Trazado 185829" d="M68.737,331.151a1.222,1.222,0,0,1-1.091-1.767c3.112-6.224,1.272-20.046,1.25-20.185a1.22,1.22,0,0,1,2.418-.33c.084.593,1.965,14.709-1.485,21.607a1.218,1.218,0,0,1-1.092.675" transform="translate(3.53 16.092)" fill="#7f4e33"/>
            <path id="Trazado_185830" data-name="Trazado 185830" d="M235.54,283.514A463.711,463.711,0,0,1,132.91,295.382a358.735,358.735,0,0,1-53.255-3.737V273.171c24.142,3.807,81,9.111,154.685-8.031Z" transform="translate(4.164 13.861)" fill="#873d15"/>
            <path id="Trazado_185831" data-name="Trazado 185831" d="M386.93,202.026c-4.112,7.592-16.632,11.9-21.762,12.314s-12.451,2.863-12.519,5.951l-.154,6.961-18.024-1.762c.931-4.079,1.376-6.935,1.146-8.072,0,0-.206-6.977-5.541-15.6s-.616-16.623,3.488-12.929,4.1,11.491,8.824,12.109,13.955-2.873,21.754-9.03,13.544-14.57,17.032-8c0,0,7.592-1.026,5.335,7.593,0,0,4.533,2.874.421,10.466" transform="translate(17.131 9.492)" fill="#cd8451"/>
            <path id="Trazado_185832" data-name="Trazado 185832" d="M359.08,203.662a1.283,1.283,0,0,1-.364-2.512c17.681-5.246,19.6-17.3,19.615-17.421a1.283,1.283,0,0,1,2.54.363c-.081.561-2.185,13.806-21.426,19.517a1.268,1.268,0,0,1-.365.054" transform="translate(18.704 9.549)" fill="#7f4e33"/>
            <path id="Trazado_185833" data-name="Trazado 185833" d="M365.711,206.568a1.283,1.283,0,0,1-.155-2.556c12.432-1.53,17.815-13.288,17.862-13.407a1.283,1.283,0,0,1,2.344,1.04c-.237.535-5.994,13.2-19.9,14.915a1.569,1.569,0,0,1-.157.008" transform="translate(19.051 9.926)" fill="#7f4e33"/>
            <path id="Trazado_185834" data-name="Trazado 185834" d="M79.731,317.953a1.515,1.515,0,0,1-1.514-1.515V251.71a1.516,1.516,0,1,1,3.032,0v64.728a1.516,1.516,0,0,1-1.517,1.515" transform="translate(4.089 13.079)" fill="#6a2810"/>
            <path id="Trazado_185835" data-name="Trazado 185835" d="M230.126,318.387a1.515,1.515,0,0,1-1.51-1.415l-4.84-73.519a1.516,1.516,0,1,1,3.025-.2l4.84,73.519a1.517,1.517,0,0,1-1.413,1.612Z" transform="translate(11.698 12.642)" fill="#873d15"/>
            <path id="Trazado_185836" data-name="Trazado 185836" d="M99.465,81.964c-7.875,8.67,1.93,51.393,2.894,58.455.628,4.6,1.269,9.247,3.016,13.6,4.511,11.235,16.829,19.438,29.856,19.882a175.088,175.088,0,0,0-17.171-64.905Z" transform="translate(5.041 4.285)" fill="#ccccca"/>
            <path id="Trazado_185837" data-name="Trazado 185837" d="M198.823,82.675c.5,25.682,8.71,37.391,11.3,62.938,3.439,33.9-34.8,30.058-34.8,30.058-3.464,1.5.232,13.482.783,21.185q.062.848.152,1.7c1.252,11.844-6.743,22.592-18.132,24.243l-4.286.622c-12.155,1.763-23.215-7.5-24.1-20.182q-1.555-22.336-1.149-44.756c-8.094,6.972-22.4,4.854-27.016-4.95s4.51-23.622,14.822-21.429a258.887,258.887,0,0,1-5.955-54.863c0-1.458.072-3.079,1.068-4.108,1.029-1.063,3.556.325,4.106-1.067,11.2-28.327,42.213-49.745,84.4,1.838Z" transform="translate(5.246 2.226)" fill="#cd8451"/>
            <path id="Trazado_185838" data-name="Trazado 185838" d="M110.878,131.938a21.1,21.1,0,0,1,10.769,13.079,1.481,1.481,0,0,1-2.847.813,18.108,18.108,0,0,0-9.413-11.25,1.575,1.575,0,0,1-.529-2.093,1.48,1.48,0,0,1,2.02-.549" transform="translate(5.681 6.888)" fill="#7f4e33"/>
            <path id="Trazado_185839" data-name="Trazado 185839" d="M111.449,141.57l4.145-2.48a1.468,1.468,0,0,1,2.02.549,1.59,1.59,0,0,1-.529,2.094l-4.146,2.479a1.467,1.467,0,0,1-2.02-.549,1.59,1.59,0,0,1,.53-2.093" transform="translate(5.789 7.261)" fill="#7f4e33"/>
            <path id="Trazado_185840" data-name="Trazado 185840" d="M149.018,124.89c-2.034.126-3.8-1.833-3.95-4.376s1.382-4.708,3.416-4.835,3.8,1.833,3.95,4.376-1.382,4.708-3.416,4.835" transform="translate(7.583 6.047)"/>
            <path id="Trazado_185841" data-name="Trazado 185841" d="M186.56,122.686c-2.034.126-3.8-1.833-3.95-4.376s1.382-4.708,3.416-4.835,3.8,1.833,3.95,4.376-1.382,4.709-3.416,4.835" transform="translate(9.546 5.932)"/>
            <path id="Trazado_185842" data-name="Trazado 185842" d="M151.964,94.932a1.266,1.266,0,0,1,.885,1.965,3.922,3.922,0,0,1-1.237,1.2,9.246,9.246,0,0,1-3.426,1.015l-9.945,1.583a1.546,1.546,0,0,1,.7-1.066,23.24,23.24,0,0,1,9.956-4.783,4.937,4.937,0,0,1,3.065.09" transform="translate(7.227 4.948)"/>
            <path id="Trazado_185843" data-name="Trazado 185843" d="M181.477,89.941a1.242,1.242,0,0,0-1.409,1.6,4.044,4.044,0,0,0,.84,1.522,9.46,9.46,0,0,0,2.98,2.025l9.043,4.572a1.587,1.587,0,0,0-.366-1.233,23.931,23.931,0,0,0-8.135-7.632,4.984,4.984,0,0,0-2.953-.857" transform="translate(9.41 4.7)"/>
            <g id="Grupo_175574" data-name="Grupo 175574" transform="translate(140.034 172.409)" opacity="0.3">
              <g id="Grupo_175573" data-name="Grupo 175573">
                <g id="Grupo_175572" data-name="Grupo 175572" clip-path="url(#clip-path-3)">
                  <path id="Trazado_185844" data-name="Trazado 185844" d="M173.852,169.161l-40.775-5.316,40.092,18.6Z" transform="translate(-133.077 -163.844)" fill="#a46e4a"/>
                </g>
              </g>
            </g>
            <path id="Trazado_185845" data-name="Trazado 185845" d="M177.946,151.932a19.622,19.622,0,0,1-14.3-5.987c-1.35-1.391.738-3.555,2.088-2.163a16.676,16.676,0,0,0,12.21,5.091c1.9-.032,1.9,3.028,0,3.06" transform="translate(8.532 7.493)" fill="#7f4e33"/>
            <path id="Trazado_185846" data-name="Trazado 185846" d="M175.081,121.618c-.529-9.122,6.2-16.991,15.009-17.539s16.4,6.428,16.927,15.551-6.2,16.99-15.008,17.538c-.325.02-.649.029-.97.029a16.271,16.271,0,0,1-15.958-15.579M190.3,107.643a12.506,12.506,0,1,0,.762-.024c-.253,0-.507.008-.762.024" transform="translate(9.151 5.439)" fill="#fff"/>
            <path id="Trazado_185847" data-name="Trazado 185847" d="M137.262,123.973c-.529-9.122,6.2-16.991,15.009-17.539s16.4,6.427,16.927,15.549-6.2,16.991-15.008,17.539c-.325.02-.649.031-.97.031a16.272,16.272,0,0,1-15.958-15.58M152.477,110A12.863,12.863,0,0,0,140.7,123.758a12.726,12.726,0,0,0,13.281,12.2,13.026,13.026,0,0,0-.744-25.985q-.379,0-.762.024" transform="translate(7.174 5.562)" fill="#fff"/>
            <path id="Trazado_185848" data-name="Trazado 185848" d="M175.853,120.831c-.927-1.307-2.876-1.364-4.289-1.408a5.752,5.752,0,0,0-2.818.421,2.326,2.326,0,0,0-1.342,1.726c-.09.971-1.568.981-1.476,0a3.788,3.788,0,0,1,1.647-2.784,6.1,6.1,0,0,1,3.634-.9c2.136.02,4.555.25,5.92,2.173a.787.787,0,0,1-.265,1.047.74.74,0,0,1-1.01-.275" transform="translate(8.674 6.163)" fill="#fff"/>
            <path id="Trazado_185849" data-name="Trazado 185849" d="M198.3,108.552,194.432,87.6c-1.132-6.135-2.378-12.536-6.138-17.416-3.63-4.713-9.11-7.372-14.1-10.469a13.466,13.466,0,0,1-4.688-4.167c-1.1-1.824-1.332-4.388,0-6.043a6.314,6.314,0,0,1,3.947-1.946c11.859-2.12,23.176,8.013,27.132,19.789s2.393,24.678.784,37.036c-.184,1.416-1.46,3.3-2.456,2.309Z" transform="translate(8.813 2.471)" fill="#ccccca"/>
            <path id="Trazado_185850" data-name="Trazado 185850" d="M115.374,130.027a46.93,46.93,0,0,1,10.345,6.837c2.191-18.4-4.422-37.044-2.062-55.42a12.227,12.227,0,0,1,1.144-4.266c1.487-2.761,4.613-4.054,6.761-6.3,3.867-4.042,4.021-10.4,3.929-16.089-.037-2.338-.34-5.139-2.358-6.186a5.478,5.478,0,0,0-3.295-.286C113.573,50.6,109.271,70.38,99.368,83.942c-3.733,5.112,1.274,29.089,6.032,50.221A17.477,17.477,0,0,1,118.26,130.9Z" transform="translate(5.127 2.52)" fill="#ccccca"/>
            <path id="Trazado_185851" data-name="Trazado 185851" d="M170.148,114.356a28.211,28.211,0,0,1,11.615,19.059,27.777,27.777,0,0,1,.185,6.582c-.073.748-.621,1.632-1.476,1.53L168.8,140.133a1.551,1.551,0,0,1-1.476-1.531c0-.753.679-1.625,1.476-1.529l11.669,1.393q-.739.764-1.476,1.53a25.689,25.689,0,0,0-6.061-19.134A23.046,23.046,0,0,0,168.657,117a1.6,1.6,0,0,1-.529-2.093,1.463,1.463,0,0,1,2.02-.549" transform="translate(8.747 5.967)" fill="#7f4e33"/>
            <path id="Trazado_185852" data-name="Trazado 185852" d="M180.943,82.481A153.594,153.594,0,0,1,157.48,87.2q-3.417.414-6.849.671c-.948.072-.944-1.458,0-1.53a151.687,151.687,0,0,0,29.92-5.335c.918-.26,1.309,1.215.392,1.475" transform="translate(7.837 4.233)" fill="#7f4e33"/>
            <path id="Trazado_185853" data-name="Trazado 185853" d="M177.868,77.283a182.462,182.462,0,0,1-27.223,4.782c-.945.094-.939-1.437,0-1.53a179.851,179.851,0,0,0,26.831-4.727.765.765,0,0,1,.393,1.475" transform="translate(7.838 3.962)" fill="#7f4e33"/>
            <path id="Trazado_185854" data-name="Trazado 185854" d="M162.584,140.556a32.542,32.542,0,0,0-5.494,9.346.758.758,0,0,1-.908.535.774.774,0,0,1-.516-.941,34.69,34.69,0,0,1,5.874-10.022c.625-.744,1.666.342,1.044,1.082" transform="translate(8.136 7.278)" fill="#7f4e33"/>
            <path id="Trazado_185855" data-name="Trazado 185855" d="M181.846,142.884q1.507,3.125,3.017,6.249a.8.8,0,0,1-.265,1.047.732.732,0,0,1-1.01-.275l-3.017-6.249a.8.8,0,0,1,.265-1.047.731.731,0,0,1,1.01.275" transform="translate(9.435 7.45)" fill="#7f4e33"/>
            <path id="Trazado_185856" data-name="Trazado 185856" d="M140.3,125.085a103.46,103.46,0,0,0-19.175,5.063c-.9.331-1.283-1.146-.394-1.475A103.515,103.515,0,0,1,139.9,123.61c.929-.152,1.33,1.322.393,1.475" transform="translate(6.285 6.461)" fill="#fff"/>
          </g>
        </g>
      </g>
    </g>
  </g>
</svg>
